<?xml version="1.0" encoding="UTF-8"?>
<svg id="Layer_2" xmlns="http://www.w3.org/2000/svg" viewBox="0 0 467.62 72">
  <defs>
    <style>
      .cls-1 {
        fill: #67ecbc;
        stroke-miterlimit: 10;
        stroke-width: 3px;
      }

      .cls-1, .cls-2 {
        stroke: #161d33;
        stroke-linecap: round;
      }

      .cls-3 {
        fill: #161d33;
      }

      .cls-4 {
        fill: #8a5fb1;
      }

      .cls-5 {
        fill: #fdfdfd;
      }

      .cls-2 {
        fill: none;
        stroke-linejoin: round;
        stroke-width: 4.97px;
      }
    </style>
  </defs>
  <g id="Layer_2-2" data-name="Layer_2">
    <g>
      <g>
        <rect class="cls-4" x="4.76" y="6.53" width="50.82" height="65.47" rx="19.22" ry="19.22"/>
        <rect class="cls-1" x="1.5" y="1.5" width="50.82" height="65.47" rx="19.22" ry="19.22"/>
        <g>
          <path class="cls-3" d="M46.76,38.36c-3.31-.8-6.62-.66-9.92-.72-.84-.02-1.75-.02-2.68-.03,3.73-3.63,7.49-7.2,10.38-11.6,1.31-1.98-1.09-4.41-3.09-3.09-4.07,2.68-7.43,6.1-10.79,9.55.01-.37.03-.74.04-1.11.14-6.68.22-13.3-1.6-19.85-.59-2.17-3.77-2.19-4.37,0-1.82,6.55-1.74,13.16-1.6,19.85,0,.03,0,.06,0,.08-3.23-3.33-6.63-6.48-10.56-9.04-.7-.43-1.62-.47-2.37,0-1.05.65-1.38,2.04-.72,3.09,1.54,2.48,3.38,4.66,5.31,6.74,1.8,1.87,3.65,3.69,5.52,5.49-1.16.02-2.28.04-3.32.06-3.31.06-6.62.06-9.92.57-.93.14-1.71.87-1.85,1.85-.18,1.21.65,2.34,1.85,2.52,3.31.5,6.62.51,9.92.57,1.1.02,2.29.04,3.54.06-.9,1.04-1.79,2.08-2.67,3.15-1.67,2.03,1.05,4.76,3.09,3.09,1.08-.89,2.14-1.79,3.19-2.71.17,1.46.36,2.9.59,4.31.39,2.43,3.97,2.45,4.37,0,.26-1.57.47-3.18.65-4.81,1.26,1.09,2.53,2.16,3.84,3.2.78.63,1.92.65,2.74,0,.95-.76,1.11-2.14.35-3.09-.82-1.03-1.66-2.03-2.51-3.03.93,0,1.83-.02,2.66-.03,3.31-.06,6.62.08,9.92-.72.79-.19,1.45-.81,1.66-1.66.29-1.21-.45-2.42-1.66-2.72Z"/>
          <circle class="cls-3" cx="26.89" cy="57.13" r="2.6"/>
        </g>
      </g>
      <g>
        <path class="cls-4" d="M465.17,24.73l2.45-15.39h-.07v-.06s-.06,0-.06,0v-.06s-.06,0-.06,0v-.06s-.06,0-.06,0v-.06s-.06,0-.06,0v-.06s-.06,0-.06,0v-.06s-.06,0-.06,0v-.06s-.06,0-.06,0v-.06s-.06,0-.06,0v-.06s-.06,0-.06,0v-.06s-.06,0-.06,0v-.06s-.06,0-.06,0v-.06s-.06,0-.06,0v-.06s-.06,0-.06,0v-.06s-.06,0-.06,0v-.06s-.06,0-.06,0v-.06s-.06,0-.06,0v-.06s-.06,0-.06,0v-.06s-.06,0-.06,0v-.06s-.06,0-.06,0v-.06s-.06,0-.06,0v-.06s-.06,0-.06,0v-.06s-.06,0-.06,0v-.06s-.06,0-.06,0v-.06s-.06,0-.06,0v-.06s-.06,0-.06,0v-.06s-.06,0-.06,0v-.06s-.06,0-.06,0v-.06s-.06,0-.06,0v-.06s-.06,0-.06,0v-.06s-.06,0-.06,0v-.06s-.06,0-.06,0v-.06s-.06,0-.06,0v-.06s-.06,0-.06,0v-.06s-.06,0-.06,0v-.06s-.06,0-.06,0v-.06s-.06,0-.06,0v-.06s-.06,0-.06,0v-.06s-.06,0-.06,0v-.06s-.06,0-.06,0v-.06s-.06,0-.06,0v-.06s-.06,0-.06,0v-.06s-.06,0-.06,0v-.06s-.06,0-.06,0v-.06s-.06,0-.06,0v-.06s-.06,0-.06,0v-.06s-.06,0-.06,0v-.06s-.06,0-.06,0v-.06s-.06,0-.06,0v-.06s-.06,0-.06,0v-.06s-.06,0-.06,0v-.06s-.06,0-.06,0v-.06s-.06,0-.06,0v-.06s-.06,0-.06,0v-.06s-.06,0-.06,0v-.06s-.06,0-.06,0v-.06s-.06,0-.06,0v-.06s-.06,0-.06,0v-.06s-.06,0-.06,0v-.06s-.06,0-.06,0v-.06s-.06,0-.06,0v-.06s-.06,0-.06,0v-.06s-.06,0-.06,0v-.06s-.06,0-.06,0v-.06s-.06,0-.06,0v-.06s-.06,0-.06,0v-.06s-.06,0-.06,0v-.06s-.06,0-.06,0v-.06s-.06,0-.06,0v-.06s-.06,0-.06,0v-.06s-.06,0-.06,0v-.06s-.06,0-.06,0v-.06s-.06,0-.06,0v-.06s-.06,0-.06,0v-.06s-.06,0-.06,0v-.06s-.06,0-.06,0v-.06s-.06,0-.06,0v-.06s-.06,0-.06,0v-.06s-.06,0-.06,0v-.06s-.06,0-.06,0v-.06s-.06,0-.06,0v-.06s-.06,0-.06,0v-.06s-.06,0-.06,0v-.06s-.06,0-.06,0v-.06s-.06,0-.06,0v-.06s-.06,0-.06,0v-.06s-.06,0-.06,0v-.06s-.06,0-.06,0v-.06s-.06,0-.06,0v-.06s-.06,0-.06,0v-.06s-.06,0-.06,0v-.06s-.06,0-.06,0v-.06s-.06,0-.06,0v-.06s-.06,0-.06,0v-.06s-.06,0-.06,0v-.06s-.06,0-.06,0v-.06s-.06,0-.06,0v-.06s-.06,0-.06,0v-.06s-.06,0-.06,0v-.06s-.06,0-.06,0v-.06s-.06,0-.06,0v-.06s-34.8,0-34.8,0l-5.63,60.22-4.86-54.02h-.06v-.06h-.06v-.06h-.06v-.06h-.06v-.06h-.06v-.06h-.06v-.06h-.06v-.06h-.06v-.06h-.06v-.06h-.06v-.06h-.06v-.06h-.06v-.06h-.06v-.06h-.06v-.06h-.06v-.06h-.06v-.06h-.06v-.06h-.06v-.06h-.06v-.06h-.06v-.06h-.06v-.06h-.06v-.06h-.06v-.06h-.06v-.06h-.06v-.06h-.06v-.06h-.06v-.06h-.06v-.06h-.06v-.06h-.06v-.06h-.06v-.06h-.06v-.06h-.06v-.06h-.06v-.06h-.06v-.06h-.06v-.06h-.06v-.06h-.06v-.06h-.06v-.06h-.06v-.06h-.06v-.06h-.06v-.06h-.06v-.06h-.06v-.06h-.06v-.06h-.06v-.06h-.06v-.06h-.06v-.06h-.06v-.06h-.06v-.06h-.06v-.06h-.06v-.06h-.06v-.06h-.06v-.06h-.06v-.06h-.06v-.06h-.06v-.06h-.06v-.06h-.06v-.06h-.06v-.06h-.06v-.06h-.06v-.06h-.06v-.06h-.06v-.06h-.06v-.06h-.06v-.06h-.06v-.06h-.06v-.06h-.06v-.06h-.06v-.06h-.06v-.06h-.06v-.06h-.06v-.06h-.06v-.06h-.06v-.06h-.06v-.06h-.06v-.06h-.06v-.06h-.06v-.06h-.06v-.06h-.06v-.06h-.06v-.06h-.06v-.06h-.06v-.06h-.06v-.06h-.06v-.06h-.06v-.06h-.06v-.06h-.06v-.06h-.06v-.06h-.06v-.06h-.06v-.06h-.06v-.06h-.06v-.06h-.06v-.06h-.06v-.06h-.06v-.06h-.06v-.06h-.06v-.06h-.06v-.06h-.06v-.06h-25.56l-14.46,52.19h0v-.06s-.06,0-.06,0v-.06s-.06,0-.06,0v-.06s-.06,0-.06,0v-.06s-.06,0-.06,0v-.06s-.06,0-.06,0v-.06s-.06,0-.06,0v-.06s-.06,0-.06,0v-.06s-.06,0-.06,0v-.06s-.06,0-.06,0v-.06s-.06,0-.06,0v-.06s-.06,0-.06,0v-.06s-.06,0-.06,0v-.06s-.06,0-.06,0v-.06s-.06,0-.06,0v-.06s-.06,0-.06,0v-.06s-.06,0-.06,0v-.06s-.06,0-.06,0v-.06s-.06,0-.06,0v-.06s-.06,0-.06,0v-.06s-.06,0-.06,0v-.06s-.06,0-.06,0v-.06s-.06,0-.06,0v-.06s-.06,0-.06,0v-.06s-.06,0-.06,0v-.06s-.06,0-.06,0v-.06s-.06,0-.06,0v-.06s-.06,0-.06,0v-.06s-.06,0-.06,0v-.06s-.06,0-.06,0v-.06s-.06,0-.06,0v-.06s-.06,0-.06,0v-.06s-.06,0-.06,0v-.06s-.06,0-.06,0v-.06s-.06,0-.06,0v-.06s-.06,0-.06,0v-.06s-.06,0-.06,0v-.06s-.06,0-.06,0v-.06s-.06,0-.06,0v-.06s-.06,0-.06,0v-.06s-.06,0-.06,0v-.06s-.06,0-.06,0v-.06s-.06,0-.06,0v-.06s-.06,0-.06,0v-.06s-.06,0-.06,0v-.06s-.06,0-.06,0v-.06s-.06,0-.06,0v-.06s-.06,0-.06,0v-.06s-.06,0-.06,0v-.06s-.06,0-.06,0v-.06s-.06,0-.06,0v-.06s-.06,0-.06,0v-.06s-.06,0-.06,0v-.06s-.06,0-.06,0v-.06s-.06,0-.06,0v-.06s-.06,0-.06,0v-.06s-.06,0-.06,0v-.06s-.06,0-.06,0v-.06s-.06,0-.06,0v-.06s-.06,0-.06,0v-.06s-.06,0-.06,0v-.06s-.06,0-.06,0v-.06s-10.81,0-10.81,0l.39-4.16h14.39l1.24-13.28h-.07v-.06s-.06,0-.06,0v-.06s-.06,0-.06,0v-.06s-.06,0-.06,0v-.06s-.06,0-.06,0v-.06s-.06,0-.06,0v-.06s-.06,0-.06,0v-.06s-.06,0-.06,0v-.06s-.06,0-.06,0v-.06s-.06,0-.06,0v-.06s-.06,0-.06,0v-.06s-.06,0-.06,0v-.06s-.06,0-.06,0v-.06s-.06,0-.06,0v-.06s-.06,0-.06,0v-.06s-.06,0-.06,0v-.06s-.06,0-.06,0v-.06s-.06,0-.06,0v-.06s-.06,0-.06,0v-.06s-.06,0-.06,0v-.06s-.06,0-.06,0v-.06s-.06,0-.06,0v-.06s-.06,0-.06,0v-.06s-.06,0-.06,0v-.06s-.06,0-.06,0v-.06s-.06,0-.06,0v-.06s-.06,0-.06,0v-.06s-.06,0-.06,0v-.06s-.06,0-.06,0v-.06s-.06,0-.06,0v-.06s-.06,0-.06,0v-.06s-.06,0-.06,0v-.06s-.06,0-.06,0v-.06s-.06,0-.06,0v-.06s-.06,0-.06,0v-.06s-.06,0-.06,0v-.06s-.06,0-.06,0v-.06s-.06,0-.06,0v-.06s-.06,0-.06,0v-.06s-.06,0-.06,0v-.06s-.06,0-.06,0v-.06s-.06,0-.06,0v-.06s-.06,0-.06,0v-.06s-.06,0-.06,0v-.06s-.06,0-.06,0v-.06s-.06,0-.06,0v-.06s-.06,0-.06,0v-.06s-.06,0-.06,0v-.06s-.06,0-.06,0v-.06s-.06,0-.06,0v-.06s-.06,0-.06,0v-.06s-.06,0-.06,0v-.06s-.06,0-.06,0v-.06s-.06,0-.06,0v-.06s-.06,0-.06,0v-.06s-.06,0-.06,0v-.06s-.06,0-.06,0v-.06s-.06,0-.06,0v-.06s-.06,0-.06,0v-.06s-.06,0-.06,0v-.06s-.06,0-.06,0v-.06s-.06,0-.06,0v-.06s-.06,0-.06,0v-.06s-.06,0-.06,0v-.06s-.06,0-.06,0v-.06s-.06,0-.06,0v-.06s-.06,0-.06,0v-.06s-.06,0-.06,0v-.06s-.06,0-.06,0v-.06s-.06,0-.06,0v-.06s-.06,0-.06,0v-.06s-.06,0-.06,0v-.06s-.06,0-.06,0v-.06s-.06,0-.06,0v-.06s-.06,0-.06,0v-.06s-.06,0-.06,0v-.06s-.06,0-.06,0v-.06s-.06,0-.06,0v-.06s-.06,0-.06,0v-.06s-.06,0-.06,0v-.06s-.06,0-.06,0v-.06s-.06,0-.06,0v-.06s-.06,0-.06,0v-.06s-.06,0-.06,0v-.06s-.06,0-.06,0v-.06s-.06,0-.06,0v-.06s-.06,0-.06,0v-.06s-.06,0-.06,0v-.06s-.06,0-.06,0v-.06s-.06,0-.06,0v-.06s-.06,0-.06,0v-.06s-.06,0-.06,0v-.06s-.06,0-.06,0v-.06s-.06,0-.06,0v-.06s-.06,0-.06,0v-.06s-.06,0-.06,0v-.06s-.06,0-.06,0v-.06s-.06,0-.06,0v-.06s-.06,0-.06,0v-.06s-.06,0-.06,0v-.06s-.06,0-.06,0v-.06s-7.6,0-7.6,0l.3-3.16h16.6l2.45-15.39h-.07v-.06s-.06,0-.06,0v-.06s-.06,0-.06,0v-.06s-.06,0-.06,0v-.06s-.06,0-.06,0v-.06s-.06,0-.06,0v-.06s-.06,0-.06,0v-.06s-.06,0-.06,0v-.06s-.06,0-.06,0v-.06s-.06,0-.06,0v-.06s-.06,0-.06,0v-.06s-.06,0-.06,0v-.06s-.06,0-.06,0v-.06s-.06,0-.06,0v-.06s-.06,0-.06,0v-.06s-.06,0-.06,0v-.06s-.06,0-.06,0v-.06s-.06,0-.06,0v-.06s-.06,0-.06,0v-.06s-.06,0-.06,0v-.06s-.06,0-.06,0v-.06s-.06,0-.06,0v-.06s-.06,0-.06,0v-.06s-.06,0-.06,0v-.06s-.06,0-.06,0v-.06s-.06,0-.06,0v-.06s-.06,0-.06,0v-.06s-.06,0-.06,0v-.06s-.06,0-.06,0v-.06s-.06,0-.06,0v-.06s-.06,0-.06,0v-.06s-.06,0-.06,0v-.06s-.06,0-.06,0v-.06s-.06,0-.06,0v-.06s-.06,0-.06,0v-.06s-.06,0-.06,0v-.06s-.06,0-.06,0v-.06s-.06,0-.06,0v-.06s-.06,0-.06,0v-.06s-.06,0-.06,0v-.06s-.06,0-.06,0v-.06s-.06,0-.06,0v-.06s-.06,0-.06,0v-.06s-.06,0-.06,0v-.06s-.06,0-.06,0v-.06s-.06,0-.06,0v-.06s-.06,0-.06,0v-.06s-.06,0-.06,0v-.06s-.06,0-.06,0v-.06s-.06,0-.06,0v-.06s-.06,0-.06,0v-.06s-.06,0-.06,0v-.06s-.06,0-.06,0v-.06s-.06,0-.06,0v-.06s-.06,0-.06,0v-.06s-.06,0-.06,0v-.06s-.06,0-.06,0v-.06s-.06,0-.06,0v-.06s-.06,0-.06,0v-.06s-.06,0-.06,0v-.06s-.06,0-.06,0v-.06s-.06,0-.06,0v-.06s-.06,0-.06,0v-.06s-.06,0-.06,0v-.06s-.06,0-.06,0v-.06s-.06,0-.06,0v-.06s-.06,0-.06,0v-.06s-.06,0-.06,0v-.06s-.06,0-.06,0v-.06s-.06,0-.06,0v-.06s-.06,0-.06,0v-.06s-.06,0-.06,0v-.06s-.06,0-.06,0v-.06s-.06,0-.06,0v-.06s-.06,0-.06,0v-.06s-.06,0-.06,0v-.06s-.06,0-.06,0v-.06s-.06,0-.06,0v-.06s-.06,0-.06,0v-.06s-.06,0-.06,0v-.06s-.06,0-.06,0v-.06s-.06,0-.06,0v-.06s-.06,0-.06,0v-.06s-.06,0-.06,0v-.06s-.06,0-.06,0v-.06s-.06,0-.06,0v-.06s-.06,0-.06,0v-.06s-.06,0-.06,0v-.06s-.06,0-.06,0v-.06s-.06,0-.06,0v-.06s-.06,0-.06,0v-.06s-.06,0-.06,0v-.06s-.06,0-.06,0v-.06s-.06,0-.06,0v-.06s-.06,0-.06,0v-.06s-.06,0-.06,0v-.06s-.06,0-.06,0v-.06s-.06,0-.06,0v-.06s-.06,0-.06,0v-.06s-.06,0-.06,0v-.06s-.06,0-.06,0v-.06s-34.8,0-34.8,0l-4.85,51.8h-.07v-.06s-.06,0-.06,0v-.06s-.06,0-.06,0v-.06s-.06,0-.06,0v-.06s-.06,0-.06,0v-.06s-.06,0-.06,0v-.06s-.06,0-.06,0v-.06s-.06,0-.06,0v-.06s-.06,0-.06,0v-.06s-.06,0-.06,0v-.06s-.06,0-.06,0v-.06s-.06,0-.06,0v-.06s-.06,0-.06,0v-.06s-.06,0-.06,0v-.06s-.06,0-.06,0v-.06s-.06,0-.06,0v-.06s-.06,0-.06,0v-.06s-.06,0-.06,0v-.06s-.06,0-.06,0v-.06s-.06,0-.06,0v-.06s-.06,0-.06,0v-.06s-.06,0-.06,0v-.06s-.06,0-.06,0v-.06s-.06,0-.06,0v-.06s-.06,0-.06,0v-.06s-.06,0-.06,0v-.06s-.06,0-.06,0v-.06s-.06,0-.06,0v-.06s-.06,0-.06,0v-.06s-.06,0-.06,0v-.06s-.06,0-.06,0v-.06s-.06,0-.06,0v-.06s-.06,0-.06,0v-.06s-.06,0-.06,0v-.06s-.06,0-.06,0v-.06s-.06,0-.06,0v-.06s-.06,0-.06,0v-.06s-.06,0-.06,0v-.06s-.06,0-.06,0v-.06s-.06,0-.06,0v-.06s-.06,0-.06,0v-.06s-.06,0-.06,0v-.06s-.06,0-.06,0v-.06s-.06,0-.06,0v-.06s-.06,0-.06,0v-.06s-.06,0-.06,0v-.06s-.06,0-.06,0v-.06s-.06,0-.06,0v-.06s-.06,0-.06,0v-.06s-.06,0-.06,0v-.06s-.06,0-.06,0v-.06s-.06,0-.06,0v-.06s-.06,0-.06,0v-.06s-.06,0-.06,0v-.06s-8.8,0-8.8,0l3.96-42.29h-.07v-.06s-.06,0-.06,0v-.06s-.06,0-.06,0v-.06s-.06,0-.06,0v-.06s-.06,0-.06,0v-.06s-.06,0-.06,0v-.06s-.06,0-.06,0v-.06s-.06,0-.06,0v-.06s-.06,0-.06,0v-.06s-.06,0-.06,0v-.06s-.06,0-.06,0v-.06s-.06,0-.06,0v-.06s-.06,0-.06,0v-.06s-.06,0-.06,0v-.06s-.06,0-.06,0v-.06s-.06,0-.06,0v-.06s-.06,0-.06,0v-.06s-.06,0-.06,0v-.06s-.06,0-.06,0v-.06s-.06,0-.06,0v-.06s-.06,0-.06,0v-.06s-.06,0-.06,0v-.06s-.06,0-.06,0v-.06s-.06,0-.06,0v-.06s-.06,0-.06,0v-.06s-.06,0-.06,0v-.06s-.06,0-.06,0v-.06s-.06,0-.06,0v-.06s-.06,0-.06,0v-.06s-.06,0-.06,0v-.06s-.06,0-.06,0v-.06s-.06,0-.06,0v-.06s-.06,0-.06,0v-.06s-.06,0-.06,0v-.06s-.06,0-.06,0v-.06s-.06,0-.06,0v-.06s-.06,0-.06,0v-.06s-.06,0-.06,0v-.06s-.06,0-.06,0v-.06s-.06,0-.06,0v-.06s-.06,0-.06,0v-.06s-.06,0-.06,0v-.06s-.06,0-.06,0v-.06s-.06,0-.06,0v-.06s-.06,0-.06,0v-.06s-.06,0-.06,0v-.06s-.06,0-.06,0v-.06s-.06,0-.06,0v-.06s-.06,0-.06,0v-.06s-.06,0-.06,0v-.06s-.06,0-.06,0v-.06s-.06,0-.06,0v-.06s-.06,0-.06,0v-.06s-.06,0-.06,0v-.06s-.06,0-.06,0v-.06s-.06,0-.06,0v-.06s-.06,0-.06,0v-.06s-.06,0-.06,0v-.06s-.06,0-.06,0v-.06s-.06,0-.06,0v-.06s-.06,0-.06,0v-.06s-.06,0-.06,0v-.06s-.06,0-.06,0v-.06s-.06,0-.06,0v-.06s-.06,0-.06,0v-.06s-.06,0-.06,0v-.06s-.06,0-.06,0v-.06s-.06,0-.06,0v-.06s-.06,0-.06,0v-.06s-.06,0-.06,0v-.06s-.06,0-.06,0v-.06s-.06,0-.06,0v-.06s-.06,0-.06,0v-.06s-.06,0-.06,0v-.06s-.06,0-.06,0v-.06s-.06,0-.06,0v-.06s-.06,0-.06,0v-.06s-.06,0-.06,0v-.06s-.06,0-.06,0v-.06s-.06,0-.06,0v-.06s-.06,0-.06,0v-.06s-.06,0-.06,0v-.06s-.06,0-.06,0v-.06s-.06,0-.06,0v-.06s-.06,0-.06,0v-.06s-.06,0-.06,0v-.06s-.06,0-.06,0v-.06s-.06,0-.06,0v-.06s-.06,0-.06,0v-.06s-.06,0-.06,0v-.06s-.06,0-.06,0v-.06s-.06,0-.06,0v-.06s-.06,0-.06,0v-.06s-.06,0-.06,0v-.06s-.06,0-.06,0v-.06s-.06,0-.06,0v-.06s-.06,0-.06,0v-.06s-.06,0-.06,0v-.06s-.06,0-.06,0v-.06s-.06,0-.06,0v-.06s-.06,0-.06,0v-.06s-17.2,0-17.2,0l-5.84,62.47h.07v.06s.06,0,.06,0v.06s.06,0,.06,0v.06s.06,0,.06,0v.06s.06,0,.06,0v.06s.06,0,.06,0v.06s.06,0,.06,0v.06s.06,0,.06,0v.06s.06,0,.06,0v.06s.06,0,.06,0v.06s.06,0,.06,0v.06s.06,0,.06,0v.06s.06,0,.06,0v.06s.06,0,.06,0v.06s.06,0,.06,0v.06s.06,0,.06,0v.06s.06,0,.06,0v.06s.06,0,.06,0v.06s.06,0,.06,0v.06s.06,0,.06,0v.06s.06,0,.06,0v.06s.06,0,.06,0v.06s.06,0,.06,0v.06s.06,0,.06,0v.06s.06,0,.06,0v.06s.06,0,.06,0v.06s.06,0,.06,0v.06s.06,0,.06,0v.06s.06,0,.06,0v.06s.06,0,.06,0v.06s.06,0,.06,0v.06s.06,0,.06,0v.06s.06,0,.06,0v.06s.06,0,.06,0v.06s.06,0,.06,0v.06s.06,0,.06,0v.06s.06,0,.06,0v.06s.06,0,.06,0v.06s.06,0,.06,0v.06s.06,0,.06,0v.06s.06,0,.06,0v.06s.06,0,.06,0v.06s.06,0,.06,0v.06s.06,0,.06,0v.06s.06,0,.06,0v.06s.06,0,.06,0v.06s.06,0,.06,0v.06s.06,0,.06,0v.06s.06,0,.06,0v.06s.06,0,.06,0v.06s.06,0,.06,0v.06s.06,0,.06,0v.06s.06,0,.06,0v.06s.06,0,.06,0v.06s.06,0,.06,0v.06s.06,0,.06,0v.06s.06,0,.06,0v.06s.06,0,.06,0v.06s.06,0,.06,0v.06s.06,0,.06,0v.06s.06,0,.06,0v.06s.06,0,.06,0v.06s.06,0,.06,0v.06s.06,0,.06,0v.06s.06,0,.06,0v.06s.06,0,.06,0v.06s.06,0,.06,0v.06s.06,0,.06,0v.06s.06,0,.06,0v.06s.06,0,.06,0v.06s.06,0,.06,0v.06s.06,0,.06,0v.06s.06,0,.06,0v.06s.06,0,.06,0v.06s.06,0,.06,0v.06s.06,0,.06,0v.06s.06,0,.06,0v.06s.06,0,.06,0v.06s.06,0,.06,0v.06s.06,0,.06,0v.06s.06,0,.06,0v.06s.06,0,.06,0v.06s.06,0,.06,0v.06s.06,0,.06,0v.06s.06,0,.06,0v.06s.06,0,.06,0v.06s.06,0,.06,0v.06s.06,0,.06,0v.06s.06,0,.06,0v.06s.06,0,.06,0v.06s.06,0,.06,0v.06s.06,0,.06,0v.06s.06,0,.06,0v.06s.06,0,.06,0v.06s.06,0,.06,0v.06s.06,0,.06,0v.06s.06,0,.06,0v.06s.06,0,.06,0v.06s.06,0,.06,0v.06s.06,0,.06,0v.06s.06,0,.06,0v.06s31.78,0,31.78,0l.66-3.99h.04v.06s.06,0,.06,0v.06s.06,0,.06,0v.06s.06,0,.06,0v.06s.06,0,.06,0v.06s.06,0,.06,0v.06s.06,0,.06,0v.06s.06,0,.06,0v.06s.06,0,.06,0v.06s.06,0,.06,0v.06s.06,0,.06,0v.06s.06,0,.06,0v.06s.06,0,.06,0v.06s.06,0,.06,0v.06s.06,0,.06,0v.06s.06,0,.06,0v.06s.06,0,.06,0v.06s.06,0,.06,0v.06s.06,0,.06,0v.06s.06,0,.06,0v.06s.06,0,.06,0v.06s.06,0,.06,0v.06s.06,0,.06,0v.06s.06,0,.06,0v.06s.06,0,.06,0v.06s.06,0,.06,0v.06s.06,0,.06,0v.06s.06,0,.06,0v.06s.06,0,.06,0v.06s.06,0,.06,0v.06s.06,0,.06,0v.06s.06,0,.06,0v.06s.06,0,.06,0v.06s.06,0,.06,0v.06s.06,0,.06,0v.06s.06,0,.06,0v.06s.06,0,.06,0v.06s.06,0,.06,0v.06s.06,0,.06,0v.06s.06,0,.06,0v.06s.06,0,.06,0v.06s.06,0,.06,0v.06s.06,0,.06,0v.06s.06,0,.06,0v.06s.06,0,.06,0v.06s.06,0,.06,0v.06s.06,0,.06,0v.06s.06,0,.06,0v.06s.06,0,.06,0v.06s.06,0,.06,0v.06s.06,0,.06,0v.06s.06,0,.06,0v.06s.06,0,.06,0v.06s.06,0,.06,0v.06s.06,0,.06,0v.06s.06,0,.06,0v.06s.06,0,.06,0v.06s.06,0,.06,0v.06s.06,0,.06,0v.06s.06,0,.06,0v.06s.06,0,.06,0v.06s.06,0,.06,0v.06s.06,0,.06,0v.06s.06,0,.06,0v.06s.06,0,.06,0v.06s33.79,0,33.79,0l.47-2.82h0l-.02.06h.08l-.02.06h.08l-.02.06h.08l-.02.06h.08l-.02.06h.08l-.02.06h.08l-.02.06h.08l-.02.06h.08l-.02.06h.08l-.02.06h.08l-.02.06h.08l-.02.06h.08l-.02.06h.08l-.02.06h.08l-.02.06h.08l-.02.06h.08l-.02.06h.08l-.02.06h.08l-.02.06h.08l-.02.06h.08l-.02.06h.08l-.02.06h.08l-.02.06h.08l-.02.06h.08l-.02.06h.08l-.02.06h.08l-.02.06h.08l-.02.06h.08l-.02.06h.08l-.02.06h.08l-.02.06h.08l-.02.06h.08l-.02.06h.08l-.02.06h.08l-.02.06h.08l-.02.06h.08l-.02.06h.08l-.02.06h.08l-.02.06h.08l-.02.06h.08l-.02.06h.08l-.02.06h.08l-.02.06h.08l-.02.06h.08l-.02.06h.08l-.02.06h15.99l2.83-9.86h6.29l.37,3.66h.06v.06h.06v.06h.06v.06h.06v.06h.06v.06h.06v.06h.06v.06h.06v.06h.06v.06h.06v.06h.06v.06h.06v.06h.06v.06h.06v.06h.06v.06h.06v.06h.06v.06h.06v.06h.06v.06h.06v.06h.06v.06h.06v.06h.06v.06h.06v.06h.06v.06h.06v.06h.06v.06h.06v.06h.06v.06h.06v.06h.06v.06h.06v.06h.06v.06h.06v.06h.06v.06h.06v.06h.06v.06h.06v.06h.06v.06h.06v.06h.06v.06h.06v.06h.06v.06h.06v.06h.06v.06h.06v.06h.06v.06h.06v.06h.06v.06h.06v.06h.06v.06h.06v.06h.06v.06h.06v.06h.06v.06h.06v.06h.06v.06h.06v.06h.06v.06h.06v.06h.06v.06h.06v.06h.06v.06h.06v.06h.06v.06h.06v.06h.06v.06h.06v.06h.06v.06h.06v.06h.06v.06h.06v.06h.06v.06h.06v.06h.06v.06h.06v.06h.06v.06h.06v.06h.06v.06h.06v.06h.06v.06h.06v.06h.06v.06h.06v.06h.06v.06h.06v.06h.06v.06h.06v.06h.06v.06h.06v.06h.06v.06h.06v.06h.06v.06h.06v.06h.06v.06h.06v.06h.06v.06h.06v.06h.06v.06h.06v.06h.06v.06h16.81l-.52-5.77h.05v.06s.06,0,.06,0v.06s.06,0,.06,0v.06s.06,0,.06,0v.06s.06,0,.06,0v.06s.06,0,.06,0v.06s.06,0,.06,0v.06s.06,0,.06,0v.06s.06,0,.06,0v.06s.06,0,.06,0v.06s.06,0,.06,0v.06s.06,0,.06,0v.06s.06,0,.06,0v.06s.06,0,.06,0v.06s.06,0,.06,0v.06s.06,0,.06,0v.06s.06,0,.06,0v.06s.06,0,.06,0v.06s.06,0,.06,0v.06s.06,0,.06,0v.06s.06,0,.06,0v.06s.06,0,.06,0v.06s.06,0,.06,0v.06s.06,0,.06,0v.06s.06,0,.06,0v.06s.06,0,.06,0v.06s.06,0,.06,0v.06s.06,0,.06,0v.06s.06,0,.06,0v.06s.06,0,.06,0v.06s.06,0,.06,0v.06s.06,0,.06,0v.06s.06,0,.06,0v.06s.06,0,.06,0v.06s.06,0,.06,0v.06s.06,0,.06,0v.06s.06,0,.06,0v.06s.06,0,.06,0v.06s.06,0,.06,0v.06s.06,0,.06,0v.06s.06,0,.06,0v.06s.06,0,.06,0v.06s.06,0,.06,0v.06s.06,0,.06,0v.06s.06,0,.06,0v.06s.06,0,.06,0v.06s.06,0,.06,0v.06s.06,0,.06,0v.06s.06,0,.06,0v.06s.06,0,.06,0v.06s.06,0,.06,0v.06s.06,0,.06,0v.06s.06,0,.06,0v.06s.06,0,.06,0v.06s.06,0,.06,0v.06s.06,0,.06,0v.06s.06,0,.06,0v.06s.06,0,.06,0v.06s.06,0,.06,0v.06s.06,0,.06,0v.06s.06,0,.06,0v.06s.06,0,.06,0v.06s.06,0,.06,0v.06s.06,0,.06,0v.06s.06,0,.06,0v.06s.06,0,.06,0v.06s.06,0,.06,0v.06s.06,0,.06,0v.06s.06,0,.06,0v.06s.06,0,.06,0v.06s.06,0,.06,0v.06s.06,0,.06,0v.06s.06,0,.06,0v.06s.06,0,.06,0v.06s.06,0,.06,0v.06s.06,0,.06,0v.06s.06,0,.06,0v.06s.06,0,.06,0v.06s.06,0,.06,0v.06s.06,0,.06,0v.06s.06,0,.06,0v.06s.06,0,.06,0v.06s.06,0,.06,0v.06s.06,0,.06,0v.06s.06,0,.06,0v.06s.06,0,.06,0v.06s.06,0,.06,0v.06s.06,0,.06,0v.06s.06,0,.06,0v.06s.06,0,.06,0v.06s.06,0,.06,0v.06s.06,0,.06,0v.06s.06,0,.06,0v.06s.06,0,.06,0v.06s17.2,0,17.2,0l2.29-24.45h13.38l1.24-13.28h-.07v-.06s-.06,0-.06,0v-.06s-.06,0-.06,0v-.06s-.06,0-.06,0v-.06s-.06,0-.06,0v-.06s-.06,0-.06,0v-.06s-.06,0-.06,0v-.06s-.06,0-.06,0v-.06s-.06,0-.06,0v-.06s-.06,0-.06,0v-.06s-.06,0-.06,0v-.06s-.06,0-.06,0v-.06s-.06,0-.06,0v-.06s-.06,0-.06,0v-.06s-.06,0-.06,0v-.06s-.06,0-.06,0v-.06s-.06,0-.06,0v-.06s-.06,0-.06,0v-.06s-.06,0-.06,0v-.06s-.06,0-.06,0v-.06s-.06,0-.06,0v-.06s-.06,0-.06,0v-.06s-.06,0-.06,0v-.06s-.06,0-.06,0v-.06s-.06,0-.06,0v-.06s-.06,0-.06,0v-.06s-.06,0-.06,0v-.06s-.06,0-.06,0v-.06s-.06,0-.06,0v-.06s-.06,0-.06,0v-.06s-.06,0-.06,0v-.06s-.06,0-.06,0v-.06s-.06,0-.06,0v-.06s-.06,0-.06,0v-.06s-.06,0-.06,0v-.06s-.06,0-.06,0v-.06s-.06,0-.06,0v-.06s-.06,0-.06,0v-.06s-.06,0-.06,0v-.06s-.06,0-.06,0v-.06s-.06,0-.06,0v-.06s-.06,0-.06,0v-.06s-.06,0-.06,0v-.06s-.06,0-.06,0v-.06s-.06,0-.06,0v-.06s-.06,0-.06,0v-.06s-.06,0-.06,0v-.06s-.06,0-.06,0v-.06s-.06,0-.06,0v-.06s-.06,0-.06,0v-.06s-.06,0-.06,0v-.06s-.06,0-.06,0v-.06s-.06,0-.06,0v-.06s-.06,0-.06,0v-.06s-.06,0-.06,0v-.06s-.06,0-.06,0v-.06s-.06,0-.06,0v-.06s-.06,0-.06,0v-.06s-.06,0-.06,0v-.06s-.06,0-.06,0v-.06s-.06,0-.06,0v-.06s-.06,0-.06,0v-.06s-.06,0-.06,0v-.06s-.06,0-.06,0v-.06s-.06,0-.06,0v-.06s-.06,0-.06,0v-.06s-.06,0-.06,0v-.06s-.06,0-.06,0v-.06s-.06,0-.06,0v-.06s-.06,0-.06,0v-.06s-.06,0-.06,0v-.06s-.06,0-.06,0v-.06s-.06,0-.06,0v-.06s-.06,0-.06,0v-.06s-.06,0-.06,0v-.06s-.06,0-.06,0v-.06s-.06,0-.06,0v-.06s-.06,0-.06,0v-.06s-.06,0-.06,0v-.06s-.06,0-.06,0v-.06s-.06,0-.06,0v-.06s-.06,0-.06,0v-.06s-.06,0-.06,0v-.06s-.06,0-.06,0v-.06s-.06,0-.06,0v-.06s-.06,0-.06,0v-.06s-.06,0-.06,0v-.06s-.06,0-.06,0v-.06s-.06,0-.06,0v-.06s-.06,0-.06,0v-.06s-.06,0-.06,0v-.06s-.06,0-.06,0v-.06s-.06,0-.06,0v-.06s-.06,0-.06,0v-.06s-.06,0-.06,0v-.06s-.06,0-.06,0v-.06s-.06,0-.06,0v-.06s-.06,0-.06,0v-.06s-.06,0-.06,0v-.06s-.06,0-.06,0v-.06s-.06,0-.06,0v-.06s-6.59,0-6.59,0l.3-3.16h16.6ZM331.02,55.01h0,0s0,0,0,0Z"/>
        <path class="cls-4" d="M287.68,57.77h-.07v-.06s-.06,0-.06,0v-.06s-.06,0-.06,0v-.06s-.06,0-.06,0v-.06s-.06,0-.06,0v-.06s-.06,0-.06,0v-.06s-.06,0-.06,0v-.06s-.06,0-.06,0v-.06s-.06,0-.06,0v-.06s-.06,0-.06,0v-.06s-.06,0-.06,0v-.06s-.06,0-.06,0v-.06s-.06,0-.06,0v-.06s-.06,0-.06,0v-.06s-.06,0-.06,0v-.06s-.06,0-.06,0v-.06s-.06,0-.06,0v-.06s-.06,0-.06,0v-.06s-.06,0-.06,0v-.06s-.06,0-.06,0v-.06s-.06,0-.06,0v-.06s-.06,0-.06,0v-.06s-.06,0-.06,0v-.06s-.06,0-.06,0v-.06s-.06,0-.06,0v-.06s-.06,0-.06,0v-.06s-.06,0-.06,0v-.06s-.06,0-.06,0v-.06s-.06,0-.06,0v-.06s-.06,0-.06,0v-.06s-.06,0-.06,0v-.06s-.06,0-.06,0v-.06s-.06,0-.06,0v-.06s-.06,0-.06,0v-.06s-.06,0-.06,0v-.06s-.06,0-.06,0v-.06s-.06,0-.06,0v-.06s-.06,0-.06,0v-.06s-.06,0-.06,0v-.06s-.06,0-.06,0v-.06s-.06,0-.06,0v-.06s-.06,0-.06,0v-.06s-.06,0-.06,0v-.06s-.06,0-.06,0v-.06s-.06,0-.06,0v-.06s-.06,0-.06,0v-.06s-.06,0-.06,0v-.06s-.06,0-.06,0v-.06s-.06,0-.06,0v-.06s-.06,0-.06,0v-.06s-.06,0-.06,0v-.06s-.06,0-.06,0v-.06s-.06,0-.06,0v-.06s-.06,0-.06,0v-.06s-.06,0-.06,0v-.06s-.06,0-.06,0v-.06s-.06,0-.06,0v-.06s-.06,0-.06,0v-.06s-.06,0-.06,0v-.06s-.06,0-.06,0v-.06s-.06,0-.06,0v-.06s-.06,0-.06,0v-.06s-.06,0-.06,0v-.06s-.06,0-.06,0v-.06s-.06,0-.06,0v-.06s-.06,0-.06,0v-.06s-.06,0-.06,0v-.06s-.06,0-.06,0v-.06s-.06,0-.06,0v-.06s-.06,0-.06,0v-.06s-.06,0-.06,0v-.06s-.06,0-.06,0v-.06s-.06,0-.06,0v-.06s-.06,0-.06,0v-.06s-.06,0-.06,0v-.06s-.06,0-.06,0v-.06s-.06,0-.06,0v-.06s-.06,0-.06,0v-.06s-.06,0-.06,0v-.06s-.06,0-.06,0v-.06s-.06,0-.06,0v-.06s-.06,0-.06,0v-.06s-.06,0-.06,0v-.06s-.06,0-.06,0v-.06s-.06,0-.06,0v-.06s-.06,0-.06,0v-.06s-.06,0-.06,0v-.06s-.06,0-.06,0v-.06s-.06,0-.06,0v-.06s-.06,0-.06,0v-.06s-.06,0-.06,0v-.06s-.06,0-.06,0v-.06s-.06,0-.06,0v-.06s-.06,0-.06,0v-.06s-.06,0-.06,0v-.06s-.06,0-.06,0v-.06s-.06,0-.06,0v-.06s-.06,0-.06,0v-.06s-.06,0-.06,0v-.06s-.06,0-.06,0v-.06s-8.8,0-8.8,0l3.96-42.29h-.07v-.06s-.06,0-.06,0v-.06s-.06,0-.06,0v-.06s-.06,0-.06,0v-.06s-.06,0-.06,0v-.06s-.06,0-.06,0v-.06s-.06,0-.06,0v-.06s-.06,0-.06,0v-.06s-.06,0-.06,0v-.06s-.06,0-.06,0v-.06s-.06,0-.06,0v-.06s-.06,0-.06,0v-.06s-.06,0-.06,0v-.06s-.06,0-.06,0v-.06s-.06,0-.06,0v-.06s-.06,0-.06,0v-.06s-.06,0-.06,0v-.06s-.06,0-.06,0v-.06s-.06,0-.06,0v-.06s-.06,0-.06,0v-.06s-.06,0-.06,0v-.06s-.06,0-.06,0v-.06s-.06,0-.06,0v-.06s-.06,0-.06,0v-.06s-.06,0-.06,0v-.06s-.06,0-.06,0v-.06s-.06,0-.06,0v-.06s-.06,0-.06,0v-.06s-.06,0-.06,0v-.06s-.06,0-.06,0v-.06s-.06,0-.06,0v-.06s-.06,0-.06,0v-.06s-.06,0-.06,0v-.06s-.06,0-.06,0v-.06s-.06,0-.06,0v-.06s-.06,0-.06,0v-.06s-.06,0-.06,0v-.06s-.06,0-.06,0v-.06s-.06,0-.06,0v-.06s-.06,0-.06,0v-.06s-.06,0-.06,0v-.06s-.06,0-.06,0v-.06s-.06,0-.06,0v-.06s-.06,0-.06,0v-.06s-.06,0-.06,0v-.06s-.06,0-.06,0v-.06s-.06,0-.06,0v-.06s-.06,0-.06,0v-.06s-.06,0-.06,0v-.06s-.06,0-.06,0v-.06s-.06,0-.06,0v-.06s-.06,0-.06,0v-.06s-.06,0-.06,0v-.06s-.06,0-.06,0v-.06s-.06,0-.06,0v-.06s-.06,0-.06,0v-.06s-.06,0-.06,0v-.06s-.06,0-.06,0v-.06s-.06,0-.06,0v-.06s-.06,0-.06,0v-.06s-.06,0-.06,0v-.06s-.06,0-.06,0v-.06s-.06,0-.06,0v-.06s-.06,0-.06,0v-.06s-.06,0-.06,0v-.06s-.06,0-.06,0v-.06s-.06,0-.06,0v-.06s-.06,0-.06,0v-.06s-.06,0-.06,0v-.06s-.06,0-.06,0v-.06s-.06,0-.06,0v-.06s-.06,0-.06,0v-.06s-.06,0-.06,0v-.06s-.06,0-.06,0v-.06s-.06,0-.06,0v-.06s-.06,0-.06,0v-.06s-.06,0-.06,0v-.06s-.06,0-.06,0v-.06s-.06,0-.06,0v-.06s-.06,0-.06,0v-.06s-.06,0-.06,0v-.06s-.06,0-.06,0v-.06s-.06,0-.06,0v-.06s-.06,0-.06,0v-.06s-.06,0-.06,0v-.06s-.06,0-.06,0v-.06s-.06,0-.06,0v-.06s-.06,0-.06,0v-.06s-.06,0-.06,0v-.06s-.06,0-.06,0v-.06s-.06,0-.06,0v-.06s-.06,0-.06,0v-.06s-.06,0-.06,0v-.06s-.06,0-.06,0v-.06s-.06,0-.06,0v-.06s-.06,0-.06,0v-.06s-.06,0-.06,0v-.06s-.06,0-.06,0v-.06s-.06,0-.06,0v-.06s-.06,0-.06,0v-.06s-.06,0-.06,0v-.06s-17.2,0-17.2,0l-.5,5.34h-.06v-.06s-.06,0-.06,0v-.06s-.06,0-.06,0v-.06s-.06,0-.06,0v-.06s-.06,0-.06,0v-.06s-.06,0-.06,0v-.06s-.06,0-.06,0v-.06s-.06,0-.06,0v-.06s-.06,0-.06,0v-.06s-.06,0-.06,0v-.06s-.06,0-.06,0v-.06s-.06,0-.06,0v-.06s-.06,0-.06,0v-.06s-.06,0-.06,0v-.06s-.06,0-.06,0v-.06s-.06,0-.06,0v-.06s-.06,0-.06,0v-.06s-.06,0-.06,0v-.06s-.06,0-.06,0v-.06s-.06,0-.06,0v-.06s-.06,0-.06,0v-.06s-.06,0-.06,0v-.06s-.06,0-.06,0v-.06s-.06,0-.06,0v-.06s-.06,0-.06,0v-.06s-.06,0-.06,0v-.06s-.06,0-.06,0v-.06s-.06,0-.06,0v-.06s-.06,0-.06,0v-.06s-.06,0-.06,0v-.06s-.06,0-.06,0v-.06s-.06,0-.06,0v-.06s-.06,0-.06,0v-.06s-.06,0-.06,0v-.06s-.06,0-.06,0v-.06s-.06,0-.06,0v-.06s-.06,0-.06,0v-.06s-.06,0-.06,0v-.06s-.06,0-.06,0v-.06s-.06,0-.06,0v-.06s-.06,0-.06,0v-.06s-.06,0-.06,0v-.06s-.06,0-.06,0v-.06s-.06,0-.06,0v-.06s-.06,0-.06,0v-.06s-.06,0-.06,0v-.06s-.06,0-.06,0v-.06s-.06,0-.06,0v-.06s-.06,0-.06,0v-.06s-.06,0-.06,0v-.06s-.06,0-.06,0v-.06s-.06,0-.06,0v-.06s-.06,0-.06,0v-.06s-.06,0-.06,0v-.06s-.06,0-.06,0v-.06s-.06,0-.06,0v-.06s-.06,0-.06,0v-.06s-.06,0-.06,0v-.06s-.06,0-.06,0v-.06s-.06,0-.06,0v-.06s-.06,0-.06,0v-.06s-.06,0-.06,0v-.06s-.06,0-.06,0v-.06s-.06,0-.06,0v-.06s-.06,0-.06,0v-.06s-.06,0-.06,0v-.06s-.06,0-.06,0v-.06s-.06,0-.06,0v-.06s-.06,0-.06,0v-.06s-.06,0-.06,0v-.06s-.06,0-.06,0v-.06s-.06,0-.06,0v-.06s-.06,0-.06,0v-.06s-.06,0-.06,0v-.06s-.06,0-.06,0v-.06s-.06,0-.06,0v-.06s-.06,0-.06,0v-.06s-.06,0-.06,0v-.06s-.06,0-.06,0v-.06s-.06,0-.06,0v-.06s-.06,0-.06,0v-.06s-.06,0-.06,0v-.06s-.06,0-.06,0v-.06s-.06,0-.06,0v-.06s-.06,0-.06,0v-.06s-.06,0-.06,0v-.06s-.06,0-.06,0v-.06s-34.8,0-34.8,0l-1.27,13.58c-.59-1.38-1.41-2.55-2.47-3.51,0,0,0,0-.01,0-.02-.02-.03-.04-.05-.05,0,0,0,0-.01-.01-.02-.02-.03-.04-.05-.05,0,0,0,0-.01,0-.02-.02-.03-.04-.05-.05,0,0,0,0-.01,0-.02-.02-.03-.04-.05-.05,0,0,0,0-.01,0-.02-.02-.03-.04-.05-.05,0,0,0,0-.01-.01-.02-.02-.03-.04-.05-.05,0,0,0,0-.01,0-.02-.02-.03-.04-.05-.05,0,0,0,0-.01,0-.02-.02-.03-.04-.05-.05,0,0,0,0-.01,0-.02-.02-.03-.04-.05-.05,0,0,0,0-.01-.01-.02-.02-.03-.04-.05-.05,0,0,0,0-.01,0-.02-.02-.03-.04-.05-.05,0,0,0,0-.01,0-.02-.02-.03-.04-.05-.05,0,0,0,0-.01,0-.02-.02-.03-.04-.05-.05,0,0,0,0-.01-.01-.02-.02-.03-.04-.05-.05,0,0,0,0-.01,0-.02-.02-.03-.04-.05-.05,0,0,0,0-.01,0-.02-.02-.03-.04-.05-.05,0,0,0,0-.01,0-.02-.02-.03-.04-.05-.05,0,0,0,0-.01-.01-.02-.02-.03-.04-.05-.05,0,0,0,0-.01,0-.02-.02-.03-.04-.05-.05,0,0,0,0-.01,0-.02-.02-.03-.04-.05-.05,0,0,0,0-.01,0-.02-.02-.03-.04-.05-.05,0,0,0,0-.01-.01-.02-.02-.03-.04-.05-.05,0,0,0,0-.01,0-.02-.02-.03-.04-.05-.05,0,0,0,0-.01,0-.02-.02-.03-.04-.05-.05,0,0,0,0-.01,0-.02-.02-.03-.04-.05-.05,0,0,0,0-.01-.01-.02-.02-.03-.04-.05-.05,0,0,0,0-.01,0-.02-.02-.03-.04-.05-.05,0,0,0,0-.01,0-.02-.02-.03-.04-.05-.05,0,0,0,0-.01,0-.02-.02-.03-.04-.05-.05,0,0,0,0-.01-.01-.02-.02-.03-.04-.05-.05,0,0,0,0-.01,0-.02-.02-.03-.04-.05-.05,0,0,0,0-.01,0-.02-.02-.03-.04-.05-.05,0,0,0,0-.01,0-.02-.02-.03-.04-.05-.05,0,0,0,0-.01-.01-.02-.02-.03-.04-.05-.05,0,0,0,0-.01,0-.02-.02-.03-.04-.05-.05,0,0,0,0-.01,0-.02-.02-.03-.04-.05-.05,0,0,0,0-.01,0-.02-.02-.03-.04-.05-.05,0,0,0,0-.01-.01-.02-.02-.03-.04-.05-.05,0,0,0,0-.01,0-.02-.02-.03-.04-.05-.05,0,0,0,0-.01,0-.02-.02-.03-.04-.05-.05,0,0,0,0-.01,0-.02-.02-.03-.04-.05-.05,0,0,0,0-.01-.01-.02-.02-.03-.04-.05-.05,0,0,0,0-.01,0-.02-.02-.03-.04-.05-.05,0,0,0,0-.01,0-.02-.02-.03-.04-.05-.05,0,0,0,0-.01,0-.02-.02-.03-.04-.05-.05,0,0,0,0-.01-.01-.02-.02-.03-.04-.05-.05,0,0,0,0-.01,0-.02-.02-.03-.04-.05-.05,0,0,0,0-.01,0-.02-.02-.03-.04-.05-.05,0,0,0,0-.01,0-.02-.02-.03-.04-.05-.05,0,0,0,0-.01-.01-.02-.02-.03-.04-.05-.05,0,0,0,0-.01,0-.02-.02-.03-.04-.05-.05,0,0,0,0-.01,0-.02-.02-.03-.04-.05-.05,0,0,0,0-.01,0-.02-.02-.03-.04-.05-.05,0,0,0,0-.01-.01-.02-.02-.03-.04-.05-.05,0,0,0,0-.01,0-.02-.02-.03-.04-.05-.05,0,0,0,0-.01,0-.02-.02-.03-.04-.05-.05,0,0,0,0-.01,0-.02-.02-.03-.04-.05-.05,0,0,0,0-.01-.01-.02-.02-.03-.04-.05-.05,0,0,0,0-.01,0-.02-.02-.03-.04-.05-.05,0,0,0,0-.01,0-.02-.02-.03-.04-.05-.05,0,0,0,0-.01,0-.02-.02-.03-.04-.05-.05,0,0,0,0-.01-.01-.02-.02-.03-.04-.05-.05,0,0,0,0-.01,0-.02-.02-.03-.04-.05-.05,0,0,0,0-.01,0-.02-.02-.03-.04-.05-.05,0,0,0,0-.01,0-.02-.02-.03-.04-.05-.05,0,0,0,0-.01-.01-.02-.02-.03-.04-.05-.05,0,0,0,0-.01,0-.02-.02-.03-.04-.05-.05,0,0,0,0-.01,0-.02-.02-.03-.04-.05-.05,0,0,0,0-.01,0-.02-.02-.03-.04-.05-.05,0,0,0,0-.01-.01-.02-.02-.03-.04-.05-.05,0,0,0,0-.01,0-.02-.02-.03-.04-.05-.05,0,0,0,0-.01,0-.02-.02-.03-.04-.05-.05,0,0,0,0-.01,0-.02-.02-.03-.04-.05-.05,0,0,0,0-.01-.01-.02-.02-.03-.04-.05-.05,0,0,0,0-.01,0-.02-.02-.03-.04-.05-.05,0,0,0,0-.01,0-.02-.02-.03-.04-.05-.05,0,0,0,0-.01,0-.02-.02-.03-.04-.05-.05,0,0,0,0-.01-.01-.02-.02-.03-.04-.05-.05,0,0,0,0-.01,0-.02-.02-.03-.04-.05-.05,0,0,0,0-.01,0-.02-.02-.03-.04-.05-.05,0,0,0,0-.01,0-.02-.02-.03-.04-.05-.05,0,0,0,0-.01-.01-.02-.02-.03-.04-.05-.05,0,0,0,0-.01,0-.02-.02-.03-.04-.05-.05,0,0,0,0-.01,0-.02-.02-.03-.04-.05-.05,0,0,0,0-.01,0-.02-.02-.03-.04-.05-.05,0,0,0,0-.01-.01-.02-.02-.03-.04-.05-.05,0,0,0,0-.01,0-.02-.02-.03-.04-.05-.05,0,0,0,0-.01,0-.02-.02-.03-.04-.05-.05,0,0,0,0-.01,0-.02-.02-.03-.04-.05-.05,0,0,0,0-.01-.01-.02-.02-.03-.04-.05-.05,0,0,0,0-.01,0-.02-.02-.03-.04-.05-.05,0,0,0,0-.01,0-.02-.02-.03-.04-.05-.05,0,0,0,0-.01,0-.02-.02-.03-.04-.05-.05,0,0,0,0-.01-.01-.02-.02-.03-.04-.05-.05,0,0,0,0-.01,0-.02-.02-.03-.04-.05-.05,0,0,0,0-.01,0-.02-.02-.03-.04-.05-.05,0,0,0,0-.01,0-.02-.02-.03-.04-.05-.05,0,0,0,0-.01-.01-.02-.02-.03-.04-.05-.05,0,0,0,0-.01,0-.02-.02-.03-.04-.05-.05,0,0,0,0-.01,0-.02-.02-.03-.04-.05-.05,0,0,0,0-.01,0-.02-.02-.03-.04-.05-.05-2.84-2.58-7.45-3.87-13.82-3.87h-24.14l-.5,5.34h-.06v-.06s-.06,0-.06,0v-.06s-.06,0-.06,0v-.06s-.06,0-.06,0v-.06s-.06,0-.06,0v-.06s-.06,0-.06,0v-.06s-.06,0-.06,0v-.06s-.06,0-.06,0v-.06s-.06,0-.06,0v-.06s-.06,0-.06,0v-.06s-.06,0-.06,0v-.06s-.06,0-.06,0v-.06s-.06,0-.06,0v-.06s-.06,0-.06,0v-.06s-.06,0-.06,0v-.06s-.06,0-.06,0v-.06s-.06,0-.06,0v-.06s-.06,0-.06,0v-.06s-.06,0-.06,0v-.06s-.06,0-.06,0v-.06s-.06,0-.06,0v-.06s-.06,0-.06,0v-.06s-.06,0-.06,0v-.06s-.06,0-.06,0v-.06s-.06,0-.06,0v-.06s-.06,0-.06,0v-.06s-.06,0-.06,0v-.06s-.06,0-.06,0v-.06s-.06,0-.06,0v-.06s-.06,0-.06,0v-.06s-.06,0-.06,0v-.06s-.06,0-.06,0v-.06s-.06,0-.06,0v-.06s-.06,0-.06,0v-.06s-.06,0-.06,0v-.06s-.06,0-.06,0v-.06s-.06,0-.06,0v-.06s-.06,0-.06,0v-.06s-.06,0-.06,0v-.06s-.06,0-.06,0v-.06s-.06,0-.06,0v-.06s-.06,0-.06,0v-.06s-.06,0-.06,0v-.06s-.06,0-.06,0v-.06s-.06,0-.06,0v-.06s-.06,0-.06,0v-.06s-.06,0-.06,0v-.06s-.06,0-.06,0v-.06s-.06,0-.06,0v-.06s-.06,0-.06,0v-.06s-.06,0-.06,0v-.06s-.06,0-.06,0v-.06s-.06,0-.06,0v-.06s-.06,0-.06,0v-.06s-.06,0-.06,0v-.06s-.06,0-.06,0v-.06s-.06,0-.06,0v-.06s-.06,0-.06,0v-.06s-.06,0-.06,0v-.06s-.06,0-.06,0v-.06s-.06,0-.06,0v-.06s-.06,0-.06,0v-.06s-.06,0-.06,0v-.06s-.06,0-.06,0v-.06s-.06,0-.06,0v-.06s-.06,0-.06,0v-.06s-.06,0-.06,0v-.06s-.06,0-.06,0v-.06s-.06,0-.06,0v-.06s-.06,0-.06,0v-.06s-.06,0-.06,0v-.06s-.06,0-.06,0v-.06s-.06,0-.06,0v-.06s-.06,0-.06,0v-.06s-.06,0-.06,0v-.06s-.06,0-.06,0v-.06s-.06,0-.06,0v-.06s-.06,0-.06,0v-.06s-.06,0-.06,0v-.06s-.06,0-.06,0v-.06s-.06,0-.06,0v-.06s-.06,0-.06,0v-.06s-.06,0-.06,0v-.06s-.06,0-.06,0v-.06s-.06,0-.06,0v-.06s-.06,0-.06,0v-.06s-.06,0-.06,0v-.06s-34.8,0-34.8,0l-1.48,15.79c-.57-1.93-1.43-3.56-2.59-4.86-.02-.02-.04-.03-.05-.05,0,0,0,0,0,0-.02-.02-.04-.03-.05-.05,0,0,0,0,0,0-.02-.02-.04-.03-.05-.05,0,0,0,0,0,0-.02-.02-.04-.03-.05-.05,0,0,0,0,0,0-.02-.02-.04-.03-.05-.05,0,0,0,0,0,0-.02-.02-.04-.03-.05-.05,0,0,0,0,0,0-.02-.02-.04-.03-.05-.05,0,0,0,0,0,0-.02-.02-.04-.03-.05-.05,0,0,0,0,0,0-.02-.02-.04-.03-.05-.05,0,0,0,0,0,0-.02-.02-.04-.03-.05-.05,0,0,0,0,0,0-.02-.02-.04-.03-.05-.05,0,0,0,0,0,0-.02-.02-.04-.03-.05-.05,0,0,0,0,0,0-.02-.02-.04-.03-.05-.05,0,0,0,0,0,0-.02-.02-.04-.03-.05-.05,0,0,0,0,0,0-.02-.02-.04-.03-.05-.05,0,0,0,0,0,0-.02-.02-.04-.03-.05-.05,0,0,0,0,0,0-.02-.02-.04-.03-.05-.05,0,0,0,0,0,0-.02-.02-.04-.03-.05-.05,0,0,0,0,0,0-.02-.02-.04-.03-.05-.05,0,0,0,0,0,0-.02-.02-.04-.03-.05-.05,0,0,0,0,0,0-.02-.02-.04-.03-.05-.05,0,0,0,0,0,0-.02-.02-.04-.03-.05-.05,0,0,0,0,0,0-.02-.02-.04-.03-.05-.05,0,0,0,0,0,0-.02-.02-.04-.03-.05-.05,0,0,0,0,0,0-.02-.02-.04-.03-.05-.05,0,0,0,0,0,0-.02-.02-.04-.03-.05-.05,0,0,0,0,0,0-.02-.02-.04-.03-.05-.05,0,0,0,0,0,0-.02-.02-.04-.03-.05-.05,0,0,0,0,0,0-.02-.02-.04-.03-.05-.05,0,0,0,0,0,0-.02-.02-.04-.03-.05-.05,0,0,0,0,0,0-.02-.02-.04-.03-.05-.05,0,0,0,0,0,0-.02-.02-.04-.03-.05-.05,0,0,0,0,0,0-.02-.02-.04-.03-.05-.05,0,0,0,0,0,0-.02-.02-.04-.03-.05-.05,0,0,0,0,0,0-.02-.02-.04-.03-.05-.05,0,0,0,0,0,0-.02-.02-.04-.03-.05-.05,0,0,0,0,0,0-.02-.02-.04-.03-.05-.05,0,0,0,0,0,0-.02-.02-.04-.03-.05-.05,0,0,0,0,0,0-.02-.02-.04-.03-.05-.05,0,0,0,0,0,0-.02-.02-.04-.03-.05-.05,0,0,0,0,0,0-.02-.02-.04-.03-.05-.05,0,0,0,0,0,0-.02-.02-.04-.03-.05-.05,0,0,0,0,0,0-.02-.02-.04-.03-.05-.05,0,0,0,0,0,0-.02-.02-.04-.03-.05-.05,0,0,0,0,0,0-.02-.02-.04-.03-.05-.05,0,0,0,0,0,0-.02-.02-.04-.03-.05-.05,0,0,0,0,0,0-.02-.02-.04-.03-.05-.05,0,0,0,0,0,0-.02-.02-.04-.03-.05-.05,0,0,0,0,0,0-.02-.02-.04-.03-.05-.05,0,0,0,0,0,0-.02-.02-.04-.03-.05-.05,0,0,0,0,0,0-.02-.02-.04-.03-.05-.05,0,0,0,0,0,0-.02-.02-.04-.03-.05-.05,0,0,0,0,0,0-.02-.02-.04-.03-.05-.05,0,0,0,0,0,0-.02-.02-.04-.03-.05-.05,0,0,0,0,0,0-.02-.02-.04-.03-.05-.05,0,0,0,0,0,0-.02-.02-.04-.03-.05-.05,0,0,0,0,0,0-.02-.02-.04-.03-.05-.05,0,0,0,0,0,0-.02-.02-.04-.03-.05-.05,0,0,0,0,0,0-.02-.02-.04-.03-.05-.05,0,0,0,0,0,0-.02-.02-.04-.03-.05-.05,0,0,0,0,0,0-.02-.02-.04-.03-.05-.05,0,0,0,0,0,0-.02-.02-.04-.03-.05-.05,0,0,0,0,0,0-.02-.02-.04-.03-.05-.05,0,0,0,0,0,0-.02-.02-.04-.03-.05-.05,0,0,0,0,0,0-.02-.02-.04-.03-.05-.05,0,0,0,0,0,0-.02-.02-.04-.03-.05-.05,0,0,0,0,0,0-.02-.02-.04-.03-.05-.05,0,0,0,0,0,0-.02-.02-.04-.03-.05-.05,0,0,0,0,0,0-.02-.02-.04-.03-.05-.05,0,0,0,0,0,0-.02-.02-.04-.03-.05-.05,0,0,0,0,0,0-.02-.02-.04-.03-.05-.05,0,0,0,0,0,0-.02-.02-.04-.03-.05-.05,0,0,0,0,0,0-.02-.02-.04-.03-.05-.05,0,0,0,0,0,0-.02-.02-.04-.03-.05-.05,0,0,0,0,0,0-.02-.02-.04-.03-.05-.05,0,0,0,0,0,0-.02-.02-.04-.03-.05-.05,0,0,0,0,0,0-.02-.02-.04-.03-.05-.05,0,0,0,0,0,0-.02-.02-.04-.03-.05-.05,0,0,0,0,0,0-.02-.02-.04-.03-.05-.05,0,0,0,0,0,0-.02-.02-.04-.03-.05-.05,0,0,0,0,0,0-.02-.02-.04-.03-.05-.05,0,0,0,0,0,0-.02-.02-.04-.03-.05-.05,0,0,0,0,0,0-.02-.02-.04-.03-.05-.05,0,0,0,0,0,0-.02-.02-.04-.03-.05-.05,0,0,0,0,0,0-.02-.02-.04-.03-.05-.05,0,0,0,0,0,0-.02-.02-.04-.03-.05-.05,0,0,0,0,0,0-.02-.02-.04-.03-.05-.05,0,0,0,0,0,0-.02-.02-.04-.03-.05-.05,0,0,0,0,0,0-.02-.02-.04-.03-.05-.05,0,0,0,0,0,0-.02-.02-.04-.03-.05-.05,0,0,0,0,0,0-.02-.02-.04-.03-.05-.05,0,0,0,0,0,0-.02-.02-.04-.03-.05-.05,0,0,0,0,0,0-.02-.02-.04-.03-.05-.05,0,0,0,0,0,0-.02-.02-.04-.03-.05-.05,0,0,0,0,0,0-.02-.02-.04-.03-.05-.05,0,0,0,0,0,0-.02-.02-.04-.03-.05-.05,0,0,0,0,0,0-.02-.02-.04-.03-.05-.05,0,0,0,0,0,0-.02-.02-.04-.03-.05-.05,0,0,0,0,0,0-.02-.02-.04-.03-.05-.05,0,0,0,0,0,0-.02-.02-.04-.03-.05-.05,0,0,0,0,0,0-.02-.02-.04-.03-.05-.05,0,0,0,0,0,0-2.82-3.15-7.59-4.73-14.3-4.73h-23.34l-5.84,62.47h.07v.06s.06,0,.06,0v.06s.06,0,.06,0v.06s.06,0,.06,0v.06s.06,0,.06,0v.06s.06,0,.06,0v.06s.06,0,.06,0v.06s.06,0,.06,0v.06s.06,0,.06,0v.06s.06,0,.06,0v.06s.06,0,.06,0v.06s.06,0,.06,0v.06s.06,0,.06,0v.06s.06,0,.06,0v.06s.06,0,.06,0v.06s.06,0,.06,0v.06s.06,0,.06,0v.06s.06,0,.06,0v.06s.06,0,.06,0v.06s.06,0,.06,0v.06s.06,0,.06,0v.06s.06,0,.06,0v.06s.06,0,.06,0v.06s.06,0,.06,0v.06s.06,0,.06,0v.06s.06,0,.06,0v.06s.06,0,.06,0v.06s.06,0,.06,0v.06s.06,0,.06,0v.06s.06,0,.06,0v.06s.06,0,.06,0v.06s.06,0,.06,0v.06s.06,0,.06,0v.06s.06,0,.06,0v.06s.06,0,.06,0v.06s.06,0,.06,0v.06s.06,0,.06,0v.06s.06,0,.06,0v.06s.06,0,.06,0v.06s.06,0,.06,0v.06s.06,0,.06,0v.06s.06,0,.06,0v.06s.06,0,.06,0v.06s.06,0,.06,0v.06s.06,0,.06,0v.06s.06,0,.06,0v.06s.06,0,.06,0v.06s.06,0,.06,0v.06s.06,0,.06,0v.06s.06,0,.06,0v.06s.06,0,.06,0v.06s.06,0,.06,0v.06s.06,0,.06,0v.06s.06,0,.06,0v.06s.06,0,.06,0v.06s.06,0,.06,0v.06s.06,0,.06,0v.06s.06,0,.06,0v.06s.06,0,.06,0v.06s.06,0,.06,0v.06s.06,0,.06,0v.06s.06,0,.06,0v.06s.06,0,.06,0v.06s.06,0,.06,0v.06s.06,0,.06,0v.06s.06,0,.06,0v.06s.06,0,.06,0v.06s.06,0,.06,0v.06s.06,0,.06,0v.06s.06,0,.06,0v.06s.06,0,.06,0v.06s.06,0,.06,0v.06s.06,0,.06,0v.06s.06,0,.06,0v.06s.06,0,.06,0v.06s.06,0,.06,0v.06s.06,0,.06,0v.06s.06,0,.06,0v.06s.06,0,.06,0v.06s.06,0,.06,0v.06s.06,0,.06,0v.06s.06,0,.06,0v.06s.06,0,.06,0v.06s.06,0,.06,0v.06s.06,0,.06,0v.06s.06,0,.06,0v.06s.06,0,.06,0v.06s.06,0,.06,0v.06s.06,0,.06,0v.06s.06,0,.06,0v.06s.06,0,.06,0v.06s.06,0,.06,0v.06s.06,0,.06,0v.06s.06,0,.06,0v.06s.06,0,.06,0v.06s.06,0,.06,0v.06s.06,0,.06,0v.06s.06,0,.06,0v.06s.06,0,.06,0v.06s.06,0,.06,0v.06s.06,0,.06,0v.06s16.89,0,16.89,0l1.18-12.6,1.17,6.4h.05v.06h.06v.06h.06v.06h.06v.06h.06v.06h.06v.06h.06v.06h.06v.06h.06v.06h.06v.06h.06v.06h.06v.06h.06v.06h.06v.06h.06v.06h.06v.06h.06v.06h.06v.06h.06v.06h.06v.06h.06v.06h.06v.06h.06v.06h.06v.06h.06v.06h.06v.06h.06v.06h.06v.06h.06v.06h.06v.06h.06v.06h.06v.06h.06v.06h.06v.06h.06v.06h.06v.06h.06v.06h.06v.06h.06v.06h.06v.06h.06v.06h.06v.06h.06v.06h.06v.06h.06v.06h.06v.06h.06v.06h.06v.06h.06v.06h.06v.06h.06v.06h.06v.06h.06v.06h.06v.06h.06v.06h.06v.06h.06v.06h.06v.06h.06v.06h.06v.06h.06v.06h.06v.06h.06v.06h.06v.06h.06v.06h.06v.06h.06v.06h.06v.06h.06v.06h.06v.06h.06v.06h.06v.06h.06v.06h.06v.06h.06v.06h.06v.06h.06v.06h.06v.06h.06v.06h.06v.06h.06v.06h.06v.06h.06v.06h.06v.06h.06v.06h.06v.06h.06v.06h.06v.06h.06v.06h.06v.06h.06v.06h.06v.06h.06v.06h.06v.06h.06v.06h.06v.06h.06v.06h.06v.06h.06v.06h.06v.06h.06v.06h18.62l-1.1-4.97h.03v.06s.06,0,.06,0v.06s.06,0,.06,0v.06s.06,0,.06,0v.06s.06,0,.06,0v.06s.06,0,.06,0v.06s.06,0,.06,0v.06s.06,0,.06,0v.06s.06,0,.06,0v.06s.06,0,.06,0v.06s.06,0,.06,0v.06s.06,0,.06,0v.06s.06,0,.06,0v.06s.06,0,.06,0v.06s.06,0,.06,0v.06s.06,0,.06,0v.06s.06,0,.06,0v.06s.06,0,.06,0v.06s.06,0,.06,0v.06s.06,0,.06,0v.06s.06,0,.06,0v.06s.06,0,.06,0v.06s.06,0,.06,0v.06s.06,0,.06,0v.06s.06,0,.06,0v.06s.06,0,.06,0v.06s.06,0,.06,0v.06s.06,0,.06,0v.06s.06,0,.06,0v.06s.06,0,.06,0v.06s.06,0,.06,0v.06s.06,0,.06,0v.06s.06,0,.06,0v.06s.06,0,.06,0v.06s.06,0,.06,0v.06s.06,0,.06,0v.06s.06,0,.06,0v.06s.06,0,.06,0v.06s.06,0,.06,0v.06s.06,0,.06,0v.06s.06,0,.06,0v.06s.06,0,.06,0v.06s.06,0,.06,0v.06s.06,0,.06,0v.06s.06,0,.06,0v.06s.06,0,.06,0v.06s.06,0,.06,0v.06s.06,0,.06,0v.06s.06,0,.06,0v.06s.06,0,.06,0v.06s.06,0,.06,0v.06s.06,0,.06,0v.06s.06,0,.06,0v.06s.06,0,.06,0v.06s.06,0,.06,0v.06s.06,0,.06,0v.06s.06,0,.06,0v.06s.06,0,.06,0v.06s.06,0,.06,0v.06s.06,0,.06,0v.06s.06,0,.06,0v.06s.06,0,.06,0v.06s.06,0,.06,0v.06s.06,0,.06,0v.06s.06,0,.06,0v.06s.06,0,.06,0v.06s.06,0,.06,0v.06s.06,0,.06,0v.06s.06,0,.06,0v.06s.06,0,.06,0v.06s.06,0,.06,0v.06s.06,0,.06,0v.06s.06,0,.06,0v.06s.06,0,.06,0v.06s.06,0,.06,0v.06s.06,0,.06,0v.06s.06,0,.06,0v.06s.06,0,.06,0v.06s.06,0,.06,0v.06s.06,0,.06,0v.06s.06,0,.06,0v.06s33.79,0,33.79,0l.97-5.89h.04v.06s.06,0,.06,0v.06s.06,0,.06,0v.06s.06,0,.06,0v.06s.06,0,.06,0v.06s.06,0,.06,0v.06s.06,0,.06,0v.06s.06,0,.06,0v.06s.06,0,.06,0v.06s.06,0,.06,0v.06s.06,0,.06,0v.06s.06,0,.06,0v.06s.06,0,.06,0v.06s.06,0,.06,0v.06s.06,0,.06,0v.06s.06,0,.06,0v.06s.06,0,.06,0v.06s.06,0,.06,0v.06s.06,0,.06,0v.06s.06,0,.06,0v.06s.06,0,.06,0v.06s.06,0,.06,0v.06s.06,0,.06,0v.06s.06,0,.06,0v.06s.06,0,.06,0v.06s.06,0,.06,0v.06s.06,0,.06,0v.06s.06,0,.06,0v.06s.06,0,.06,0v.06s.06,0,.06,0v.06s.06,0,.06,0v.06s.06,0,.06,0v.06s.06,0,.06,0v.06s.06,0,.06,0v.06s.06,0,.06,0v.06s.06,0,.06,0v.06s.06,0,.06,0v.06s.06,0,.06,0v.06s.06,0,.06,0v.06s.06,0,.06,0v.06s.06,0,.06,0v.06s.06,0,.06,0v.06s.06,0,.06,0v.06s.06,0,.06,0v.06s.06,0,.06,0v.06s.06,0,.06,0v.06s.06,0,.06,0v.06s.06,0,.06,0v.06s.06,0,.06,0v.06s.06,0,.06,0v.06s.06,0,.06,0v.06s.06,0,.06,0v.06s.06,0,.06,0v.06s.06,0,.06,0v.06s.06,0,.06,0v.06s.06,0,.06,0v.06s.06,0,.06,0v.06s.06,0,.06,0v.06s.06,0,.06,0v.06s.06,0,.06,0v.06s.06,0,.06,0v.06s.06,0,.06,0v.06s.06,0,.06,0v.06s.06,0,.06,0v.06s.06,0,.06,0v.06s.06,0,.06,0v.06s.06,0,.06,0v.06s.06,0,.06,0v.06s.06,0,.06,0v.06s.06,0,.06,0v.06s.06,0,.06,0v.06s.06,0,.06,0v.06s.06,0,.06,0v.06s.06,0,.06,0v.06s.06,0,.06,0v.06s.06,0,.06,0v.06s.06,0,.06,0v.06s.06,0,.06,0v.06s.06,0,.06,0v.06s.06,0,.06,0v.06s.06,0,.06,0v.06s.06,0,.06,0v.06s.06,0,.06,0v.06s.06,0,.06,0v.06s.06,0,.06,0v.06s.06,0,.06,0v.06s.06,0,.06,0v.06s.06,0,.06,0v.06s.06,0,.06,0v.06s.06,0,.06,0v.06s.06,0,.06,0v.06s.06,0,.06,0v.06s.06,0,.06,0v.06s.06,0,.06,0v.06s.06,0,.06,0v.06s.06,0,.06,0v.06s24.64,0,24.64,0c7.95,0,13.65-2.29,17.12-6.87l-.06.67h.07v.06s.06,0,.06,0v.06s.06,0,.06,0v.06s.06,0,.06,0v.06s.06,0,.06,0v.06s.06,0,.06,0v.06s.06,0,.06,0v.06s.06,0,.06,0v.06s.06,0,.06,0v.06s.06,0,.06,0v.06s.06,0,.06,0v.06s.06,0,.06,0v.06s.06,0,.06,0v.06s.06,0,.06,0v.06s.06,0,.06,0v.06s.06,0,.06,0v.06s.06,0,.06,0v.06s.06,0,.06,0v.06s.06,0,.06,0v.06s.06,0,.06,0v.06s.06,0,.06,0v.06s.06,0,.06,0v.06s.06,0,.06,0v.06s.06,0,.06,0v.06s.06,0,.06,0v.06s.06,0,.06,0v.06s.06,0,.06,0v.06s.06,0,.06,0v.06s.06,0,.06,0v.06s.06,0,.06,0v.06s.06,0,.06,0v.06s.06,0,.06,0v.06s.06,0,.06,0v.06s.06,0,.06,0v.06s.06,0,.06,0v.06s.06,0,.06,0v.06s.06,0,.06,0v.06s.06,0,.06,0v.06s.06,0,.06,0v.06s.06,0,.06,0v.06s.06,0,.06,0v.06s.06,0,.06,0v.06s.06,0,.06,0v.06s.06,0,.06,0v.06s.06,0,.06,0v.06s.06,0,.06,0v.06s.06,0,.06,0v.06s.06,0,.06,0v.06s.06,0,.06,0v.06s.06,0,.06,0v.06s.06,0,.06,0v.06s.06,0,.06,0v.06s.06,0,.06,0v.06s.06,0,.06,0v.06s.06,0,.06,0v.06s.06,0,.06,0v.06s.06,0,.06,0v.06s.06,0,.06,0v.06s.06,0,.06,0v.06s.06,0,.06,0v.06s.06,0,.06,0v.06s.06,0,.06,0v.06s.06,0,.06,0v.06s.06,0,.06,0v.06s.06,0,.06,0v.06s.06,0,.06,0v.06s.06,0,.06,0v.06s.06,0,.06,0v.06s.06,0,.06,0v.06s.06,0,.06,0v.06s.06,0,.06,0v.06s.06,0,.06,0v.06s.06,0,.06,0v.06s.06,0,.06,0v.06s.06,0,.06,0v.06s.06,0,.06,0v.06s.06,0,.06,0v.06s.06,0,.06,0v.06s.06,0,.06,0v.06s.06,0,.06,0v.06s.06,0,.06,0v.06s.06,0,.06,0v.06s.06,0,.06,0v.06s.06,0,.06,0v.06s.06,0,.06,0v.06s.06,0,.06,0v.06s.06,0,.06,0v.06s.06,0,.06,0v.06s.06,0,.06,0v.06s.06,0,.06,0v.06s.06,0,.06,0v.06s.06,0,.06,0v.06s.06,0,.06,0v.06s.06,0,.06,0v.06s.06,0,.06,0v.06s.06,0,.06,0v.06s.06,0,.06,0v.06s.06,0,.06,0v.06s.06,0,.06,0v.06s.06,0,.06,0v.06s.06,0,.06,0v.06s33.79,0,33.79,0l.97-5.89h.04v.06s.06,0,.06,0v.06s.06,0,.06,0v.06s.06,0,.06,0v.06s.06,0,.06,0v.06s.06,0,.06,0v.06s.06,0,.06,0v.06s.06,0,.06,0v.06s.06,0,.06,0v.06s.06,0,.06,0v.06s.06,0,.06,0v.06s.06,0,.06,0v.06s.06,0,.06,0v.06s.06,0,.06,0v.06s.06,0,.06,0v.06s.06,0,.06,0v.06s.06,0,.06,0v.06s.06,0,.06,0v.06s.06,0,.06,0v.06s.06,0,.06,0v.06s.06,0,.06,0v.06s.06,0,.06,0v.06s.06,0,.06,0v.06s.06,0,.06,0v.06s.06,0,.06,0v.06s.06,0,.06,0v.06s.06,0,.06,0v.06s.06,0,.06,0v.06s.06,0,.06,0v.06s.06,0,.06,0v.06s.06,0,.06,0v.06s.06,0,.06,0v.06s.06,0,.06,0v.06s.06,0,.06,0v.06s.06,0,.06,0v.06s.06,0,.06,0v.06s.06,0,.06,0v.06s.06,0,.06,0v.06s.06,0,.06,0v.06s.06,0,.06,0v.06s.06,0,.06,0v.06s.06,0,.06,0v.06s.06,0,.06,0v.06s.06,0,.06,0v.06s.06,0,.06,0v.06s.06,0,.06,0v.06s.06,0,.06,0v.06s.06,0,.06,0v.06s.06,0,.06,0v.06s.06,0,.06,0v.06s.06,0,.06,0v.06s.06,0,.06,0v.06s.06,0,.06,0v.06s.06,0,.06,0v.06s.06,0,.06,0v.06s.06,0,.06,0v.06s.06,0,.06,0v.06s.06,0,.06,0v.06s.06,0,.06,0v.06s.06,0,.06,0v.06s.06,0,.06,0v.06s.06,0,.06,0v.06s.06,0,.06,0v.06s.06,0,.06,0v.06s.06,0,.06,0v.06s.06,0,.06,0v.06s.06,0,.06,0v.06s.06,0,.06,0v.06s.06,0,.06,0v.06s.06,0,.06,0v.06s.06,0,.06,0v.06s.06,0,.06,0v.06s.06,0,.06,0v.06s.06,0,.06,0v.06s.06,0,.06,0v.06s.06,0,.06,0v.06s.06,0,.06,0v.06s.06,0,.06,0v.06s.06,0,.06,0v.06s.06,0,.06,0v.06s.06,0,.06,0v.06s.06,0,.06,0v.06s.06,0,.06,0v.06s.06,0,.06,0v.06s.06,0,.06,0v.06s.06,0,.06,0v.06s.06,0,.06,0v.06s.06,0,.06,0v.06s.06,0,.06,0v.06s.06,0,.06,0v.06s.06,0,.06,0v.06s.06,0,.06,0v.06s.06,0,.06,0v.06s.06,0,.06,0v.06s.06,0,.06,0v.06s.06,0,.06,0v.06s31.78,0,31.78,0l2.31-13.98h-.07v-.06ZM184.92,45.86h1.52c-.02.5-.05,1.03-.1,1.6-.27,2.85-.79,4.73-1.58,5.63-.16.18-.35.34-.56.49l.72-7.72ZM187.68,23.51c-.19,2.04-.55,3.54-1.09,4.52l.45-4.81h.66c0,.1-.01.19-.02.29ZM208.92,42.93c-.43-.68-.92-1.3-1.48-1.84-.02-.02-.04-.04-.06-.06-.02-.02-.04-.04-.06-.06-.02-.02-.04-.04-.06-.06-.02-.02-.04-.04-.06-.06-.02-.02-.04-.04-.06-.06-.02-.02-.04-.04-.06-.06-.02-.02-.04-.04-.06-.06-.02-.02-.04-.04-.06-.06-.02-.02-.04-.04-.06-.06-.02-.02-.04-.04-.06-.06-.02-.02-.04-.04-.06-.06-.02-.02-.04-.04-.06-.06-.02-.02-.04-.04-.06-.06-.02-.02-.04-.04-.06-.06-.02-.02-.04-.04-.06-.06-.02-.02-.04-.04-.06-.06-.02-.02-.04-.04-.06-.06-.02-.02-.04-.04-.06-.06-.02-.02-.04-.04-.06-.06-.02-.02-.04-.04-.06-.06-.02-.02-.04-.04-.06-.06-.02-.02-.04-.04-.06-.06-.02-.02-.04-.04-.06-.06-.02-.02-.04-.04-.06-.06-.02-.02-.04-.04-.06-.06-.02-.02-.04-.04-.06-.06-.02-.02-.04-.04-.06-.06-.02-.02-.04-.04-.06-.06-.02-.02-.04-.04-.06-.06-.02-.02-.04-.04-.06-.06-.02-.02-.04-.04-.06-.06-.02-.02-.04-.04-.06-.06-.02-.02-.04-.04-.06-.06-.02-.02-.04-.04-.06-.06-.02-.02-.04-.04-.06-.06-.02-.02-.04-.04-.06-.06-.02-.02-.04-.04-.06-.06-.02-.02-.04-.04-.06-.06-.02-.02-.04-.04-.06-.06-.02-.02-.04-.04-.06-.06-.02-.02-.04-.04-.06-.06-.02-.02-.04-.04-.06-.06-.02-.02-.04-.04-.06-.06-.02-.02-.04-.04-.06-.06-.02-.02-.04-.04-.06-.06-.02-.02-.04-.04-.06-.06-.02-.02-.04-.04-.06-.06,0,0,0,0,0,0,2.24-1.4,4-3.09,5.29-5.07l-.92,9.8ZM248.25,56.87h-.07v-.06s-.06,0-.06,0v-.06s-.06,0-.06,0v-.06s-.06,0-.06,0v-.06s-.06,0-.06,0v-.06s-.06,0-.06,0v-.06s-.06,0-.06,0v-.06s-.06,0-.06,0v-.06s-.06,0-.06,0v-.06s-.06,0-.06,0v-.06s-.06,0-.06,0v-.06s-.06,0-.06,0v-.06s-.06,0-.06,0v-.06s-.06,0-.06,0v-.06s-.06,0-.06,0v-.06s-.06,0-.06,0v-.06s-.06,0-.06,0v-.06s-.06,0-.06,0v-.06s-.06,0-.06,0v-.06s-.06,0-.06,0v-.06s-.06,0-.06,0v-.06s-.06,0-.06,0v-.06s-.06,0-.06,0v-.06s-.06,0-.06,0v-.06s-.06,0-.06,0v-.06s-.06,0-.06,0v-.06s-.06,0-.06,0v-.06s-.06,0-.06,0v-.06s-.06,0-.06,0v-.06s-.06,0-.06,0v-.06s-.06,0-.06,0v-.06s-.06,0-.06,0v-.06s-.06,0-.06,0v-.06s-.06,0-.06,0v-.06s-.06,0-.06,0v-.06s-.06,0-.06,0v-.06s-.06,0-.06,0v-.06s-.06,0-.06,0v-.06s-.06,0-.06,0v-.06s-.06,0-.06,0v-.06s-.06,0-.06,0v-.06s-.06,0-.06,0v-.06s-.06,0-.06,0v-.06s-.06,0-.06,0v-.06s-.06,0-.06,0v-.06s-.06,0-.06,0v-.06s-.06,0-.06,0v-.06s-.06,0-.06,0v-.06s-.06,0-.06,0v-.06s-.06,0-.06,0v-.06s-.06,0-.06,0v-.06s-.06,0-.06,0v-.06s-.06,0-.06,0v-.06s-.06,0-.06,0v-.06s-.06,0-.06,0v-.06s-.06,0-.06,0v-.06s-.06,0-.06,0v-.06s-.06,0-.06,0v-.06s-.06,0-.06,0v-.06s-.06,0-.06,0v-.06s-.06,0-.06,0v-.06s-.06,0-.06,0v-.06s-.06,0-.06,0v-.06s-.06,0-.06,0v-.06s-.06,0-.06,0v-.06s-.06,0-.06,0v-.06s-.06,0-.06,0v-.06s-.06,0-.06,0v-.06s-.06,0-.06,0v-.06s-.06,0-.06,0v-.06s-.06,0-.06,0v-.06s-.06,0-.06,0v-.06s-.06,0-.06,0v-.06s-.06,0-.06,0v-.06s-.06,0-.06,0v-.06s-.06,0-.06,0v-.06s-.06,0-.06,0v-.06s-.06,0-.06,0v-.06s-.06,0-.06,0v-.06s-.06,0-.06,0v-.06s-.06,0-.06,0v-.06s-.06,0-.06,0v-.06s-.06,0-.06,0v-.06s-.06,0-.06,0v-.06s-.06,0-.06,0v-.06s-.06,0-.06,0v-.06s-.06,0-.06,0v-.06s-10.81,0-10.81,0l.39-4.16h14.39l1.24-13.28h-.07v-.06s-.06,0-.06,0v-.06s-.06,0-.06,0v-.06s-.06,0-.06,0v-.06s-.06,0-.06,0v-.06s-.06,0-.06,0v-.06s-.06,0-.06,0v-.06s-.06,0-.06,0v-.06s-.06,0-.06,0v-.06s-.06,0-.06,0v-.06s-.06,0-.06,0v-.06s-.06,0-.06,0v-.06s-.06,0-.06,0v-.06s-.06,0-.06,0v-.06s-.06,0-.06,0v-.06s-.06,0-.06,0v-.06s-.06,0-.06,0v-.06s-.06,0-.06,0v-.06s-.06,0-.06,0v-.06s-.06,0-.06,0v-.06s-.06,0-.06,0v-.06s-.06,0-.06,0v-.06s-.06,0-.06,0v-.06s-.06,0-.06,0v-.06s-.06,0-.06,0v-.06s-.06,0-.06,0v-.06s-.06,0-.06,0v-.06s-.06,0-.06,0v-.06s-.06,0-.06,0v-.06s-.06,0-.06,0v-.06s-.06,0-.06,0v-.06s-.06,0-.06,0v-.06s-.06,0-.06,0v-.06s-.06,0-.06,0v-.06s-.06,0-.06,0v-.06s-.06,0-.06,0v-.06s-.06,0-.06,0v-.06s-.06,0-.06,0v-.06s-.06,0-.06,0v-.06s-.06,0-.06,0v-.06s-.06,0-.06,0v-.06s-.06,0-.06,0v-.06s-.06,0-.06,0v-.06s-.06,0-.06,0v-.06s-.06,0-.06,0v-.06s-.06,0-.06,0v-.06s-.06,0-.06,0v-.06s-.06,0-.06,0v-.06s-.06,0-.06,0v-.06s-.06,0-.06,0v-.06s-.06,0-.06,0v-.06s-.06,0-.06,0v-.06s-.06,0-.06,0v-.06s-.06,0-.06,0v-.06s-.06,0-.06,0v-.06s-.06,0-.06,0v-.06s-.06,0-.06,0v-.06s-.06,0-.06,0v-.06s-.06,0-.06,0v-.06s-.06,0-.06,0v-.06s-.06,0-.06,0v-.06s-.06,0-.06,0v-.06s-.06,0-.06,0v-.06s-.06,0-.06,0v-.06s-.06,0-.06,0v-.06s-.06,0-.06,0v-.06s-.06,0-.06,0v-.06s-.06,0-.06,0v-.06s-.06,0-.06,0v-.06s-.06,0-.06,0v-.06s-.06,0-.06,0v-.06s-.06,0-.06,0v-.06s-.06,0-.06,0v-.06s-.06,0-.06,0v-.06s-.06,0-.06,0v-.06s-.06,0-.06,0v-.06s-.06,0-.06,0v-.06s-.06,0-.06,0v-.06s-.06,0-.06,0v-.06s-.06,0-.06,0v-.06s-.06,0-.06,0v-.06s-.06,0-.06,0v-.06s-.06,0-.06,0v-.06s-.06,0-.06,0v-.06s-.06,0-.06,0v-.06s-.06,0-.06,0v-.06s-.06,0-.06,0v-.06s-.06,0-.06,0v-.06s-.06,0-.06,0v-.06s-.06,0-.06,0v-.06s-.06,0-.06,0v-.06s-.06,0-.06,0v-.06s-.06,0-.06,0v-.06s-.06,0-.06,0v-.06s-.06,0-.06,0v-.06s-.06,0-.06,0v-.06s-.06,0-.06,0v-.06s-.06,0-.06,0v-.06s-.06,0-.06,0v-.06s-.06,0-.06,0v-.06s-.06,0-.06,0v-.06s-7.6,0-7.6,0l.3-3.16h16.6l.15-.91-3.09,33.05ZM159.71,56.87h-.06v-.06s-.06,0-.06,0v-.06s-.06,0-.06,0v-.06s-.06,0-.06,0v-.06s-.06,0-.06,0v-.06s-.06,0-.06,0v-.06s-.06,0-.06,0v-.06s-.06,0-.06,0v-.06s-.06,0-.06,0v-.06s-.06,0-.06,0v-.06s-.06,0-.06,0v-.06s-.06,0-.06,0v-.06s-.06,0-.06,0v-.06s-.06,0-.06,0v-.06s-.06,0-.06,0v-.06s-.06,0-.06,0v-.06s-.06,0-.06,0v-.06s-.06,0-.06,0v-.06s-.06,0-.06,0v-.06s-.06,0-.06,0v-.06s-.06,0-.06,0v-.06s-.06,0-.06,0v-.06s-.06,0-.06,0v-.06s-.06,0-.06,0v-.06s-.06,0-.06,0v-.06s-.06,0-.06,0v-.06s-.06,0-.06,0v-.06s-.06,0-.06,0v-.06s-.06,0-.06,0v-.06s-.06,0-.06,0v-.06s-.06,0-.06,0v-.06s-.06,0-.06,0v-.06s-.06,0-.06,0v-.06s-.06,0-.06,0v-.06s-.06,0-.06,0v-.06s-.06,0-.06,0v-.06s-.06,0-.06,0v-.06s-.06,0-.06,0v-.06s-.06,0-.06,0v-.06s-.06,0-.06,0v-.06s-.06,0-.06,0v-.06s-.06,0-.06,0v-.06s-.06,0-.06,0v-.06s-.06,0-.06,0v-.06s-.06,0-.06,0v-.06s-.06,0-.06,0v-.06s-.06,0-.06,0v-.06s-.06,0-.06,0v-.06s-.06,0-.06,0v-.06s-.06,0-.06,0v-.06s-.06,0-.06,0v-.06s-.06,0-.06,0v-.06s-.06,0-.06,0v-.06s-.06,0-.06,0v-.06s-.06,0-.06,0v-.06s-.06,0-.06,0v-.06s-.06,0-.06,0v-.06s-.06,0-.06,0v-.06s-.06,0-.06,0v-.06s-.06,0-.06,0v-.06s-.06,0-.06,0v-.06s-.06,0-.06,0v-.06s-.06,0-.06,0v-.06s-.06,0-.06,0v-.06s-.06,0-.06,0v-.06s-.06,0-.06,0v-.06s-.06,0-.06,0v-.06s-.06,0-.06,0v-.06s-.06,0-.06,0v-.06s-.06,0-.06,0v-.06s-.06,0-.06,0v-.06s-.06,0-.06,0v-.06s-.06,0-.06,0v-.06s-.06,0-.06,0v-.06s-.06,0-.06,0v-.06s-.06,0-.06,0v-.06s-.06,0-.06,0v-.06s-.06,0-.06,0v-.06s-.06,0-.06,0v-.06s-.06,0-.06,0v-.06s-.06,0-.06,0v-.06s-.06,0-.06,0v-.06s-.06,0-.06,0v-.06s-.06,0-.06,0v-.06s-.06,0-.06,0v-.06s-.06,0-.06,0v-.06s-.06,0-.06,0v-.06s-10.81,0-10.81,0l.39-4.16h14.39l1.24-13.28h-.07v-.06s-.06,0-.06,0v-.06s-.06,0-.06,0v-.06s-.06,0-.06,0v-.06s-.06,0-.06,0v-.06s-.06,0-.06,0v-.06s-.06,0-.06,0v-.06s-.06,0-.06,0v-.06s-.06,0-.06,0v-.06s-.06,0-.06,0v-.06s-.06,0-.06,0v-.06s-.06,0-.06,0v-.06s-.06,0-.06,0v-.06s-.06,0-.06,0v-.06s-.06,0-.06,0v-.06s-.06,0-.06,0v-.06s-.06,0-.06,0v-.06s-.06,0-.06,0v-.06s-.06,0-.06,0v-.06s-.06,0-.06,0v-.06s-.06,0-.06,0v-.06s-.06,0-.06,0v-.06s-.06,0-.06,0v-.06s-.06,0-.06,0v-.06s-.06,0-.06,0v-.06s-.06,0-.06,0v-.06s-.06,0-.06,0v-.06s-.06,0-.06,0v-.06s-.06,0-.06,0v-.06s-.06,0-.06,0v-.06s-.06,0-.06,0v-.06s-.06,0-.06,0v-.06s-.06,0-.06,0v-.06s-.06,0-.06,0v-.06s-.06,0-.06,0v-.06s-.06,0-.06,0v-.06s-.06,0-.06,0v-.06s-.06,0-.06,0v-.06s-.06,0-.06,0v-.06s-.06,0-.06,0v-.06s-.06,0-.06,0v-.06s-.06,0-.06,0v-.06s-.06,0-.06,0v-.06s-.06,0-.06,0v-.06s-.06,0-.06,0v-.06s-.06,0-.06,0v-.06s-.06,0-.06,0v-.06s-.06,0-.06,0v-.06s-.06,0-.06,0v-.06s-.06,0-.06,0v-.06s-.06,0-.06,0v-.06s-.06,0-.06,0v-.06s-.06,0-.06,0v-.06s-.06,0-.06,0v-.06s-.06,0-.06,0v-.06s-.06,0-.06,0v-.06s-.06,0-.06,0v-.06s-.06,0-.06,0v-.06s-.06,0-.06,0v-.06s-.06,0-.06,0v-.06s-.06,0-.06,0v-.06s-.06,0-.06,0v-.06s-.06,0-.06,0v-.06s-.06,0-.06,0v-.06s-.06,0-.06,0v-.06s-.06,0-.06,0v-.06s-.06,0-.06,0v-.06s-.06,0-.06,0v-.06s-.06,0-.06,0v-.06s-.06,0-.06,0v-.06s-.06,0-.06,0v-.06s-.06,0-.06,0v-.06s-.06,0-.06,0v-.06s-.06,0-.06,0v-.06s-.06,0-.06,0v-.06s-.06,0-.06,0v-.06s-.06,0-.06,0v-.06s-.06,0-.06,0v-.06s-.06,0-.06,0v-.06s-.06,0-.06,0v-.06s-.06,0-.06,0v-.06s-.06,0-.06,0v-.06s-.06,0-.06,0v-.06s-.06,0-.06,0v-.06s-.06,0-.06,0v-.06s-.06,0-.06,0v-.06s-.06,0-.06,0v-.06s-.06,0-.06,0v-.06s-.06,0-.06,0v-.06s-.06,0-.06,0v-.06s-.06,0-.06,0v-.06s-.06,0-.06,0v-.06s-.06,0-.06,0v-.06s-.06,0-.06,0v-.06s-.06,0-.06,0v-.06s-.06,0-.06,0v-.06s-.06,0-.06,0v-.06s-.06,0-.06,0v-.06s-.06,0-.06,0v-.06s-.06,0-.06,0v-.06s-.06,0-.06,0v-.06s-7.6,0-7.6,0l.3-3.16h16.6l.14-.91-3.09,33.05ZM114.75,45.25c2.6-2.01,4.59-4.26,5.96-6.74.03-.06.06-.12.09-.18l-2.26,24.11-3.8-17.19ZM98.45,25.52c-.19,2.05-.56,3.6-1.1,4.66l.52-5.56h.65c-.02.29-.04.58-.07.89Z"/>
      </g>
      <g>
        <path class="cls-2" d="M117.3,22.96c-.35,3.76-1.21,6.87-2.59,9.36-1.37,2.48-3.36,4.73-5.96,6.74l5.87,26.56h-18.61l-4.13-22.53h-2.31l-2.11,22.53h-16.9l5.84-62.47h23.34c6.71,0,11.47,1.58,14.3,4.73,2.82,3.15,3.91,8.18,3.27,15.09ZM97.04,31.01c.83-1.01,1.37-2.83,1.62-5.48s.05-4.49-.59-5.53c-.64-1.04-1.8-1.56-3.48-1.56h-2.72l-1.32,14.08h2.62c1.74,0,3.03-.5,3.86-1.51ZM152.26,65.61h-33.8l5.84-62.47h34.81l-2.45,15.39h-16.6l-.88,9.36h14.39l-1.24,13.28h-14.39l-.97,10.36h17.6l-2.32,14.08ZM204.74,47.6c-1.12,12.01-8.12,18.01-21,18.01h-24.65l5.84-62.47h24.14c6.37,0,10.98,1.29,13.82,3.87,2.84,2.58,4,6.69,3.47,12.32-.53,5.63-3.24,9.93-8.15,12.88l-.06.6c5.1,2.08,7.29,7.01,6.56,14.79ZM186.51,28.49c.69-.94,1.15-2.6,1.37-4.98s.06-4.06-.48-5.03c-.55-.97-1.59-1.46-3.13-1.46h-3.22l-1.2,12.88h3.32c1.54,0,2.66-.47,3.35-1.41ZM184.97,53.09c.79-.91,1.32-2.78,1.58-5.63s.09-4.86-.54-6.04c-.63-1.17-1.91-1.76-3.86-1.76h-3.22l-1.38,14.79h3.22c2.01,0,3.41-.45,4.2-1.36ZM240.8,65.61h-33.8l5.84-62.47h34.81l-2.45,15.39h-16.6l-.88,9.36h14.39l-1.24,13.28h-14.39l-.97,10.36h17.6l-2.32,14.08ZM279.43,65.61h-31.79l5.84-62.47h17.2l-4.54,48.49h15.59l-2.31,13.98ZM325.61,65.61h-31.79l5.84-62.47h17.2l-4.54,48.49h15.59l-2.31,13.98ZM364.04,65.61h-33.8l5.84-62.47h34.81l-2.45,15.39h-16.6l-.88,9.36h14.39l-1.24,13.28h-14.39l-.97,10.36h17.6l-2.32,14.08ZM415.74,65.61h-16.8l-.99-9.86h-11.87l-2.83,9.86h-15.99l17.31-62.47h25.55l5.62,62.47ZM397.15,43.98l-1.43-22.33h-.7l-5.61,22.33h7.75ZM459.18,18.53h-16.6l-.88,9.36h13.38l-1.24,13.28h-13.38l-2.29,24.45h-17.2l5.84-62.47h34.81l-2.45,15.39Z"/>
        <path class="cls-5" d="M117.3,22.96c-.35,3.76-1.21,6.87-2.59,9.36-1.37,2.48-3.36,4.73-5.96,6.74l5.87,26.56h-18.61l-4.13-22.53h-2.31l-2.11,22.53h-16.9l5.84-62.47h23.34c6.71,0,11.47,1.58,14.3,4.73,2.82,3.15,3.91,8.18,3.27,15.09ZM97.04,31.01c.83-1.01,1.37-2.83,1.62-5.48s.05-4.49-.59-5.53c-.64-1.04-1.8-1.56-3.48-1.56h-2.72l-1.32,14.08h2.62c1.74,0,3.03-.5,3.86-1.51ZM152.26,65.61h-33.8l5.84-62.47h34.81l-2.45,15.39h-16.6l-.88,9.36h14.39l-1.24,13.28h-14.39l-.97,10.36h17.6l-2.32,14.08ZM204.74,47.6c-1.12,12.01-8.12,18.01-21,18.01h-24.65l5.84-62.47h24.14c6.37,0,10.98,1.29,13.82,3.87,2.84,2.58,4,6.69,3.47,12.32-.53,5.63-3.24,9.93-8.15,12.88l-.06.6c5.1,2.08,7.29,7.01,6.56,14.79ZM186.51,28.49c.69-.94,1.15-2.6,1.37-4.98s.06-4.06-.48-5.03c-.55-.97-1.59-1.46-3.13-1.46h-3.22l-1.2,12.88h3.32c1.54,0,2.66-.47,3.35-1.41ZM184.97,53.09c.79-.91,1.32-2.78,1.58-5.63s.09-4.86-.54-6.04c-.63-1.17-1.91-1.76-3.86-1.76h-3.22l-1.38,14.79h3.22c2.01,0,3.41-.45,4.2-1.36ZM240.8,65.61h-33.8l5.84-62.47h34.81l-2.45,15.39h-16.6l-.88,9.36h14.39l-1.24,13.28h-14.39l-.97,10.36h17.6l-2.32,14.08ZM279.43,65.61h-31.79l5.84-62.47h17.2l-4.54,48.49h15.59l-2.31,13.98ZM325.61,65.61h-31.79l5.84-62.47h17.2l-4.54,48.49h15.59l-2.31,13.98ZM364.04,65.61h-33.8l5.84-62.47h34.81l-2.45,15.39h-16.6l-.88,9.36h14.39l-1.24,13.28h-14.39l-.97,10.36h17.6l-2.32,14.08ZM415.74,65.61h-16.8l-.99-9.86h-11.87l-2.83,9.86h-15.99l17.31-62.47h25.55l5.62,62.47ZM397.15,43.98l-1.43-22.33h-.7l-5.61,22.33h7.75ZM459.18,18.53h-16.6l-.88,9.36h13.38l-1.24,13.28h-13.38l-2.29,24.45h-17.2l5.84-62.47h34.81l-2.45,15.39Z"/>
      </g>
    </g>
  </g>
</svg>