<?xml version="1.0" encoding="UTF-8"?>
<svg id="Layer_2" xmlns="http://www.w3.org/2000/svg" viewBox="0 0 495.3 72.01">
  <defs>
    <style>
      .cls-1 {
        fill: #67ecbc;
        stroke: #161d33;
        stroke-linecap: round;
        stroke-miterlimit: 10;
        stroke-width: 3.01px;
      }

      .cls-2 {
        fill: #eeeeed;
      }

      .cls-3 {
        fill: #161d33;
      }

      .cls-4 {
        fill: #8a5fb1;
      }

      .cls-5 {
        fill: #fdfdfd;
      }
    </style>
  </defs>
  <g id="Layer_2-2" data-name="Layer_2">
    <g>
      <g>
        <rect class="cls-4" x="4.76" y="6.54" width="50.82" height="65.47" rx="19.22" ry="19.22"/>
        <rect class="cls-1" x="1.51" y="1.51" width="50.82" height="65.95" rx="19.22" ry="19.22"/>
        <g>
          <path class="cls-3" d="M46.76,38.37c-3.31-.8-6.62-.66-9.92-.72-.84-.02-1.75-.02-2.68-.03,3.73-3.63,7.49-7.2,10.38-11.6,1.31-1.98-1.09-4.41-3.09-3.09-4.07,2.68-7.43,6.1-10.79,9.55.01-.37.03-.74.04-1.11.14-6.68.22-13.3-1.6-19.85-.59-2.17-3.77-2.19-4.37,0-1.82,6.55-1.74,13.16-1.6,19.85,0,.03,0,.06,0,.08-3.23-3.33-6.63-6.48-10.56-9.04-.7-.43-1.62-.47-2.37,0-1.05.65-1.38,2.04-.72,3.09,1.54,2.48,3.38,4.66,5.31,6.74,1.8,1.87,3.65,3.69,5.52,5.49-1.16.02-2.28.04-3.32.06-3.31.06-6.62.06-9.92.57-.93.14-1.71.87-1.85,1.85-.18,1.21.65,2.34,1.85,2.52,3.31.5,6.62.51,9.92.57,1.1.02,2.29.04,3.54.06-.9,1.04-1.79,2.08-2.67,3.15-1.67,2.03,1.05,4.76,3.09,3.09,1.08-.89,2.14-1.79,3.19-2.71.17,1.46.36,2.9.59,4.31.39,2.43,3.97,2.45,4.37,0,.26-1.57.47-3.18.65-4.81,1.26,1.09,2.53,2.16,3.84,3.2.78.63,1.92.65,2.74,0,.95-.76,1.11-2.14.35-3.09-.82-1.03-1.66-2.03-2.51-3.03.93,0,1.83-.02,2.66-.03,3.31-.06,6.62.08,9.92-.72.79-.19,1.45-.81,1.66-1.66.29-1.21-.45-2.42-1.66-2.72Z"/>
          <circle class="cls-3" cx="26.9" cy="57.13" r="2.6"/>
        </g>
      </g>
      <g>
        <path class="cls-5" d="M451.17,70.4l6.24-66.75h36.71l-2.49,15.69h-18.03l-1.04,11.15h14.51l-1.25,13.4h-14.51l-2.48,26.51h-17.65ZM427.18,70.4l-1.07-10.69h-13.7l-3.07,10.69h-16.31L411.52,3.65h26.88l6.01,66.75h-17.22ZM415.74,47.94h9.58l-1.62-25.22h-1.62l-6.34,25.22ZM352.76,70.4l6.24-66.75h36.71l-2.49,15.69h-18.03l-1.04,11.15h15.6l-1.25,13.4h-15.6l-1.14,12.24h19.05l-2.35,14.27h-35.69ZM313.26,70.4l6.25-66.75h17.65l-4.92,52.59h16.87l-2.34,14.17h-33.5ZM263.18,70.4l6.25-66.75h17.65l-4.92,52.59h16.87l-2.34,14.17h-33.5ZM219.1,70.4l6.24-66.75h36.71l-2.49,15.69h-18.03l-1.04,11.15h15.6l-1.25,13.4h-15.6l-1.14,12.24h19.05l-2.35,14.27h-35.69ZM167.14,70.4l6.24-66.75h25.73c6.75,0,11.68,1.37,14.65,4.07,2.95,2.68,4.16,7.03,3.61,12.95-.55,5.92-3.44,10.49-8.59,13.58l-.22.13-.12,1.28.34.14c5.36,2.18,7.58,7.26,6.81,15.53-1.2,12.84-8.49,19.08-22.28,19.08h-26.18ZM186.05,59.29h4.04c2.32,0,3.98-.55,4.93-1.64.93-1.07,1.54-3.17,1.84-6.39.3-3.22.09-5.45-.64-6.83-.77-1.44-2.33-2.17-4.63-2.17h-3.95l-1.59,17.04ZM188.54,32.67h4.15c1.83,0,3.19-.58,4.04-1.73.81-1.1,1.33-2.95,1.58-5.65.25-2.71.06-4.59-.59-5.75-.69-1.22-1.98-1.84-3.83-1.84h-3.95l-1.4,14.96ZM123.07,70.4l6.24-66.75h36.71l-2.49,15.69h-18.03l-1.04,11.15h15.6l-1.25,13.4h-15.6l-1.14,12.24h19.05l-2.35,14.27h-35.69ZM98.59,70.4l-4.48-24.44h-3.38l-2.29,24.44h-17.33L77.36,3.65h24.86c7.09,0,12.18,1.67,15.13,4.96,2.95,3.29,4.1,8.67,3.42,15.99-.37,3.99-1.3,7.33-2.74,9.95-1.45,2.62-3.58,5.03-6.33,7.16l-.25.19,6.3,28.5h-19.15ZM91.71,35.51h3.39c2.04,0,3.58-.61,4.58-1.82.98-1.18,1.59-3.22,1.87-6.22.28-3.01.05-5.07-.71-6.31-.79-1.28-2.2-1.93-4.2-1.93h-3.4l-1.52,16.28Z"/>
        <path class="cls-2" d="M493.54,4.15l-2.33,14.69h-18.06l-.08.91-.95,10.15-.1,1.09h14.51l-1.16,12.4h-14.51l-.08.91-2.4,25.61h-16.65l6.15-65.76h35.67M437.94,4.15l5.92,65.76h-16.22l-.98-9.79-.09-.9h-14.53l-.21.72-2.87,9.97h-15.28l18.22-65.76h26.04M415.1,48.44h10.75l-.07-1.06-1.55-24.22-.06-.94h-2.48l-.19.76-6.08,24.22-.31,1.24M395.13,4.15l-2.33,14.69h-18.06l-.08.91-.95,10.15-.1,1.09h15.6l-1.16,12.4h-15.6l-.08.91-1.05,11.24-.1,1.09h19.01l-2.19,13.27h-34.71l6.15-65.76h35.67M336.61,4.15l-4.82,51.5-.1,1.09h16.83l-2.18,13.17h-32.53l6.15-65.76h16.65M286.53,4.15l-4.82,51.5-.1,1.09h16.83l-2.18,13.17h-32.53l6.15-65.76h16.65M261.47,4.15l-2.34,14.69h-18.06l-.08.91-.95,10.15-.1,1.09h15.6l-1.16,12.4h-15.6l-.08.91-1.05,11.24-.1,1.09h19.01l-2.19,13.27h-34.71l6.15-65.76h35.67M199.12,4.15c6.62,0,11.44,1.33,14.32,3.94,2.82,2.57,3.98,6.78,3.45,12.53-.55,5.83-3.28,10.15-8.35,13.2l-.43.26-.05.5-.06.65-.07.74.69.28c5.12,2.09,7.25,7,6.5,15.02-1.17,12.53-8.3,18.62-21.78,18.62h-25.63l6.15-65.76h25.27M187.99,33.17h4.7c2,0,3.5-.65,4.44-1.93.87-1.18,1.42-3.11,1.68-5.9.26-2.81.05-4.79-.65-6.04-.78-1.39-2.22-2.09-4.27-2.09h-4.4l-.08.91-1.31,13.96-.1,1.09M185.5,59.79h4.59c2.47,0,4.26-.61,5.31-1.82,1.01-1.15,1.65-3.34,1.96-6.67.31-3.32.08-5.65-.7-7.11-.87-1.62-2.57-2.44-5.07-2.44h-4.4l-.08.91-1.5,16.04-.1,1.09M165.43,4.15l-2.33,14.69h-18.06l-.08.91-.95,10.15-.1,1.09h15.6l-1.16,12.4h-15.6l-.08.91-1.05,11.24-.1,1.09h19.01l-2.19,13.27h-34.71l6.15-65.76h35.67M102.22,4.15c6.94,0,11.91,1.61,14.76,4.79,2.85,3.19,3.96,8.44,3.29,15.61-.37,3.92-1.27,7.2-2.68,9.76-1.42,2.56-3.5,4.92-6.2,7l-.5.39.14.62,6.09,27.59h-18.11l-4.33-23.62-.15-.82h-4.25l-.08.91-2.2,23.53h-16.32l6.15-65.76h24.4M91.16,36.01h3.93c2.19,0,3.86-.67,4.96-2,1.04-1.26,1.69-3.38,1.98-6.49.29-3.12.04-5.29-.78-6.62-.89-1.44-2.44-2.17-4.62-2.17h-3.86l-.08.91-1.43,15.28-.1,1.09M494.71,3.15h-37.75l-6.34,67.76h18.66l2.48-26.51h14.51l1.35-14.4h-14.51l.95-10.15h18l2.65-16.69h0ZM438.85,3.15h-27.71l-18.78,67.76h17.35l3.07-10.69h12.87l1.07,10.69h18.22l-6.1-67.76h0ZM416.38,47.44l6.08-24.22h.76l1.55,24.22h-8.4ZM396.3,3.15h0,0ZM396.3,3.15h-37.75l-6.34,67.76h36.66l2.52-15.27h-19.09l1.05-11.24h15.6l1.35-14.4h-15.6l.95-10.15h18l2.65-16.69h0ZM337.71,3.15h0,0ZM337.71,3.15h-18.66l-6.34,67.76h34.48l2.51-15.17h-16.91l4.92-52.59h0ZM287.62,3.15h0,0ZM287.62,3.15h-18.66l-6.34,67.76h34.48l2.51-15.17h-16.91l4.92-52.59h0ZM262.64,3.15h0,0ZM262.64,3.15h-37.75l-6.34,67.76h36.66l2.52-15.27h-19.09l1.05-11.24h15.6l1.35-14.4h-15.6l.95-10.15h18l2.65-16.69h0ZM199.12,3.15h-26.19l-6.34,67.76h26.73c13.97,0,21.56-6.51,22.78-19.53.79-8.44-1.58-13.78-7.12-16.04l.06-.65c5.32-3.2,8.26-7.86,8.84-13.97.57-6.11-.69-10.56-3.77-13.37-3.08-2.8-8.08-4.2-14.99-4.2h0ZM189.09,32.17l1.31-13.96h3.49c1.67,0,2.8.53,3.4,1.58.59,1.06.77,2.87.53,5.46-.24,2.58-.74,4.38-1.49,5.4-.75,1.02-1.96,1.53-3.63,1.53h-3.6ZM186.6,58.79l1.5-16.04h3.49c2.11,0,3.5.64,4.19,1.91.68,1.27.88,3.46.59,6.55-.29,3.09-.86,5.13-1.72,6.11-.86.98-2.37,1.47-4.56,1.47h-3.49ZM166.61,3.15h0,0ZM166.61,3.15h-37.75l-6.34,67.76h36.66l2.52-15.27h-19.09l1.05-11.24h15.6l1.35-14.4h-15.6l.95-10.15h18l2.65-16.69h0ZM102.22,3.15h-25.31l-6.34,67.76h18.33l2.29-24.44h2.51l4.48,24.44h20.18l-6.36-28.8c2.82-2.18,4.98-4.62,6.47-7.31,1.49-2.69,2.42-6.07,2.8-10.15.7-7.49-.48-12.95-3.54-16.37-3.06-3.42-8.23-5.13-15.5-5.13h0ZM92.25,35.01l1.43-15.28h2.95c1.82,0,3.07.56,3.77,1.69.69,1.13.91,3.13.64,6-.27,2.87-.86,4.85-1.76,5.95-.9,1.09-2.3,1.64-4.19,1.64h-2.84ZM487.62,29.99h0,0ZM390.3,29.99h0,0ZM256.64,29.99h0,0ZM160.6,29.99h0,0Z"/>
      </g>
    </g>
  </g>
</svg>