<?xml version="1.0" encoding="UTF-8"?>
<svg id="Layer_2" data-name="Layer 2" xmlns="http://www.w3.org/2000/svg" xmlns:xlink="http://www.w3.org/1999/xlink" viewBox="0 0 353.18 446.08">
  <defs>
    <style>
      .cls-1, .cls-2, .cls-3, .cls-4, .cls-5, .cls-6, .cls-7, .cls-8, .cls-9, .cls-10, .cls-11, .cls-12, .cls-13, .cls-14, .cls-15, .cls-16, .cls-17, .cls-18, .cls-19, .cls-20, .cls-21, .cls-22, .cls-23 {
        stroke: #161d33;
        stroke-linecap: round;
      }

      .cls-1, .cls-2, .cls-4, .cls-6, .cls-8, .cls-9, .cls-10, .cls-12, .cls-14, .cls-15, .cls-16, .cls-19, .cls-21, .cls-23 {
        stroke-miterlimit: 10;
      }

      .cls-1, .cls-3, .cls-5, .cls-6, .cls-8, .cls-11, .cls-12 {
        fill: #d99b86;
      }

      .cls-1, .cls-11 {
        stroke-width: 2.2px;
      }

      .cls-2, .cls-4, .cls-5, .cls-6, .cls-7, .cls-10, .cls-17 {
        stroke-width: 2.36px;
      }

      .cls-2, .cls-9, .cls-13, .cls-18, .cls-19 {
        fill: none;
      }

      .cls-24, .cls-15, .cls-17, .cls-20, .cls-22, .cls-25 {
        fill: #fdfdfd;
      }

      .cls-24, .cls-26, .Graphic_Style, .cls-27 {
        opacity: .2;
      }

      .cls-28, .cls-4, .cls-26 {
        fill: #8a5fb1;
      }

      .cls-28, .cls-29 {
        opacity: .1;
      }

      .cls-3, .cls-5, .cls-7, .cls-11, .cls-13, .cls-17, .cls-18, .cls-20, .cls-22 {
        stroke-linejoin: round;
      }

      .cls-3, .cls-9, .cls-12 {
        stroke-width: 2.54px;
      }

      .cls-30, .cls-31, .cls-32, .Graphic_Style, .cls-23 {
        fill: #161d33;
      }

      .cls-7, .cls-33 {
        fill: #67ecbc;
      }

      .cls-8 {
        stroke-width: 2.17px;
      }

      .cls-34, .cls-29, .cls-27 {
        fill: #583778;
      }

      .cls-34, .cls-32 {
        opacity: .4;
      }

      .cls-31 {
        opacity: .3;
      }

      .cls-10, .cls-16 {
        fill: #8a5d3a;
      }

      .cls-13 {
        stroke-width: 1.18px;
      }

      .cls-14 {
        fill: url(#linear-gradient);
        stroke-width: 3.54px;
      }

      .cls-15, .cls-16, .cls-19 {
        stroke-width: 1.77px;
      }

      .cls-35 {
        fill: #ffdaaa;
      }

      .cls-18, .cls-22 {
        stroke-width: 2.74px;
      }

      .cls-20, .cls-21, .cls-23 {
        stroke-width: 1.34px;
      }

      .cls-21, .cls-36 {
        fill: #fab4c6;
      }
    </style>
    <linearGradient id="linear-gradient" x1="207.86" y1="135.1" x2="184.11" y2="194.4" gradientUnits="userSpaceOnUse">
      <stop offset=".56" stop-color="#d99b86"/>
      <stop offset="1" stop-color="#ffdaaa"/>
    </linearGradient>
  </defs>
  <g id="Layer_1-2" data-name="Layer 1">
    <g>
      <g>
        <g id="right_arm" data-name="right arm">
          <path class="cls-22" d="M145.87,264.59c-2.01,4-4.33,7.58-6.39,9.07-5.64,4.07-33.28,17.01-33.28,17.01l-.45-5.29-2.99-35.5s17.01,7.82,29.21,2.8c12.21-5.02,18.47-4.06,18.47-4.06,1.46.8-1.08,9.02-4.56,15.97Z"/>
          <path class="cls-26" d="M145.87,264.59c-2.01,4-4.33,7.58-6.39,9.07-5.64,4.07-33.28,17.01-33.28,17.01l-.45-5.29c1.22-2.38,2.26-4.98,2.69-7.52,2.15,5.18,29.85-9.21,37.43-13.26Z"/>
          <g>
            <ellipse class="cls-25" cx="104.13" cy="270.55" rx="4.01" ry="20.24" transform="translate(-20.95 9.02) rotate(-4.51)"/>
            <ellipse class="cls-34" cx="104.13" cy="270.55" rx="4.01" ry="20.24" transform="translate(-20.95 9.02) rotate(-4.51)"/>
            <ellipse class="cls-18" cx="104.13" cy="270.55" rx="4.01" ry="20.24" transform="translate(-20.95 9.02) rotate(-4.51)"/>
          </g>
          <path class="cls-6" d="M107.96,275.81s-35.89,3.58-49.56-15.89c-10.88-15.5-11.07-35.89-10.7-43.57.1-1.96.23-3.09.23-3.09,0,0,8.1-3.9,14.89-3.3,2.36.21,4.56.97,6.21,2.62,0,0-.64,2.66-1,6.77-1.07,12.2.32,37.09,28.19,42.31h.02c3.04.57,6.41.9,10.12.96,3.02,6.9,1.6,13.2,1.6,13.2Z"/>
          <path class="Graphic_Style" d="M109.1,275.8c-.16-4.33-.18-9.14-1.2-13.44h-6.42s5.03,5.05,1.82,13.69c1.78.65,4.31.46,5.86.25-.03-.16-.05-.33-.06-.5Z"/>
          <path class="cls-6" d="M51.09,215.98c-1.16.6-2.28.68-3.38.37-6.4-1.8-13.34-12.41-22.52-20.45-10.77-9.43-25.26,7.07-23.91-11.31,1.35-18.39,23.56-12.92,29.84-6.86-.45-31.52,23.57-29.29,24.24-22.1,5.72-5.61,19.07.34,18.51,8.28,6.51.21,10.64,1.92,13.02,4.46,8.94,9.53-6.42,30.82-12.35,29.67,2.81,14.69-4.78,20.26-6.5,21.31-.21.14-.34.19-.34.19"/>
          <path class="cls-2" d="M77.69,197.17s-3.72,2.1-7.31-1.26"/>
          <path class="cls-2" d="M74.84,181.75s-5.81,3.83-4.46,14.16"/>
          <path class="cls-2" d="M73.86,163.9s-6.84,2.51-9.65,8.45"/>
          <path class="cls-2" d="M48.95,165.94c3.37-7.97,6.4-10.32,6.4-10.32"/>
          <path class="cls-2" d="M31.23,173.21s-.11,13.94,4.26,18.42"/>
          <path class="Graphic_Style" d="M96.23,261.66c-29.07.02-31.53-25.01-35.6-43.59,0-.01.01-.02.02-.03,1.99-3.44,2.36-5.84,2.17-8.07-.47-5.51-4.31-9.9,4.78-25.95,6.94-12.24,14.14-15.36,19.28-15.66,8.94,9.53-6.42,30.82-12.35,29.67,2.81,14.69-4.78,20.26-6.5,21.31-1.07,12.2.32,37.09,28.19,42.31Z"/>
          <path class="Graphic_Style" d="M71.8,159.74s-7.41,3.77-7.59,11.86c3.74-4.71,9.83-8.4,9.83-8.4,0,0-1.45-2.98-2.24-3.45Z"/>
          <path class="Graphic_Style" d="M55.35,155.19s-5.13,4.61-6,9.84c-.16-6.94-.14-12.99-4.63-13.5,6.27-1.69,9.25.67,10.63,3.65Z"/>
          <path class="Graphic_Style" d="M13.78,171.6s14.33,7.52,20.04,18.56c-2.33-11.52-2.71-12.43-2.71-12.43,0,0-8.15-6.45-17.33-6.13Z"/>
        </g>
        <g id="tail">
          <path class="cls-10" d="M160.46,320.93s8.15,30.21,70.78,17.29c62.64-12.91,93.4-67.7,118.38,8.95s-153.95,107.06-202.04-15.36"/>
          <path class="cls-32" d="M352.03,355.43c-5.47,61.63-154.3,78.65-201.63-26.91l-2.5,2.11c46.06,117.26,212.14,94.29,204.13,24.8Z"/>
          <path class="cls-31" d="M298.53,373.53c5.09-7.09,9.74-14.69,13.85-22.3,4.67-.78,9.1-1.82,13.18-3.16-4.13.83-8.29,1.42-12.47,1.84,3.31-6.23,6.25-12.43,8.76-18.33-3.7,6.17-7.36,12.38-11.09,18.55-6.56.56-13.15.71-19.73.69-3.59-.01-7.18-.09-10.76-.2,3.57-6.3,6.54-12.81,8.81-19.19-3.46,6.47-7.12,12.89-11.09,19.11-9.86-.38-19.7-1.09-29.53-1.95.51-1.31.98-2.62,1.38-3.95-.76,1.3-1.53,2.58-2.32,3.87-4.76-.42-9.52-.87-14.28-1.34,4.22.91,8.76,1.77,13.54,2.54-2.74,4.4-5.66,8.7-8.84,12.78-4.66-1.79-9.25-3.79-13.74-5.99,4.06,2.66,8.36,5.04,12.84,7.14-3.72,4.66-7.79,9.02-12.34,12.93-1.11.9-2.22,1.76-3.31,2.7,1.29-.61,2.59-1.26,3.84-1.96,5.31-3.25,10.06-7.63,14.04-12.66,7.22,3.19,14.85,5.68,22.61,7.43-3.59,4.01-7.42,7.8-11.53,11.32-2.37,2.01-4.88,3.86-7.44,5.67,2.83-1.36,5.54-2.97,8.14-4.75,4.71-3.31,9.15-7.29,13.27-11.71,7.99,1.64,16.09,2.52,23.98,2.59,2.16.01,4.32-.05,6.48-.16-5.07,7.26-10.46,14.29-16.37,20.92,6.88-5.78,13.33-13.09,19.21-21.11,4.39-.35,8.74-.97,13.03-1.89-4.03.36-8.06.55-12.09.59ZM240.24,363.34c3.12-4.17,5.72-8.74,7.68-13.47,9,1.41,18.75,2.49,28.56,2.96-3.95,6.01-8.21,11.79-12.88,17.22-7.93-1.67-15.74-3.92-23.35-6.71ZM266.14,370.57c4.77-5.4,9.06-11.39,12.77-17.63,10.63.4,21.24.08,30.94-1.32-4.51,7.42-9.14,14.77-14.06,21.91-9.95-.07-19.89-1.07-29.65-2.96Z"/>
        </g>
        <g id="right_leg" data-name="right leg">
          <path class="cls-11" d="M130.87,333.54c-27.64,24.33-26.19,56.9-11.97,71.27-32.54-12.22-50.86-8.86-59.66-2.01-10.88,8.46-7.26,22.23,1.99,18.52.23,1.94,1.67,4.6,11.89.99,4.25,8.72,38,6.91,56.35-2.26,9.46-4.73,7.4-8.12,3.42-14-3.73-5.5-9.15-13.19-8.31-26.22,1.73-26.91,15.07-35.42,15.07-35.42"/>
          <path class="cls-1" d="M85.09,408.49c-6.87-1.67-16.76,5.77-11.74,14.23"/>
          <path class="cls-1" d="M78.07,402.8c-13.48-4.07-20.94,11.72-16.83,18.52"/>
          <path class="Graphic_Style" d="M61.23,421.32c.23,1.94,1.67,4.6,11.89.99,4.25,8.72,38,6.91,56.35-2.26,9.46-4.73,7.4-8.12,3.42-14-.22.15-.44.34-.66.56,0,0,10.29,9.5-18.44,13.62-28.73,4.12-42.81,3.67-34.84-9.83-2.95-1.94-9.27,4.13-9.79,7.22s-9.1,1.58-4.96-10.17c-2.13,2.08-3.8,4.8-3.95,7.32-2.06,3.09-6.9-2.05-1.04-11.11,0-.3.02-.58.01-.87-10.88,8.46-7.26,22.23,1.99,18.52Z"/>
        </g>
        <g id="body">
          <path class="cls-6" d="M119.81,324.21s.48,33.67,27.15,31.01,29.69-22.57,18.22-35.36c-12.91,2.9-32.46,14.24-45.37,4.34Z"/>
          <path class="cls-35" d="M156.01,327.1s6.22,14.48-11.13,15.81c-17.35,1.33-12.64-19.19-12.4-20.03s23.53,4.22,23.53,4.22Z"/>
          <path class="Graphic_Style" d="M170.11,326.18s-25.55,20.77-49.47,6.7c-.06-1.76-.44-4.13-.44-4.13l46.35-7.06,3.56,4.5Z"/>
          <path class="cls-17" d="M147.42,248.89c11.69-6.02,17.71,2.2,17.71,2.2,0,0,10.99,5.9,11.46,13.31.31,4.93-5.89,7.91-10.34,15.77-2.25,3.95-4.04,9.14-4.36,16.42-.93,21.76,10.65,24.19,10.65,24.19,0,0-34.57,26.14-57.44,3.88-.65-.64-1.3-1.31-1.94-2.03,1.04-25.12,11.58-48.97,30.33-64.47"/>
          <path class="cls-33" d="M155.05,295.97c-.29.53-.83.82-1.38.8-2.3-.08-4.44-.84-6.6-1.53-.55-.17-1.13-.36-1.74-.57.36.91.73,1.82,1.09,2.73.33.84,0,1.81-.74,2.18-.64.31-1.39.07-1.81-.56-.69-1.04-1.34-2.12-1.96-3.23-.42,1.17-.83,2.33-1.25,3.47-.65,1.78-3.02,1.01-2.88-.99.08-1.15.21-2.3.38-3.46-.86.44-1.72.87-2.58,1.3-1.64.81-2.92-2.08-1.42-3.23.78-.6,1.57-1.17,2.37-1.71-.8-.36-1.55-.7-2.26-1.03-2.1-.98-4.21-1.98-6.18-3.44-.72-.53-.97-1.72-.54-2.64.35-.74,1.02-1.07,1.64-.87,2.19.7,4.26,1.75,6.36,2.71.66.3,1.37.62,2.11.94-.75-1.9-1.43-3.84-2.03-5.83-.62-2.2-1.09-4.47-1.22-6.88-.06-1.03.59-1.93,1.43-2.02.6-.06,1.13.3,1.41.88,1.5,3.29,2.63,6.68,3.77,10.07,0-.02.01-.04.02-.06,1.67-4.85,3.7-9.47,7.01-13.07,1.11-1.19,2.95-.02,2.56,1.55-1.11,4.78-3.08,9.1-4.84,13.73-.1.25-.2.51-.3.76,2.96-1.5,5.95-2.83,9.2-3.42,1.59-.27,2.44,1.86,1.14,2.77-2.91,2.07-6.12,3.54-9.3,5.17.6.23,1.17.46,1.71.67,2.11.83,4.27,1.48,6.26,2.69.72.44.98,1.38.57,2.13ZM138.64,301.31c-.98-.32-1.97.35-2.17,1.54-.2,1.18.46,2.39,1.45,2.68,1,.29,1.94-.43,2.13-1.58.19-1.15-.44-2.32-1.42-2.64Z"/>
          <path class="Graphic_Style" d="M194.4,301.52s-13.11-7.05-25.26-23.9c5.49,8.74,19.06,30.01,22.73,29.89,3.55-8.81,2.53-5.99,2.53-5.99Z"/>
          <path class="cls-5" d="M166.98,253.12s8.93,4.63-1.48,8.22c-10.42,3.59-13.54,1.74-13.54,1.74,0,0,.26-10.73,4.7-12.31"/>
          <path class="cls-5" d="M156.58,254.16c-.16-2.32.15-4.74.69-7.03.97-4.13,2.67-7.83,3.69-9.83.5-.98.83-1.56.83-1.56,5.09,1.39,15.63,5.56,15.63,5.56,0,0-.19.17-.52.52-1.13,1.15-3.94,4.22-7.11,9.18-.91,1.43-1.86,3.02-2.81,4.77"/>
          <path class="Graphic_Style" d="M176.89,241.83c-1.13,1.15-3.94,4.22-7.11,9.18-3.96.39-8.62-.25-12.51-3.88.97-4.13,2.67-7.83,3.69-9.83,5.31-.15,12.2,1.76,15.93,4.52Z"/>
          <path class="cls-26" d="M172.54,320.78s-34.57,26.14-57.44,3.88c21.65,13.2,43.91-.72,42.95-6.48-3.84-31.55,7.99-40.33,7.99-40.33,0,.65.08,1.43.21,2.32-2.25,3.95-4.04,9.14-4.36,16.42-.93,21.76,10.65,24.19,10.65,24.19Z"/>
        </g>
        <g id="left_leg" data-name="left leg">
          <path class="cls-5" d="M167.91,343.69c28.64,28.98,20.23,60.74,0,72.27,42.06-6.07,63.65.6,72.96,8.94,11.5,10.31,4.29,23.19-6.2,17.85-.68,1.86-2.97,4.22-14.67-1.2-6.94,7.8-47.62-.16-68.05-12.54-10.54-6.38-7.34-9.34-1.3-14.39,5.66-4.73,13.82-11.29,15.46-24.26,3.39-26.77-11.09-37.58-11.09-37.58"/>
          <path class="cls-6" d="M208.28,425.77c8.69-.38,19.21,8.74,11.37,16.14"/>
          <path class="cls-6" d="M217.98,421.46c17.23-1.54,23.07,15.36,16.69,21.29"/>
          <path class="Graphic_Style" d="M234.67,442.75c-.68,1.86-2.97,4.22-14.67-1.2-6.94,7.8-47.62-.16-68.05-12.54-10.54-6.38-7.34-9.34-1.3-14.39.24.19.47.41.68.67,0,0-14.45,7.46,19.63,16.77,34.09,9.31,51.31,11.45,44.37-3.29,3.98-1.37,10.43,5.76,10.43,8.89s10.75,3.22,8.11-9.09c2.17,2.44,3.64,5.42,3.31,7.92,1.87,3.41,8.81-.75,3.53-10.73.05-.29.1-.58.16-.85,11.5,10.31,4.29,23.19-6.2,17.85Z"/>
        </g>
        <g>
          <path class="cls-17" d="M172.77,261.05s14.7,13.2,37.74,12.5c-6.71,5.67-20.6,35.07-20.6,35.07-6.83-8.22-21.99-32.99-21.99-32.99"/>
          <g>
            <ellipse class="cls-25" cx="200.2" cy="291.12" rx="20.37" ry="4.01" transform="translate(-151.99 319.39) rotate(-60.07)"/>
            <ellipse class="cls-34" cx="200.2" cy="291.12" rx="20.37" ry="4.01" transform="translate(-151.99 319.39) rotate(-60.07)"/>
            <ellipse class="cls-18" cx="200.2" cy="291.12" rx="20.37" ry="4.01" transform="translate(-151.99 319.39) rotate(-60.07)"/>
          </g>
          <path id="left_arm" data-name="left arm" class="cls-8" d="M308.38,273.22c-6.48,7.89-13.29,14.52-20.22,19.09-43.84,28.88-92.3-1.64-92.3-1.64,0,0,1.07-2.23,3.68-5.83,36.53,6.77,55.87,3.57,65.93-.81,8.62-3.75,10.44-8.38,10.44-8.38l32.47-2.43Z"/>
        </g>
        <path class="Graphic_Style" d="M204.24,285.45s-3.25,2.64-5.2,6.14c-2.52-.11-4.16-.4,1.16-7.33,2.68,0,4.04,1.2,4.04,1.2Z"/>
        <g id="left_hand" data-name="left hand">
          <path class="cls-3" d="M333.9,230.99c-1.43,6.86-.91,11.84-.81,15.84.03,1.1.02,2.12-.07,3.09,0,0,0,.01,0,.01-.04.49-.13.97-.2,1.44-1.17,7.39-9.15,11.26-9.15,11.26-1.26,5.43,1.03,10-12.92,16.82-4.4,2.38-2.81,10.66-17.31,7.33-14.49-3.32-16.63-7.68-31.25-9.58-13.44-1.74-27.37-1.5-26.3-12.94.06-.68.18-1.33.35-1.93.03-.08.04-.16.07-.25h0c2.82-9.26,18.32-8.82,51.28,3.37,14.63-1.54,22.13-26.45,22.26-33.41,0,0,2.79-7.09,0-12.5-2.8-5.41-10.43-42.36,16.57-43.01,4.89.01,8.48,2.75,7.24,10.42-.44,2.77-.87,7.12-1.75,11.6-3.13,15.93,9.23,7.5,2,32.44Z"/>
          <path class="cls-12" d="M331.9,243.94c-13.97-19.33-44.2-38.12-52.16-6.93-13.58,14.39-6.56,22.37,11.48,32.58"/>
          <path class="cls-9" d="M279.19,238.01c6.62-1.09,25.71,8.38,30.27,17.19"/>
          <path class="Graphic_Style" d="M332.8,251.39c.08-.53.16-1.01.22-1.46-.04.49-.11.98-.2,1.44,0,0,0,.01-.01.02Z"/>
          <path class="Graphic_Style" d="M333.9,230.99c-1.43,6.86-.91,11.84-.81,15.84-.53-3.78-4.06-4.59-12.37-15.96,17.43-.65,2.29-27.15,6.21-31.51,3.93-4.36,4.98-13.23,4.98-13.23.61.18,1.19.46,1.75.82-.44,2.77-.66,5.82-1.75,10.25-3.54,14.31,10.64,8.29,2,33.79Z"/>
          <path class="Graphic_Style" d="M323.66,262.63c-1.26,5.43.42,12.13-13.23,16.73-3.59.4-2.5,10.75-17,7.42-14.49-3.32-16.63-7.68-31.25-9.58-13.44-1.74-27.37-1.5-26.3-12.94.06-.68.18-1.33.35-1.93.03-.08.04-.16.07-.25.48,7.18,17.1,7.4,43.54,16.18,26.45,8.77,15.13-4.12,22.64-3.49,16.06,1.87,20.38-9.45,21.18-12.14Z"/>
          <path class="Graphic_Style" d="M286.82,224.61s-5.92,6.91,9.41,14.84c10.05,4.65,11.89,13.67,11.89,13.67-5.86-6.48-16.06-14.09-28.94-15.89,2.45-5.85,5.73-12.23,7.63-12.62Z"/>
          <path class="Graphic_Style" d="M277.51,240.5s-5.08,15.28,17.35,25.25c1.8,1.83.53,7.86-13.12-2.4-11.74-8.67-10.83-20.56-4.23-22.85Z"/>
        </g>
        <g id="head">
          <path id="leaf" class="cls-7" d="M258.15,59.33c-17.92-8.18-21.95-16.02-18.93-20.34s16.73,2.93,22.89,13.4c-14.09-23.12-12.08-49.67-4.91-51.18,8.68-1.38,14.34,35.73,12.58,48.05,1.89-22.89,26.54-48.05,40.63-44.66,11.82,2.77-1.01,31.57-29.94,52.21,15.1-2.77,42.39-.63,41.76,9.06-.63,9.69-35.85,1.76-37.99,1.01,13.08,3.27,20,16.61,18.62,19.62-1.64,2.14-23.02-7.93-30.32-17.61"/>
          <g id="right_ear" data-name="right ear">
            <path class="cls-6" d="M166.52,112.37s-18.79,8.4-28.41,7.94c-9.62-.46-20.93-.46-14.51,11s25.73,18.95,37,8.02"/>
            <path class="cls-36" d="M166.52,118.46s-15.81,10.1-34.09,6.85c-5.29,1.92-.24,20.35,21.65,17.33,13.83-16.73,12.45-24.19,12.45-24.19Z"/>
            <path class="Graphic_Style" d="M154.76,116.91s-4.24,24.78-15.42,26.53c3.8,1.64,7.67,3.39,14.44-2.43,10.78-15.8,10.15-25.81,10.15-25.81,0,0-5.49.01-9.17,1.71Z"/>
          </g>
          <g id="head-2" data-name="head">
            <path class="cls-4" d="M261.46,58.83s-34.63-12.33-56.14-2.85c14.86,22.45,76.85,74.32,76.85,74.32,0,0,12.02-29.89-8.06-62.62"/>
            <path class="cls-4" d="M165.47,114.65s-12.81-6.17-4.59-23.09c8.22-16.92,21.8-46.02,56.36-33.52,34.56,12.49,68.24,47.91,70.77,69.42s-14.86,21.66-16.29,37.16-13.92,30.2-21.35,4.59c-9.8-31.15-38.11-54.24-84.91-54.55Z"/>
            <g>
              <path class="cls-14" d="M258.1,166.61c-10.11,3.88-7.99,16.34-12.15,23.16-.04,1-.1,1.98-.17,2.95-4.5,63.45-66.45,59.17-87.45,49.49-13.31-6.75-22.18-15.5-27.53-25.01-13.61-24.18-4.34-52.79,11.66-66.17,16.7-13.1,21.41-32.53,22.7-40.71.16-1.04.27-1.89.34-2.53.1-.86.12-1.33.12-1.33.13-1.5,21.41-12.62,50.14-2.28,26.97,9.7,40.12,41.28,42.23,61.32.04.38.07.75.11,1.12Z"/>
              <path class="cls-19" d="M137,212.59s-10.5-.33-15.26,2.87"/>
              <path class="cls-19" d="M140.57,223.88s-5.27,1.25-10.06,4.83"/>
              <path class="cls-19" d="M147.78,231.28s-2.9,3.7-3.64,6.73"/>
              <path class="Graphic_Style" d="M244.14,196c-.77-1.42-1.45-2.88-2.39-4.21-.49-.69-.59-1.38-.43-2-.02-.04-.05-.08-.07-.12-.07,10.25-3.03,40.49-34.74,51.62-39.32,13.8-69.66-18.73-74.38-26.09-.77.47-1.21,1.16-1.33,2,5.36,9.51,14.23,18.25,27.53,25.01,20.51,9.45,80.07,13.74,87.03-45.08-.48-.2-.91-.56-1.21-1.12Z"/>
            </g>
            <path class="cls-31" d="M258.04,168.34c-.46.09-.94.01-1.44-.25-7.17-15.36-11.61-44.71-48.45-57.86-23.35-8.33-37.19-4.04-44.2.21.16-1.05.27-1.92.34-2.56.09-.87.12-1.34.12-1.34.13-1.52,21.19-12.82,50.11-2.24,27.63,10.11,41.31,43.1,43.53,64.04Z"/>
            <path class="Graphic_Style" d="M278.73,103.63s12.36,33.34.76,37.49c-11.33,4.02-11.76,26.78-15.5,19.55s-13.07-51.15-56.41-59.98c35.83,20.87,41.57,30.62,51.67,72.88.19,7.32,4.21,13.15,9.03,1.8,5.89-14.83,4.83-19.49,8.37-21.91s16.89-15.9,8.61-37.01c5.24-20.98-3.76-38.41-10.17-47.1,7.91,23.58,3.63,34.29,3.63,34.29Z"/>
          </g>
          <path id="left_eyebrow" data-name="left eyebrow" class="cls-30" d="M240.4,92.67c8.31.89,14.19,8.88,15.18,16.78.58,4.15-.05,8.44-1.82,12.23-.78,1.74-3.42,1.09-3.32-.8.11-1.8.26-3.81.12-5.62-.02-.62-.03-1.25-.14-1.85-.25-2.42-.91-4.87-1.81-7.11-1.82-4.14-4.86-7.8-8.83-10-.23-.14-.48-.24-.71-.36-1.94-1.06-.8-3.78,1.34-3.27h0Z"/>
          <path id="right_eyebrow" data-name="right eyebrow" class="cls-30" d="M206.56,82.52c-3.13-1.98-7.12-2.83-10.75-2.02-3.77.8-6.98,3.26-9.49,6.19-.62.73-1.72.82-2.45.19-.78-.67-.74-1.69-.24-2.49,1.01-2.08,2.52-3.95,4.38-5.54,2.81-2.41,6.75-3.9,10.56-3.9,3.64.02,7.34,1.45,9.7,4.26.15.2.48.6.63.79,1.22,1.55-.73,3.61-2.34,2.52h0Z"/>
          <path id="left_eyebrow-2" data-name="left eyebrow" class="Graphic_Style" d="M240.4,95.52c8.31.89,14.19,8.88,15.18,16.78.58,4.15-.05,8.44-1.82,12.23-.78,1.74-3.42,1.09-3.32-.8.11-1.8.26-3.81.12-5.62-.02-.62-.03-1.25-.14-1.85-.25-2.42-.91-4.87-1.81-7.11-1.82-4.14-4.86-7.8-8.83-10-.23-.14-.48-.24-.71-.36-1.94-1.06-.8-3.78,1.34-3.27h0Z"/>
          <path id="right_eyebrow-2" data-name="right eyebrow" class="Graphic_Style" d="M206.56,85.37c-3.13-1.98-7.12-2.83-10.75-2.02-3.77.8-6.98,3.26-9.49,6.19-.62.73-1.72.82-2.45.19-.78-.67-.74-1.69-.24-2.49,1.01-2.08,2.52-3.95,4.38-5.54,2.81-2.41,6.75-3.9,10.56-3.9,3.64.02,7.34,1.45,9.7,4.26.15.2.48.6.63.79,1.22,1.55-.73,3.61-2.34,2.52h0Z"/>
          <g id="eyes">
            <path class="Graphic_Style" d="M229.81,129.65c-11.28-5.57-26.11,2.76-33,18.19-6.71,15.03-3.39,31.31,7.3,36.73,1.57.8,3.22,1.31,4.91,1.58.32-.6.85-1.1,1.62-1.39,1.56-.59,3.17-.89,4.82-1.12,1.78-.25,3.7-.62,5.49-.53.52.03.96.16,1.33.37,5.65-3.08,10.85-8.5,14.38-15.69,7.49-15.29,4.49-32.55-6.84-38.14Z"/>
            <path class="Graphic_Style" d="M192.24,149.68c-7.07,13.27-19.31,20.5-27.88,15.99-8.53-4.49-9.66-19.84-3.14-33.21s19.01-22.66,28.06-18.04,10.25,21.58,2.96,35.26Z"/>
            <path class="cls-15" d="M236.07,165.2c-7.29,14.89-21.81,22.24-32.55,16.79-10.69-5.43-14.01-21.71-7.3-36.73,6.89-15.43,21.72-23.76,33-18.19,11.33,5.59,14.33,22.85,6.84,38.14Z"/>
            <path class="cls-15" d="M191.65,147.09c-7.07,13.27-19.31,20.5-27.88,15.99s-9.66-19.84-3.14-33.21c6.72-13.78,19.01-22.66,28.06-18.04,9.1,4.65,10.25,21.58,2.96,35.26Z"/>
            <path class="cls-28" d="M236.07,160.84c-7.29,14.89-21.81,22.24-32.55,16.79-6.36-3.23-10.11-10.29-10.69-18.65-.67,10.31,3.2,19.45,10.69,23.25,10.74,5.45,25.26-1.9,32.55-16.79,3.16-6.46,4.45-13.27,4.03-19.4-.32,4.84-1.64,9.92-4.03,14.8Z"/>
            <path class="cls-28" d="M192.58,141.97c-7.07,13.27-19.31,20.5-27.88,15.99-4.35-2.29-6.77-7.42-7.24-13.66-.58,8.26,1.85,15.43,7.24,18.27,8.57,4.51,20.81-2.72,27.88-15.99,3.6-6.76,5.14-14.31,4.68-20.78-.36,5.29-1.9,10.97-4.68,16.18Z"/>
          </g>
          <g id="nose">
            <path class="Graphic_Style" d="M165.87,178.47c-.43-.02-.84-.15-1.2-.36-.45-.25-.82-.62-1.08-1.07-1.54-2.7-4.64-8.7-2.61-11.21,4.96-6.1,14.02-1.37,17.3,4.28.32.55.59,1.11.79,1.67,1.52,5.48-7.68,7.02-13.21,6.69Z"/>
            <path class="cls-16" d="M164.94,176.02c-.42-.02-.83-.15-1.18-.35-.44-.24-.81-.61-1.06-1.06-1.51-2.66-4.57-8.56-2.57-11.02,4.88-6,13.79-1.34,17.02,4.21.32.54.58,1.09.78,1.64,1.5,5.39-7.55,6.91-12.99,6.58Z"/>
            <path class="cls-31" d="M164.94,176.02c-.42-.02-.83-.15-1.18-.35-1.1-1.18-1.76-2.38-1.62-3.38,5.24,3.57,13.99-1.5,14.43-4.34.21-.06.4-.11.58-.14.32.54.58,1.09.78,1.64,1.5,5.39-7.55,6.91-12.99,6.58Z"/>
            <path class="cls-24" d="M171.48,164.33c-.2-.36-7.4-3.99-9.86,1.01-1.41,2.77,10.96.04,9.86-1.01Z"/>
          </g>
          <g id="mouth">
            <path class="cls-23" d="M222.36,221.3c-13.03,14.48-44.71,12.96-58.22,6.43-7.57-3.66-13.71-9.1-16.82-16.24-4.08-9.61-1.19-34.1,9.62-25.98,0,0,.6.42,1.77,1.06.54.3,1.2.65,1.98,1.02,6.56,3.17,21.44,8.4,42.06,4.07.58-.12,1.18-.25,1.77-.39,29.38-6.85,34.91,11.05,17.83,30.03Z"/>
            <g>
              <path class="cls-21" d="M211.09,227.4c-13.33,5.66-31.39,5.48-45.1-.53,0,0-1.08-3.32.51-6,1.16-1.95,3.73-3.56,9.17-3.3,8.9.43,25.35-3.99,32.48-.01,2.88,1.61,4.24,4.6,2.95,9.84Z"/>
              <path class="cls-27" d="M211.09,227.4c-13.33,5.66-31.39,5.48-45.1-.53,0,0-1.08-3.32.51-6,1.31,3.49,7.54,7.2,27.69,6.17,14.59-.75,15.3-5.9,13.95-9.48,2.88,1.61,4.24,4.6,2.95,9.84Z"/>
            </g>
            <g>
              <path class="cls-20" d="M202.76,191.67c-.3,1.16-.83,2.35-1.58,3.55-3.92,6.29-13.65,12.53-25.37,12.28-9.58-.21-13.91-8.79-15.78-14.89-1.03-3.4-1.31-6.03-1.31-6.03.4.36,1.07.7,1.98,1.02,6.56,3.17,21.44,8.4,42.06,4.07Z"/>
              <path class="cls-29" d="M202.76,191.67c-.3,1.16-.83,2.35-1.58,3.55-8.65,1.98-25.24,4.18-41.15-2.61-1.03-3.4-1.31-6.03-1.31-6.03.4.36,1.07.7,1.98,1.02,6.56,3.17,21.44,8.4,42.06,4.07Z"/>
            </g>
          </g>
          <g id="left_ear" data-name="left ear">
            <path class="cls-6" d="M255.77,161.1c.63-1.09,15.37,19.34,19.33,38.91,1.69,8.33-29.03,26.28-34.32-14.59"/>
            <path class="Graphic_Style" d="M241.66,190.06s16.62,29.95,32.46,9.84c5.5,10.47-26.75,25.28-32.46-9.84Z"/>
          </g>
          <g id="left_pupil" data-name="left pupil">
            <path class="cls-30" d="M219.74,147.19c-.67,5.7-3.36,9.93-7.17,9.17s-5.65-5.94-4.93-11.68,3.66-9.76,7.43-8.95,5.33,5.81,4.67,11.46Z"/>
            <ellipse class="cls-24" cx="212.68" cy="142.43" rx="4.68" ry="2.91" transform="translate(53.1 342.57) rotate(-85.24)"/>
          </g>
          <g id="right_pupil" data-name="right pupil">
            <path class="cls-30" d="M190.19,141.34c-1.83,2.57-4.22,4.01-6.51,2.93-3.24-1.54-4.18-6.66-1.5-12.07,3.2-6.47,8.6-7.22,10.51-1.49,1.23,3.7-.49,7.8-2.51,10.63Z"/>
            <ellipse class="cls-24" cx="186.86" cy="132.97" rx="4.31" ry="2.46" transform="translate(7.33 275.69) rotate(-73.92)"/>
          </g>
        </g>
      </g>
      <path class="cls-13" d="M230.24,185.51s-9.81-5.34-20.67.47"/>
    </g>
  </g>
</svg>