<?xml version="1.0" encoding="UTF-8"?>
<svg id="Layer_2" data-name="Layer 2" xmlns="http://www.w3.org/2000/svg" viewBox="0 0 78.53 94.84">
  <defs>
    <style>
      .cls-1 {
        stroke-width: .13px;
      }

      .cls-1, .cls-2 {
        stroke: #8a5fb1;
        stroke-miterlimit: 10;
      }

      .cls-1, .cls-2, .cls-3 {
        fill: #8a5fb1;
      }

      .cls-2 {
        stroke-width: .12px;
      }
    </style>
  </defs>
  <g id="Layer_4" data-name="Layer 4">
    <g>
      <path class="cls-3" d="M42.43,61.59c.37.3.7.62,1.05.93.33.32.67.62,1,.92.33.3.66.59.98.82.16.11.32.21.42.25.05.02.08.02.03.01-.04,0-.19.04-.23.1l-.1.12c.1-.13.15-.42.13-.78-.03-.36-.11-.76-.23-1.16-.11-.41-.24-.82-.38-1.24l-.21-.65-.1-.34-.02-.09-.03-.12v-.04s0-.03,0-.03h0s0-.02,0-.02c0,0,0-.02,0-.03.02-.09.06-.17.2-.2.03,0,.07,0,.07,0h.02s.02.01.04.02c.06.04.06.05.08.07.03.03.04.06.06.09h0s-.06-.04-.06-.04c1.74.58,3.55.95,5.35,1.25.9.14,1.81.27,2.7.31.44.03.89.04,1.29,0,.19-.02.4-.06.47-.1.02,0,.02-.01,0,0-.02.01-.06.07-.08.14-.02.07-.01.13,0,.15,0,0,0,.01,0,.02,0,0,.01.01,0-.01-.42-.66-1.07-1.25-1.79-1.72-.73-.48-1.55-.85-2.4-1.16-.85-.31-1.74-.54-2.65-.72-.45-.09-.91-.17-1.37-.24l-.69-.11c-.12-.02-.23-.04-.35-.07-.12-.03-.24-.05-.39-.12-.04-.02-.08-.04-.13-.08-.03-.02-.06-.05-.09-.11-.03-.05-.05-.14-.04-.21.03-.14.09-.18.13-.22.04-.04.08-.06.11-.08.13-.08.25-.13.35-.17.21-.09.42-.19.63-.29.41-.2.82-.41,1.21-.64.78-.47,1.54-.99,2.23-1.58,1.4-1.16,2.64-2.5,3.64-3.95.49-.73.95-1.47,1.26-2.23.15-.37.27-.75.31-1.06.02-.16.01-.29,0-.37-.02-.08-.04-.09-.03-.08,0,0-.02-.02-.11-.05-.11-.02-.2-.04-.33-.02-.26.03-.62.15-.97.32-.35.17-.71.41-1.06.65-.36.24-.71.51-1.06.8-1.4,1.13-2.74,2.42-4.05,3.74-.65.67-1.3,1.33-2,1.99-.18.16-.36.32-.56.47-.1.08-.21.15-.33.22-.13.06-.26.14-.49.15-.12,0-.25-.02-.39-.12-.12-.1-.17-.2-.21-.28-.07-.16-.09-.3-.11-.43-.04-.26-.05-.5-.05-.74-.01-.48,0-.95.02-1.42l.06-1.4c.05-.93.07-1.86.09-2.78.03-1.85,0-3.7-.22-5.47-.12-.87-.26-1.75-.56-2.45-.15-.35-.33-.64-.51-.8-.18-.16-.33-.21-.58-.22-.28,0-.51.07-.72.22-.11.08-.21.18-.31.3-.1.13-.19.27-.28.43-.36.64-.57,1.49-.72,2.34-.3,1.73-.36,3.57-.32,5.4.05,1.83.21,3.68.52,5.49l-.02-.08c.08.22.12.39.14.6.02.2,0,.43-.07.65-.07.22-.22.43-.4.58-.04.04-.09.07-.14.1-.03.02-.04.03-.08.05-.09.05-.18.06-.25.06-.14-.01-.21-.05-.27-.08-.06-.03-.11-.06-.15-.1-.32-.25-.53-.51-.76-.77l-.65-.78c-.85-1.04-1.69-2.07-2.57-3.05-.88-.98-1.79-1.94-2.77-2.75-.48-.4-.98-.79-1.49-1.04-.25-.13-.49-.23-.71-.27-.22-.04-.38-.02-.52.04l.15-.08s0,0,0,0l-.03.03s-.05.05-.07.08c-.04.06-.07.12-.1.19-.05.14-.06.31-.04.5.06.38.26.84.55,1.27.29.43.64.85,1.03,1.27.38.41.8.82,1.22,1.21.84.8,1.72,1.57,2.59,2.36.44.39.88.78,1.32,1.2.22.21.43.42.64.65.1.12.21.24.31.37.1.14.2.28.27.51.03.11.06.28-.01.46-.02.08-.13.21-.2.26-.08.05-.14.08-.2.1-.23.07-.39.07-.55.07-.32,0-.62-.03-.92-.06-.6-.06-1.18-.15-1.76-.22-1.16-.14-2.32-.29-3.47-.35-.57-.03-1.14-.03-1.7,0-.54.03-1.1.13-1.47.33-.19.1-.29.21-.34.33-.01.03-.02.06-.03.1,0,.02-.01.12-.01.07,0-.03-.02-.06-.02-.07,0,0,0,0,.03.03.1.09.35.2.59.28.25.08.52.15.79.2,1.1.22,2.26.35,3.42.47,1.16.12,2.33.21,3.51.34.59.07,1.17.13,1.81.29.08.02.16.05.26.08.09.04.19.07.33.19.07.06.11.11.17.19.05.08.09.17.1.27.03.21-.02.38-.08.5-.12.23-.25.36-.38.48-.13.12-.25.22-.38.31-.49.37-.99.68-1.43,1.02-.22.17-.43.35-.57.52-.07.09-.12.17-.14.23-.02.06-.01.07,0,.11.02.04.02.04.06.06.04.02.14.03.25.01.22-.03.48-.11.73-.22.5-.21,1.01-.49,1.49-.8.48-.31.96-.64,1.41-1l.08-.07s.07-.06.11-.08c.07-.05.15-.1.23-.14.16-.08.34-.15.53-.17.2-.03.42,0,.61.08.2.08.36.21.48.35.25.28.39.59.5.89.11.3.18.61.24.91.11.61.16,1.21.19,1.81.02.6.03,1.2.02,1.79,0,.3-.01.59-.03.9-.02.32-.06.64-.14.97-.15.64-.46,1.28-.92,1.8-.46.51-1.04.9-1.65,1.16-.61.26-1.24.41-1.87.5-.63.09-1.26.11-1.88.09-1.24-.04-2.46-.24-3.64-.53-1.19-.29-2.34-.67-3.47-1.12-1.13-.45-2.23-1-3.28-1.64-1.05-.64-2.08-1.36-3-2.28-.46-.46-.89-.97-1.27-1.56-.18-.3-.35-.62-.49-.98-.14-.35-.23-.79-.27-1.07-.19-1.22-.31-2.39-.42-3.57-.22-2.36-.39-4.71-.53-7.06-.07-1.18-.14-2.35-.19-3.53-.05-1.18-.09-2.35-.12-3.53-.14-4.71-.17-9.42,0-14.14.08-2.36.21-4.72.42-7.08.22-2.36.5-4.72,1.03-7.09.28-1.18.6-2.36,1.17-3.53.3-.58.65-1.18,1.28-1.69.32-.25.73-.47,1.19-.53.44-.08.95,0,1.36.22.42.21.71.52.93.82.22.3.39.61.52.92.27.62.43,1.22.57,1.83.26,1.21.39,2.41.46,3.6.14,2.39.08,4.75-.06,7.12l-.06.89c-.01.15-.02.29-.04.46l-.04.43c-.06.58-.1,1.16-.14,1.73-.08,1.16-.11,2.32-.08,3.47.04,1.15.12,2.31.38,3.38.07.26.15.52.25.75.1.23.23.44.37.58.15.13.27.19.44.19.08,0,.19-.02.29-.06.1-.03.2-.08.29-.14.37-.24.67-.68.9-1.17.23-.49.4-1.02.53-1.57.26-1.1.37-2.25.43-3.39.1-2.3-.07-4.63-.41-6.91-.09-.57-.19-1.14-.31-1.7l-.19-.85c-.07-.3-.12-.6-.17-.9-.2-1.2-.3-2.4-.35-3.6-.07-2.4.1-4.8.61-7.18.26-1.19.62-2.37,1.18-3.51.29-.57.62-1.13,1.08-1.65.45-.51,1.04-.99,1.79-1.23.19-.06.38-.1.57-.13.1-.01.19-.02.29-.03h.14c.05,0,.11,0,.17,0,.46.03.93.22,1.25.49.34.27.57.58.75.89.19.31.32.62.44.92.46,1.22.63,2.43.77,3.62.27,2.39.28,4.75.28,7.11,0,2.36-.06,4.7-.09,7.05-.03,2.34-.05,4.68.1,7,.08,1.15.2,2.31.48,3.39.07.27.16.52.26.76.11.23.24.44.38.57.07.06.14.1.2.12.03.01.07.01.1.02.02,0,.03,0,.05,0,0,0-.02,0-.01,0,0,0,.05-.03.1-.11.05-.08.1-.18.14-.3.17-.47.25-1.05.32-1.61.06-.57.1-1.14.13-1.72.05-1.16.04-2.33.04-3.5-.06-4.68-.31-9.38-.17-14.12.07-2.37.21-4.75.7-7.16.25-1.2.58-2.42,1.23-3.61.33-.59.76-1.2,1.4-1.69.32-.24.69-.45,1.1-.58.41-.13.81-.18,1.26-.16.44.02.91.16,1.31.39.39.23.71.53.96.83.49.62.77,1.26.99,1.89.42,1.25.59,2.47.71,3.68.23,2.42.2,4.79.13,7.16-.15,4.72-.56,9.4-.73,14.07-.03,1.17-.05,2.33-.02,3.49.02,1.15.09,2.31.29,3.41.1.55.24,1.09.45,1.53.11.22.24.4.37.5.13.1.25.13.42.13.1-.01.19-.06.3-.23.11-.16.21-.39.28-.64.15-.5.22-1.06.27-1.62.1-1.13.08-2.29.06-3.46-.03-1.16-.09-2.33-.16-3.5-.14-2.34-.29-4.69-.34-7.06-.03-1.18-.03-2.37.01-3.57.04-1.2.14-2.4.36-3.62.11-.61.25-1.22.45-1.83.2-.61.46-1.22.83-1.81.37-.58.9-1.16,1.59-1.54.34-.19.72-.33,1.1-.4.19-.04.38-.06.57-.08.09,0,.19,0,.28-.01.1,0,.2,0,.31.01.41.04.83.16,1.2.35.37.19.68.44.94.71.52.54.87,1.14,1.14,1.74.54,1.19.84,2.39,1.07,3.59.44,2.39.61,4.76.71,7.13.18,4.73.06,9.43-.02,14.12-.04,2.34-.08,4.69-.03,7.02.02,1.17.06,2.33.14,3.48.09,1.15.21,2.31.48,3.38.07.27.15.52.25.76.1.23.22.45.34.58.06.07.12.11.16.12.05.02.08.03.15.02.06,0,.1-.02.15-.05.04-.03.1-.08.15-.16.1-.15.19-.39.26-.63.07-.25.11-.52.15-.79.07-.55.11-1.13.14-1.71.05-1.16.08-2.34.17-3.54.09-1.19.23-2.41.62-3.62.2-.6.46-1.21.84-1.77.38-.56.91-1.07,1.54-1.4.31-.17.64-.3.98-.39.17-.04.34-.08.51-.11.08-.01.17-.03.25-.04h.13s.1-.02.15-.02c.42-.02.87.08,1.24.27.38.19.68.46.92.74.49.57.77,1.18,1,1.79.23.61.37,1.23.49,1.84.22,1.23.28,2.46.28,3.67-.01,1.22-.12,2.43-.29,3.62-.17,1.2-.41,2.38-.72,3.55-.31,1.17-.68,2.32-1.12,3.44-.44,1.13-.95,2.23-1.52,3.29-1.15,2.13-2.56,4.13-4.26,5.87-1.69,1.74-3.67,3.23-5.84,4.33-.54.28-1.1.53-1.66.75-.57.22-1.14.42-1.72.62-1.15.39-2.33.74-3.54.98-1.21.24-2.44.34-3.67.27-.61-.03-1.22-.1-1.81-.3-.3-.1-.59-.22-.87-.38-.28-.16-.56-.34-.82-.6-.09-.09-.09-.24,0-.33.02-.02.04-.03.06-.04.64-.33,1.23-.45,1.81-.54.58-.09,1.14-.08,1.7-.08h1.68c.56,0,1.12-.02,1.68-.04,1.12-.05,2.25-.16,3.34-.44,1.09-.28,2.14-.72,3.15-1.23,2.01-1.02,3.82-2.43,5.34-4.1,1.53-1.67,2.8-3.57,3.82-5.6.51-1.02.96-2.06,1.36-3.13.4-1.07.74-2.15,1.03-3.25.57-2.2.95-4.46,1.03-6.72.04-1.13,0-2.25-.16-3.34-.08-.54-.19-1.08-.35-1.57-.16-.49-.37-.96-.64-1.3-.13-.17-.28-.3-.42-.38-.15-.08-.29-.12-.46-.12-.02,0-.04,0-.07,0h-.09c-.06.01-.12.02-.18.02-.12.01-.24.04-.36.06-.23.05-.45.13-.66.23-.83.4-1.42,1.28-1.78,2.29-.36,1.02-.55,2.15-.67,3.29-.12,1.14-.16,2.31-.24,3.49-.04.59-.08,1.19-.17,1.8-.04.31-.1.61-.18.93-.09.32-.2.65-.42.98-.11.17-.26.33-.46.47-.2.13-.44.22-.67.23-.22.02-.49,0-.71-.1-.23-.1-.4-.24-.54-.39-.28-.3-.44-.62-.57-.92-.13-.31-.22-.61-.3-.91-.31-1.21-.43-2.39-.53-3.58-.1-1.18-.16-2.37-.2-3.54-.07-2.36-.1-4.71-.13-7.06-.05-4.69-.06-9.38-.36-14.03-.16-2.32-.36-4.63-.81-6.85-.23-1.1-.51-2.2-.95-3.14-.22-.47-.48-.89-.78-1.19-.3-.31-.6-.45-.93-.48h-.13c-.05,0-.11,0-.16,0-.1,0-.21.02-.3.04-.2.04-.38.1-.55.2-.34.18-.65.49-.91.89-.52.8-.85,1.86-1.07,2.95-.43,2.19-.55,4.52-.59,6.83-.04,2.32.02,4.66.07,7.01.02,2.35.13,4.7-.08,7.11-.06.6-.14,1.21-.32,1.84-.09.31-.22.64-.43.96-.11.16-.25.32-.45.46-.19.13-.43.23-.67.25-.21.02-.43,0-.65-.05-.21-.06-.42-.17-.58-.3-.33-.26-.53-.58-.69-.88-.31-.61-.46-1.22-.58-1.83-.23-1.21-.31-2.4-.37-3.59-.06-1.19-.07-2.37-.07-3.55-.01-4.72.2-9.41.17-14.07,0-1.16-.03-2.33-.08-3.48-.05-1.15-.12-2.3-.25-3.43-.14-1.12-.33-2.23-.66-3.21-.17-.48-.38-.92-.63-1.22-.12-.15-.24-.25-.36-.32-.12-.06-.22-.1-.37-.1-.14,0-.33.02-.48.06-.16.05-.31.12-.45.23-.3.22-.59.58-.83,1.01-.49.86-.81,1.93-1.07,3.01-.26,1.09-.43,2.22-.58,3.36-.15,1.14-.26,2.29-.35,3.45-.35,4.64-.38,9.33-.5,14.03-.03,1.18-.07,2.36-.15,3.54-.04.59-.09,1.19-.16,1.78-.08.6-.17,1.2-.4,1.83-.06.16-.14.32-.25.49-.11.16-.27.35-.56.46-.06.03-.15.04-.22.05-.06,0-.12,0-.17,0-.11,0-.22-.02-.33-.06-.22-.06-.41-.18-.55-.32-.3-.27-.47-.58-.6-.88-.13-.3-.23-.6-.31-.9-.31-1.2-.42-2.38-.53-3.57-.33-4.73-.26-9.42-.41-14.1-.07-2.33-.19-4.67-.48-6.94-.16-1.13-.36-2.26-.73-3.23-.18-.48-.44-.92-.7-1.11-.13-.1-.23-.13-.36-.14h-.05s-.07,0-.07,0c-.05,0-.1,0-.15.01-.1.01-.19.04-.29.07-.38.12-.74.39-1.07.75-.33.36-.6.81-.85,1.29-.48.96-.82,2.04-1.08,3.14-.26,1.1-.43,2.23-.55,3.37-.12,1.14-.17,2.29-.17,3.43,0,1.14.08,2.29.24,3.41.04.28.09.56.14.84.05.27.11.58.16.87.1.59.19,1.18.26,1.77.29,2.37.37,4.75.22,7.14-.08,1.19-.23,2.39-.52,3.57-.15.59-.33,1.18-.61,1.76-.28.57-.64,1.15-1.26,1.56-.15.1-.32.18-.5.24-.18.06-.36.1-.57.11-.21.01-.43-.03-.63-.11-.2-.08-.37-.2-.52-.34-.28-.27-.46-.58-.59-.88-.14-.3-.24-.6-.32-.91-.31-1.21-.4-2.41-.45-3.6-.04-1.19-.03-2.38,0-3.56.02-.59.05-1.18.09-1.78l.03-.45c.01-.12.01-.27.02-.42l.03-.87c.06-2.32.01-4.66-.2-6.95-.11-1.14-.26-2.28-.52-3.36-.13-.53-.3-1.06-.51-1.51-.21-.45-.5-.83-.73-.93-.11-.05-.21-.06-.35-.04-.12.02-.25.08-.39.2-.28.23-.56.66-.78,1.13-.44.95-.73,2.05-.96,3.16-.46,2.23-.69,4.54-.85,6.85-.16,2.32-.24,4.65-.27,6.98-.04,2.33-.01,4.67.02,7,.04,2.34.1,4.67.2,7.01.21,4.67.42,9.35.84,13.98.11,1.15.22,2.32.39,3.42.05.3.08.44.15.64.07.19.17.4.29.6.24.4.56.8.92,1.18.73.75,1.61,1.44,2.53,2.05.46.31.94.6,1.44.87.49.28.99.54,1.5.78,2.04.96,4.23,1.7,6.43,1.93,1.1.1,2.22.08,3.19-.26.49-.17.92-.42,1.28-.77.17-.18.33-.37.45-.58.12-.22.23-.45.3-.7.08-.25.12-.51.15-.77.03-.28.05-.57.08-.86.04-.58.08-1.15.07-1.73,0-.57-.03-1.15-.11-1.7-.04-.28-.09-.55-.17-.8-.08-.25-.18-.49-.32-.65-.14-.17-.28-.23-.47-.21-.09.01-.19.05-.29.1-.05.03-.1.06-.14.1-.02.02-.04.04-.06.05-.02.02-.07.06-.09.08-.46.39-.91.78-1.38,1.16-.48.37-.97.74-1.54,1.04-.29.15-.6.28-1.01.35-.2.03-.44.05-.74-.04-.15-.04-.3-.12-.43-.24-.13-.11-.23-.26-.3-.39-.15-.28-.16-.67-.07-.93.09-.27.22-.45.34-.6.26-.3.52-.49.78-.67.51-.36,1.04-.64,1.5-.95.11-.08.22-.16.31-.23.09-.08.16-.17.18-.19,0-.01,0,.01,0,.08,0,.03.02.05.03.07.01.02,0,0,.02.03.03.02-.01,0-.06-.02-.04-.02-.1-.03-.16-.05-.5-.12-1.09-.18-1.66-.24-1.16-.12-2.33-.16-3.51-.25-.59-.04-1.18-.09-1.77-.15-.59-.06-1.19-.14-1.79-.26-.3-.06-.6-.13-.91-.23-.31-.11-.63-.21-.98-.49-.09-.08-.18-.17-.26-.3-.08-.12-.14-.31-.15-.48,0-.2.02-.25.04-.37.02-.11.06-.21.1-.32.18-.43.55-.72.88-.89.34-.17.67-.25,1-.31.32-.05.64-.08.95-.08.62-.01,1.22.03,1.82.1,1.19.13,2.35.33,3.51.53.58.1,1.16.19,1.73.26.28.03.57.05.83.05.13,0,.26-.01.32-.03.01,0,.01,0,0,0-.01,0-.07.08-.07.08-.02.05,0,.06-.02.03-.02-.05-.08-.16-.16-.26-.08-.1-.17-.2-.26-.3-.19-.2-.4-.39-.61-.58-.44-.37-.89-.73-1.36-1.09-.93-.71-1.88-1.4-2.81-2.14-.46-.37-.93-.76-1.38-1.17-.45-.41-.9-.84-1.29-1.38-.38-.53-.76-1.13-.88-1.91-.06-.39-.05-.82.09-1.24.07-.21.17-.41.29-.59.06-.09.13-.18.21-.26.04-.04.08-.08.12-.12.05-.05.08-.07.18-.14.04-.03.09-.05.13-.07h.02c.48-.21,1.01-.21,1.44-.11.44.1.81.26,1.14.45.66.39,1.21.85,1.71,1.34.99.99,1.83,2.05,2.63,3.13.81,1.08,1.56,2.19,2.35,3.24.2.27.4.53.61.78.2.24.43.5.63.66.02.02.04.03.06.04,0,0,.02,0-.04,0-.03,0-.08,0-.13.03l.03-.02s.04-.03.06-.05c.08-.06.13-.14.16-.24.03-.1.04-.22.03-.34-.01-.12-.05-.27-.09-.37h0s-.02-.05-.02-.08c-.35-1.85-.64-3.69-.85-5.55-.2-1.87-.32-3.75-.14-5.69.1-.96.29-1.95.76-2.92.12-.24.27-.48.44-.71.18-.23.39-.44.64-.63.49-.37,1.14-.58,1.74-.57.31,0,.64.05.95.18.31.12.59.31.82.53.45.44.71.96.89,1.45.34,1,.45,1.97.49,2.93.07,1.92-.09,3.79-.28,5.64-.09.93-.2,1.85-.28,2.78-.09.92-.18,1.85-.17,2.75,0,.22.01.45.04.65.01.1.04.2.06.25,0,.03.02.03,0,0-.05-.03-.06-.02-.06-.03,0,0,.09-.03.16-.07.08-.05.16-.1.24-.17.16-.13.33-.28.49-.44.32-.31.63-.65.92-1.01l.89-1.07c1.16-1.45,2.29-2.95,3.63-4.33.68-.69,1.39-1.36,2.31-1.91.46-.27.98-.53,1.64-.62.32-.05.7-.04,1.05.04.35.08.77.25,1.1.59.34.33.52.77.58,1.14.06.38.05.71,0,1.02-.1.61-.29,1.12-.51,1.59-.47.94-1.04,1.75-1.69,2.48-.64.74-1.35,1.4-2.09,2.01-.74.61-1.52,1.17-2.32,1.68-.81.5-1.63.97-2.49,1.37-.43.2-.85.41-1.29.59-.22.09-.44.18-.65.26-.11.04-.21.08-.28.12-.02,0-.03.02-.03.02,0,0,.01,0,.03-.08,0-.04,0-.1-.02-.12-.02-.03-.03-.04-.03-.04,0,0,0,0,.02,0,.07.03.18.06.28.08.11.02.22.04.33.06l.68.11,1.39.19c.93.13,1.86.28,2.78.5.92.23,1.84.53,2.72,1,.87.47,1.69,1.11,2.27,2.02.02.02.05.09.08.14.03.05.05.12.07.18.03.14.05.31,0,.5-.05.18-.16.33-.27.42-.1.09-.2.15-.29.19-.35.16-.62.17-.88.2-.52.04-1.01.01-1.49-.02-.96-.1-1.89-.26-2.81-.47-.46-.11-.92-.22-1.37-.35-.45-.13-.9-.28-1.35-.43-.89-.32-1.77-.67-2.59-1.14l-.03-.02s-.02-.01-.03-.02h0s-.05-.02-.07-.03c0,0-.03,0,.01.02,0,0,.02,0,.03.01h.01s.04.01.07,0c.06,0,.12-.05.14-.07.03-.03.05-.07.05-.11v-.04s0-.02,0-.02c0-.02,0-.01,0-.02,0-.01.02.02.04.03l.05.06.22.26c.15.17.29.36.44.55.27.38.53.78.75,1.21.21.44.4.9.49,1.44.05.27.07.56.03.87-.03.31-.14.65-.34.96-.03.04-.06.08-.09.11h0c-.11.12-.25.21-.4.27-.16.06-.31.08-.45.08-.27,0-.48-.08-.64-.15-.32-.15-.54-.32-.75-.49-.4-.35-.72-.72-1.01-1.11-.29-.39-.54-.79-.78-1.21-.23-.42-.44-.84-.61-1.3-.04-.1.02-.21.12-.25.07-.02.14,0,.19.03h0Z"/>
      <g>
        <path class="cls-2" d="M60.76,80.43c.91.38,2.44.25,2.2-.13-.71-1.04-2.61-.41-2.11-.65,1.93-.84,3.06-2.87,2.19-2.95-.86-.07-2.36,2.45-2.67,2.31-.31-.14.51-4.24-.73-4.13s-.4,3.8-.4,3.8c0,0,.12.25-.08.37-.2.12-1.83-2.55-2.62-2.2,0,0-.4.29.18.93s1.94,1.44,1.83,1.66c-.11.22-2.65-.5-2.69.26-.04.43,2.55.28,2.75.47.2.19-.85.59-.67.89.18.3,1.13-.52,1.13-.52,0,0,.58-.37.98.2,0,0,.82,1.11,1.04.88.26-.41-.51-1.36-.32-1.19Z"/>
        <path class="cls-2" d="M7.6,80.04c1.27-.97,2.48-2.45.77-3.91-1.84-1.57-6.84-1.31-8.26.8-.14.2.05.44.26.46.97.05,1.69-.22,2.64-.43-.13.6-.06,1.24-.04,1.87.04,1.11.04,2.22,0,3.33-.03,1.08-.08,2.17-.22,3.24-.05.37-.15.73-.24,1.09-.48-.01-.75-.06-1.27-.04-.32,0-.43.36-.24.59.41.5,1.01.71,1.66.75.06.23.35.32.55.21.12-.06.22-.14.31-.24.74-.09,1.49-.3,2.06-.48,1.53-.47,3.04-1.31,3.81-2.78.59-1.14.87-2.81-.06-3.79-.46-.48-1.22-.59-1.76-.67ZM5.47,76.73c.49.04.96.12,1.39.35.88.46.87.64.64,1.53-.24.92-.44,1-1.26,1.37-.35.16-.69.27-1.05.38-.16.04-.32.09-.48.13-.06.01-.1.04-.14.07,0-.58-.03-1.15-.07-1.72-.05-.7-.07-1.43-.36-2.05.43-.06.87-.09,1.32-.05ZM7.19,84.98c-.82.66-1.88,1.06-2.88,1.35-.02,0-.04,0-.07.02.3-1.25.24-2.84.29-3.71.02-.47.04-.94.04-1.4.09.08.22.12.37.09.27-.06.57-.16.89-.28.93-.21,1.92-.12,2.38.86.54,1.16-.11,2.35-1.02,3.08Z"/>
        <path class="cls-2" d="M34.64,80.04c1.27-.97,2.48-2.45.77-3.91-1.84-1.57-6.84-1.31-8.26.8-.14.2.05.44.26.46.97.05,1.69-.22,2.64-.43-.13.6-.06,1.24-.04,1.87.04,1.11.04,2.22,0,3.33-.03,1.08-.08,2.17-.22,3.24-.05.37-.15.73-.24,1.09-.48-.01-.75-.06-1.27-.04-.32,0-.43.36-.24.59.41.5,1.01.71,1.66.75.06.23.35.32.55.21.12-.06.22-.14.31-.24.74-.09,1.49-.3,2.06-.48,1.53-.47,3.04-1.31,3.81-2.78.59-1.14.87-2.81-.06-3.79-.46-.48-1.22-.59-1.76-.67ZM32.51,76.73c.49.04.96.12,1.39.35.88.46.87.64.64,1.53-.24.92-.44,1-1.26,1.37-.35.16-.69.27-1.05.38-.16.04-.32.09-.48.13-.06.01-.1.04-.14.07,0-.58-.03-1.15-.07-1.72-.05-.7-.07-1.43-.36-2.05.43-.06.87-.09,1.32-.05ZM34.23,84.98c-.82.66-1.88,1.06-2.88,1.35-.02,0-.04,0-.07.02.3-1.25.24-2.84.29-3.71.02-.47.04-.94.04-1.4.09.08.22.12.37.09.27-.06.57-.16.89-.28.93-.21,1.92-.12,2.38.86.54,1.16-.11,2.35-1.02,3.08Z"/>
        <path class="cls-2" d="M14,85.16c-.72.37-1.62.86-2.29.12-.27-.3-.4-.67-.42-1.04,1.16.42,3.42.06,3.54-1.31.17-1.79-2.02-1.93-3.15-1.24-1.3.8-2.02,2.68-1.23,4.07.9,1.56,3.11,1.69,4.39.51.61-.56-.16-1.45-.85-1.1ZM11.8,82.84c.25-.27.58-.5.94-.59.42-.13.76,0,1,.39-.1.35-.31.54-.65.59-.56.2-1.16.22-1.72.39.08-.29.23-.56.43-.79Z"/>
        <path class="cls-2" d="M17.13,83.2c-.11-.05-.59-.18-.62-.25-.17-.31.67-.51.82-.54.52-.11,1.03.02,1.54-.07.12-.02.19-.2.12-.29-.76-1.03-3.8-.65-3.59.93.11.81,1.24.9,1.8,1.21.28.15.73.4.86.71.27.61-.39,1.08-.84,1.21-.57.17-1.18.05-1.76.21-.34.09-.47.65-.11.82,1.47.67,4.31-.16,3.74-2.24-.25-.9-1.18-1.33-1.96-1.69Z"/>
        <path class="cls-2" d="M22.36,80.25c-.06-1.97.2-3.93.38-5.93.06-.65-1.16-.62-1.24,0-.16,1.18-.26,2.36-.31,3.54-.05.83-.07,1.66-.07,2.49-.56.07-1.09.18-1.54.3-.55.14-.46,1.11.14,1.03.47-.06.94-.11,1.42-.15.01.4.03.79.06,1.19-.08,1.38-.04,2.79.17,4.14.07.43.62.57.95.39,1.63-.92.42-3.53.2-4.93-.04-.25-.07-.51-.1-.76,0-.02,0-.04,0-.07.17,0,.34,0,.5,0,.92.04,1.86.29,2.76.05.09-.02.11-.13.05-.19-.76-.85-2.06-1.11-3.36-1.09Z"/>
        <path class="cls-2" d="M59.66,81.45c-.07-.06-.19-.07-.26,0-.55.57-.5,1.48-.54,2.22-.05.98-.34,2.09-.08,3.04.2.73,1.11.6,1.36,0,.37-.89.18-2.09.14-3.04-.03-.76-.02-1.69-.62-2.22Z"/>
        <path class="cls-2" d="M64.7,85.34c-.95.53-2.35.12-2.4-1.12-.02-.56.31-1.12.84-1.31.45-.16.92,0,1.37-.1.13-.03.23-.19.18-.32-.33-.84-1.45-.8-2.16-.48-.85.39-1.39,1.28-1.39,2.21-.01,2.17,2.45,3.12,4.17,2.16.68-.38.07-1.42-.61-1.04Z"/>
        <path class="cls-2" d="M68.42,86.57c.27-.11.49-.26.68-.44.02.04.05.07.08.11.54.7,1.57.88,2.19.18.47-.52-.12-1.31-.75-.97-.69.37-.56-.97-.54-1.27.03-.44.05-.84-.07-1.27-.08-.28-.32-.41-.56-.4-.48-.74-1.69-.69-2.43-.3-1.05.55-1.5,1.87-1.19,2.99.32,1.14,1.44,1.86,2.59,1.39ZM67.87,82.96c.34-.09.69-.03,1.03.02,0,.03,0,.05,0,.08-.02.49-.11,1.01-.13,1.52-.04.14-.1.28-.17.41-.59,1.02-1.78.6-1.79-.55,0-.68.4-1.31,1.07-1.49Z"/>
        <path class="cls-2" d="M72.87,86.62c.72-1.79.6-4.14.69-6.04.05-1.03.11-2.07.15-3.1.03-.9.21-1.89-.33-2.66-.18-.25-.61-.4-.84-.11-.55.71-.5,1.41-.53,2.29-.03,1.11-.03,2.23-.04,3.34-.01,1.98-.28,4.39.36,6.28.1.28.44.26.55,0Z"/>
        <path class="cls-1" d="M78.05,84.18c-.48-.58-1-.43-1.61-.68-.68-.12-1.02-.64-.51-1.16.29-.24.65-.25,1.01-.22.63.01.61.21,1.16.08.23-.05.33-.41.19-.56-1.05-1.19-3.53-.73-3.86.91-.14.68.11,1.35.7,1.73.32.21.66.2,1.01.29.45.12,1.13.25,1.24.76.11.51-.39.86-.79,1.09-1.08.6-2.52.54-3.7.79-1,.2-2,.67-2.86,1.21-1.93,1.21-3.37,2.85-4.17,4.99-.52,1.39,1.74,1.98,2.24.58.7-1.95,1.92-3.66,3.71-4.74.89-.54,1.88-.93,2.89-1.18.84-.21,1.71-.34,2.47-.77,1.08-.62,1.79-2.02.88-3.11Z"/>
        <path class="cls-3" d="M40.98,81.2c-.9-.84-2.57.41-3.03,1.27-.73,1.37-1.11,3.68.78,4.26,1.59.48,3.53-.44,4.14-1.98.61-1.52-.45-3.07-1.9-3.54ZM39.74,85.32c-1.3.1-1.05-1.23-.75-2.1.24-.7.64-1.01,1.18-1.18.46.51,1.23.95,1.33,1.64.14.91-.99,1.58-1.76,1.64Z"/>
        <path class="cls-3" d="M48.47,80.97c-.87-.54-2.14-.95-3.41-1.13.08-1.45.3-2.89.22-4.33-.02-.35-.47-.4-.59-.08-.5,1.33-.59,2.85-.63,4.33-.68-.02-1.33.03-1.87.19-.53.15-.53.92,0,1.08.59.18,1.21.22,1.83.24,0,.15-.01.3-.02.45-.09,1.54-.31,4.28.74,5.55.2.25.55.07.65-.17.31-.8.04-1.78-.03-2.62-.09-1-.22-2-.28-2.99,0-.06,0-.12,0-.18.02,0,.05,0,.07,0,1.07.07,2.14.27,3.21.18.26-.02.38-.36.14-.51Z"/>
        <path class="cls-3" d="M51.96,85.49c-.19-.1-.71.02-.7.03,0,0-.19-.64-.19-.65-.07-.28-.11-.6-.1-.92.09-.27.16-.55.2-.81.08-.46-.43-.85-.79-.66-1.74-1.38-4.64.58-4.07,2.87.3,1.18,1.52,1.75,2.61,1.23.33-.16.63-.38.89-.64.04.11.08.21.13.32.47.96,1.71,1.3,2.28.22.17-.33.1-.8-.26-.98ZM47.49,84.77c-.12-1.4,1.32-1.72,2.44-1.58-.1.25-.18.51-.24.78-.1.2-.21.4-.35.59-.4.56-1.73,1.74-1.86.21Z"/>
        <path class="cls-3" d="M57.86,85.99c-.17-.41-.69-.43-.86,0,0,.01,0,.02-.01.03,0-.02,0-.04,0-.07-.04-.32-.06-.63-.07-.95-.02-.48-.02-.97-.14-1.44-.22-.85-.78-1.53-1.65-1.75-.8-.2-1.32.02-1.66.46-.13-.27-.28-.52-.46-.75-.2-.25-.55-.02-.57.24-.06.74.1,1.48.15,2.22.05.76.01,1.51-.02,2.27-.04.89,1.33.88,1.38,0,.03-.22.05-.45.06-.69.05-.47.12-.95.2-1.42.07-.39,0-.58.45-.72.46-.14.51.08.64.54.26.98-.09,2.04.39,3,.79,1.59,2.9.67,2.21-.98Z"/>
      </g>
    </g>
  </g>
</svg>