<?xml version="1.0" encoding="UTF-8"?>
<svg id="Layer_2" data-name="Layer 2" xmlns="http://www.w3.org/2000/svg" viewBox="0 0 221.31 41.07">
  <defs>
    <style>
      .cls-1 {
        fill: #8a5fb1;
      }

      .cls-2 {
        fill: none;
      }
    </style>
  </defs>
  <g id="Layer_4" data-name="Layer 4">
    <g>
      <g>
        <polygon class="cls-2" points="20.4 1 .35 1.16 .13 25.94 0 40.1 19.35 40.27 38.23 40.45 39.97 26.43 43.14 .81 20.4 1"/>
        <g>
          <path class="cls-1" d="M21.64,31.46c.08-.1,7.55-21.06,18.43-28.13-.02-.07,1.26,11.11-18.1,29,.02.02,9.94-7.35,18.45-9.5L43.14.81l-23.45.19v.11c2.6,3.89,5.78,12.59,1.94,30.35Z"/>
          <path class="cls-1" d="M20.14,30.56v-.22c-1.74-4.16-7.02-17.99-3.88-29.31L.35,1.16l-.09,11.23c4.45,1.89,14.07,7.02,19.88,18.16Z"/>
          <path class="cls-1" d="M20.14,32.5h.03v-.04c-1.98-1.2-14.48-8.7-19.94-16.23l-.1,12.35c4.04-.27,11.49-.01,20.01,3.92Z"/>
          <path class="cls-1" d="M22.28,32.88s11.59-1.41,14.08,1.65c0,0-7.28,2.8-14.06-1.19,0,0,.73,3.21,1.61,6.98l14.32.13,1.74-14.02-.32.11c-3.27,1.81-8.61,4.03-17.37,6.34Z"/>
          <path class="cls-1" d="M21.3,40.3l-1.95-.02L0,40.1l.11-9.38c7.32,2.8,20.36,2.62,20.37,2.61-12.05,1.85-13.43,4.82-13.43,4.85,4.7.91,13.59-4.52,13.58-4.52.06.11.12.46.19.96.17,1.36.36,3.83.48,5.68Z"/>
        </g>
      </g>
      <g>
        <path class="cls-1" d="M71.47,26.52l-1.04,1.73c-.99-.47-2.55-.71-4.68-.71-1.99,0-3.59.56-4.8,1.68-1.2,1.12-1.81,2.57-1.81,4.33s.62,3.06,1.85,4.11c1.23,1.05,2.83,1.57,4.78,1.57,2.13,0,3.77-.49,4.91-1.48l1.7,1.55c-1.8,1.17-4.11,1.75-6.94,1.75s-5.3-.7-7-2.1c-1.7-1.4-2.56-3.24-2.56-5.53s.91-4.05,2.73-5.52c1.82-1.47,4.17-2.2,7.05-2.2,2.47,0,4.4.27,5.8.8Z"/>
        <path class="cls-1" d="M87.59,40.81l-1.57-3.13h-8.45l-1.67,3.13h-3.47l9.22-15.04h.82l8.56,15.04h-3.44ZM81.91,29.66l-3.52,6.53h6.74l-3.22-6.53Z"/>
        <path class="cls-1" d="M106.82,41.02l-11.73-10.85v10.65h-2.95v-14.84h1.24l11.42,10.26v-10.26h2.94v15.04h-.93Z"/>
        <path class="cls-1" d="M125.8,41.02l-11.73-10.85v10.65h-2.95v-14.84h1.24l11.42,10.26v-10.26h2.94v15.04h-.93Z"/>
        <path class="cls-1" d="M143.01,40.81l-1.57-3.13h-8.45l-1.67,3.13h-3.47l9.22-15.04h.82l8.55,15.04h-3.44ZM137.33,29.66l-3.52,6.53h6.74l-3.22-6.53Z"/>
        <path class="cls-1" d="M154.04,40.81h-6.48v-14.84c2.76-.09,4.75-.13,5.97-.13,2.24,0,3.98.32,5.21.95s1.84,1.53,1.84,2.71c0,.69-.39,1.32-1.18,1.88s-1.65.92-2.6,1.06c1.8.28,3.11.75,3.93,1.41.82.65,1.23,1.55,1.23,2.67,0,1.3-.73,2.34-2.19,3.12s-3.37,1.17-5.73,1.17ZM150.66,27.6v4.26c.65.04,1.46.06,2.42.06,2.93,0,4.4-.78,4.4-2.34,0-1.37-1.35-2.06-4.04-2.06-1.03,0-1.96.02-2.77.07ZM150.66,33.43v5.66c1.06.07,1.88.1,2.45.1,1.94,0,3.36-.24,4.25-.71.89-.48,1.34-1.23,1.34-2.27,0-.97-.43-1.68-1.28-2.14-.85-.46-2.28-.69-4.27-.69l-2.5.05Z"/>
        <path class="cls-1" d="M164.8,40.81v-14.84h3.1v14.84h-3.1Z"/>
        <path class="cls-1" d="M170.8,40.14l1.13-1.86c.58.28,1.3.51,2.16.69s1.63.28,2.32.28c1.21,0,2.18-.22,2.91-.65.73-.43,1.1-.98,1.1-1.65,0-.5-.2-.96-.61-1.39s-1.43-.9-3.08-1.4l-1.83-.56c-1.55-.47-2.63-1.03-3.25-1.68-.62-.65-.92-1.43-.92-2.34,0-1.11.6-2.03,1.8-2.75s2.74-1.09,4.62-1.09c2.51,0,4.26.27,5.24.8l-.91,1.76c-.41-.2-1.04-.38-1.89-.57-.85-.18-1.63-.27-2.36-.27-1.05,0-1.88.2-2.49.59s-.91.89-.91,1.51c0,.38.11.72.33,1.03.22.31.52.57.91.78.39.21,1.18.5,2.38.88l1.86.58c1.55.48,2.64,1.05,3.26,1.72.62.67.94,1.51.94,2.54,0,1.11-.68,2.06-2.05,2.84-1.37.78-3.2,1.16-5.49,1.16-2.01,0-3.73-.31-5.16-.93Z"/>
        <path class="cls-1" d="M197.68,31.48l-.68,1.13c-.65-.31-1.67-.46-3.06-.46-1.3,0-2.35.37-3.13,1.1-.79.73-1.18,1.68-1.18,2.83s.4,2,1.21,2.68c.81.69,1.85,1.03,3.12,1.03,1.39,0,2.46-.32,3.21-.96l1.11,1.01c-1.17.76-2.68,1.14-4.53,1.14s-3.46-.46-4.57-1.37c-1.11-.91-1.67-2.12-1.67-3.61s.59-2.65,1.78-3.6c1.19-.96,2.72-1.44,4.6-1.44,1.61,0,2.87.17,3.78.52Z"/>
        <path class="cls-1" d="M199.08,35.89c0-1.4.54-2.57,1.61-3.52,1.08-.94,2.53-1.42,4.36-1.42,2.06,0,3.63.43,4.73,1.3,1.1.87,1.64,2.08,1.64,3.63s-.55,2.84-1.65,3.74c-1.1.9-2.67,1.35-4.72,1.35-1.87,0-3.33-.48-4.39-1.43s-1.58-2.17-1.58-3.66ZM201.21,35.89c0,1.11.33,2.04,1.01,2.78.67.75,1.62,1.12,2.84,1.12,1.38,0,2.44-.34,3.16-1.02.73-.68,1.09-1.64,1.09-2.88,0-2.5-1.42-3.74-4.25-3.74-1.25,0-2.21.34-2.86,1.01-.65.67-.98,1.58-.98,2.74Z"/>
        <path class="cls-1" d="M212.92,38.96c.27,0,.51.1.7.29.19.19.29.43.29.7s-.1.51-.29.7-.43.29-.7.29-.51-.1-.7-.29c-.19-.2-.29-.43-.29-.7s.1-.51.29-.7c.19-.19.43-.29.7-.29Z"/>
      </g>
      <g>
        <path class="cls-1" d="M66.67,20.46c-1.43,1.03-3.47,1.55-6.11,1.55h-4.46V.37h5.05c2.31,0,4.06.44,5.23,1.32s1.76,2.25,1.76,4.13c0,1.3-.29,2.35-.88,3.14-.59.79-1.64,1.36-3.14,1.69.83.19,1.54.45,2.14.79.6.34,1.09.74,1.47,1.19.38.45.66.95.84,1.5.17.55.26,1.12.26,1.72,0,2.04-.72,3.58-2.15,4.61ZM65.17,12.65c-.99-.75-2.46-1.08-4.4-.98l-1.33.06-.03-1.92h1.33c1.69,0,2.99-.34,3.9-1.02.91-.68,1.36-1.7,1.36-3.06,0-1.18-.41-2.05-1.22-2.63-.82-.58-1.97-.87-3.45-.87h-3.03l-.06,7.58v10.34h2.38c1.92,0,3.41-.35,4.46-1.04,1.05-.69,1.58-1.72,1.58-3.08,0-1.51-.5-2.64-1.49-3.39Z"/>
        <path class="cls-1" d="M85.75.37h2.11v14.24c0,1.18-.19,2.24-.56,3.2s-.9,1.78-1.58,2.46-1.5,1.2-2.46,1.56-2.03.54-3.2.54-2.28-.18-3.25-.54c-.97-.36-1.8-.88-2.48-1.56-.68-.68-1.21-1.5-1.58-2.46s-.56-2.03-.56-3.2V.37h2.14v14.12c0,1.88.51,3.35,1.53,4.43,1.02,1.07,2.41,1.61,4.16,1.61.87,0,1.65-.14,2.35-.43.7-.29,1.3-.69,1.8-1.21.5-.52.88-1.14,1.16-1.87.28-.73.42-1.55.42-2.46V.37Z"/>
        <path class="cls-1" d="M91.26,22.01V.37h5.6c2.04,0,3.62.46,4.72,1.39,1.1.93,1.66,2.29,1.66,4.09,0,1.26-.39,2.36-1.18,3.31s-2.04,1.58-3.78,1.89c.45.08.83.21,1.13.37s.55.35.76.54c.21.2.37.41.5.65.12.24.24.47.34.7l3.87,8.7h-2.35l-3.22-7.49c-.17-.39-.34-.76-.51-1.1-.18-.34-.4-.63-.68-.87s-.63-.42-1.05-.56c-.42-.13-.96-.2-1.62-.2h-.77v-1.83h.93c1.69,0,3.03-.36,4.02-1.08.99-.72,1.49-1.74,1.49-3.06s-.41-2.28-1.22-2.8c-.82-.53-2.1-.79-3.85-.79h-2.63c-.06,1.73-.1,3.41-.11,5.01-.01,1.61-.01,3.21,0,4.81,0,1.6.03,3.21.06,4.84.03,1.63.05,3.33.05,5.11h-2.14Z"/>
        <path class="cls-1" d="M110.39,20.15h8.67v1.86h-10.8V.37h2.14v19.78Z"/>
        <path class="cls-1" d="M121.94,22.01V.37h2.1v21.64h-2.1Z"/>
        <path class="cls-1" d="M141.32.37h2.11v21.64h-2.88l-10.99-18.85v18.85h-2.1V.37h2.69l11.17,19.16V.37Z"/>
        <path class="cls-1" d="M149.58,15.06c.41,1.15,1,2.13,1.76,2.94.76.82,1.69,1.44,2.77,1.87,1.08.43,2.31.65,3.67.65,1.07,0,2-.08,2.79-.23s1.39-.37,1.83-.63v-7.46h-6.41v-1.86h8.54v10.52c-.93.48-1.94.85-3.03,1.11-1.09.27-2.29.4-3.59.4-1.71,0-3.25-.26-4.61-.77s-2.52-1.26-3.48-2.23c-.96-.97-1.7-2.14-2.21-3.51-.52-1.37-.77-2.93-.77-4.66s.26-3.2.77-4.58c.52-1.38,1.24-2.56,2.18-3.54.94-.98,2.07-1.74,3.41-2.27s2.8-.81,4.41-.81c1.3,0,2.46.1,3.48.31,1.02.21,1.87.49,2.55.84l-.34,1.89c-.76-.43-1.63-.74-2.6-.91-.97-.17-1.95-.26-2.94-.26-1.36,0-2.58.22-3.67.67-1.08.44-2,1.07-2.75,1.87-.75.8-1.34,1.79-1.75,2.94-.41,1.16-.62,2.45-.62,3.87s.21,2.71.62,3.85Z"/>
        <path class="cls-1" d="M173.33,22.01V2.23h-6.38V.37h14.8v1.86h-6.28v19.78h-2.14Z"/>
        <path class="cls-1" d="M200.67,15.83c-.44,1.37-1.07,2.54-1.89,3.51-.82.97-1.82,1.72-3,2.24s-2.52.79-4.01.79-2.82-.26-4.01-.79-2.19-1.27-3-2.24c-.82-.97-1.44-2.14-1.89-3.51-.44-1.37-.67-2.92-.67-4.63s.22-3.26.67-4.64c.44-1.38,1.07-2.56,1.89-3.53.82-.97,1.82-1.72,3-2.24s2.52-.79,4.01-.79,2.82.26,4.01.79,2.19,1.27,3,2.24c.81.97,1.44,2.15,1.89,3.53.44,1.38.67,2.93.67,4.64s-.22,3.26-.67,4.63ZM198.66,7.44c-.36-1.15-.87-2.13-1.52-2.96-.65-.83-1.43-1.47-2.34-1.93s-1.92-.7-3.03-.7-2.13.23-3.03.7c-.91.46-1.69,1.11-2.34,1.93-.65.83-1.16,1.81-1.52,2.96-.36,1.15-.54,2.4-.54,3.76s.18,2.62.54,3.76c.36,1.15.87,2.13,1.52,2.94.65.82,1.43,1.46,2.34,1.92.91.46,1.92.7,3.03.7s2.12-.23,3.03-.7,1.69-1.1,2.34-1.92c.65-.81,1.16-1.8,1.52-2.94.36-1.15.54-2.4.54-3.76s-.18-2.62-.54-3.76Z"/>
        <path class="cls-1" d="M219.2.37h2.11v21.64h-2.88l-10.99-18.85v18.85h-2.1V.37h2.69l11.17,19.16V.37Z"/>
      </g>
    </g>
  </g>
</svg>