<?xml version="1.0" encoding="UTF-8"?>
<svg id="Layer_2" data-name="Layer 2" xmlns="http://www.w3.org/2000/svg" viewBox="0 0 203.96 45.22">
  <defs>
    <style>
      .cls-1 {
        fill: #8a5fb1;
      }
    </style>
  </defs>
  <g id="Layer_4" data-name="Layer 4">
    <g>
      <path class="cls-1" d="M24.14,32.75c-6.23-.04-11.25-4.81-11.21-10.64.04-5.84,5.12-10.53,11.35-10.48,3.19.02,6.06,1.28,8.1,3.29l.1-14.08C30.17.33,27.33.02,24.41,0,11.35-.09.11,7.4,0,22.96c-.07,10.42,7.98,21.96,23.82,21.56,3.33-.08,6.23-.35,8.36-.82l.1-14.13c-2.07,1.98-4.95,3.2-8.14,3.18"/>
      <path class="cls-1" d="M30.74,22.15c-5.49,2.58-10.94,1.72-16.66-.12h0c5.74-1.74,11.21-2.52,16.66.13h0ZM24.03,13.18c1.6,3.69,3.19,6.86,6.79,8.81-.96-3.97-3.62-6.31-6.79-8.81ZM30.83,22.38c-3.62,1.9-5.25,5.04-6.91,8.71,3.2-2.45,5.89-4.76,6.91-8.71ZM31.72,14.96c-.85,2.37-1.32,4.42-.71,6.95h0c1.11-2.36,1.06-4.46.7-6.95ZM33.04,20.04c-.9.48-1.55.99-1.85,2.02,1.01-.39,1.45-1.09,1.85-2.02ZM31.19,22.27c.28,1.04.93,1.56,1.82,2.05-.38-.94-.82-1.64-1.82-2.05ZM31.02,22.35h0c-.65,2.52-.21,4.58.61,6.96.4-2.48.48-4.59-.6-6.96Z"/>
      <path class="cls-1" d="M58.45,32.9c-6.23-.04-11.25-4.81-11.21-10.64.04-5.83,5.13-10.53,11.36-10.48,3.19.02,6.06,1.28,8.1,3.29l.1-14.08c-2.31-.51-5.15-.81-8.07-.84-13.06-.09-24.3,7.4-24.41,22.96-.08,10.42,7.98,21.96,23.82,21.56,3.33-.09,6.23-.35,8.36-.82l.1-14.13c-2.07,1.98-4.95,3.2-8.14,3.18Z"/>
      <path class="cls-1" d="M65.13,21.8h0,0,0ZM65.18,22.23h0s0,0,0,0h0s0,0,0,0ZM65.13,22.66c-3.62,1.9-5.25,5.04-6.91,8.71,3.2-2.45,5.89-4.76,6.91-8.71ZM65.04,22.43c-5.49,2.58-10.94,1.72-16.66-.12h0c5.74-1.74,11.2-2.53,16.66.13h0ZM65.12,22.27c-3.59-1.95-5.18-5.12-6.78-8.81,3.17,2.5,5.83,4.84,6.78,8.81ZM65.32,22.2h0c-.62-2.53-.15-4.59.7-6.95.36,2.49.41,4.59-.7,6.95ZM65.49,22.35c.29-1.03.95-1.55,1.85-2.02-.4.93-.84,1.64-1.85,2.02M67.31,24.61c-.89-.49-1.54-1.01-1.82-2.05,1,.4,1.43,1.11,1.82,2.05ZM65.92,29.59c-.82-2.38-1.26-4.44-.61-6.96h0c1.08,2.37,1,4.48.6,6.96Z"/>
      <path class="cls-1" d="M88.95,19.77c-.7.38-2.48.83-4.71.83-7.02,0-10.11-4.61-10.11-9.87,0-6.97,4.85-10.52,10.44-10.52,2.14,0,3.9.44,4.68.85l-.97,4.2c-.81-.35-1.98-.7-3.48-.7-2.87,0-5.38,1.79-5.38,5.82,0,3.58,2.03,5.82,5.49,5.82,1.2,0,2.56-.24,3.34-.55l.7,4.14h0Z"/>
      <path class="cls-1" d="M96.39,15.71l-1.06,4.59h-5.21L95.58.49h6.68l5.6,19.81h-5.43l-1.2-4.59h-4.85ZM100.54,11.8l-.86-3.55c-.28-1.12-.64-2.73-.92-3.91h-.05c-.28,1.17-.56,2.79-.84,3.91l-.81,3.55h3.48Z"/>
      <path class="cls-1" d="M109.71,20.3V.49h5.93l2.98,6.09c1.03,1.97,2.12,4.61,2.95,6.93h.08c-.28-2.62-.39-5.38-.39-8.32V.49h4.59v19.81h-5.29l-3.2-6.58c-1.03-2.09-2.25-4.76-3.15-7.14h-.11c.14,2.67.19,5.64.19,8.84v4.88h-4.59Z"/>
      <path class="cls-1" d="M128.78,20.3V.49h5.93l2.98,6.09c1.03,1.97,2.11,4.61,2.95,6.93h.08c-.28-2.62-.39-5.38-.39-8.32V.49h4.59v19.81h-5.29l-3.2-6.58c-1.03-2.09-2.26-4.76-3.15-7.14h-.11c.14,2.67.2,5.64.2,8.84v4.88h-4.6Z"/>
      <path class="cls-1" d="M152.79,15.71l-1.06,4.59h-5.21L151.98.49h6.68l5.6,19.81h-5.43l-1.2-4.59h-4.85,0ZM156.94,11.8l-.86-3.55c-.28-1.12-.64-2.73-.92-3.91h-.06c-.28,1.17-.56,2.79-.84,3.91l-.81,3.55h3.48Z"/>
      <path class="cls-1" d="M166.11.79c1.14-.23,3.62-.44,5.93-.44,2.67,0,4.29.21,5.73.97,1.48.74,2.54,2.14,2.54,4.08,0,1.65-.86,3.26-3.06,4.15v.06c2.28.68,3.68,2.47,3.68,4.82,0,1.88-.86,3.35-2.12,4.35-1.39,1.12-3.73,1.76-7.74,1.76-2.28,0-3.95-.15-4.96-.35V.79h0ZM171.09,8.1h1c2.15,0,3.18-.79,3.18-2.06,0-1.15-.84-1.88-2.53-1.88-.84,0-1.31.06-1.65.12v3.82h0ZM171.09,16.59c.36.06.81.06,1.45.06,1.67,0,3.09-.7,3.09-2.47s-1.45-2.32-3.34-2.32h-1.2v4.73h0Z"/>
      <path class="cls-1" d="M188.16.49h-5.04v19.81h5.04V.49Z"/>
      <path class="cls-1" d="M191.4,15.01c1.14.62,2.98,1.24,4.87,1.24,1.73,0,2.57-.62,2.57-1.62s-.84-1.5-2.95-2.26c-3.17-1.2-5.29-3.03-5.29-5.97,0-3.5,2.81-6.2,7.55-6.2,2.23,0,3.84.44,5.07,1l-1.06,4.26c-.81-.38-2.2-.94-4.07-.94-1.53,0-2.37.59-2.37,1.47,0,1,1,1.38,3.37,2.32,3.37,1.32,4.87,3.21,4.87,5.96,0,3.41-2.51,6.32-7.99,6.32-2.26,0-4.46-.62-5.52-1.2l.95-4.38Z"/>
      <path class="cls-1" d="M90.46,44.37c-.74.38-2.62.83-4.98.83-7.42,0-10.69-4.61-10.69-9.87,0-6.96,5.12-10.52,11.05-10.52,2.27,0,4.12.44,4.95.85l-1.03,4.2c-.86-.35-2.09-.7-3.68-.7-3.04,0-5.68,1.79-5.68,5.82,0,3.58,2.15,5.82,5.8,5.82,1.27,0,2.71-.24,3.53-.55l.74,4.14h0Z"/>
      <path class="cls-1" d="M98.06,25.1v11.25c0,3,1.03,4.67,3.12,4.67s3.15-1.53,3.15-4.67v-11.25h5.33v10.93c0,6.11-3.06,9.2-8.63,9.2s-8.31-2.97-8.31-9.31v-10.81h5.33Z"/>
      <path class="cls-1" d="M112.7,25.1h5.33v15.37h7.63v4.44h-12.96v-19.8Z"/>
      <path class="cls-1" d="M128.26,29.56h-5.07v-4.46h15.55v4.46h-5.15v15.34h-5.33v-15.34Z"/>
      <path class="cls-1" d="M145.9,25.1v11.25c0,3,1.03,4.67,3.12,4.67s3.15-1.53,3.15-4.67v-11.25h5.33v10.93c0,6.11-3.06,9.2-8.63,9.2s-8.31-2.97-8.31-9.31v-10.81h5.33Z"/>
      <path class="cls-1" d="M160.54,25.39c1.5-.24,3.77-.44,6.42-.44,3.03,0,5.21.41,6.72,1.56,1.27.97,1.95,2.38,1.95,4.29,0,2.47-1.86,4.2-3.39,4.79v.09c1.3.59,2.03,1.85,2.53,3.55.59,2.03,1.24,4.91,1.62,5.67h-5.42c-.29-.59-.83-2.12-1.39-4.58-.53-2.35-1.27-2.85-2.92-2.85h-.85v7.43h-5.27v-19.51h0ZM165.82,33.65h1.39c2,0,3.15-.97,3.15-2.44s-.97-2.32-2.74-2.32c-1,0-1.53.06-1.8.12v4.64h0Z"/>
      <path class="cls-1" d="M190.59,36.91h-7.13v3.64h7.99v4.35h-13.31v-19.8h12.9v4.35h-7.57v3.17h7.13v4.29Z"/>
      <path class="cls-1" d="M88.95,19.77c-.7.38-2.48.83-4.71.83-7.02,0-10.11-4.61-10.11-9.87,0-6.97,4.85-10.52,10.44-10.52,2.14,0,3.9.44,4.68.85l-.97,4.2c-.81-.35-1.98-.7-3.48-.7-2.87,0-5.38,1.79-5.38,5.82,0,3.58,2.03,5.82,5.49,5.82,1.2,0,2.56-.24,3.34-.55l.7,4.14h0Z"/>
      <path class="cls-1" d="M96.39,15.71l-1.06,4.59h-5.21L95.58.49h6.68l5.6,19.81h-5.43l-1.2-4.59h-4.85ZM100.54,11.8l-.86-3.55c-.28-1.12-.64-2.73-.92-3.91h-.05c-.28,1.17-.56,2.79-.84,3.91l-.81,3.55h3.48Z"/>
      <path class="cls-1" d="M109.71,20.3V.49h5.93l2.98,6.09c1.03,1.97,2.12,4.61,2.95,6.93h.08c-.28-2.62-.39-5.38-.39-8.32V.49h4.59v19.81h-5.29l-3.2-6.58c-1.03-2.09-2.25-4.76-3.15-7.14h-.11c.14,2.67.19,5.64.19,8.84v4.88h-4.59Z"/>
      <path class="cls-1" d="M128.78,20.3V.49h5.93l2.98,6.09c1.03,1.97,2.11,4.61,2.95,6.93h.08c-.28-2.62-.39-5.38-.39-8.32V.49h4.59v19.81h-5.29l-3.2-6.58c-1.03-2.09-2.26-4.76-3.15-7.14h-.11c.14,2.67.2,5.64.2,8.84v4.88h-4.6Z"/>
      <path class="cls-1" d="M152.79,15.71l-1.06,4.59h-5.21L151.98.49h6.68l5.6,19.81h-5.43l-1.2-4.59h-4.85,0ZM156.94,11.8l-.86-3.55c-.28-1.12-.64-2.73-.92-3.91h-.06c-.28,1.17-.56,2.79-.84,3.91l-.81,3.55h3.48Z"/>
      <path class="cls-1" d="M166.11.79c1.14-.23,3.62-.44,5.93-.44,2.67,0,4.29.21,5.73.97,1.48.74,2.54,2.14,2.54,4.08,0,1.65-.86,3.26-3.06,4.15v.06c2.28.68,3.68,2.47,3.68,4.82,0,1.88-.86,3.35-2.12,4.35-1.39,1.12-3.73,1.76-7.74,1.76-2.28,0-3.95-.15-4.96-.35V.79h0ZM171.09,8.1h1c2.15,0,3.18-.79,3.18-2.06,0-1.15-.84-1.88-2.53-1.88-.84,0-1.31.06-1.65.12v3.82h0ZM171.09,16.59c.36.06.81.06,1.45.06,1.67,0,3.09-.7,3.09-2.47s-1.45-2.32-3.34-2.32h-1.2v4.73h0Z"/>
      <path class="cls-1" d="M188.16.49h-5.04v19.81h5.04V.49Z"/>
      <path class="cls-1" d="M191.4,15.01c1.14.62,2.98,1.24,4.87,1.24,1.73,0,2.57-.62,2.57-1.62s-.84-1.5-2.95-2.26c-3.17-1.2-5.29-3.03-5.29-5.97,0-3.5,2.81-6.2,7.55-6.2,2.23,0,3.84.44,5.07,1l-1.06,4.26c-.81-.38-2.2-.94-4.07-.94-1.53,0-2.37.59-2.37,1.47,0,1,1,1.38,3.37,2.32,3.37,1.32,4.87,3.21,4.87,5.96,0,3.41-2.51,6.32-7.99,6.32-2.26,0-4.46-.62-5.52-1.2l.95-4.38Z"/>
      <path class="cls-1" d="M90.46,44.37c-.74.38-2.62.83-4.98.83-7.42,0-10.69-4.61-10.69-9.87,0-6.96,5.12-10.52,11.05-10.52,2.27,0,4.12.44,4.95.85l-1.03,4.2c-.86-.35-2.09-.7-3.68-.7-3.04,0-5.68,1.79-5.68,5.82,0,3.58,2.15,5.82,5.8,5.82,1.27,0,2.71-.24,3.53-.55l.74,4.14h0Z"/>
      <path class="cls-1" d="M98.06,25.1v11.25c0,3,1.03,4.67,3.12,4.67s3.15-1.53,3.15-4.67v-11.25h5.33v10.93c0,6.11-3.06,9.2-8.63,9.2s-8.31-2.97-8.31-9.31v-10.81h5.33Z"/>
      <path class="cls-1" d="M112.7,25.1h5.33v15.37h7.63v4.44h-12.96v-19.8Z"/>
      <path class="cls-1" d="M128.26,29.56h-5.07v-4.46h15.55v4.46h-5.15v15.34h-5.33v-15.34Z"/>
      <path class="cls-1" d="M145.9,25.1v11.25c0,3,1.03,4.67,3.12,4.67s3.15-1.53,3.15-4.67v-11.25h5.33v10.93c0,6.11-3.06,9.2-8.63,9.2s-8.31-2.97-8.31-9.31v-10.81h5.33Z"/>
      <path class="cls-1" d="M160.54,25.39c1.5-.24,3.77-.44,6.42-.44,3.03,0,5.21.41,6.72,1.56,1.27.97,1.95,2.38,1.95,4.29,0,2.47-1.86,4.2-3.39,4.79v.09c1.3.59,2.03,1.85,2.53,3.55.59,2.03,1.24,4.91,1.62,5.67h-5.42c-.29-.59-.83-2.12-1.39-4.58-.53-2.35-1.27-2.85-2.92-2.85h-.85v7.43h-5.27v-19.51h0ZM165.82,33.65h1.39c2,0,3.15-.97,3.15-2.44s-.97-2.32-2.74-2.32c-1,0-1.53.06-1.8.12v4.64h0Z"/>
      <path class="cls-1" d="M190.59,36.91h-7.13v3.64h7.99v4.35h-13.31v-19.8h12.9v4.35h-7.57v3.17h7.13v4.29Z"/>
    </g>
  </g>
</svg>