<?xml version="1.0" encoding="UTF-8"?>
<svg id="Layer_2" data-name="Layer 2" xmlns="http://www.w3.org/2000/svg" xmlns:xlink="http://www.w3.org/1999/xlink" viewBox="0 0 73.7 122.33">
  <defs>
    <style>
      .cls-1 {
        fill: url(#radial-gradient-10);
      }

      .cls-2 {
        fill: url(#radial-gradient-9);
      }

      .cls-3 {
        fill: url(#radial-gradient-14);
      }

      .cls-4 {
        fill: url(#radial-gradient-16);
      }

      .cls-5 {
        fill: url(#radial-gradient-18);
      }

      .cls-6 {
        fill: url(#radial-gradient-5);
      }

      .cls-7 {
        fill: url(#radial-gradient);
      }

      .cls-8 {
        fill: url(#radial-gradient-3);
      }

      .cls-9 {
        fill: url(#radial-gradient-20);
      }

      .cls-10 {
        fill: url(#radial-gradient-11);
      }

      .cls-11 {
        fill: url(#radial-gradient-8);
      }

      .cls-12 {
        fill: url(#radial-gradient-2);
      }

      .cls-13 {
        fill: url(#radial-gradient-4);
      }

      .cls-14 {
        fill: url(#radial-gradient-12);
      }

      .cls-15 {
        fill: url(#radial-gradient-19);
      }

      .cls-16 {
        fill: url(#radial-gradient-15);
      }

      .cls-17 {
        fill: url(#radial-gradient-6);
      }

      .cls-18 {
        fill: url(#radial-gradient-7);
      }

      .cls-19 {
        fill: url(#radial-gradient-17);
      }

      .cls-20 {
        fill: url(#radial-gradient-13);
      }
    </style>
    <radialGradient id="radial-gradient" cx="-11465.76" cy="-2675.55" fx="-11465.76" fy="-2675.55" r="260.46" gradientTransform="translate(1594.05 408.01) scale(.14)" gradientUnits="userSpaceOnUse">
      <stop offset=".51" stop-color="#8a5fb1"/>
      <stop offset="1" stop-color="#8a5fb1"/>
    </radialGradient>
    <radialGradient id="radial-gradient-2" cx="-11466.67" cy="-2231.62" fx="-11466.67" fy="-2231.62" r="139.96" xlink:href="#radial-gradient"/>
    <radialGradient id="radial-gradient-3" cx="-11474.11" cy="-2481.83" fx="-11474.11" fy="-2481.83" r="66.91" xlink:href="#radial-gradient"/>
    <radialGradient id="radial-gradient-4" cx="-11411.46" cy="-2464.53" fx="-11411.46" fy="-2464.53" r="57.99" xlink:href="#radial-gradient"/>
    <radialGradient id="radial-gradient-5" cx="-11314.92" cy="-2329.92" fx="-11314.92" fy="-2329.92" r="54.31" xlink:href="#radial-gradient"/>
    <radialGradient id="radial-gradient-6" cx="-11531.09" cy="-2467.88" fx="-11531.09" fy="-2467.88" r="58.88" xlink:href="#radial-gradient"/>
    <radialGradient id="radial-gradient-7" cx="-11299.24" cy="-2373.41" fx="-11299.24" fy="-2373.41" r="56.12" xlink:href="#radial-gradient"/>
    <radialGradient id="radial-gradient-8" cx="-11625.45" cy="-2340.92" fx="-11625.45" fy="-2340.92" r="47.71" xlink:href="#radial-gradient"/>
    <radialGradient id="radial-gradient-9" cx="-11641.73" cy="-2382.87" fx="-11641.73" fy="-2382.87" r="50.17" xlink:href="#radial-gradient"/>
    <radialGradient id="radial-gradient-10" cx="-11272.54" cy="-2414.58" fx="-11272.54" fy="-2414.58" r="49.15" xlink:href="#radial-gradient"/>
    <radialGradient id="radial-gradient-11" cx="-11667.73" cy="-2425.31" fx="-11667.73" fy="-2425.31" r="42.38" xlink:href="#radial-gradient"/>
    <radialGradient id="radial-gradient-12" cx="-11320.03" cy="-2275.59" fx="-11320.03" fy="-2275.59" r="38.47" xlink:href="#radial-gradient"/>
    <radialGradient id="radial-gradient-13" cx="-11621.52" cy="-2285.43" fx="-11621.52" fy="-2285.43" r="33.34" xlink:href="#radial-gradient"/>
    <radialGradient id="radial-gradient-14" cx="-11270.93" cy="-2492.4" fx="-11270.93" fy="-2492.4" r="24.36" xlink:href="#radial-gradient"/>
    <radialGradient id="radial-gradient-15" cx="-11445.83" cy="-2973.97" fx="-11445.83" fy="-2973.97" r="46.59" xlink:href="#radial-gradient"/>
    <radialGradient id="radial-gradient-16" cx="-11617.76" cy="-2686.17" fx="-11617.76" fy="-2686.17" r="11.03" xlink:href="#radial-gradient"/>
    <radialGradient id="radial-gradient-17" cx="-11337.62" cy="-2682.91" fx="-11337.62" fy="-2682.91" r="4.96" xlink:href="#radial-gradient"/>
    <radialGradient id="radial-gradient-18" cx="-11524.51" cy="-2682.91" fx="-11524.51" fy="-2682.91" r="5.01" xlink:href="#radial-gradient"/>
    <radialGradient id="radial-gradient-19" cx="-11495.51" cy="-2261.86" fx="-11495.51" fy="-2261.86" r="4.16" xlink:href="#radial-gradient"/>
    <radialGradient id="radial-gradient-20" cx="-11414.6" cy="-2280.05" fx="-11414.6" fy="-2280.05" r="4.87" xlink:href="#radial-gradient"/>
  </defs>
  <g id="Layer_4" data-name="Layer 4">
    <g>
      <path class="cls-7" d="M0,61.33c.1-2.84.42-5.8.93-8.62,2.6-14.23,11.03-26.7,20.86-36.94l-.78,2.61c-2,9.2,4.02,15.35,13.17,14.86,3.87-.2,9.55-2.49,11.55-5.98,2.71-4.72-2.53-9.5-7.23-8.67-2.18.38-4.67,2.86-2.43,4.81.64.56,2.14,1.27,2.84.52-1.25.5-3.39-1.22-2.71-2.55,1.11-2.17,4.76-1.27,6.26.07,4.16,3.73-1.36,6.6-4.64,7.47-7.69,2.04-15.18-2.07-11.73-10.82,4.27-10.81,18.84-8.25,25.3-1.16,2.06,2.27,5.64,7.58,3.64,10.62-2.86,4.36-11.62,4.5-16.13,6.8-3.93,2-5.21,6.59-3.91,10.65.62,1.93,2,3.9,3.86,4.77-3.01-2.44-3.88-7.35-1.92-10.69,1.37-2.34,3.48-2.8,5.96-3.29,4.49-.89,9.2-.99,13.08-3.73,2.74-1.94,4.03-4.32,3.87-7.74-.02-.37-.15-.77-.1-1.14.54.73,1.04,1.49,1.53,2.25,7.06,10.85,12.09,23.3,12.44,36.4v2.8c-.11.07-.07.25-.07.36-.03,2.82-.36,5.61-.88,8.38-.32,1.71-.74,3.4-1.21,5.08h-.09c-1.5-.47-3.15-.38-4.6-.94,5.93-4.25,5.61-13.26-.66-17.07-1.07-.65-2.2-1.05-3.42-1.34-.18-.95-.38-1.89-.64-2.82-.08-.29-.65-2.2-.8-2.26H10.98c-.11,0-.13.06-.18.14-.13.22-.3.83-.39,1.11-2.05,6.19-1.65,13.18.93,19.15-3.07.69-5.95,2.12-9.09,2.54-.97-3.34-1.69-6.79-1.99-10.27-.08-.98-.09-1.95-.13-2.93-.01-.27-.07-.68-.13-.95.01-.5-.02-1,0-1.5ZM10.37,42.36c2.14.88,3.08-1.8.99-2.58-3.5-1.32-6.23,2.38-4.48,5.53.85,1.53,3.01,1.92,4.53,1.2,1.69-.79,1.5-2.84-.48-2.57-.89.12-.48.43-.59.91s-.53.48-.76.04c-.3-.56-.35-1.98-.24-2.61.07-.37.31-1.31.84-1.05.31.15.16.85.2,1.13ZM15.69,39.58c-4.48.51-4.02,8,1.15,7.21,1.38-.21,2.35-1.16,2.73-2.48.81-2.82-.92-5.06-3.88-4.72ZM23.9,41.28c.2.19.17.74.09.99l.05.07c2.14.97,3.04-1.84.95-2.58-3.39-1.19-5.99,2.06-4.61,5.26.73,1.7,2.83,2.2,4.46,1.57,2.37-.92,1.39-3.52-.93-2.39.31.51-.22,1.47-.64.8s-.53-3.3.15-3.74c.13-.09.36-.09.48.02ZM44.25,45.11v-4.53c0-.09.15-.35.18-.46-.61-.64-2.78-.81-3.27-.03-.3.47.16.73.16,1.2l-.04,5.25c.09.1.2.12.33.13.68.08,1.58-.02,2.28,0,.66.01,1.44.32,1.92-.36.26-.37.26-.99.19-1.43-.04-.22-.15-.79-.47-.68-.19.06-.76,1.13-1.28.91ZM32.9,46.52c.16-.15-.3-.96-.38-1.19-.56-1.55-1-3.14-1.57-4.68-.44-.59-1.25-.98-1.98-1.02-.89-.05-.75.8-.92,1.42-.47,1.65-1.08,3.38-1.65,5-.07.2-.23.38-.19.61.55.11,1.14.1,1.69-.03l.26-1.11,1.43-.02c0,.21.17.45.19.63s-.16.44.12.52c.12.03.6.07.77.08.39.02,1.99.01,2.24-.21ZM49.46,41.52c.29.06.6.15.86.28.59.3.71.75.99-.29.15-.58.21-1.52-.54-1.72-.67-.17-3.47-.17-4.09.09-.17.07-.34.17-.39.37.12.3.21.65.24.98.09,1.18.06,2.91,0,4.11-.02.34-.34,1.25.1,1.33.86.16,2.54.12,3.45.07.21-.01.79-.05.95-.1.58-.18.53-1.33.41-1.79-.22-.88-.45-.3-.81-.05s-.76.28-1.17.36v-1.37c.45-.05.75.04,1.13.25.2-.04.37-.75.37-.94,0-.87-.99-.32-1.5-.36v-1.24ZM51.71,46.73c.39.06,1.01,0,1.43,0,.35,0,.16-.94.4-1.18h1.45c.01.18.1.33.13.5.1.58-.19.62.62.68.35.03,2.51.05,2.58-.24.02-.32-.21-.57-.31-.85-.6-1.62-1.04-3.31-1.66-4.93-.26-.68-2.12-1.39-2.6-.86-.2.22-.27,1.03-.37,1.39-.47,1.61-1.08,3.35-1.64,4.94-.07.19-.35.51-.03.55ZM61.84,42.89v-1.37c.21.08.44.13.64.24.59.31.74.85,1.01-.18.13-.5.24-1.51-.38-1.75-.18-.07-.86-.12-1.11-.13-.67-.03-2.62-.05-3.14.25-.1.06-.28.18-.28.31.15.38.29.76.33,1.17.1,1.25.05,3.03,0,4.31,0,.21-.19.73-.05.86.23.22,2.9.19,3.02.02l-.04-2.74c.6-.18.89.67,1.18-.09.43-1.16-.26-1.24-1.18-.88Z"/>
      <path class="cls-12" d="M47.9,87.99c-.71,2.87,1.14,5.34,3.58,6.58-.53.66-.98,1.43-1.14,2.28-.55,2.87,2.34,5.62,4.75,6.66.66.29,1.35.37,2.03.57.07.02.12-.04.09.1-5.79,6.76-12.39,12.8-19.5,18.14-8.05-5.55-15.28-12.28-21.48-19.84,2.56-1.34,5.58-3.93,4.58-7.19-.19-.63-.57-1.24-.99-1.74,2.17-1.23,4.1-3.34,3.65-6.03,1.74.85,3.52,1.61,5.39,2.13,6.35,1.75,13.11,1.14,19.04-1.68ZM39.43,97.44c-.24-.54-.34-2.2.22-2.55s.78.74,1.53.23.44-1.43-.43-1.58c-1.3-.22-3.8.87-3.8,2.36v1.73l-.72-.2c0,.49,0,1.28.65,1.27.16.79,0,1.67.06,2.48.04.59.38,1.41.06,1.94-.41.67-1.1-.02-1.57-.23-.87-.39-2.01-.57-2.65.31s-.05,2.47,1.17,1.92c-.24-.88.67-.8,1.27-.78,1.22.04,2.1.4,3.19-.46.4-.31,1.14-1.28,1.14-1.79v-3.55c.42.06.44.25.75-.13.24-.29.34-.61.29-.98h-1.17ZM44.1,94.52c-.55.07-1.28.5-1.57.97-.06.09-.2.27-.14.38.11.22.86.38,1.09.37.41-.01,1.8-.45,1.81-.92.02-.64-.67-.87-1.19-.8ZM27.7,99.92c.3.98-.5,1.49-.82.32-.21-.75-.26-2.29.17-2.96.39-.6.76-.19.77.38,0,.15-.15.33,0,.46,1.99.93,2.94-1.67,1.02-2.46-3.19-1.3-5.87,1.75-4.65,4.92.72,1.88,3.11,2.44,4.78,1.49,1.96-1.11.59-3.18-1.28-2.16ZM35.95,102.11c.36-.37.04-.48-.08-.76-.27-.64-.01-2.23-.1-3.02-.32-2.72-5.97-2.04-5.58.3.19,1.15,1.56.92,2.3.44-.02-.32-.18-.6-.16-.93.01-.21.15-.76.45-.6.32.17.44,1.6.39,1.95-.94.12-2.74.26-3.14,1.29-.69,1.77,1.92,1.98,3.03,1.47.23-.11.31-.24.5-.38.31.81,1.88.77,2.39.24ZM43.46,99.85c.52.03,2.66.24,2.9-.26.13-.27-.03-1.18-.13-1.5-.41-1.29-1.55-1.61-2.8-1.5-3.12.27-3.63,5.03-.75,5.77.85.22,2.13.2,2.89-.3.56-.37.77-.72.21-1.23-.28-.25-1.23-.54-1.44-.2-.04.07.16,1.19-.35.95-.36-.17-.58-1.35-.52-1.73Z"/>
      <path class="cls-8" d="M36.15,59.45c.15-.04.52.38.64.51,2.11,2.22,3.87,5.31,4.43,8.34,1.03,5.54-1.53,10.35-5.34,14.14-2.93-2.56-5.4-6.17-5.83-10.13-.55-5.06,2.47-9.68,6.1-12.86Z"/>
      <path class="cls-13" d="M50.62,64.34c.56,3.65.1,7.56-1.74,10.79-2.35,4.13-6.69,6.38-11.28,7.12,1.42-1.68,2.78-3.44,3.7-5.45,1.41-3.08,1.78-6.63.79-9.91-.01-.06,0-.11.03-.15.06-.09,1.51-.78,1.73-.88,2.09-.89,4.5-1.4,6.76-1.52Z"/>
      <path class="cls-6" d="M66.34,90.86c-1.01,2.07-2.31,4-3.55,5.93l-.13.07c-2.09-.85-4.14-1.82-6.33-2.41-1.14-.3-2.46-.58-3.64-.46-.2.02-.63.2-.75.16-.34-.12-1.29-.82-1.6-1.08-1.3-1.11-2.13-2.5-1.99-4.27.32-3.85,3.24-2.26,5.64-1.67,1.14.28,2.29.49,3.42.82,2.99.88,5.81,2.45,8.93,2.9Z"/>
      <path class="cls-17" d="M34.15,82.32c-2.57-.48-5.09-1.36-7.23-2.91-5.2-3.76-5.92-10.14-4.44-16.03.12-.09,1.28.2,1.52.25,1.29.31,2.58.79,3.76,1.39.25.13,1.86,1.02,1.93,1.13.04.07.04.14.02.21-1.03,2.63-1.18,5.42-.43,8.15.84,3.01,2.7,5.61,4.87,7.81Z"/>
      <path class="cls-18" d="M51.86,80.91c1.32-.09,2.89.52,4.23.69,1.23.15,2.2.1,3.46.38,3.22.71,6.46,1.99,9.56,3.08l.02.15-2.5,5.2c-.15.14-.89-.06-1.13-.11-2.78-.6-5.42-2-8.16-2.79-1.13-.32-2.28-.54-3.42-.82s-2.24-.74-3.43-.81c-.79-.98-.85-2.26-.49-3.42.29-.95.82-1.47,1.84-1.54Z"/>
      <path class="cls-11" d="M10.64,94.89l-3.27-5.66c2.27-.63,4.4-1.71,6.66-2.36,1.08-.31,2.18-.5,3.27-.77,2.45-.61,5.33-2.18,5.64,1.73.15,1.88-.87,3.32-2.29,4.42-.23.18-1.13.82-1.36.85-.13.02-.49-.14-.69-.16-1.56-.15-3.47.36-4.95.85-.92.3-1.89.81-2.77,1.08-.08.02-.18.06-.25.02Z"/>
      <path class="cls-2" d="M7.11,88.9l-2.67-5.73c2.42-.78,4.87-1.71,7.36-2.25,1.25-.27,2.2-.22,3.41-.37,1.45-.18,4.34-1.31,5.49-.19,1,.97,1.02,3.42.1,4.47-1.27.09-2.46.57-3.69.87-.98.25-1.98.42-2.96.69-2.39.65-4.67,1.78-7.04,2.51Z"/>
      <path class="cls-1" d="M71.35,78.93c-.25.98-.57,1.95-.91,2.9-.12.34-.99,2.8-1.14,2.82-2.92-1.02-5.88-2.15-8.88-2.9-1.28-.32-2.01-.4-3.3-.47-.23-.01-.97-.08-1.14-.17-.45-.25-1.02-1.84-1.09-2.36-.18-1.22.01-3.03,1.52-3.2,2.66-.31,6.86,1.53,9.49,2.29,1.81.53,3.61.75,5.46,1.09Z"/>
      <path class="cls-10" d="M4.24,82.78l-1.83-5.34c2.6-.29,5.06-1.39,7.56-2.12,1.36-.39,4.41-1.29,5.65-.57.94.55.89,2.61.64,3.53-.1.36-.65,1.61-.95,1.79-.15.09-.92.16-1.14.17-1.02.06-1.59.07-2.62.3-2.48.56-4.89,1.49-7.31,2.24Z"/>
      <path class="cls-14" d="M57.72,103.55c-1.28-.22-2.37-.54-3.48-1.23-2.46-1.53-4.58-4.21-2.63-7.06.41-.6.57-.83,1.32-.89,1.65-.13,4.09.68,5.65,1.25,1.3.48,2.58,1.06,3.83,1.65l-4.7,6.28Z"/>
      <path class="cls-20" d="M17.45,93.35c.77-.05,1.37-.13,1.9.47,2.85,3.21-.5,6.81-3.54,8.1-1.76-2.09-3.34-4.33-4.86-6.6,1.98-.84,4.33-1.82,6.5-1.97Z"/>
      <path class="cls-3" d="M61.25,73.72c.98-2.71,1.68-5.52,1.86-8.41,3.82,2.24,2.52,7.96-1.86,8.41Z"/>
      <path class="cls-16" d="M39.88,0c.2.55.74,1.07,1.14,1.5,1.63,1.76,3.45,3.44,5.12,5.18.47.49.95,1,1.37,1.53-1.4-.59-2.81-1.15-4.29-1.54-3.78-1-7.83-1.21-11.61-.08,2.51-2.14,5.05-4.25,7.7-6.22.08-.06.52-.42.58-.37Z"/>
      <path class="cls-4" d="M15.95,41.21c.31-.1.43.08.57.32.38.66.38,2,.29,2.76-.21,1.85-1.13.54-1.23-.58-.04-.42-.09-2.35.37-2.5Z"/>
      <path class="cls-19" d="M54.61,44.52h-.72s.33-1.76.33-1.76c.09-.02.09.11.11.18.05.19.34,1.52.28,1.58Z"/>
      <path class="cls-5" d="M29.26,44.52h-.78s.33-1.76.33-1.76c.12.02.11.13.14.22.15.47.17,1.06.32,1.54Z"/>
      <path class="cls-15" d="M33.17,100.11v1.01c0,.1-.28.5-.46.4-.52-.43-.21-1.3.46-1.41Z"/>
      <path class="cls-9" d="M43.4,99.2c-.02-.26.08-1.75.42-1.69.29.05.44,1.28.36,1.52-.05.15-.61.17-.77.17Z"/>
    </g>
  </g>
</svg>