<?xml version="1.0" encoding="UTF-8"?>
<svg id="Layer_2" data-name="Layer 2" xmlns="http://www.w3.org/2000/svg" viewBox="0 0 173.78 30.57">
  <defs>
    <style>
      .cls-1 {
        fill: #8a5fb1;
      }
    </style>
  </defs>
  <g id="Layer_4" data-name="Layer 4">
    <path class="cls-1" d="M25.05,26.17l2.57,3.01h-10.35l2.82-3.01V4.59L16.19.49h12.72c4.85.05,6.83,2.12,6.83,7.06,0,5.34-2.77,8.74-5.25,8.74,2.28,0,3.56,2.57,3.76,4.05l1.09,6.32c0,.25,1.14,1.53,1.14,1.53l1.09.99h-3.32c-2.43,0-3.37-.94-3.86-2.47l-1.09-5.19c-.45-1.73-1.39-3.51-3.17-3.51h-1.09v8.15h0ZM25.05,14.72h1.49c3.17,0,4.16-1.18,4.16-5.78,0-3.9-.74-5.14-4.16-5.14h-1.49v10.92ZM46.39,21.93h-4.76l-.54,4.99,1.63,2.27h-7.38l2.92-3.16,4.21-21.93-2.18-3.55h10.69l-2.52,3.41,3.81,22.18,2.52,3.16h-9.8l2.08-2.91-.69-4.45h0ZM45.8,19.06c.2,0,.3-.1.25-.25l-1.74-10.72h-.15l-2.13,10.72c-.05.15.05.25.2.25h3.57ZM73.82,25.63l-3.02,3.55h10.5l-2.63-2.77v-11.75l5.99,11.61-2.03,2.91h10.4c.25,0-2.03-1.93-2.03-1.93-.39-.2-.64-.54-.84-.94l-7.72-16.15L90.75.49h-7.23l1.29,2.72-6.09,7.31V3.5l2.87-2.96h-11.04c-.2,0-.3.1-.3.2,0,.15.45.44.45.44l3.22,2.37-.1,22.08h0ZM97.84,3.6h5.15l3.02,5.19V.54h-16.24l2.97,3.55v22.37l-2.97,2.77h16.29v-8.35l-3.02,5.34h-5.15v-9.73h2.38l2.23,3.41v-9.98l-2.23,3.46h-2.38V3.61h-.05,0ZM109.52,4.35l-4.46-3.8h12.53c4.5,0,8.17,3.7,8.17,13.63,0,12.44-6.69,15.06-8.17,15.06h-11.69l3.66-4.1-.05-20.79h0ZM114.42,25.93h1.14c2.13,0,4.9-.1,4.9-11.8,0-10.22-2.38-10.37-4.9-10.37h-1.14v22.18ZM69.81,15.8c-2.03-2.62-3.81-.74-3.81-.74,0,0,2.33,7.8-1.49,10.02-5.5,1.98-4.7-11.26-4.7-11.26,0-7.76,2.33-10.22,4.31-10.27,2.08-.05,3.07,2.12,3.07,2.12v4.69h3.61V0l-2.52,2.22C66.1.05,63.72.2,63.72.2c-8.02,0-9.36,9.73-9.36,14.42,0,6.37.84,14.67,8.37,14.67,0,0,5.69.3,7.82-6.17-.05.05,1.49-4.49-.74-7.31M15.45,15.8c-2.03-2.62-3.81-.74-3.81-.74,0,0,2.33,7.8-1.48,10.02-5.5,1.98-4.7-11.26-4.7-11.26,0-7.76,2.33-10.22,4.31-10.27,2.08-.05,3.07,2.12,3.07,2.12v4.69h3.61V0l-2.52,2.22C11.73.05,9.36.2,9.36.2,1.34.2,0,9.92,0,14.62c0,6.37.84,14.67,8.37,14.67,0,0,5.69.3,7.82-6.17-.05.05,1.53-4.49-.74-7.31M140.61,21.43c-1.39-1.83-2.63-.49-2.63-.49,0,0,1.59,5.14-1.04,6.67-3.81,1.33-3.22-7.56-3.22-7.56,0-5.38,1.59-7.11,2.97-7.11,1.43-.05,2.08,1.48,2.08,1.48v3.26h2.48v-7.21l-1.73,1.53c-1.48-1.53-3.17-1.38-3.17-1.38-4.65,0-6.14,6.72-6.14,10.02,0,4.45,2.38,9.43,5.5,9.43,0,0,3.86.94,5.35-3.51.05-.05,1.09-3.16-.45-5.14M156.11,19.95c0,5.04-1.59,10.37-6.63,10.37-4.26,0-6.44-5.48-6.44-10.52,0-3.85,2.48-9.43,6.44-9.43,4.7,0,6.63,5.78,6.63,9.58ZM146.75,19.85c0,6.91,1.34,7.8,2.72,7.8s3.12-.94,3.12-7.85c0-5.93-1.68-7.01-3.12-7.01s-2.72,1.13-2.72,7.06ZM155.96,11.06l1.98,2.07v14.72l-1.73,2.07h6.49l-1.59-1.83v-10.02l3.86,8.35,3.56-9.19v10.87l-1.68,1.83h6.39l-1.43-2.07v-14.72l1.98-2.07h-5.74l1.14,1.24-3.17,8.5-3.81-8.5.74-1.24h-6.98,0ZM128.19,28.94c0-.89-.74-1.63-1.63-1.63s-1.63.74-1.63,1.63.74,1.63,1.63,1.63c.89-.05,1.63-.74,1.63-1.63Z"/>
  </g>
</svg>