<?xml version="1.0" encoding="UTF-8"?>
<svg id="Layer_2" data-name="Layer 2" xmlns="http://www.w3.org/2000/svg" xmlns:xlink="http://www.w3.org/1999/xlink" viewBox="0 0 95.87 86.08">
  <defs>
    <style>
      .cls-1 {
        fill: url(#radial-gradient-10);
      }

      .cls-2 {
        fill: url(#radial-gradient-9);
      }

      .cls-3 {
        fill: url(#radial-gradient-28);
      }

      .cls-4 {
        fill: url(#radial-gradient-14);
      }

      .cls-5 {
        fill: url(#radial-gradient-16);
      }

      .cls-6 {
        fill: url(#radial-gradient-18);
      }

      .cls-7 {
        fill: url(#radial-gradient-5);
      }

      .cls-8 {
        fill: url(#radial-gradient);
      }

      .cls-9 {
        fill: url(#radial-gradient-3);
      }

      .cls-10 {
        fill: url(#radial-gradient-24);
      }

      .cls-11 {
        fill: url(#radial-gradient-20);
      }

      .cls-12 {
        fill: url(#radial-gradient-29);
      }

      .cls-13 {
        fill: url(#radial-gradient-11);
      }

      .cls-14 {
        fill: url(#radial-gradient-26);
      }

      .cls-15 {
        fill: url(#radial-gradient-8);
      }

      .cls-16 {
        fill: url(#radial-gradient-2);
      }

      .cls-17 {
        fill: url(#radial-gradient-23);
      }

      .cls-18 {
        fill: url(#radial-gradient-27);
      }

      .cls-19 {
        fill: url(#radial-gradient-30);
      }

      .cls-20 {
        fill: url(#radial-gradient-21);
      }

      .cls-21 {
        fill: url(#radial-gradient-4);
      }

      .cls-22 {
        fill: url(#radial-gradient-25);
      }

      .cls-23 {
        fill: url(#radial-gradient-22);
      }

      .cls-24 {
        fill: url(#radial-gradient-12);
      }

      .cls-25 {
        fill: url(#radial-gradient-19);
      }

      .cls-26 {
        fill: url(#radial-gradient-31);
      }

      .cls-27 {
        fill: url(#radial-gradient-15);
      }

      .cls-28 {
        fill: url(#radial-gradient-6);
      }

      .cls-29 {
        fill: url(#radial-gradient-7);
      }

      .cls-30 {
        fill: url(#radial-gradient-17);
      }

      .cls-31 {
        fill: url(#radial-gradient-13);
      }
    </style>
    <radialGradient id="radial-gradient" cx="-3905.44" cy="-920.67" fx="-3905.44" fy="-920.67" r="25.38" gradientTransform="translate(1263.13 354.52) scale(.3)" gradientUnits="userSpaceOnUse">
      <stop offset=".51" stop-color="#8a5fb1"/>
      <stop offset="1" stop-color="#8a5fb1"/>
    </radialGradient>
    <radialGradient id="radial-gradient-2" cx="-4091.49" cy="-920.62" fx="-4091.49" fy="-920.62" r="25.97" xlink:href="#radial-gradient"/>
    <radialGradient id="radial-gradient-3" cx="-4178.49" cy="-923.17" fx="-4178.49" fy="-923.17" r="26.08" xlink:href="#radial-gradient"/>
    <radialGradient id="radial-gradient-4" cx="-3977.33" cy="-1144.6" fx="-3977.33" fy="-1144.6" r="25.9" xlink:href="#radial-gradient"/>
    <radialGradient id="radial-gradient-5" cx="-4001.85" cy="-923.17" fx="-4001.85" fy="-923.17" r="27.74" xlink:href="#radial-gradient"/>
    <radialGradient id="radial-gradient-6" cx="-4143.33" cy="-920.65" fx="-4143.33" fy="-920.65" r="25.8" xlink:href="#radial-gradient"/>
    <radialGradient id="radial-gradient-7" cx="-4063.27" cy="-1000.64" fx="-4063.27" fy="-1000.64" r="32.25" xlink:href="#radial-gradient"/>
    <radialGradient id="radial-gradient-8" cx="-4042.43" cy="-1096.88" fx="-4042.43" fy="-1096.88" r="28.64" xlink:href="#radial-gradient"/>
    <radialGradient id="radial-gradient-9" cx="-3952.01" cy="-921.32" fx="-3952.01" fy="-921.32" r="25.71" xlink:href="#radial-gradient"/>
    <radialGradient id="radial-gradient-10" cx="-4054.82" cy="-1046.47" fx="-4054.82" fy="-1046.47" r="31.16" xlink:href="#radial-gradient"/>
    <radialGradient id="radial-gradient-11" cx="-4043.73" cy="-920.65" fx="-4043.73" fy="-920.65" r="23.68" xlink:href="#radial-gradient"/>
    <radialGradient id="radial-gradient-12" cx="-4055.99" cy="-1111.56" fx="-4055.99" fy="-1111.56" r="29.42" xlink:href="#radial-gradient"/>
    <radialGradient id="radial-gradient-13" cx="-4010.27" cy="-999.75" fx="-4010.27" fy="-999.75" r="20.56" xlink:href="#radial-gradient"/>
    <radialGradient id="radial-gradient-14" cx="-3987.89" cy="-978.13" fx="-3987.89" fy="-978.13" r="18.13" xlink:href="#radial-gradient"/>
    <radialGradient id="radial-gradient-15" cx="-3999.2" cy="-1068.43" fx="-3999.2" fy="-1068.43" r="20.85" xlink:href="#radial-gradient"/>
    <radialGradient id="radial-gradient-16" cx="-4110.8" cy="-1011.98" fx="-4110.8" fy="-1011.98" r="16.29" xlink:href="#radial-gradient"/>
    <radialGradient id="radial-gradient-17" cx="-4001.87" cy="-1121.17" fx="-4001.87" fy="-1121.17" r="16.26" xlink:href="#radial-gradient"/>
    <radialGradient id="radial-gradient-18" cx="-3952.15" cy="-1128.85" fx="-3952.15" fy="-1128.85" r="17.66" xlink:href="#radial-gradient"/>
    <radialGradient id="radial-gradient-19" cx="-4060.65" cy="-1162.35" fx="-4060.65" fy="-1162.35" r="44.69" xlink:href="#radial-gradient"/>
    <radialGradient id="radial-gradient-20" cx="-3973.43" cy="-1095.97" fx="-3973.43" fy="-1095.97" r="9.04" xlink:href="#radial-gradient"/>
    <radialGradient id="radial-gradient-21" cx="-4074.1" cy="-1031.16" fx="-4074.1" fy="-1031.16" r="8.84" xlink:href="#radial-gradient"/>
    <radialGradient id="radial-gradient-22" cx="-4032.74" cy="-1045.46" fx="-4032.74" fy="-1045.46" r="12.74" xlink:href="#radial-gradient"/>
    <radialGradient id="radial-gradient-23" cx="-3997.74" cy="-1094.53" fx="-3997.74" fy="-1094.53" r="9" xlink:href="#radial-gradient"/>
    <radialGradient id="radial-gradient-24" cx="-3950.81" cy="-1101.87" fx="-3950.81" fy="-1101.87" r="8.6" xlink:href="#radial-gradient"/>
    <radialGradient id="radial-gradient-25" cx="-4083.95" cy="-1040.38" fx="-4083.95" fy="-1040.38" r="7.16" xlink:href="#radial-gradient"/>
    <radialGradient id="radial-gradient-26" cx="-4018.89" cy="-1151.17" fx="-4018.89" fy="-1151.17" r="15.67" xlink:href="#radial-gradient"/>
    <radialGradient id="radial-gradient-27" cx="-4018.54" cy="-1172.88" fx="-4018.54" fy="-1172.88" r="15.41" xlink:href="#radial-gradient"/>
    <radialGradient id="radial-gradient-28" cx="-3979.19" cy="-1084.46" fx="-3979.19" fy="-1084.46" r="5.63" xlink:href="#radial-gradient"/>
    <radialGradient id="radial-gradient-29" cx="-4039.05" cy="-1086.04" fx="-4039.05" fy="-1086.04" r="4.11" xlink:href="#radial-gradient"/>
    <radialGradient id="radial-gradient-30" cx="-4028.15" cy="-1064.74" fx="-4028.15" fy="-1064.74" r="3.72" xlink:href="#radial-gradient"/>
    <radialGradient id="radial-gradient-31" cx="-4036.89" cy="-1061.78" fx="-4036.89" fy="-1061.78" r="3.15" xlink:href="#radial-gradient"/>
  </defs>
  <g id="Layer_4" data-name="Layer 4">
    <g>
      <path class="cls-8" d="M87.88,86.07h-.65c-5.63-.14-5.46-4.06-4.66-8.52.87-4.84,2.41-8.17,7.94-8.16,6.36.02,5.73,4.8,4.7,9.54-.93,4.3-2.53,7.01-7.34,7.13ZM86.8,81.96h1.33c.12,0,.61-.08.76-.1.66-.13.88-.49,1.06-1.11l1.25-7.12c0-.15,0-.09-.11-.11-.44-.06-2.02.02-2.4.2-.24.12-.42.4-.51.65l-1.39,7.6Z"/>
      <path class="cls-16" d="M31.03,86.07c-.68,0-1.5-.08-2.2-.14-1.01-.09-2-.34-2.99-.5l1.37-4.26c2.07.61,4.3.72,6.45.5.08,0,.31-.04.33-.11l.14-1.18c-2.02-.27-5.47-.1-6.28-2.49-.61-1.8.38-5.51,1.7-6.89,1.73-1.81,5.56-1.66,7.87-1.44.98.09,1.96.31,2.92.51l-1.3,4.11c-.79-.13-1.61-.31-2.42-.36-.42-.03-3.26-.05-3.4.14l-.18,1.16c2.49.26,6.19.39,6.43,3.64.13,1.77-.76,4.76-2.17,5.91s-3.52,1.38-5.33,1.41c-.31,0-.63,0-.94,0Z"/>
      <polygon class="cls-9" points="0 85.5 3.03 68.33 13.85 68.33 12.4 72.79 7.5 72.8 7.14 75.04 11.62 75.04 10.89 79.21 6.43 79.23 5.34 85.64 0 85.64 0 85.5"/>
      <path class="cls-21" d="M64.14,0c1.42.62,2.63,1.96,3.57,3.18,2.36,3.09,3.72,7.14,3.12,11.05-.36,2.35-1.47,4.77-2.97,6.6-.23.02-.79-.94-.92-1.16-2.68-4.76-3.39-14.03-3.02-19.43,0-.15.01-.18.15-.25h.07Z"/>
      <path class="cls-7" d="M68.04,68.33l-1.73,9.74h1.66l-.8,4.83h-1.72s-.44,2.75-.44,2.75h-5.34l.43-2.74h-8.08l.63-3.51,6.04-11.06h9.34ZM58.44,78.07h2.53c.34-1.82.67-3.64,1-5.46.03-.18-.22-.1-.31-.02l-3.21,5.48Z"/>
      <path class="cls-28" d="M24.03,69.84l1.08,15.8h-5.12l-.07-2.45h-3.93l-.97,2.45h-5.12l6.64-15.8h7.5ZM19.48,74.75l-.22.04-1.73,4.28h1.95v-4.33Z"/>
      <path class="cls-29" d="M53.9,47.91c-1.71,2.51-3.27,5.36-5.55,7.4-1.88,1.68-6.04,4.19-8.55,4.37-3.91.27-7.87-2.49-10.01-5.58-.18-.26-.65-.84-.52-1.13.14-.32.89-.94,1.19-1.2,1.05-.91,2.25-1.65,3.36-2.49.16-.03.08.03.11.1.63,1.43,1.62,2.63,3.07,3.28,3.6,1.62,6.13-.69,7.78-3.67.12-.21.56-1.25.66-1.29l8.47.21Z"/>
      <path class="cls-15" d="M53.32,22.37c.6-.15,1.43-.14,1.97.23.57.39.89,1.36.57,1.99-.44.85-2.13.68-2.22.81l-.33,1.8c-2.48.51-4.88-.51-7.2-1.21,1.26,2.79,4.2,3.96,7.14,3.32-.1,1.33-.48,2.67-1.55,3.53-1.27,1.02-3.76,1.2-5.28.74-2.44-.73-3.93-3.65-3.77-6.08-1.05-.2-2.09-1.38-2.56-2.31-.58-1.15-.71-2.59.82-2.94,1.67-.38,2.62.5,2.82,2.11l.72.31c.48-.73.5-1.55.43-2.4s-.49-1.94-.5-2.68.99-1.61,1.57-2.04c.6-.45,2.71-1.72,3.39-1.81,1.83-.25,2.92,2.61,3.35,4,.27.86.45,1.75.65,2.64ZM50.8,18.47c-.71-1.5-2.28-.91-2.24.65.28-.19.39-.55.65-.76.59-.5.98-.08,1.59.11ZM49.98,20.07c-.77.18-.41,1.4-.18,1.88.2.43.52.6,1,.45.73-.23.58-2.65-.82-2.33Z"/>
      <path class="cls-2" d="M73.96,81.6h6.78l-.72,4.04h-12.34c.24-1.4.37-2.96.77-4.31,1.1-3.65,5.27-4.72,8.35-6.16.22-.16.23-1.14.33-1.44-2.22-.21-4.39,0-6.57.43l.08-3.74c1.3-.38,2.65-.72,4-.87,1.62-.17,4.82-.28,6.26.51,1.8.99,1.6,3.87,1.09,5.54-.94,3.12-5.14,4.26-7.86,5.27l-.19.72Z"/>
      <path class="cls-1" d="M45.31,47.26c.29-.62.67-1.2.95-1.83.79-1.78,1.41-4.27.19-5.99-.85-1.19-3.78-2.41-5.2-2.81-2.29-.65-3.43.33-3.67,2.61-1.62.22-3.27.72-4.46,1.88-.3-3.11,1.22-6.6,4.16-7.93,2.13-.96,4.83-.73,6.95.17,1.18.5,2.03,1.49,3.46,1.52l2.14,1.62.61-.83.29-.54c.09.12.49.36.54.43.07.11.06,1.79.04,2.05-.17,2.1-1.35,4.2-3.21,5.23l-.4,2.38,3.27-.08c1.99-2.36,3.71-5.95,2.22-8.98-.23-.48-.74-.84-.59-1.39.23.14.82.15.99.31.22.2.77,2.01.88,2.4.83,3.1.89,6.65.15,9.77h-9.31Z"/>
      <polygon class="cls-13" points="53.68 69.84 52.96 73.85 49.5 73.89 47.48 85.64 42.64 85.64 44.66 73.88 41.2 73.88 41.92 69.84 53.68 69.84"/>
      <path class="cls-24" d="M50.72,15.15c-.61-.15-.94-.3-1.57-.09-1.12.38-4.05,1.98-4.74,2.91-1.18,1.58.59,3.61.15,5.42-.02.08-.18.54-.2.56-.05.03-.39-.05-.43-.11-.09-.12-.21-.81-.34-1.08-.63-1.29-1.84-1.4-3.07-.88-2.66,1.13-.89,3.98.64,5.26.39.33.78.48,1.18.77.16.94.1,1.93.45,2.83-4.79-1.48-7.34-7.4-5.28-11.95.98-2.18,2.79-2.54,4.49-3.95,1.05-.87,2.52-2.35,1.82-3.84-.14-.29-.38-.43-.52-.64-.05-.07-.12-.05,0-.15,2.48-.76,6.13.25,7.16,2.8.07.17.28.74.28.88v1.26Z"/>
      <path class="cls-31" d="M58.08,59.74v-1.55c0-.27-.2-1.01-.29-1.3-.89-3.02-3.81-4.64-6.86-3.79,1.37-1.47,2.35-3.26,3.51-4.89,2.99-.19,6.01.7,7.84,3.17,1.13,1.52,1.7,3.63,1.76,5.5l-5.98,2.86Z"/>
      <path class="cls-4" d="M58.17,60.48c2.88-1.02,5.79-2.06,8.47-3.54.31-.17,1.74-1.13,1.88-1.15.25-.04.88.38,1.07.56.43.42.71,1.25.75,1.84s-.07,1.85-.51,2.23c-.59.52-1.7,1.16-2.4,1.57-2.04,1.2-4.87,2.59-7.18,3.07-.44.09-.59.19-.95-.16-.83-.81-1.41-3.3-1.14-4.42Z"/>
      <path class="cls-27" d="M68.11,30.16c.11.1-.43.82-.52.96-2.03,3-5.98,5.77-9.46,6.78-.49.14-2.77.67-3.05.34-.07-.08-.35-1.77-.47-2.13-.09-.29-.25-.64-.37-.93-.09-.21-.78-1.41-.71-1.49.41.17.8.02,1.19,0,.68-.04,1.24-.05,1.92-.17,3.32-.56,6.18-2.45,8.03-5.24.78,1.04,2.14,1.72,3.43,1.88Z"/>
      <path class="cls-5" d="M33.05,48.41c-1.7.94-2.99,2.62-4.14,4.16-2.08-.19-3.99.92-5.91,1.54l-1.48-2.22c-.01-.11.26-.34.35-.42,1.5-1.41,5.49-4.85,7.47-5.01,1.4-.12,3.06.7,3.71,1.95Z"/>
      <path class="cls-30" d="M65.3,21.93c-4.48-.22-8.18-3.66-10.02-7.55-.09-.19-.6-1.31-.52-1.4,1.21-.04,2.49.44,3.58.93,2.69,1.19,6.01,3.6,6.73,6.62.11.47.12.93.22,1.4Z"/>
      <path class="cls-6" d="M70.85,21.43c1.05-1.6,1.7-3.43,2.54-5.15,1.05-2.15,2.3-4.73,3.82-6.57.14-.17.7-.89.89-.83,2.04,2.53.59,6.35-1.12,8.68-1.34,1.82-3.75,3.89-6.12,3.87Z"/>
      <path class="cls-25" d="M61.33,4.11c-.2.57-.22,1.2-.22,1.8-1.21-.06-2.43-.09-3.65-.14-9.99-.44-19.73-.43-29.72.07-1.45.07-2.91.11-4.36.22l.83-.14c2.17-.18,4.33-.46,6.49-.65,10.19-.9,20.39-1.25,30.63-1.15Z"/>
      <path class="cls-11" d="M68.31,22.31c3.28-.35,4.17,4.55.95,5.36-3.78.95-4.8-4.95-.95-5.36Z"/>
      <path class="cls-20" d="M37.93,41.87c3.17-.43,4.22,4.13,1.26,5.16-3.7,1.28-5.03-4.65-1.26-5.16Z"/>
      <path class="cls-23" d="M51.59,35.71c.29.02.55.02.76-.21l.07.06c2.14,2.96.43,6.73-1.58,9.24l-2.66.13-.09-.14.29-1.73c2.53-1.45,3.58-4.57,3.21-7.36Z"/>
      <path class="cls-17" d="M64.65,24.17c-.34.83-1.16,1.54-1.93,2.01-1.09.66-3.17,1.36-4.41.97-.73-.22-.37-.57-.06-1.04,1.46-2.23,3.9-3.05,6.39-1.94Z"/>
      <path class="cls-10" d="M78.79,22.15c-.36,2.4-5.2,3.13-6.53,1.66-.44-.48-.38-.73.12-1.04,1.7-1.07,4.51-.87,6.42-.62Z"/>
      <path class="cls-22" d="M37.52,39.61v1.52c-1.3.49-2.36,1.4-2.79,2.75-.76.16-1.59-1.54-1.55-2.14.01-.21.41-.57.58-.72,1-.86,2.47-1.22,3.75-1.41Z"/>
      <path class="cls-14" d="M61.55,9.02l-13.28-.79,12.88-.36c.32.06.21.9.4,1.15Z"/>
      <path class="cls-18" d="M61.55,1.37c-.15.36-.25.7-.33,1.08l-12.73-.76,13.06-.32Z"/>
      <path class="cls-3" d="M68.39,29.86c-1.33-.11-2.75-.8-3.51-1.91l.47-.81,3.42,1.62c.21.22-.3.85-.37,1.11Z"/>
      <path class="cls-12" d="M50.29,29c-1.13-.17-2.59-.63-2.88-1.87,1.34-.39,2.77.45,2.88,1.87Z"/>
      <path class="cls-19" d="M53.39,34.78l-.78-.23c-.04-.28-.03-.69-.3-.86.28.83.03,2.24-1.11,1.43-.82-.59-.05-1.67.78-1.58.3.03.2.24.56-.06.15.02.9,1.22.84,1.29Z"/>
      <polygon class="cls-26" points="50.65 34.63 49.75 35.99 48.34 34.99 48.38 34.85 50.65 34.63"/>
    </g>
  </g>
</svg>