<?xml version="1.0" encoding="UTF-8"?>
<svg id="Layer_2" data-name="Layer 2" xmlns="http://www.w3.org/2000/svg" viewBox="0 0 219.73 40.27">
  <defs>
    <style>
      .cls-1 {
        fill: #8a5fb1;
      }
    </style>
  </defs>
  <g id="Layer_4" data-name="Layer 4">
    <g>
      <g>
        <g>
          <path class="cls-1" d="M55.43,4.28v4.66h-2.53c-.75,0-1.23.21-1.47.62-.17.27-.24.75-.24,1.4v2.12h4.32l-.51,4.69h-3.8v13.53h-5.58v-13.53h-2.74v-4.69h2.74v-2.81c0-2.88.99-4.73,2.95-5.51.96-.38,1.78-.48,2.64-.48h4.25Z"/>
          <path class="cls-1" d="M57.31,23.6v-10.55h5.72v11.58c0,1.13.55,1.85,1.64,2.09.34.03.72.07,1.1.03.65-.03,1.54-.21,2.47-.79l.03-12.91h5.69v18.26h-4.69l-.21-.31c-.1-.24-.21-.45-.31-.82-.45.17-2.29,1.27-5.07,1.37-2.26.1-4.21-.21-5.69-2.57-.51-1.06-.69-2.5-.69-5.38Z"/>
        </g>
        <path class="cls-1" d="M92.69,20.62v10.69h-5.65v-11.71c0-1.13-.55-1.82-1.61-2.06-.34-.03-.72-.07-1.1-.03-.65.1-1.47.24-2.4.79v13.02h-5.62V13.01h4.66l.17.34c.1.24.24.48.34.86.38-.17,2.19-1.3,4.97-1.4,2.19-.1,4.14.17,5.55,2.5.51.96.69,2.47.69,5.31Z"/>
        <g>
          <path class="cls-1" d="M110.78,31.3v.65c-.1.82-.31,1.64-.62,2.43-1.2,2.74-3.8,4.11-7.84,4.11-1.54,0-2.91-.07-4.08-.21-1.92-.31-2.88-.48-2.88-.55v-4.52l.03-.03c2.23.45,4.25.62,6.13.62h.45c.92,0,1.58-.1,2.02-.27.79-.31,1.2-1.03,1.2-2.23v-.62c-.34.14-.72.24-1.13.34-.72.17-1.75.31-2.95.31-3.25,0-5.24-.86-6.03-2.53-.45-.65-.69-2.43-.69-5.27v-1.82c0-2.91.17-4.38.69-5.51.38-.86,1.16-2.43,3.25-3.08,3.05-.82,5.75.03,7.57,1.03,0-.27.03-.55.14-.79.03-.1.07-.24.1-.38h4.66v17.88c-.03.17-.03.31-.03.45ZM103.65,17.88c-.24-.03-.45-.07-.62-.1-1.54-.21-2.5.24-2.81,1.34-.1.34-.17.69-.17,1.06v4.35c0,1.16.55,1.85,1.64,2.06l.45.07h.34c.86,0,1.78-.27,2.71-.82v-7.5c-.65-.24-1.16-.34-1.54-.45Z"/>
          <path class="cls-1" d="M118.93,8.46c0,.69-.07,1.51-.72,2.02-.51.51-1.58.58-2.23.58-.69,0-1.68-.07-2.33-.58-.55-.51-.62-1.37-.62-2.02,0-.58.07-1.54.62-2.06.65-.51,1.54-.58,2.33-.58s1.71.07,2.23.58c.65.51.72,1.4.72,2.06ZM113.14,31.3h5.65V13.08h-5.65v18.22Z"/>
        </g>
        <g>
          <path class="cls-1" d="M143.9,4.28v4.66h-2.53c-.75,0-1.23.21-1.47.62-.17.27-.24.75-.24,1.4v2.12h4.32l-.51,4.69h-3.8v13.53h-5.58v-13.53h-2.74v-4.69h2.74v-2.81c0-2.88.99-4.73,2.95-5.51.96-.38,1.78-.48,2.64-.48h4.25Z"/>
          <path class="cls-1" d="M151.43,8.46c0,.69-.07,1.51-.72,2.02-.51.51-1.58.58-2.23.58-.69,0-1.68-.07-2.33-.58-.55-.51-.62-1.37-.62-2.02,0-.58.07-1.54.62-2.06.65-.51,1.54-.58,2.33-.58s1.71.07,2.23.58c.65.51.72,1.4.72,2.06ZM145.65,31.3h5.65V13.08h-5.65v18.22Z"/>
        </g>
        <path class="cls-1" d="M169.86,20.62v10.69h-5.65v-11.71c0-1.13-.55-1.82-1.61-2.06-.34-.03-.72-.07-1.1-.03-.65.1-1.47.24-2.4.79v13.02h-5.62V13.01h4.66l.17.34c.1.24.24.48.34.86.38-.17,2.19-1.3,4.97-1.4,2.19-.1,4.14.17,5.55,2.5.51.96.69,2.47.69,5.31Z"/>
        <path class="cls-1" d="M172.19,15.31c.75-1.68,2.77-2.53,6.03-2.53,1.2.03,2.81.31,4.01.69,0,.79.03-1.16.03-3.32,0-1.27,0-2.74.03-4.49l5.58-.99v26.17c-2.74.45-5.17.72-7.5.72-3.32,0-5.65-.65-7.02-1.92-.65-.69-1.03-1.23-1.16-1.68-.45-.72-.69-2.57-.69-5.51v-1.82c0-2.77.24-4.52.69-5.31ZM177.29,25.35c.31,1.06,1.27,1.58,2.91,1.58h.38l1.64-.07v-8.53c-.82-.51-1.68-.79-2.6-.79h-.41l-.41.03c-1.1.21-1.64.89-1.64,2.06v4.59c0,.41.03.75.14,1.13Z"/>
        <g>
          <path class="cls-1" d="M205.52,20.55v3.25h-10.24v.55c0,1.23.38,1.99,1.13,2.26.51.14,1.1.24,2.02.24h.45c1.95,0,4.01-.21,6.17-.65h.03v4.59c0,.07-.96.24-2.88.55-1.2.14-2.6.21-4.14.21-4.01,0-6.61-1.37-7.78-4.08-.45-1.1-.65-2.23-.65-3.36v-4.38c0-3.22,1.34-5.34,4.04-6.4,1.27-.41,2.5-.58,3.84-.58,3.77,0,6.23,1.23,7.36,3.7.45.99.65,2.36.65,4.11ZM199.04,17.43c-.41-.27-.92-.41-1.51-.41-1.61,0-2.26.72-2.26,2.12v.86h4.59v-.31c0-1.27-.27-2.02-.82-2.26Z"/>
          <path class="cls-1" d="M219.18,12.74l.55,4.83c-.69-.03-1.95.07-2.4.17l-.38.07c-.82.17-1.95.55-3.46,1.1v12.4h-5.58V12.91h4.62c.03.14.1.27.17.41.1.24.21.55.31.92.45-.17.65-.24,1.3-.48.79-.27,1.64-.51,2.71-.75.72-.17,1.44-.24,2.16-.27Z"/>
        </g>
        <path class="cls-1" d="M14.37.02C6.71.43.15,7.23,0,14.91c-.12,6.41,3.73,11.92,9.25,14.27.19.08.35.23.44.42l.52,1.11,4.24,9.09c.29.63,1.19.63,1.48,0l4.24-9.09.52-1.11c.09-.19.25-.34.44-.42,5.44-2.31,9.26-7.7,9.26-13.98C30.4,6.53,23.14-.44,14.37.02ZM19.31,23.03c0,2.33-2.14,4.18-4.55,3.68-1.76-.36-2.98-1.96-2.98-3.76v-2.57c0-.1.08-.18.18-.18h7.16c.1,0,.18.09.18.19v2.63ZM19.29,19.23l-7.53-.02c-4.35.12-5.37.16-5.37-3.02,0-3.37,1.13-9.22,6.11-10.77.8-.25,1.69-.39,2.69-.39,1.11,0,2.09.17,2.95.48,1.93.67,3.25,2.01,4.14,3.58.45.77.78,1.61,1.04,2.45h0c.5,1.66.67,3.34.67,4.64,0,3.01-.92,3.14-4.7,3.04Z"/>
      </g>
      <path class="cls-1" d="M16.3,17.43c-1.06.2-1.96-.71-1.76-1.76.11-.59.59-1.06,1.18-1.18,1.06-.2,1.96.71,1.76,1.76-.11.59-.59,1.06-1.18,1.18"/>
      <path class="cls-1" d="M16.03,11.33c-.19-1.5,1.08-2.77,2.58-2.58,1.03.13,1.85.96,1.98,1.98.19,1.5-1.08,2.77-2.58,2.58-1.03-.13-1.85-.96-1.98-1.98"/>
      <path class="cls-1" d="M20.32,16.43c-.86.19-1.6-.56-1.41-1.41.1-.43.44-.78.87-.87.86-.19,1.6.56,1.41,1.41-.1.43-.44.78-.87.87"/>
    </g>
  </g>
</svg>