<?xml version="1.0" encoding="UTF-8"?>
<svg id="Layer_2" data-name="Layer 2" xmlns="http://www.w3.org/2000/svg" viewBox="0 0 180.1 56.77">
  <defs>
    <style>
      .cls-1 {
        fill: #8a5fb1;
      }
    </style>
  </defs>
  <g id="Layer_4" data-name="Layer 4">
    <g>
      <g>
        <path class="cls-1" d="M70.05,51.51c-.28.15-.9.29-1.69.29-2.08,0-3.35-1.3-3.35-3.3,0-2.16,1.5-3.46,3.5-3.46.79,0,1.35.17,1.59.29l-.26.95c-.31-.14-.74-.25-1.28-.25-1.33,0-2.3.84-2.3,2.41,0,1.44.85,2.36,2.29,2.36.49,0,.99-.1,1.3-.24l.19.94Z"/>
        <path class="cls-1" d="M74.98,49.85l-.56,1.86h-1.24l2.1-6.55h1.53l2.13,6.55h-1.28l-.59-1.86h-2.08ZM76.85,48.94l-.52-1.61c-.13-.4-.23-.85-.33-1.23h-.02c-.1.38-.19.84-.31,1.23l-.51,1.61h1.68Z"/>
        <path class="cls-1" d="M82.38,51.7v-6.55h1.36l1.69,2.81c.44.73.82,1.49,1.12,2.2h.02c-.08-.88-.11-1.72-.11-2.72v-2.29h1.11v6.55h-1.24l-1.71-2.88c-.42-.72-.86-1.53-1.18-2.27h-.03c.05.86.06,1.72.06,2.8v2.34h-1.1Z"/>
        <path class="cls-1" d="M91.48,51.7v-6.55h1.36l1.69,2.81c.44.73.82,1.49,1.12,2.2h.02c-.08-.88-.11-1.72-.11-2.72v-2.29h1.11v6.55h-1.24l-1.71-2.88c-.42-.72-.86-1.53-1.18-2.27h-.03c.05.86.06,1.72.06,2.8v2.34h-1.1Z"/>
        <path class="cls-1" d="M101.9,49.85l-.56,1.86h-1.24l2.1-6.55h1.53l2.13,6.55h-1.28l-.59-1.86h-2.08ZM103.77,48.94l-.52-1.61c-.13-.4-.23-.85-.33-1.23h-.02c-.1.38-.19.84-.31,1.23l-.51,1.61h1.68Z"/>
        <path class="cls-1" d="M109.3,45.24c.38-.08,1.07-.14,1.74-.14.88,0,1.43.11,1.88.42.41.24.68.67.68,1.23,0,.6-.38,1.16-1.09,1.42v.02c.69.17,1.32.72,1.32,1.62,0,.58-.25,1.04-.63,1.35-.47.41-1.24.61-2.43.61-.66,0-1.17-.05-1.47-.09v-6.45ZM110.48,47.82h.61c.83,0,1.29-.39,1.29-.94,0-.61-.47-.89-1.23-.89-.35,0-.55.02-.68.05v1.79ZM110.48,50.84c.16.02.36.03.63.03.77,0,1.45-.29,1.45-1.1,0-.76-.66-1.07-1.49-1.07h-.59v2.14Z"/>
        <path class="cls-1" d="M118.62,45.15v6.55h-1.2v-6.55h1.2Z"/>
        <path class="cls-1" d="M122.49,50.4c.39.22.97.42,1.59.42.77,0,1.2-.36,1.2-.89,0-.5-.33-.79-1.17-1.09-1.08-.39-1.77-.96-1.77-1.91,0-1.07.89-1.89,2.31-1.89.71,0,1.24.16,1.58.33l-.29.96c-.23-.13-.69-.31-1.3-.31-.76,0-1.09.41-1.09.79,0,.51.38.74,1.25,1.08,1.14.43,1.69,1,1.69,1.94,0,1.05-.8,1.96-2.49,1.96-.69,0-1.41-.19-1.77-.41l.26-.99Z"/>
        <path class="cls-1" d="M134.64,45.15h1.2v5.55h2.69v1h-3.89v-6.55Z"/>
        <path class="cls-1" d="M142.27,46.15h-1.87v-1h4.95v1h-1.89v5.55h-1.2v-5.55Z"/>
        <path class="cls-1" d="M148.07,45.24c.53-.09,1.2-.14,1.91-.14,1.23,0,2.07.25,2.67.76.63.52,1.02,1.29,1.02,2.41s-.4,2.04-1.02,2.61c-.65.59-1.69.89-2.97.89-.7,0-1.23-.04-1.61-.09v-6.45ZM149.27,50.79c.17.03.42.03.66.03,1.56,0,2.48-.85,2.48-2.51,0-1.45-.83-2.28-2.32-2.28-.38,0-.65.03-.82.07v4.69Z"/>
        <path class="cls-1" d="M154.35,51.04c0-.45.31-.77.74-.77s.74.31.74.77-.29.77-.74.77-.74-.33-.74-.77Z"/>
      </g>
      <g>
        <g>
          <path class="cls-1" d="M27.48,14.52c2.04,0,3.73,6.35,4.02,14.63.86-3.09,1.27-7.33,1.27-12.01,0-9.46-3.46-17.13-5.3-17.13-1.67,0-5.3,7.67-5.3,17.13,0,4.68.42,8.92,1.27,12.01.29-8.27,1.98-14.63,4.02-14.63Z"/>
          <ellipse class="cls-1" cx="27.38" cy="20.36" rx="2.17" ry="3.04"/>
        </g>
        <g>
          <path class="cls-1" d="M44.75,25.49c.97,1.45-2.73,5.67-8.46,9.8,2.6-.86,5.8-2.58,9.12-4.81,6.71-4.5,10.5-10.59,9.63-11.9-.79-1.18-7.95-.11-14.66,4.39-3.32,2.22-6.12,4.54-7.91,6.61,6-3.73,11.31-5.55,12.28-4.1Z"/>
          <ellipse class="cls-1" cx="40.56" cy="28.2" rx="2.6" ry="1.85" transform="translate(-8.83 27.37) rotate(-33.85)"/>
        </g>
        <g>
          <path class="cls-1" d="M44.28,43.5c-.61,1.32-5.21.49-10.63-1.81,1.73,1.48,4.34,3.03,7.35,4.43,6.09,2.85,12.07,2.93,12.62,1.74.5-1.08-3.35-5.72-9.44-8.56-3.01-1.41-5.87-2.41-8.12-2.79,5.24,2.67,8.82,5.67,8.21,6.99Z"/>
          <ellipse class="cls-1" cx="40.55" cy="41.68" rx="1.54" ry="2.16" transform="translate(-14.38 60.78) rotate(-64.96)"/>
        </g>
        <g>
          <path class="cls-1" d="M32.94,50.06c-.94.31-2.7-2.36-4.1-6.13.08,1.56.54,3.58,1.26,5.73,1.45,4.36,4.22,7.37,5.07,7.09.77-.26,1.26-4.35-.19-8.71-.72-2.16-1.56-4.05-2.43-5.34,1.14,3.86,1.33,7.05.39,7.36Z"/>
          <ellipse class="cls-1" cx="32.09" cy="47.35" rx="1.05" ry="1.48" transform="translate(-13.31 12.55) rotate(-18.41)"/>
        </g>
        <g>
          <path class="cls-1" d="M44.75,25.49c.97,1.45-2.73,5.67-8.46,9.8,2.6-.86,5.8-2.58,9.12-4.81,6.71-4.5,10.5-10.59,9.63-11.9-.79-1.18-7.95-.11-14.66,4.39-3.32,2.22-6.12,4.54-7.91,6.61,6-3.73,11.31-5.55,12.28-4.1Z"/>
          <ellipse class="cls-1" cx="40.56" cy="28.2" rx="2.6" ry="1.85" transform="translate(-8.83 27.37) rotate(-33.85)"/>
        </g>
        <g>
          <path class="cls-1" d="M44.28,43.5c-.61,1.32-5.21.49-10.63-1.81,1.73,1.48,4.34,3.03,7.35,4.43,6.09,2.85,12.07,2.93,12.62,1.74.5-1.08-3.35-5.72-9.44-8.56-3.01-1.41-5.87-2.41-8.12-2.79,5.24,2.67,8.82,5.67,8.21,6.99Z"/>
          <ellipse class="cls-1" cx="40.55" cy="41.68" rx="1.54" ry="2.16" transform="translate(-14.38 60.78) rotate(-64.96)"/>
        </g>
        <g>
          <path class="cls-1" d="M32.94,50.06c-.94.31-2.7-2.36-4.1-6.13.08,1.56.54,3.58,1.26,5.73,1.45,4.36,4.22,7.37,5.07,7.09.77-.26,1.26-4.35-.19-8.71-.72-2.16-1.56-4.05-2.43-5.34,1.14,3.86,1.33,7.05.39,7.36Z"/>
          <ellipse class="cls-1" cx="32.09" cy="47.35" rx="1.05" ry="1.48" transform="translate(-13.31 12.55) rotate(-18.41)"/>
        </g>
        <g>
          <path class="cls-1" d="M10.41,25.49c-.97,1.45,2.73,5.67,8.46,9.8-2.6-.86-5.8-2.58-9.12-4.81C3.04,25.99-.75,19.89.12,18.59c.79-1.18,7.95-.11,14.66,4.39,3.32,2.22,6.12,4.54,7.91,6.61-6-3.73-11.31-5.55-12.28-4.1Z"/>
          <ellipse class="cls-1" cx="14.6" cy="28.2" rx="1.85" ry="2.6" transform="translate(-16.95 24.62) rotate(-56.15)"/>
        </g>
        <g>
          <path class="cls-1" d="M10.88,43.5c.61,1.32,5.21.49,10.63-1.81-1.73,1.48-4.34,3.03-7.35,4.43-6.09,2.85-12.07,2.93-12.62,1.74-.5-1.08,3.35-5.72,9.44-8.56,3.01-1.41,5.87-2.41,8.12-2.79-5.24,2.67-8.82,5.67-8.21,6.99Z"/>
          <ellipse class="cls-1" cx="14.61" cy="41.68" rx="2.16" ry="1.54" transform="translate(-16.27 10.1) rotate(-25.04)"/>
        </g>
        <g>
          <path class="cls-1" d="M22.22,50.06c.94.31,2.7-2.36,4.1-6.13-.08,1.56-.54,3.58-1.26,5.73-1.45,4.36-4.22,7.37-5.07,7.09-.77-.26-1.26-4.35.19-8.71.72-2.16,1.56-4.05,2.43-5.34-1.14,3.86-1.33,7.05-.39,7.36Z"/>
          <ellipse class="cls-1" cx="23.07" cy="47.35" rx="1.48" ry="1.05" transform="translate(-29.14 54.3) rotate(-71.59)"/>
        </g>
      </g>
      <g>
        <path class="cls-1" d="M79.74,37.59c-1.34.52-3.96,1.28-7.11,1.28-9.79,0-12.12-7.3-12.12-12.58,0-7.6,4.95-12.87,12.77-12.87,2.39,0,4.52.46,5.76,1.05l-.72,2.26c-1.21-.56-2.78-1.02-5.11-1.02-5.9,0-9.86,3.8-9.86,10.42s3.77,10.51,9.47,10.51c2.1,0,3.5-.33,4.23-.72v-7.99h-5.04v-2.19h7.73v11.86Z"/>
        <path class="cls-1" d="M101.75,28.58c0,7.5-3.86,10.42-8.84,10.42-4.65,0-8.35-2.72-8.35-10.25v-15.07h2.72v15.1c0,5.67,2.49,7.96,5.76,7.96,3.6,0,5.99-2.42,5.99-7.96v-15.1h2.72v14.9Z"/>
        <path class="cls-1" d="M120.49,38.6h-13.17V13.65h12.61v2.29h-9.89v8.45h9.3v2.26h-9.3v9.66h10.45v2.29Z"/>
        <path class="cls-1" d="M134.24,26.65c1.93.62,3.08,2.49,3.67,5.21.79,3.6,1.34,5.8,1.83,6.75h-2.82c-.39-.72-.95-2.91-1.6-6.03-.72-3.47-2.1-5.01-5.04-5.01h-3.05v11.04h-2.72V14.01c1.54-.33,3.7-.52,5.67-.52,3.24,0,5.37.66,6.85,2.03,1.18,1.08,1.87,2.78,1.87,4.65,0,3.31-2,5.44-4.65,6.39v.1ZM130.45,25.47c3.47,0,5.7-1.97,5.7-4.98,0-3.7-2.78-4.85-5.83-4.85-1.47,0-2.52.13-3.08.26v9.56h3.21Z"/>
        <path class="cls-1" d="M153.11,26.65c1.93.62,3.08,2.49,3.67,5.21.79,3.6,1.34,5.8,1.83,6.75h-2.82c-.39-.72-.95-2.91-1.6-6.03-.72-3.47-2.1-5.01-5.04-5.01h-3.05v11.04h-2.72V14.01c1.54-.33,3.7-.52,5.67-.52,3.24,0,5.37.66,6.85,2.03,1.18,1.08,1.87,2.78,1.87,4.65,0,3.31-2,5.44-4.65,6.39v.1ZM149.31,25.47c3.47,0,5.7-1.97,5.7-4.98,0-3.7-2.78-4.85-5.83-4.85-1.47,0-2.52.13-3.08.26v9.56h3.21Z"/>
        <path class="cls-1" d="M180.1,38.6h-2.88l-2.69-8.09h-8.68l-2.62,8.09h-2.78l8.25-24.96h3.14l8.25,24.96ZM173.97,28.35l-2.46-7.4c-.52-1.7-.95-3.28-1.28-4.75h-.1c-.33,1.51-.79,3.08-1.24,4.65l-2.49,7.5h7.57Z"/>
      </g>
    </g>
  </g>
</svg>