<?xml version="1.0" encoding="UTF-8"?>
<svg id="Layer_2" data-name="Layer 2" xmlns="http://www.w3.org/2000/svg" xmlns:xlink="http://www.w3.org/1999/xlink" viewBox="0 0 208.88 54.95">
  <defs>
    <style>
      .cls-1 {
        fill: url(#radial-gradient-10);
      }

      .cls-2 {
        fill: url(#radial-gradient-9);
      }

      .cls-3 {
        fill: url(#radial-gradient-14);
      }

      .cls-4 {
        fill: url(#radial-gradient-16);
      }

      .cls-5 {
        fill: url(#radial-gradient-18);
      }

      .cls-6 {
        fill: #8a5fb1;
      }

      .cls-7 {
        fill: url(#radial-gradient-5);
      }

      .cls-8 {
        fill: url(#radial-gradient);
      }

      .cls-9 {
        fill: url(#radial-gradient-3);
      }

      .cls-10 {
        fill: url(#radial-gradient-11);
      }

      .cls-11 {
        fill: url(#radial-gradient-8);
      }

      .cls-12 {
        fill: url(#radial-gradient-2);
      }

      .cls-13 {
        fill: url(#radial-gradient-4);
      }

      .cls-14 {
        fill: url(#radial-gradient-12);
      }

      .cls-15 {
        fill: url(#radial-gradient-15);
      }

      .cls-16 {
        fill: url(#radial-gradient-6);
      }

      .cls-17 {
        fill: url(#radial-gradient-7);
      }

      .cls-18 {
        fill: url(#radial-gradient-17);
      }

      .cls-19 {
        fill: url(#radial-gradient-13);
      }
    </style>
    <radialGradient id="radial-gradient" cx="68.6" cy="16.33" fx="68.6" fy="16.33" r="8.08" gradientUnits="userSpaceOnUse">
      <stop offset=".51" stop-color="#8a5fb1"/>
      <stop offset="1" stop-color="#8a5fb1"/>
    </radialGradient>
    <radialGradient id="radial-gradient-2" cx="83.07" cy="16.28" fx="83.07" fy="16.28" r="8.32" xlink:href="#radial-gradient"/>
    <radialGradient id="radial-gradient-3" cx="97.7" fx="97.7" r="8.09" xlink:href="#radial-gradient"/>
    <radialGradient id="radial-gradient-4" cx="111.37" fx="111.37" r="8.13" xlink:href="#radial-gradient"/>
    <radialGradient id="radial-gradient-5" cx="125.24" fx="125.24" r="8.34" xlink:href="#radial-gradient"/>
    <radialGradient id="radial-gradient-6" cx="139.37" fx="139.37" r="8.34" xlink:href="#radial-gradient"/>
    <radialGradient id="radial-gradient-7" cx="151.83" fx="151.83" r="7.79" xlink:href="#radial-gradient"/>
    <radialGradient id="radial-gradient-8" cx="68.46" cy="43" fx="68.46" fy="43" r="8.34" xlink:href="#radial-gradient"/>
    <radialGradient id="radial-gradient-9" cx="82.63" cy="42.96" fx="82.63" fy="42.96" r="8.32" xlink:href="#radial-gradient"/>
    <radialGradient id="radial-gradient-10" cx="97.24" cy="42.85" fx="97.24" fy="42.85" r="8.18" xlink:href="#radial-gradient"/>
    <radialGradient id="radial-gradient-11" cx="111.91" cy="42.85" fx="111.91" fy="42.85" r="8.18" xlink:href="#radial-gradient"/>
    <radialGradient id="radial-gradient-12" cx="126.33" cy="42.96" fx="126.33" fy="42.96" r="8.32" xlink:href="#radial-gradient"/>
    <radialGradient id="radial-gradient-13" cx="140.93" cy="43" fx="140.93" fy="43" r="8.08" xlink:href="#radial-gradient"/>
    <radialGradient id="radial-gradient-14" cx="151.7" cy="43" fx="151.7" fy="43" r="7.19" xlink:href="#radial-gradient"/>
    <radialGradient id="radial-gradient-15" cx="162.44" cy="43" fx="162.44" fy="43" r="8.34" xlink:href="#radial-gradient"/>
    <radialGradient id="radial-gradient-16" cx="181.98" cy="43" fx="181.98" fy="43" r="8.34" xlink:href="#radial-gradient"/>
    <radialGradient id="radial-gradient-17" cx="196.27" cy="43" fx="196.27" fy="43" r="8.34" xlink:href="#radial-gradient"/>
    <radialGradient id="radial-gradient-18" cx="206.87" cy="50.9" fx="206.87" fy="50.9" r="2.04" xlink:href="#radial-gradient"/>
  </defs>
  <g id="Layer_4" data-name="Layer 4">
    <g>
      <g>
        <path class="cls-6" d="M26.54.02c14.17-.51,26.54,10.04,28.23,24.09,2.17,18.08-13.35,33.17-31.37,30.54C11.43,52.9,1.87,43.21.25,31.22-1.93,15.05,10.26.61,26.54.02ZM48.37,37.56l2,.53c3.72-7.9,2.95-17.37-1.88-24.6C40.81,2,25.27-1.23,13.64,6.39,3.82,12.82-.3,25.3,3.87,36.37c.21.55.65,1.78.96,2.22.02.03.06.1.09.08,0-.13.09-.17.19-.22.52-.26,1.23-.37,1.78-.58.11-.07-.18-.22-.24-.29-.12-.13-.6-.66-.62-.78,0-.06,0-.09.03-.14.09-.21.81-.74,1.03-.9,2.02-1.45,4.54-2.15,7.03-1.98-3.6-2.48-6.4-6.08-7.59-10.33-.56-2-.81-4.31-.65-6.38.02-.23.05-.68.32-.73s1.22.18,1.55.25c4.91,1.1,9.64,3.94,12.62,8.02-.7-6.46,1.72-12.95,5.45-18.12.38-.53,1.11-1.59,1.56-2,.12-.11.35-.14.5-.08s1.25,1.78,1.42,2.05c3.28,5.27,5.36,11.68,4.7,17.96,2.99-3.91,7.46-6.63,12.24-7.77.34-.08,1.57-.38,1.82-.3.24.08.25.37.28.59.68,5.11-1.41,10.71-4.95,14.34-.95.98-2.06,1.79-3.13,2.62,2.66-.23,5.61.44,7.79,2.01.19.14.88.63.88.85,0,.25-.47.56-.57.79ZM27.7,5.69l-.1.03c-4.33,6.43-7.37,14.48-5.24,22.29.6,2.22,1.61,4.34,3.07,6.13-.08.92-.86,0-1.15-.3-1.53-1.65-2.58-3.82-3.24-5.96-.14-.44-.24-1.19-.42-1.56-.23-.46-1.05-1.4-1.42-1.8-3.24-3.55-7.72-5.92-12.36-7.13-.06,3.89,1.02,7.76,3.24,10.95,3.25,4.67,8.59,7.52,14,8.98.31.25.16.57-.25.54-.66-.06-1.82-.44-2.49-.65-.93-.28-1.89-.63-2.79-1.01-1.04-.44-1.94-1.07-3.07-1.22-2.32-.31-4.71.16-6.86,1.03-.61.25-1.21.53-1.78.87l.82.77.1.02c1.24-.33,2.52-.5,3.79-.67-.04-.08-.25-.1-.34-.12-.74-.17-1.46-.19-2.22-.17.02-.09.13-.1.2-.11.59-.13,1.63-.12,2.22-.02.32.06.97.37,1.17.38.12,0,.24-.05.38-.05.97,0,1.95,0,2.92.05-.6-.66-1.55-1.02-2.41-1.16-.04-.16.21-.1.31-.09.92.08,1.78.46,2.51,1.01.15.11.2.27.41.31.22.05.55.04.79.08.59.08,1.18.18,1.76.28-.11-.18-.44-.25-.55-.38-.05-.06-.04-.11.05-.1.12.01.4.14.52.2.28.12.59.36.84.46.48.19,1.25.31,1.79.47,2.16.65,4.23,1.55,6.18,2.66,1.4-.8,2.85-1.47,4.36-2.05.42-.16,1.08-.3,1.44-.48.23-.11.59-.47.87-.63s.63-.39.93-.37l-.82.7c.53-.11,1.05-.25,1.58-.37.35-.08.93-.12,1.23-.22.08-.03.56-.58.73-.71.67-.51,1.6-.85,2.43-.92.08.06-.74.3-.8.33-.58.25-1.25.64-1.6,1.16.59-.05,1.17-.14,1.76-.19.46-.04,1.12.02,1.54-.05.14-.02.35-.2.51-.26.9-.36,2.06-.45,3.01-.31.08.01.08-.03.07.09-.72,0-1.46.07-2.16.28l-.44.2c1.61,0,3.22.17,4.8.48.2,0,.44-.39.6-.51-2.72-1.52-6-2.28-9.12-1.9-1.1.14-2.09.8-3.11,1.22-1.42.59-3.94,1.49-5.43,1.65-.46.05-.62-.33-.24-.53,8.25-2.2,15.47-7.23,16.93-16.16.13-.82.42-2.97.25-3.69-.01-.06.03-.09-.07-.07-4.5,1.06-9.5,3.93-12.53,7.41-.27.31-.82.93-1,1.27s-.31,1.28-.44,1.73c-.61,2.15-1.79,4.59-3.26,6.27-.06.07-.35.4-.4.42-.26.12-.54-.07-.45-.35,3.37-4.95,4.07-10.95,2.95-16.77-.79-4.14-2.5-8.02-4.51-11.69ZM26.98,41.32c-6.45-3.44-14.13-4.23-21.19-2.31l1.28,2.17c2.72-1.33,5.79-1.81,8.82-1.69.55.02,1.24.07,1.77.15.13.02.32.02.42.11.02.12-.09.07-.17.07-1.57.06-2.86-.05-4.47.2-2.01.31-3.99.99-5.67,2.13,1.55,2,3.37,3.78,5.42,5.27.97-1.34,2.33-2.34,3.74-3.2s3.06-1.69,4.56-2.18c.16-.05.32-.13.49-.11.03.11-.1.13-.18.18-.43.26-.88.5-1.31.76-2.31,1.43-4.56,3.06-6.36,5.11-.01.07.05.1.1.14.45.35,1.3.79,1.83,1.06.73.38,1.49.71,2.24,1.04h.06c2.15-3.54,5.13-6.56,8.6-8.81l.03-.1ZM49.52,38.86c-4.94-1.25-10.15-1.15-15.03.31-5.65,1.7-10.71,5.27-14.23,10-.1.13-.94,1.28-.9,1.34,3.97,1.37,8.27,1.77,12.43,1.06l-5.44-7.25.03-.12c2.43,2.15,4.7,4.52,6.67,7.1,2.35-.49,4.58-1.42,6.7-2.53.05-.07-.67-1-.77-1.13-1.47-1.86-3.45-3.47-5.41-4.8-.5-.34-1.08-.65-1.56-.99-.06-.04-.13-.05-.11-.15.06-.05.42.12.5.15,1.09.46,2.3,1.17,3.3,1.8,1.87,1.19,3.7,2.59,4.94,4.45l.09.04c1.25-.77,2.45-1.65,3.53-2.64.46-.43,1.32-1.22,1.69-1.69.04-.05.09-.1.11-.17-.63-.8-1.4-1.43-2.26-1.97-1.9-1.2-4.1-1.97-6.31-2.39l.05-.12c3.26.41,6.75,1.45,9.18,3.73.71-.83,1.34-1.73,1.92-2.65.3-.46.52-.98.9-1.39Z"/>
        <path class="cls-6" d="M27.08,19.34c-1.64-1.56-2.38-3.8-2.7-5.99l.15.03c.43,1.8,1.19,3.63,2.55,4.93l.19-6.14.24-3.8c.24-.39.27.25.29.43.17,1.79.13,3.61.29,5.39l.09,4.17c1.36-1.28,1.93-3.18,2.07-5.01.18-.2.15.68.14.75-.07,1.93-.75,3.96-2.22,5.25v5.66c.14-.06.32-.21.43-.31,1.34-1.19,2.33-3.05,2.84-4.74.08,0,.15-.05.14.07-.01.25-.19.81-.28,1.07-.57,1.84-1.6,3.63-3.1,4.85-.04.04-.07.1-.09.16-.08.36,0,1.07,0,1.48-.02.55-.08,1.13-.1,1.68s-.02,1.08-.05,1.62c1.33-.95,2.28-2.43,2.75-3.99l.14.02c-.35,1.95-1.4,3.73-2.91,4.99-.17.67-.04,1.47-.17,2.14-.03.15-.15.14-.28.11l-.2-2.22c-1.52-.79-2.53-2.31-3.1-3.9-.11-.3-.29-.78-.32-1.08,0-.08,0-.07.07-.07h.07c.48,1.37,1.28,2.76,2.44,3.66.08.06.74.54.79.48l-.15-4.98c-2.06-1.39-3.51-3.66-3.94-6.1h.14c0,.08,0,.16.03.23.69,1.97,1.9,3.83,3.72,4.92v-5.75Z"/>
        <path class="cls-6" d="M13.68,26.49c.02-.08-.04-.1-.07-.14-1.12-1.48-2.3-2.88-3.34-4.41-.3-.45-.99-1.36-1.18-1.81-.04-.1-.07-.15.04-.23l5.11,5.83c.07-.05.07-.09.07-.17.11-1.02-.18-2.32-.54-3.27-.1-.27-.35-.65-.42-.88-.03-.1.08-.09.13-.06.04.03.41.7.47.81.67,1.31,1.03,2.76.86,4.24l2.84,3.08c.1.02.07-.04.08-.11.5-1.66-.19-3.92-.89-5.44-.06-.04,0-.13.04-.13.12,0,.67,1.13.76,1.31.71,1.57,1.11,3.33.69,5.04.91.99,1.9,1.92,2.92,2.79.15-1.38-.34-2.72-1.06-3.88-.02-.09.03-.1.1-.05.14.1.58.81.68,1,.59,1.06.88,2.23.82,3.44l2.14,1.64c.1.12.12.27-.05.27s-1.08-.54-1.29-.66c-.26-.15-1-.73-1.19-.79-.23-.08-.73.08-.99.08-.64,0-1.44-.22-2.01-.5-.32-.16-1.11-.65-1.29-.93-.05-.07-.02-.12.02-.12.04,0,.49.37.62.44.92.52,1.92.74,2.97.57-1.06-.9-2.16-1.77-3.13-2.77-1.64.06-3.18-.3-4.62-1.06-.24-.13-1.48-.87-1.57-1.04-.04-.08,0-.09.05-.14,1.58,1.06,3.5,1.65,5.42,1.54l-2.65-2.91c-1.57.08-3.06-.52-4.19-1.59-.18-.17-.51-.45-.51-.7.67.61,1.45,1.15,2.31,1.45.2.07.78.24.96.24h.89Z"/>
        <path class="cls-6" d="M45.91,19.46c.06.06-.39.75-.46.86-1.24,1.97-2.69,3.86-4.16,5.66.28.14.67.06.98.02,1.17-.16,2.29-.82,3.14-1.63.12-.02.08.09.05.14-.11.19-.79.78-.99.93-1.08.84-2.37,1.26-3.74,1.2-.79,1-1.7,1.91-2.56,2.85.24.1.53.08.79.07,1.35-.06,2.82-.55,4.01-1.2.1-.06.59-.4.64-.35v.13c-1.76,1.34-3.92,2.22-6.17,2.06-1.03.95-2.05,1.91-3.18,2.74,1,.28,2.07-.03,2.95-.52.15-.08.55-.4.64-.42.09-.03.09.03.05.1-.07.11-.5.43-.64.52-.95.65-1.92.93-3.07.87-.16,0-.41-.11-.56-.08-.21.06-1.23.82-1.56,1-.2.11-.67.4-.85.45-.15.04-.25.03-.25-.15l2.19-1.76c-.03-1.29.28-2.49.93-3.6.1-.16.46-.73.59-.81.25-.16-.13.39-.15.43-.55,1.04-.96,2.26-.81,3.45.08.02.1-.03.14-.07.33-.25.75-.67,1.06-.96.59-.55,1.13-1.15,1.71-1.71-.45-1.88.05-3.86.91-5.54.05-.11.42-.77.46-.8.07-.05.14.02.14.05,0,.05-.36.77-.42.93-.55,1.48-.88,3.13-.47,4.68l2.89-3.13c-.17-1.54.24-3.08.98-4.41.08-.15.26-.5.37-.59.07-.07.06-.04.12.02-.39.73-.7,1.56-.85,2.38-.12.63-.19,1.37-.04,1.98l4.96-5.78.22-.04Z"/>
      </g>
      <g>
        <path class="cls-8" d="M70.94,26.29c-.43,0-.75-.31-.75-.75v-7.87h-3.18v7.87c0,.43-.31.75-.75.75h-2.53c-.43,0-.75-.31-.75-.75V7.12c0-.43.31-.75.75-.75h2.53c.43,0,.75.31.75.75v7.24h3.18v-7.24c0-.43.31-.75.75-.75h2.53c.43,0,.75.31.75.75v18.43c0,.43-.31.75-.75.75h-2.53Z"/>
        <path class="cls-12" d="M85.4,26.29c-.31,0-.6-.17-.65-.48-.02-.19-.05-.41-.07-.65-.89.91-2.26,1.44-3.39,1.44-2,0-3.85-1.4-3.85-4.31v-4.67c0-3.85,3.71-3.3,7.19-3.83v-3.08c0-.84-.58-1.44-1.59-1.44s-1.59.63-1.59,1.47v1.49c0,.43-.31.75-.75.75h-2.53c-.43,0-.75-.31-.75-.75v-2.17c0-2.57,2.19-4.11,5.61-4.11s5.61,1.54,5.61,4.11v14.17c0,.41.02.79.05,1.13.05.53-.24.91-.77.91h-2.53ZM84.63,17.13c-1.66.26-3.18.29-3.18,1.78v3.01c0,.84.6,1.47,1.59,1.47s1.52-.51,1.59-1.25v-5Z"/>
        <path class="cls-9" d="M100.05,26.29c-.34,0-.6-.19-.65-.51-.14-.79-.14-2.12-.14-3.13v-3.22c0-1.11-.31-1.76-1.32-1.76h-1.85v7.87c0,.43-.31.75-.75.75h-2.53c-.43,0-.75-.31-.75-.75V7.12c0-.43.31-.75.75-.75h7.07c3.32,0,3.39,2.36,3.39,4.43v.58c0,1.97-.07,4.4-3.37,4.72,3.3.26,3.37,2.45,3.37,4.4v2.98c0,.65,0,1.35.05,1.93.05.51-.24.89-.75.89h-2.53ZM99.26,11.42c0-1.11-.31-1.73-1.32-1.73h-1.85v4.67h1.85c1.01,0,1.32-.63,1.32-1.73v-1.2Z"/>
        <path class="cls-13" d="M108.52,26.29c-.36,0-.65-.26-.7-.63l-2.19-18.43c-.05-.48.29-.87.77-.87h2.77c.39,0,.67.26.72.65l1.49,15.98,1.47-15.98c.05-.39.34-.65.72-.65h2.77c.48,0,.82.36.77.87l-2.17,18.43c-.05.36-.34.63-.7.63h-5.73Z"/>
        <path class="cls-7" d="M130.85,22.85c0,2.57-2.17,3.85-5.61,3.85s-5.61-1.28-5.61-3.85v-12.78c0-2.57,2.17-4.11,5.58-4.11s5.63,1.54,5.63,4.11v6.86c0,.43-.31.75-.75.75h-6.45v4.23c0,.84.6,1.47,1.59,1.47s1.59-.6,1.59-1.44v-2.14c0-.43.31-.75.75-.75h2.53c.43,0,.75.31.75.75v3.06ZM126.83,10.75c0-.84-.6-1.47-1.61-1.47s-1.56.6-1.56,1.44v3.63h3.18v-3.61Z"/>
        <path class="cls-16" d="M144.97,22.85c0,2.57-2.19,3.85-5.63,3.85s-5.58-1.28-5.58-3.85v-3.06c0-.43.31-.75.75-.75h2.53c.43,0,.75.31.75.75v2.14c0,.84.58,1.44,1.56,1.44s1.61-.63,1.61-1.47v-1.64c0-3.25-7.19-2.45-7.19-7.6v-2.6c0-2.57,2.17-4.11,5.58-4.11s5.63,1.54,5.63,4.11v2.17c0,.43-.31.75-.75.75h-2.53c-.43,0-.75-.31-.75-.75v-1.49c0-.84-.6-1.47-1.61-1.47s-1.56.6-1.56,1.44v1.18c0,3.54,7.19,1.73,7.19,7.8v3.15Z"/>
        <path class="cls-17" d="M150.56,26.29c-.43,0-.75-.31-.75-.75v-15.86h-1.95c-.43,0-.75-.31-.75-.75v-1.83c0-.43.31-.75.75-.75h7.94c.43,0,.75.31.75.75v1.83c0,.43-.31.75-.75.75h-1.97v15.86c0,.43-.31.75-.75.75h-2.53Z"/>
        <path class="cls-11" d="M70.05,45.07c0-.43.31-.75.75-.75h2.53c.43,0,.75.31.75.75v4.45c0,2.57-2.17,3.85-5.61,3.85s-5.61-1.28-5.61-3.85v-12.78c0-2.57,2.17-4.11,5.58-4.11s5.63,1.54,5.63,4.11v3.54c0,.43-.31.75-.75.75h-2.53c-.43,0-.75-.31-.75-.75v-2.86c0-.84-.6-1.47-1.61-1.47s-1.56.6-1.56,1.44v11.19c0,.84.6,1.47,1.59,1.47s1.59-.6,1.59-1.44v-3.54Z"/>
        <path class="cls-2" d="M84.97,52.97c-.31,0-.6-.17-.65-.48-.02-.19-.05-.41-.07-.65-.89.91-2.26,1.44-3.39,1.44-2,0-3.85-1.4-3.85-4.31v-4.67c0-3.85,3.71-3.3,7.19-3.83v-3.08c0-.84-.58-1.44-1.59-1.44s-1.59.63-1.59,1.47v1.49c0,.43-.31.75-.75.75h-2.53c-.43,0-.75-.31-.75-.75v-2.17c0-2.57,2.19-4.11,5.61-4.11s5.61,1.54,5.61,4.11v14.17c0,.41.02.79.05,1.13.05.53-.24.91-.77.91h-2.53ZM84.2,43.8c-1.66.26-3.18.29-3.18,1.78v3.01c0,.84.6,1.47,1.59,1.47s1.52-.51,1.59-1.25v-5Z"/>
        <path class="cls-1" d="M94.83,33.04c.36,0,.63.22.7.55l.12.63c.89-.99,2.17-1.49,3.34-1.49,2,0,3.85,1.4,3.85,4.31v15.18c0,.43-.31.75-.75.75h-2.53c-.43,0-.75-.31-.75-.75v-14.8c0-.84-.6-1.47-1.59-1.47s-1.54.55-1.59,1.32v14.94c0,.43-.31.75-.75.75h-2.53c-.43,0-.75-.31-.75-.75v-18.43c0-.43.31-.75.75-.75h2.45Z"/>
        <path class="cls-10" d="M109.51,33.04c.36,0,.63.22.7.55l.12.63c.89-.99,2.17-1.49,3.34-1.49,2,0,3.85,1.4,3.85,4.31v15.18c0,.43-.31.75-.75.75h-2.53c-.43,0-.75-.31-.75-.75v-14.8c0-.84-.6-1.47-1.59-1.47s-1.54.55-1.59,1.32v14.94c0,.43-.31.75-.75.75h-2.53c-.43,0-.75-.31-.75-.75v-18.43c0-.43.31-.75.75-.75h2.45Z"/>
        <path class="cls-14" d="M128.66,52.97c-.31,0-.6-.17-.65-.48-.02-.19-.05-.41-.07-.65-.89.91-2.26,1.44-3.39,1.44-2,0-3.85-1.4-3.85-4.31v-4.67c0-3.85,3.71-3.3,7.19-3.83v-3.08c0-.84-.58-1.44-1.59-1.44s-1.59.63-1.59,1.47v1.49c0,.43-.31.75-.75.75h-2.53c-.43,0-.75-.31-.75-.75v-2.17c0-2.57,2.19-4.11,5.61-4.11s5.61,1.54,5.61,4.11v14.17c0,.41.02.79.05,1.13.05.53-.24.91-.77.91h-2.53ZM127.89,43.8c-1.66.26-3.18.29-3.18,1.78v3.01c0,.84.6,1.47,1.59,1.47s1.52-.51,1.59-1.25v-5Z"/>
        <path class="cls-19" d="M136.07,52.97c-.43,0-.75-.31-.75-.75v-18.43c0-.43.31-.75.75-.75h6.95c3.32,0,3.39,2.36,3.39,4.43v.58c0,1.97-.07,4.4-3.25,4.72,3.3.26,3.37,2.45,3.37,4.4v1.37c0,2.07-.07,4.43-3.39,4.43h-7.07ZM142.4,38.09c0-1.11-.31-1.73-1.32-1.73h-1.73v4.67h1.73c1.01,0,1.32-.63,1.32-1.73v-1.2ZM142.52,46.11c0-1.11-.31-1.76-1.32-1.76h-1.85v5.29h1.85c1.01,0,1.32-.63,1.32-1.73v-1.8Z"/>
        <path class="cls-3" d="M150.43,52.97c-.43,0-.75-.31-.75-.75v-18.43c0-.43.31-.75.75-.75h2.53c.43,0,.75.31.75.75v18.43c0,.43-.31.75-.75.75h-2.53Z"/>
        <path class="cls-15" d="M168.05,49.52c0,2.57-2.19,3.85-5.63,3.85s-5.58-1.28-5.58-3.85v-3.06c0-.43.31-.75.75-.75h2.53c.43,0,.75.31.75.75v2.14c0,.84.58,1.44,1.56,1.44s1.61-.63,1.61-1.47v-1.64c0-3.25-7.19-2.45-7.19-7.6v-2.6c0-2.57,2.17-4.11,5.58-4.11s5.63,1.54,5.63,4.11v2.17c0,.43-.31.75-.75.75h-2.53c-.43,0-.75-.31-.75-.75v-1.49c0-.84-.6-1.47-1.61-1.47s-1.56.6-1.56,1.44v1.18c0,3.54,7.19,1.73,7.19,7.8v3.15Z"/>
        <path class="cls-4" d="M183.57,45.07c0-.43.31-.75.75-.75h2.53c.43,0,.75.31.75.75v4.45c0,2.57-2.17,3.85-5.61,3.85s-5.61-1.28-5.61-3.85v-12.78c0-2.57,2.17-4.11,5.58-4.11s5.63,1.54,5.63,4.11v3.54c0,.43-.31.75-.75.75h-2.53c-.43,0-.75-.31-.75-.75v-2.86c0-.84-.6-1.47-1.61-1.47s-1.56.6-1.56,1.44v11.19c0,.84.6,1.47,1.59,1.47s1.59-.6,1.59-1.44v-3.54Z"/>
        <path class="cls-18" d="M190.66,36.75c0-2.57,2.17-4.11,5.58-4.11s5.63,1.54,5.63,4.11v12.78c0,2.57-2.17,3.85-5.61,3.85s-5.61-1.28-5.61-3.85v-12.78ZM197.86,37.42c0-.84-.6-1.47-1.61-1.47s-1.56.6-1.56,1.44v11.19c0,.84.6,1.47,1.59,1.47s1.59-.6,1.59-1.44v-11.19Z"/>
        <path class="cls-5" d="M205.61,52.97c-.43,0-.75-.31-.75-.75v-2.65c0-.43.31-.75.75-.75h2.53c.43,0,.75.31.75.75v2.65c0,.43-.31.75-.75.75h-2.53Z"/>
      </g>
    </g>
  </g>
</svg>