<?xml version="1.0" encoding="UTF-8"?>
<svg id="Layer_2" data-name="Layer 2" xmlns="http://www.w3.org/2000/svg" viewBox="0 0 163.96 42.25">
  <defs>
    <style>
      .cls-1 {
        fill: #8a5fb1;
      }
    </style>
  </defs>
  <g id="Layer_4" data-name="Layer 4">
    <path class="cls-1" d="M0,0v42.25h163.96V0H0ZM22.14,38.7h-5.74v-14.72h-6.56v14.72h-5.74V4.09h5.74v14.18h6.56V4.09h5.74v34.62ZM30.33,38.7h-5.74V4.09h5.74v34.62ZM49.19,38.57l-.41.41h0c-1.66-.14-3.58.19-5.19,0h0c-5.33-.63-9.12-5.46-10.39-10.35-1.77-6.85-1.01-15.61,3.31-20.66,2.59-3.03,6.46-4.72,11.83-3.85l-.52,5.69h0s0,0,0,0c-2.17-.36-3.88-.05-5.23.71-4.03,2.28-4.73,8.65-4.33,13.6.3,3.66,1.9,7.61,5.46,9.13v-6.27h-1.37v-5.72h0s6.83,0,6.83,0v17.31ZM69.96,38.7h-5.74v-14.72h-6.56v14.72h-5.74V4.09h5.74v14.18h6.56V4.09h5.74v34.62ZM93.46,8.58c0,.11-.24.4-.29.68-.02.09-.02.19.02.28h-5.46v29.17h-6.01V9.54h-5.33l-.41-.41v-4.63l.41-.41h16.67l.41.41v4.09ZM100.84,38.7h-5.74V4.09h5.74v34.62ZM121.61,38.7h0s0,0,0,0l-.82-15.79-4.96,13.43c-.2.5-.8.64-1.21.39-.14-.08-.26-.21-.33-.38l-4.82-13.43-.96,15.8h-4.93s0,0,0,0h0s1.37-34.48,1.37-34.48c.02-.9,1.58-.86,2.19-.55,0,0,0,0,0,0,0,0,0,0,0,0,1,.5,6.86,18.45,8.05,20.85l7.81-20.56c.52-.76,1.63-.35,2.44-.43h0s0,0,0,0l1.23,35.17h-5.06ZM144.01,33.53v5.18h-14.48V4.09h14.21v5.04l-.41.41h-8.06v8.99h6.29v5.45h0s-6.28,0-6.28,0v9.54h8.74ZM152.88,38.97s-.06,0-.09,0c-.2,0-.39.02-.59.02-2.53.01-5.17-.61-7.35-1.66l1.62-4.88s0,0,0,0h0c1.47.5,4.07,1.4,6.09,1.27,1.57-.1,2.78-.82,2.82-2.82.07-3.29-5.57-9-7.39-12.11-5.06-8.62-1.45-15.12,6.08-15.04,1.74.02,3.69.39,5.79,1.16h0l-1.68,4.86c-.88.55-6.78-2.44-6.82,2.08-.04,4.53,9.68,11.64,9.88,18.81.16,5.69-3.82,8.07-8.37,8.3Z"/>
  </g>
</svg>