<?xml version="1.0" encoding="UTF-8"?>
<svg id="Layer_2" data-name="Layer 2" xmlns="http://www.w3.org/2000/svg" viewBox="0 0 60.65 60.5">
  <defs>
    <style>
      .cls-1 {
        fill: #8a5fb1;
      }
    </style>
  </defs>
  <g id="Layer_4" data-name="Layer 4">
    <g>
      <path class="cls-1" d="M29.29,51.01c0,.55.31.86.85.86.77,0,1.55-.83,1.55-.83v-.96h-.83c-1.12,0-1.57.29-1.57.93Z"/>
      <path class="cls-1" d="M22.71,47.16c-.81,0-1.32.59-1.43,1.44h2.61c0-.82-.35-1.44-1.18-1.44Z"/>
      <path class="cls-1" d="M57.44,0H3.21C1.44,0,0,1.43,0,3.2v54.1c0,1.77,1.44,3.2,3.21,3.2h54.23c1.77,0,3.21-1.43,3.21-3.2V3.2c0-1.77-1.44-3.2-3.21-3.2ZM4.4,36.32h0s3.35-1.34,3.35-1.34V14.03l-3.35-1.34v-3.79l11.53-.22,6.7,14.84,7.02-14.62,10.72-.22v4.01l-3.21,1.34v20.95l3.35,1.34v3.79h-13.32v-3.79l3.49-1.34v-16.76l-1.21,2.94-5.05,10.48-4.83.22-5.14-10.56-.76-2.32v16l3.44,1.34v3.79H4.4v-3.79ZM8.1,53.47h0c-2.38,0-3.75-1.46-3.75-3.91s1.44-4.14,3.97-4.14c1.24,0,2.52.5,2.52.5l-.07,2.36h-1.3l-.2-1.02s-.42-.11-1-.11c-1.04,0-1.69.69-1.69,2.13,0,1.57.61,2.47,1.81,2.47,1,0,1.64-.5,2.09-.76l.72,1.26c-.36.32-1.49,1.22-3.1,1.22ZM18.31,48.45h-1.3l-.22-1.22c-.83,0-1.55.8-1.55.8v3.8l1.44.36v1.15h-4.76v-1.15l1.15-.36v-4.67l-1.15-.36v-1.15l3.03-.07.13.99s1.04-1.14,2.01-1.14c.79,0,1.34.26,1.34.26l-.12,2.76ZM26.02,49.93h-4.78c.08,1.15.75,1.83,1.74,1.83,1.2,0,2.42-.68,2.42-.68l.62,1.19s-1.44,1.21-3.28,1.21c-2.48,0-3.75-1.44-3.75-3.88s1.43-4.17,3.85-4.17c2.14,0,3.27,1.32,3.27,3.38,0,.55-.09,1.08-.09,1.12ZM34.92,53.24l-2.88.1-.26-.93s-1.11,1.08-2.34,1.08c-1.4,0-2.25-.82-2.25-2.26,0-1.7,1.29-2.37,3.48-2.37h1.01v-.79c0-.73-.39-1.05-1.11-1.05s-1.27.22-1.27.22l-.21.91h-1.3l-.1-2.13s1.74-.57,3.12-.57c2.19,0,3.03.76,3.03,2.85v3.55l1.08.26v1.15ZM49.25,53.34h-3.91v-1.15l.76-.36v-3.42c0-.79-.22-1.18-.83-1.18-.94,0-1.6.75-1.6.75v3.85l.75.36v1.15h-3.66v-1.15l.74-.36v-3.42c0-.79-.19-1.18-.82-1.18-.93,0-1.61.75-1.61.75v3.85l.76.36v1.15h-4.03v-1.15l1.1-.36v-4.67l-1.09-.36v-1.15l3.01-.07.11,1.02s1.25-1.16,2.52-1.16c1.02,0,1.66.47,1.99,1.24.24-.24,1.32-1.24,2.61-1.24,1.51,0,2.22.98,2.22,2.59v3.81l.98.36v1.14ZM52.4,53.57c-1.38,0-2.68-.32-2.68-.32v-2.36h1.31l.12.94s.51.14,1.22.14c.8,0,1.19-.25,1.19-.71,0-1.19-3.88-.75-3.88-3.33,0-1.81,1.45-2.48,2.99-2.48,1.31,0,2.71.43,2.71.43l-.06,2.17h-1.24l-.22-.87s-.42-.14-1-.14c-.62,0-1,.26-1,.74,0,1.18,3.88.67,3.88,3.17,0,1.67-1.35,2.61-3.34,2.61ZM55.79,11.92l-2.75,1.1v17.53c0,6.37-1.91,9.73-8.37,9.73-1.17,0-2.79-.26-2.79-.26l.48-3.77h1.76c2.21,0,3.23-1.21,3.23-3.51V13.03l-2.75-1.1v-3.11l11.19-.18v3.29Z"/>
    </g>
  </g>
</svg>