<?xml version="1.0" encoding="UTF-8"?>
<svg id="Layer_2" data-name="Layer 2" xmlns="http://www.w3.org/2000/svg" xmlns:xlink="http://www.w3.org/1999/xlink" viewBox="0 0 113.25 70.66">
  <defs>
    <style>
      .cls-1 {
        fill: #895fb0;
      }

      .cls-2 {
        mask: url(#mask-1);
      }

      .cls-3 {
        fill: #fff;
      }

      .cls-4 {
        mask: url(#mask);
      }

      .cls-5 {
        fill: #8a5fb1;
      }
    </style>
    <mask id="mask" x="0" y="8.35" width="113.25" height="62.31" maskUnits="userSpaceOnUse">
      <g id="mask0_96_76" data-name="mask0 96 76">
        <path class="cls-3" d="M113.24,8.35H0v62.31h113.24V8.35Z"/>
      </g>
    </mask>
    <mask id="mask-1" x="3.45" y="11" width="106.34" height="55.91" maskUnits="userSpaceOnUse">
      <g id="mask1_96_76" data-name="mask1 96 76">
        <path class="cls-3" d="M109.79,11H3.45v55.91h106.34V11Z"/>
      </g>
    </mask>
  </defs>
  <g id="Layer_4" data-name="Layer 4">
    <g>
      <g>
        <path class="cls-5" d="M24.47,31.06h-3.98l-.15-7.07-1.61,7.07h-3.5l-1.62-7.07-.14,7.07h-3.98l.71-12.35h5.21l1.56,6.71,1.58-6.71h5.2l.72,12.35Z"/>
        <path class="cls-5" d="M34.52,31.06h-8.97v-12.35h8.79v3.19h-4.76v1.34h4.49v3.17h-4.49v1.43h4.94v3.22Z"/>
        <path class="cls-5" d="M45.2,29.72c-1.17.89-2.79,1.34-4.94,1.34h-4.66v-12.35h4.66c2.15,0,3.77.45,4.94,1.34,1.16.89,2.06,2.33,2.06,4.83s-.9,3.94-2.06,4.83ZM42.45,22.65c-.36-.36-.99-.63-1.89-.63h-.93v5.64h.93c.9,0,1.53-.27,1.89-.63.36-.36.72-.89.72-2.15s-.34-1.88-.72-2.24Z"/>
        <path class="cls-5" d="M52.21,18.71h-4.05v12.35h4.05v-12.35Z"/>
        <path class="cls-5" d="M64.14,29.72c-.45.45-1.7,1.56-4.39,1.56-3.68,0-6.64-2.26-6.64-6.37s2.96-6.37,6.64-6.37c2.78,0,4.13,1.16,4.13,1.16l-1.08,3.4s-1.26-1.08-2.78-1.08-2.84.89-2.84,2.83,1.4,2.77,2.84,2.77,2.42-.59,2.96-1.13l1.16,3.22h0Z"/>
        <path class="cls-5" d="M68.74,18.71h-4.06v12.35h4.06v-12.35Z"/>
        <path class="cls-5" d="M82.01,31.06h-4.21l-3.77-6.89s.09,1.34.09,2.24v4.65h-3.95v-12.35h4.4l3.59,6.89s-.09-1.34-.09-2.24v-4.65h3.94v12.35Z"/>
        <path class="cls-5" d="M95.47,31.06h-4.39l-.49-1.74h-3.53l-.47,1.74h-4.22l4.31-12.35h4.49l4.3,12.35ZM89.75,26.23l-.92-3.31-.91,3.31h1.83Z"/>
        <path class="cls-5" d="M104.09,31.06h-8.26v-12.35h4.04v9.04h4.22v3.31Z"/>
        <path class="cls-5" d="M22.47,45.43h-3.65l-.14-6.48-1.48,6.48h-3.2l-1.48-6.48-.13,6.48h-3.65l.65-11.32h4.77l1.43,6.15,1.45-6.15h4.77l.66,11.32Z"/>
        <path class="cls-5" d="M33.73,40.6c0,1.81-.41,2.87-1.23,3.69-.82.82-2.14,1.33-3.95,1.33s-3.12-.51-3.94-1.33c-.82-.82-1.24-1.89-1.24-3.69v-6.48h3.74v6.64c0,.67.13.98.37,1.23.25.25.58.41,1.07.41s.82-.16,1.07-.41c.25-.25.36-.57.36-1.23v-6.64h3.75v6.48h0Z"/>
        <path class="cls-5" d="M41.54,44.66c-.9.69-2.04.97-3.35.97s-2.83-.36-4.38-1.51l1.65-2.79c1.05.89,2.53,1.23,3.03,1.23s.83-.15.83-.47-.41-.46-.82-.59c-.41-.11-1.31-.41-1.64-.53-.33-.13-.99-.35-1.56-.84-.58-.49-1.04-1.18-1.04-2.41s.64-2.18,1.32-2.74c.69-.57,1.82-.98,3.33-.98s3.06.54,4.05,1.36l-1.42,2.62c-.85-.76-2.1-1.08-2.69-1.08s-.93.12-.93.46.53.44.79.53c.27.08.96.28,1.35.41.4.13,1.32.46,1.89.95.58.49,1.07,1.26,1.07,2.46s-.57,2.25-1.48,2.95"/>
        <path class="cls-5" d="M54.2,45.43h-3.71v-4.18h-3.09v4.18h-3.72v-11.32h3.72v4.1h3.09v-4.1h3.71v11.32Z"/>
        <path class="cls-5" d="M65.8,45.43h-4.28l-1.81-3.77h-.47v3.77h-3.72v-11.32h4.93c1.4,0,2.47.25,3.29.82.82.57,1.4,1.56,1.4,2.79,0,2.3-1.4,3.12-1.89,3.41l2.55,4.3h0ZM60.98,37.12c-.16-.13-.41-.21-.82-.21h-.94v1.97h.94c.41,0,.68-.08.82-.2.18-.13.41-.3.41-.79s-.24-.66-.41-.77"/>
        <path class="cls-5" d="M71.72,45.63c-3.54,0-6.17-2.15-6.17-5.84s2.63-5.86,6.17-5.86,6.17,2.16,6.17,5.86-2.63,5.84-6.17,5.84ZM71.72,37.07c-1.48,0-2.43,1.08-2.43,2.64s.95,2.64,2.43,2.64,2.42-1.08,2.42-2.64-.94-2.64-2.42-2.64Z"/>
        <path class="cls-5" d="M84.38,45.63c-3.53,0-6.16-2.15-6.16-5.84s2.63-5.86,6.16-5.86,6.17,2.16,6.17,5.86-2.63,5.84-6.17,5.84ZM84.38,37.07c-1.48,0-2.43,1.08-2.43,2.64s.95,2.64,2.43,2.64,2.42-1.08,2.42-2.64-.94-2.64-2.42-2.64Z"/>
        <path class="cls-5" d="M104.77,45.43h-3.65l-.13-6.48-1.48,6.48h-3.2l-1.49-6.48-.13,6.48h-3.65l.66-11.32h4.77l1.43,6.15,1.45-6.15h4.77l.65,11.32Z"/>
        <path class="cls-5" d="M17.71,58.25c-1.05.8-2.5,1.2-4.43,1.2h-4.18v-11.07h4.18c1.93,0,3.38.4,4.43,1.2,1.04.8,1.85,2.08,1.85,4.33s-.81,3.53-1.85,4.33M15.25,51.92c-.33-.32-.89-.56-1.69-.56h-.84v5.05h.84c.8,0,1.36-.24,1.69-.56.32-.32.64-.8.64-1.93s-.31-1.68-.64-2"/>
        <path class="cls-5" d="M23.99,48.39h-3.63v11.07h3.63v-11.07Z"/>
        <path class="cls-5" d="M32.03,58.7c-.88.67-1.99.95-3.28.95s-2.76-.35-4.27-1.47l1.61-2.73c1.02.87,2.47,1.2,2.96,1.2s.82-.14.82-.47-.41-.45-.81-.58c-.4-.11-1.28-.4-1.61-.51-.32-.13-.96-.34-1.52-.82-.56-.48-1.01-1.16-1.01-2.36s.62-2.13,1.28-2.68c.68-.56,1.79-.96,3.27-.96s2.99.53,3.95,1.33l-1.38,2.57c-.84-.74-2.06-1.06-2.64-1.06s-.9.11-.9.45.52.43.77.51c.26.08.94.27,1.32.4.39.13,1.29.45,1.85.93.57.48,1.05,1.24,1.05,2.41s-.56,2.2-1.45,2.89"/>
        <path class="cls-5" d="M42.04,55.13c-.81.64-1.88.88-3.09.88h-1.19v3.45h-3.64v-11.07h4.83c1.21,0,2.28.24,3.09.88.8.64,1.25,1.6,1.25,2.94s-.45,2.28-1.25,2.92M39.22,51.32c-.24-.18-.48-.21-.88-.21h-.6v2.16h.6c.4,0,.64-.03.88-.19.26-.18.4-.45.4-.88s-.16-.72-.4-.88"/>
        <path class="cls-5" d="M51.89,59.46h-8.04v-11.07h7.88v2.86h-4.26v1.2h4.02v2.84h-4.02v1.28h4.42v2.89Z"/>
        <path class="cls-5" d="M63.47,59.46h-3.78l-3.37-6.17s.08,1.2.08,2v4.17h-3.54v-11.07h3.94l3.21,6.17s-.08-1.2-.08-2v-4.17h3.54v11.07Z"/>
        <path class="cls-5" d="M71.51,58.7c-.88.67-1.99.95-3.28.95s-2.76-.35-4.27-1.47l1.6-2.73c1.03.87,2.48,1.2,2.96,1.2s.83-.14.83-.47-.41-.45-.81-.58c-.4-.11-1.28-.4-1.61-.51-.32-.13-.96-.34-1.52-.82-.57-.48-1.02-1.16-1.02-2.36s.63-2.13,1.29-2.68c.67-.56,1.78-.96,3.27-.96s2.99.53,3.95,1.33l-1.38,2.57c-.84-.74-2.06-1.06-2.64-1.06s-.9.11-.9.45.52.43.77.51c.26.08.94.27,1.32.4.39.13,1.29.45,1.85.93.56.48,1.05,1.24,1.05,2.41s-.56,2.2-1.45,2.89"/>
        <path class="cls-5" d="M84.14,59.46h-3.94l-.44-1.56h-3.17l-.41,1.56h-3.78l3.86-11.07h4.02l3.86,11.07ZM79.01,55.13l-.83-2.97-.82,2.97h1.65Z"/>
        <path class="cls-5" d="M94.51,59.46h-4.18l-1.77-3.69h-.47v3.69h-3.63v-11.07h4.82c1.37,0,2.41.24,3.22.8.8.56,1.36,1.52,1.36,2.73,0,2.25-1.36,3.05-1.85,3.34l2.49,4.2h.01ZM89.8,51.32c-.17-.13-.41-.21-.81-.21h-.91v1.93h.91c.4,0,.66-.08.81-.19.17-.13.4-.29.4-.77s-.25-.64-.4-.75Z"/>
        <path class="cls-5" d="M104.64,48.39l-3.86,6.74v4.33h-3.64v-4.33l-3.84-6.74h4.02l1.64,3.74,1.66-3.74h4.02Z"/>
        <g class="cls-4">
          <path class="cls-5" d="M113.24,60.88v-1.93l-.03-5.15-.12-20.62-.07-10.31-.03-5.15v-.32s-.01-.16-.01-.16v-.17s-.05-.69-.05-.69c-.02-.23-.06-.45-.1-.68-.02-.11-.03-.23-.06-.34l-.08-.33c-.1-.45-.28-.87-.44-1.3l-.31-.62c-.04-.1-.1-.2-.16-.3l-.18-.29c-.06-.1-.12-.2-.18-.29l-.21-.27c-.14-.18-.27-.37-.43-.53-.16-.17-.31-.34-.47-.5l-.51-.46c-.7-.58-1.49-1.06-2.33-1.42-.85-.34-1.75-.55-2.66-.64l-.68-.03c-.22,0-.43,0-.65,0h-1.29s-10.34.06-10.34.06c-9.78.04-19.56.05-29.35.05-.02.24-.12.47-.38.63-.09.06-.19.1-.29.15,10,0,20,0,30,.04l10.34.05h1.29c.21,0,.44,0,.64.01l.61.03c.81.09,1.6.28,2.34.59.74.32,1.44.76,2.05,1.28l.45.41c.14.15.27.3.41.45.14.14.24.32.37.47l.18.24c.06.08.11.17.16.26l.15.26c.06.09.11.17.15.26l.26.54c.13.38.29.75.37,1.14l.07.29c.03.09.04.2.05.3.03.2.07.4.09.6l.02.6v.15s.01.48.01.48l-.04,5.15-.07,10.31-.12,20.62-.03,5.15v1.93s0,.32,0,.32c0,.11-.01.2-.01.3,0,.2-.02.39-.04.58l-.09.57-.02.14-.04.14-.07.28-.08.28c-.03.09-.07.18-.1.27l-.1.27c-.03.09-.06.18-.11.27l-.25.52c-.21.33-.39.67-.64.97-.47.61-1.02,1.16-1.66,1.6-.64.43-1.33.79-2.07,1.02-.74.22-1.5.33-2.27.34h-.01c-13.78-.05-27.56-.14-41.34-.13l-20.67.05-20.67.08-10.34.05h-1.29s-.32,0-.32,0c-.11,0-.23,0-.32,0l-.58-.03c-.77-.07-1.53-.24-2.25-.53-.72-.3-1.39-.71-1.99-1.2l-.43-.39c-.14-.14-.27-.28-.4-.43-.14-.14-.25-.3-.37-.45l-.17-.23c-.06-.08-.11-.16-.16-.25l-.15-.25c-.05-.08-.11-.16-.14-.25l-.26-.52c-.14-.36-.29-.72-.38-1.1l-.07-.28c-.03-.09-.04-.19-.05-.29-.03-.19-.07-.39-.09-.58l-.03-.58v-.15s0-.48,0-.48l-.09-15.46-.1-20.62-.03-5.15v-1.93c0-.22,0-.43,0-.63.02-.2.02-.4.04-.6l.09-.6.02-.15.04-.15.07-.29.07-.29c.03-.09.07-.19.1-.28l.1-.28c.04-.09.07-.19.12-.28l.26-.55c.2-.34.4-.7.65-1.01.49-.64,1.06-1.23,1.72-1.69.66-.46,1.39-.84,2.16-1.09.77-.24,1.58-.36,2.39-.38,13.79-.06,27.57-.09,41.35-.1.25,0,.5,0,.75,0-.23-.18-.36-.45-.32-.76-.14,0-.28,0-.42,0-13.78-.01-27.57-.05-41.35-.1-.91.01-1.82.14-2.69.41-.87.27-1.7.69-2.45,1.21-.75.51-1.4,1.17-1.96,1.89-.29.35-.52.75-.75,1.14l-.3.62c-.06.1-.09.21-.14.32l-.12.32c-.04.11-.08.21-.11.32l-.09.33-.09.33-.04.17-.03.17-.1.68c-.03.23-.03.46-.05.68-.02.24-.01.45-.02.66v1.93l-.03,5.15-.1,20.62-.06,10.31-.03,5.15v.66s.04.7.04.7c.02.23.06.47.09.7.02.12.03.24.06.35l.09.34c.1.46.28.9.44,1.34l.3.64c.05.11.11.21.17.31l.18.3c.06.1.12.2.19.3l.21.28c.14.19.27.39.44.55.15.18.31.35.47.52l.52.48c.72.61,1.53,1.11,2.4,1.49.88.37,1.81.59,2.75.68l.71.04c.12,0,.22,0,.33,0h1.61s10.34.05,10.34.05l20.67.08,20.67.05c13.78.02,27.57-.07,41.35-.13h0c.95-.02,1.9-.16,2.81-.45.91-.3,1.76-.74,2.54-1.28.78-.54,1.45-1.23,2.02-1.98.29-.37.53-.78.77-1.19l.3-.64c.06-.1.09-.22.13-.33l.13-.33c.04-.11.08-.22.11-.33l.09-.34.09-.34.04-.17.03-.18.1-.7c.02-.24.03-.47.04-.71,0-.11,0-.24,0-.35v-.32Z"/>
        </g>
        <g class="cls-2">
          <path class="cls-5" d="M102.41,66.8c-12.85.04-25.69.11-38.54.1l-19.27-.04-19.27-.06-9.63-.03-4.82-.02c-.1,0-.21,0-.32-.01l-.33-.02c-.22,0-.44-.05-.65-.08-.11-.02-.22-.03-.33-.05l-.32-.08-.32-.08c-.1-.03-.21-.07-.31-.11-.83-.3-1.6-.74-2.27-1.31-1.35-1.12-2.24-2.76-2.5-4.48l-.04-.32c-.02-.11-.02-.22-.02-.32-.01-.21-.03-.45-.02-.64v-3.6s.06-9.61.06-9.61l.08-19.22.02-4.81v-2.4s.01-1.2.01-1.2v-.3l.02-.32.02-.32c0-.11.03-.21.04-.32.12-.84.39-1.66.79-2.41.42-.74.96-1.41,1.6-1.97.65-.55,1.39-.99,2.19-1.28.79-.3,1.64-.44,2.49-.45,12.84.04,25.69.07,38.53.08,12.85.01,25.7,0,38.55-.04l9.63-.04,4.82-.02c.84,0,1.7.12,2.5.41.8.28,1.55.71,2.21,1.25,1.32,1.08,2.21,2.67,2.47,4.35l.05.32c.01.11.01.21.02.32,0,.21.03.43.03.63v1.2l.02,2.4.05,9.61.09,19.22.02,4.81.02,2.4v1.83s-.03.33-.03.33c0,.11-.03.22-.04.33-.12.87-.39,1.72-.8,2.5-.43.77-.98,1.47-1.65,2.05-.66.58-1.43,1.04-2.26,1.35-.83.31-1.71.48-2.6.49M102.41,65.41c1.45,0,2.88-.52,3.97-1.47.55-.47,1.01-1.04,1.36-1.67.35-.64.58-1.33.68-2.05,0-.09.03-.18.04-.27v-.27s.02-.27.02-.27v-1.5s.02-2.4.02-2.4l.02-4.81.1-19.22.05-9.61.02-2.4v-1.2c.01-.21-.01-.38-.02-.57,0-.09,0-.19-.01-.28l-.04-.28c-.22-1.48-.99-2.88-2.14-3.85-.57-.49-1.24-.87-1.95-1.12-.71-.26-1.45-.38-2.22-.38l-4.82-.02-9.63-.04c-12.85-.04-25.7-.05-38.55-.04-12.84,0-25.69.03-38.54.08-1.51.01-3.02.58-4.15,1.58-.57.5-1.05,1.1-1.41,1.76-.35.66-.58,1.39-.68,2.14-.01.09-.04.18-.04.28v.28s-.02.28-.02.28v3.9s.03,4.81.03,4.81l.08,19.22.05,9.61v2.4s.01,1.2.01,1.2c0,.21.02.38.03.56,0,.09,0,.18,0,.27l.05.27c.22,1.44.98,2.79,2.11,3.72.56.47,1.2.83,1.89,1.07.09.03.17.06.26.09l.26.07.27.07c.09.02.18.03.27.04.17.02.35.06.54.06h.27c.09.01.18.02.28.02l4.82-.02,9.63-.03,19.27-.06,19.28-.04c12.84-.01,25.69.06,38.54.1"/>
        </g>
      </g>
      <path class="cls-1" d="M56.17,15.64c-.06,0-.13,0-.19,0-2.02-.13-2.26-2.13-1.78-3.72.15-.49.37-.95.6-1.4-1.71-.07-3.85-.55-4.47-2.36s.48-3.81,1.48-5.18c1.29-1.76,3.06-3.55,5.46-2.8,1.5.46,2.92,1.92,3.9,3.1.86,1.02,2.04,2.66,1.92,4.06-.19,2.07-2.5,2.76-4.22,3.09-.02.03.05.46.06.53.19,1.93-.41,4.55-2.75,4.69ZM62.37,6.15c-.46-1.25-1.35-2.34-2.24-3.31-1.59-1.72-3.63-3.3-5.94-1.69-2.1,1.47-5.53,6.64-1.96,8.29.58.27,1.32.42,1.95.48.3.03.6.03.9.05.05-.01.36-.78.32-.82-.88-.08-1.83-.22-2.65-.58-.55-.24-1.29-.76-.87-1.44.48-.79,2.37-1.12,3.23-1.21,1.59-.17,4.39-.1,5.78.75,1.05.65.68,1.41-.27,1.86-.65.31-1.37.44-2.07.55l.17.78c1.14-.23,2.55-.54,3.34-1.46.17-.2.41-.61.44-.87.01-.12-.07-.28-.12-.39-.92-2.05-3.28-2.61-5.34-2.69l-.27-.03c1.74-.08,3.7.08,5.09,1.24.17.15.33.32.49.48ZM55.3,6.26s-.06.02-.09.04c-.2.21-.48.65-.66.91-.19.28-.39.57-.57.86-.03.05-.29.45-.27.47.03,0,.11.03.14.01,0,0,.09-.17.1-.2.15-.26.31-.51.47-.77l.88-1.32ZM60.72,8.12s0-.04-.03-.05c-.07-.08-.2-.19-.29-.27-.25-.23-.51-.46-.78-.69-.24-.2-.66-.59-.92-.74-.04-.02-.09-.05-.14-.04.69.58,1.37,1.17,2.01,1.81.04.04.08-.01.13-.02ZM54.67,6.34c-.06,0-.1.03-.14.06-.27.21-.64.63-.89.89-.23.24-.47.51-.69.76-.03.04-.09.1-.11.13-.05.07.09.1.12.05.53-.66,1.12-1.28,1.71-1.89ZM59.86,8.47s-.24-.34-.28-.39c-.46-.58-.96-1.15-1.48-1.68,0,.06.02.09.05.13.23.3.52.59.77.89.29.35.56.71.82,1.09l.12-.03ZM53.73,6.53c-.07,0-.13.03-.19.06-.32.19-.83.62-1.12.88-.03.03-.22.18-.23.19-.03.05.02.08.03.12l1.51-1.25ZM59.66,6.57l1.54,1.03s.02-.09,0-.12c-.01-.02-.33-.23-.38-.27-.33-.23-.68-.47-1.04-.63h-.12ZM55.56,6.66s-.03.01-.04.03c-.02.03-.03.06-.05.09-.3.62-.54,1.29-.8,1.92,0,.06.12.06.13.01.12-.33.23-.66.36-.99.11-.28.32-.69.38-.96.01-.04.02-.08.01-.12ZM58.24,7.44v.02s.01-.01,0-.02ZM58.92,8.69s0-.03,0-.05c-.07-.18-.24-.45-.34-.62-.1-.18-.21-.38-.33-.55,0,.08.02.17.04.24l.5.99.14-.02ZM57.84,8c-.46-.07-.97-.09-1.43.02-.05.01-.26.07-.28.11-.02.75-.18,1.48-.49,2.16-.5,1.12-1.1,2.02-.92,3.34.21,1.6,2.03,1.6,2.83.49,1.13-1.56.63-3.67.37-5.41-.03-.23-.06-.47-.09-.7Z"/>
    </g>
  </g>
</svg>