<?xml version="1.0" encoding="UTF-8"?>
<svg id="Layer_2" data-name="Layer 2" xmlns="http://www.w3.org/2000/svg" xmlns:xlink="http://www.w3.org/1999/xlink" viewBox="0 0 134.55 96.96">
  <defs>
    <style>
      .cls-1 {
        fill: url(#radial-gradient-10);
      }

      .cls-2 {
        fill: url(#radial-gradient-9);
      }

      .cls-3 {
        fill: url(#radial-gradient-14);
      }

      .cls-4 {
        fill: url(#radial-gradient-5);
      }

      .cls-5 {
        fill: url(#radial-gradient);
      }

      .cls-6 {
        fill: url(#radial-gradient-3);
      }

      .cls-7 {
        fill: url(#radial-gradient-11);
      }

      .cls-8 {
        fill: url(#radial-gradient-8);
      }

      .cls-9 {
        fill: url(#radial-gradient-2);
      }

      .cls-10 {
        fill: url(#radial-gradient-4);
      }

      .cls-11 {
        fill: url(#radial-gradient-12);
      }

      .cls-12 {
        fill: url(#radial-gradient-15);
      }

      .cls-13 {
        fill: url(#radial-gradient-6);
      }

      .cls-14 {
        fill: url(#radial-gradient-7);
      }

      .cls-15 {
        fill: url(#radial-gradient-13);
      }
    </style>
    <radialGradient id="radial-gradient" cx="8.1" cy="67.74" fx="8.1" fy="67.74" r="8.26" gradientUnits="userSpaceOnUse">
      <stop offset=".51" stop-color="#8a5fb1"/>
      <stop offset="1" stop-color="#8a5fb1"/>
    </radialGradient>
    <radialGradient id="radial-gradient-2" cx="24.13" cy="67.77" fx="24.13" fy="67.77" r="8.09" xlink:href="#radial-gradient"/>
    <radialGradient id="radial-gradient-3" cx="38.8" fx="38.8" r="7.27" xlink:href="#radial-gradient"/>
    <radialGradient id="radial-gradient-4" cx="54.58" cy="67.84" fx="54.58" fy="67.84" r="8.03" xlink:href="#radial-gradient"/>
    <radialGradient id="radial-gradient-5" cx="70.11" fx="70.11" r="8.04" xlink:href="#radial-gradient"/>
    <radialGradient id="radial-gradient-6" cx="86.97" cy="67.84" fx="86.97" fy="67.84" r="8.03" xlink:href="#radial-gradient"/>
    <radialGradient id="radial-gradient-7" cx="102.92" fx="102.92" xlink:href="#radial-gradient"/>
    <radialGradient id="radial-gradient-8" cx="122.62" fx="122.62" r="9.78" xlink:href="#radial-gradient"/>
    <radialGradient id="radial-gradient-9" cx="25.96" cy="88.65" fx="25.96" fy="88.65" r="7.55" xlink:href="#radial-gradient"/>
    <radialGradient id="radial-gradient-10" cx="42.08" cy="88.55" fx="42.08" fy="88.55" r="8.12" xlink:href="#radial-gradient"/>
    <radialGradient id="radial-gradient-11" cx="58.57" cy="88.65" fx="58.57" fy="88.65" r="8.1" xlink:href="#radial-gradient"/>
    <radialGradient id="radial-gradient-12" cx="75.02" cy="88.55" fx="75.02" fy="88.55" r="8.12" xlink:href="#radial-gradient"/>
    <radialGradient id="radial-gradient-13" cx="91.22" cy="88.65" fx="91.22" fy="88.65" r="7.9" xlink:href="#radial-gradient"/>
    <radialGradient id="radial-gradient-14" cx="106.99" cy="88.55" fx="106.99" fy="88.55" r="8.12" xlink:href="#radial-gradient"/>
    <radialGradient id="radial-gradient-15" cx="67.34" cy="25.96" fx="67.34" fy="25.96" r="50.95" xlink:href="#radial-gradient"/>
  </defs>
  <g id="Layer_4" data-name="Layer 4">
    <g>
      <g>
        <path class="cls-5" d="M16.21,67.78c0,2.42-.77,4.42-2.31,6-1.54,1.58-3.49,2.37-5.87,2.37s-4.29-.79-5.79-2.37c-1.5-1.58-2.25-3.61-2.25-6.1,0-2.73.82-4.81,2.46-6.26,1.56-1.39,3.46-2.08,5.69-2.08s4.25.8,5.77,2.39c1.52,1.59,2.28,3.61,2.28,6.05ZM12.62,67.83c0-2.14-.41-3.83-1.23-5.08-.82-1.25-1.93-1.88-3.33-1.88s-2.42.63-3.24,1.88c-.82,1.25-1.23,2.9-1.23,4.94s.41,3.75,1.24,5.02c.83,1.28,1.92,1.91,3.28,1.91s2.45-.62,3.28-1.86c.83-1.24,1.24-2.88,1.24-4.92Z"/>
        <path class="cls-9" d="M32.27,60.87l-1.55.31-5.31,14.63h-2.41l-5.43-14.63-1.58-.31v-1.15h6.57v1.15l-1.38.14-.26.35,3.97,10.9,3.83-10.9-.26-.37-1.43-.12v-1.15h5.24v1.15Z"/>
        <path class="cls-6" d="M45.23,75.76h-12.86v-1.17l1.43-.12.38-.38v-12.74l-.38-.33-1.43-.12v-1.17h12.07v3.78h-1.67l-.36-2.1-.31-.31h-4.74v5.67h3.09l.33-.33.24-1.72h1.4v5.55h-1.4l-.24-1.72-.33-.33h-3.09v6.22h5.53l.31-.38.41-2.53h1.62v4.28Z"/>
        <path class="cls-10" d="M62.52,75.76c-.99.13-1.73.19-2.22.19-1.32,0-2.35-.37-3.08-1.1-.52-.53-.98-1.43-1.36-2.71-.46-1.55-1.03-2.53-1.69-2.95-.54-.34-1.21-.5-2-.5-.19,0-.37,0-.52.02v5.38l.38.38,1.46.14v1.15h-6.84v-1.15l1.43-.12.38-.38v-12.77l-.38-.34-1.43-.12v-1.17h7.34c3.75,0,5.62,1.35,5.62,4.05,0,2.22-1.37,3.6-4.11,4.14,1.02.26,1.77.65,2.26,1.19.49.54.92,1.45,1.3,2.74.35,1.2.73,1.96,1.15,2.3.41.34,1.19.5,2.32.48v1.15ZM56.25,64.16c0-2.05-1.17-3.07-3.52-3.07h-1.09v6.24h.9c2.47,0,3.71-1.06,3.71-3.17Z"/>
        <path class="cls-4" d="M77.87,69.02l-1.39.14-.38.33v5.57c-1.98.65-3.74.98-5.28.98-2.52,0-4.56-.77-6.12-2.32-1.56-1.55-2.34-3.56-2.34-6.05s.79-4.5,2.38-6c1.59-1.5,3.7-2.25,6.35-2.25,1.5,0,3.17.27,5.02.81v4.06h-1.75l-.45-2.53-.36-.43c-.65-.25-1.33-.38-2.03-.38-1.77,0-3.16.59-4.18,1.78-1.02,1.19-1.53,2.81-1.53,4.87,0,2.17.53,3.85,1.58,5.04,1.05,1.2,2.54,1.79,4.47,1.79.22,0,.62-.02,1.2-.07v-4.9l-.38-.34-1.77-.12v-1.15h6.98v1.15Z"/>
        <path class="cls-13" d="M94.91,75.76c-.99.13-1.73.19-2.22.19-1.32,0-2.35-.37-3.08-1.1-.52-.53-.98-1.43-1.36-2.71-.46-1.55-1.03-2.53-1.69-2.95-.54-.34-1.21-.5-2-.5-.19,0-.37,0-.52.02v5.38l.38.38,1.46.14v1.15h-6.84v-1.15l1.43-.12.38-.38v-12.77l-.38-.34-1.43-.12v-1.17h7.34c3.75,0,5.62,1.35,5.62,4.05,0,2.22-1.37,3.6-4.11,4.14,1.02.26,1.77.65,2.26,1.19.49.54.92,1.45,1.3,2.74.35,1.2.73,1.96,1.15,2.3.41.34,1.19.5,2.32.48v1.15ZM88.65,64.16c0-2.05-1.17-3.07-3.52-3.07h-1.09v6.24h.9c2.47,0,3.71-1.06,3.71-3.17Z"/>
        <path class="cls-14" d="M111.03,67.78c0,2.42-.77,4.42-2.31,6-1.54,1.58-3.49,2.37-5.87,2.37s-4.29-.79-5.79-2.37c-1.5-1.58-2.25-3.61-2.25-6.1,0-2.73.82-4.81,2.46-6.26,1.56-1.39,3.46-2.08,5.69-2.08s4.25.8,5.77,2.39c1.52,1.59,2.28,3.61,2.28,6.05ZM107.44,67.83c0-2.14-.41-3.83-1.23-5.08-.82-1.25-1.93-1.88-3.33-1.88s-2.42.63-3.24,1.88c-.82,1.25-1.23,2.9-1.23,4.94s.41,3.75,1.24,5.02c.83,1.28,1.92,1.91,3.28,1.91s2.45-.62,3.28-1.86c.83-1.24,1.24-2.88,1.24-4.92Z"/>
        <path class="cls-8" d="M133.88,60.89l-1.51.33-3.66,14.54h-2.31l-3.71-12.23-3.64,12.23h-2.33l-3.87-14.54-1.51-.33v-1.17h6.26v1.15l-1.48.17-.19.33,2.67,9.94,3.45-11.59h2.42l3.53,11.79,2.52-10-.29-.33-1.57-.29v-1.17h5.21v1.17Z"/>
        <path class="cls-2" d="M32.68,96.1c-1.74.57-3.41.86-5.02.86-2.44,0-4.42-.75-5.95-2.25-1.64-1.61-2.46-3.63-2.46-6.07s.79-4.45,2.38-5.99c1.59-1.54,3.65-2.31,6.18-2.31,1.58,0,3.2.29,4.88.88v3.99h-1.77l-.45-2.56-.33-.41c-.64-.25-1.29-.38-1.96-.38-1.61,0-2.9.61-3.87,1.83-.97,1.22-1.46,2.85-1.46,4.89s.5,3.77,1.51,5c1,1.23,2.37,1.84,4.09,1.84.53,0,1.05-.06,1.58-.19l.36-.36.6-2.89h1.72v4.11Z"/>
        <path class="cls-1" d="M50.21,96.67h-6.45v-1.17l1.51-.14.17-.31-1.43-4.06h-5.24l-1.42,4.04.24.31,1.51.17v1.17h-5.14v-1.17l1.43-.22,5.4-14.84h2.51l5.5,14.82,1.41.24v1.17ZM43.41,89.62l-2.11-5.9-2.07,5.9h4.19Z"/>
        <path class="cls-7" d="M66.75,81.75l-1.41.19-.41.45v14.27h-2.66l-8.29-12.82v11.05l.38.43,1.48.17v1.17h-5.45v-1.17l1.41-.17.43-.43v-12.65l-.33-.33-1.51-.12v-1.17h5.45v.65l7.34,11.36v-10.23l-.43-.45-1.46-.19v-1.12h5.45v1.12Z"/>
        <path class="cls-11" d="M83.15,96.67h-6.46v-1.17l1.51-.14.17-.31-1.43-4.06h-5.24l-1.42,4.04.24.31,1.51.17v1.17h-5.14v-1.17l1.43-.22,5.4-14.84h2.51l5.5,14.82,1.41.24v1.17ZM76.36,89.62l-2.11-5.9-2.07,5.9h4.19Z"/>
        <path class="cls-15" d="M99,88.56c0,1.72-.36,3.22-1.09,4.49-.73,1.28-1.76,2.22-3.1,2.84-1.1.51-2.57.76-4.42.76h-6.96v-1.17l1.43-.12.38-.38v-12.69l-.38-.38-1.43-.12v-1.17h6.96c2.71,0,4.82.7,6.34,2.09,1.51,1.39,2.27,3.34,2.27,5.85ZM95.41,88.59c0-4.4-1.87-6.6-5.6-6.6h-1.38v13.32h1.38c3.73,0,5.6-2.24,5.6-6.72Z"/>
        <path class="cls-3" d="M115.11,96.67h-6.45v-1.17l1.51-.14.17-.31-1.43-4.06h-5.24l-1.42,4.04.24.31,1.51.17v1.17h-5.14v-1.17l1.43-.22,5.4-14.84h2.51l5.5,14.82,1.41.24v1.17ZM108.32,89.62l-2.11-5.9-2.07,5.9h4.19Z"/>
      </g>
      <path class="cls-12" d="M134.04,50.93h-27.48l.11-.08-6.84-3.43,5.95-16.38-14.61,4.13-1.65-8.59-7.43,12.79c-.08.15-.26.29-.48.29-.39,0-.77-.35-.87-.79-.04-.17,0-.33.05-.44l8.59-25.88-10.67,3.41L67.94,0l-10.87,16.05-10.65-3.36,8.21,26.01.04.12c.09.5-.19.96-.67.96-.36,0-.72-.27-.92-.64l-7.37-12.42-1.7,8.59-14.55-4,5.86,16.33-6.49,3.29H.64c-.28,0-.51.23-.51.51s.23.48.51.48c0,0,60.16,0,60.24-.05h2.63c-3.92-2.84-2.88-10.46-1.47-10.4.92.25,2.26,1.67,3.43,2.96-1.68-3.82.51-8.04,2.72-10.03,2.36-2.12-.2-5.27-1.74-5.61-1.54-.35-3.21,1.13-1.99-.18.64-.86,1.57-1.15,2.56-1.06.1-.62.13-1.35.13-1.35,0,0-.83,1.52-2.45,1.25-.07-.67,1.7-1.53,2.18-1.64-.73.23-4.88.66-6.04-.54.52-.47,2.36-.92,6.04.09,0,0-2.33-.64-4.34-2.03s-1.96-3.89-1.96-3.89c1.12.26,3.98,1.06,6.45,5.44,0,0-3.1-5.37.71-11.24,2.98,5.1.62,10.15.14,11.07,2.31-4.32,5.1-5.19,6.19-5.48,0,0,.13,2.5-1.84,3.95-1.97,1.45-4.27,2.17-4.27,2.17,3.65-1.12,5.5-.73,6.04-.28-1.09,1.2-5.03.96-5.94.75.57.16,2.2.91,2.15,1.56-1.61.33-2.49-1.17-2.49-1.17-.09.2-.01.96.07,1.49,1.87.5,3.79,2.11,4.37,3.56,1.1,2.74-3.11,6.93-3.95,9.24-.6,1.65.42,3.3,1.05,4.1,1.77-2.22,3.18-2.68,3.18-2.68,2.97,2.29,2.42,6.35,2.42,6.35-.35,1.82-1.11,2.94-1.98,3.63h61.14c.28,0,.51-.14.51-.42s-.23-.51-.51-.51Z"/>
    </g>
  </g>
</svg>