<?xml version="1.0" encoding="UTF-8"?>
<svg id="Layer_2" data-name="Layer 2" xmlns="http://www.w3.org/2000/svg" xmlns:xlink="http://www.w3.org/1999/xlink" viewBox="0 0 67.25 77.7">
  <defs>
    <style>
      .cls-1 {
        fill: url(#radial-gradient-10);
      }

      .cls-2 {
        fill: url(#radial-gradient-9);
      }

      .cls-3 {
        fill: url(#radial-gradient-5);
      }

      .cls-4 {
        fill: url(#radial-gradient);
      }

      .cls-5 {
        fill: url(#radial-gradient-3);
      }

      .cls-6 {
        fill: url(#radial-gradient-8);
      }

      .cls-7 {
        fill: url(#radial-gradient-2);
      }

      .cls-8 {
        fill: url(#radial-gradient-4);
      }

      .cls-9 {
        fill: url(#radial-gradient-6);
      }

      .cls-10 {
        fill: url(#radial-gradient-7);
      }
    </style>
    <radialGradient id="radial-gradient" cx="33.63" cy="7.33" fx="33.63" fy="7.33" r="108.95" gradientUnits="userSpaceOnUse">
      <stop offset=".51" stop-color="#8a5fb1"/>
      <stop offset="1" stop-color="#8a5fb1"/>
    </radialGradient>
    <radialGradient id="radial-gradient-2" cx="33.63" cy="7.33" fx="33.63" fy="7.33" r="108.95" xlink:href="#radial-gradient"/>
    <radialGradient id="radial-gradient-3" cx="33.63" cy="7.33" fx="33.63" fy="7.33" r="108.95" xlink:href="#radial-gradient"/>
    <radialGradient id="radial-gradient-4" cx="33.63" cy="7.33" fx="33.63" fy="7.33" r="108.95" xlink:href="#radial-gradient"/>
    <radialGradient id="radial-gradient-5" cx="33.63" cy="7.33" fx="33.63" fy="7.33" r="108.95" xlink:href="#radial-gradient"/>
    <radialGradient id="radial-gradient-6" cx="33.63" cy="7.33" fx="33.63" fy="7.33" r="108.95" xlink:href="#radial-gradient"/>
    <radialGradient id="radial-gradient-7" cx="33.63" cy="7.33" fx="33.63" fy="7.33" r="108.95" xlink:href="#radial-gradient"/>
    <radialGradient id="radial-gradient-8" cx="33.63" cy="7.33" fx="33.63" fy="7.33" r="108.95" xlink:href="#radial-gradient"/>
    <radialGradient id="radial-gradient-9" cx="33.63" cy="7.33" fx="33.63" fy="7.33" r="108.95" xlink:href="#radial-gradient"/>
    <radialGradient id="radial-gradient-10" cx="33.63" cy="7.33" fx="33.63" fy="7.33" r="108.95" xlink:href="#radial-gradient"/>
  </defs>
  <g id="Layer_4" data-name="Layer 4">
    <g>
      <path class="cls-4" d="M15.53,59.44c1.49-1.79,3.37-2.76,5.63-3.1,2.27-.34,4.31.2,6.27,1.42,0-.59-.02-1.15,0-1.71.03-.7.03-1.41.15-2.1.2-1.15,1.24-1.74,2.1-1.78,1-.05,2-.05,3-.06.57,0,1.13-.03,1.69.02,1.59.15,2.42,1.07,2.5,2.71.02.53,0,1.07.01,1.6,0,.12.09.31.18.35,1.28.53,1.8,1.28,1.8,2.67,0,1.27,0,2.54,0,3.82,0,.17.02.35.03.57,1.93-1.06,3.86-1.09,5.84-.03.02-.23.04-.42.04-.6,0-2.79-.01-5.59,0-8.38,0-.97.28-1.89,1.25-2.34.51-.23,1.1-.34,1.67-.36,1.27-.05,2.54-.04,3.82,0,1.06.03,1.99.38,2.42,1.45.19.48.23,1.03.29,1.56.04.42,0,.84,0,1.3.18.01.34.04.5.04.83,0,1.65.02,2.48,0,.66-.02,1.3.09,1.92.29.13.04.3.04.43,0,.64-.2,1.28-.3,1.96-.29,1.01.02,2.02,0,3.03.02.32,0,.65.06.96.15,1.33.39,2.06,1.75,1.61,3.07-.31.91-.72,1.79-1.11,2.67-1.4,3.14-2.82,6.28-4.23,9.41-.12.26-.24.51-.38.75-.92,1.58-3.35,1.59-4.27.03-.21-.36-.37-.76-.56-1.14-.07-.14-.13-.27-.24-.48-.07.21-.13.35-.15.49-.14,1.04-.93,1.88-2.17,2-2.15.21-4.11-.37-5.86-1.63-.5-.36-.94-.8-1.43-1.22-.84,1.45-1.94,2.52-3.68,2.89-1.7.36-3.17-.02-4.58-.95-.02.01-.06.03-.09.06-.78.83-1.8.99-2.85.9-2.12-.19-4.04-.89-5.6-2.41-.25-.24-.46-.51-.72-.79-1.77,2.14-4.04,3.26-6.83,3.26-2.79,0-5.07-1.09-6.8-3.17-.7.6-1.35,1.22-2.07,1.77-1.08.83-2.39,1.1-3.7,1.35-.27.05-.34.17-.35.43-.04.68-.05,1.37-.18,2.03-.17.83-.76,1.35-1.57,1.58-.35.1-.73.14-1.09.15-1.3.02-2.61.03-3.91,0-1.07-.02-2-.38-2.4-1.46-.2-.54-.25-1.15-.27-1.73-.03-1.53,0-3.07,0-4.6,0-1.51-.06-3.02-.02-4.53.05-1.79.34-3.54,1.3-5.08,1.28-2.06,3.13-3.33,5.52-3.81,3.32-.66,6.13.26,8.45,2.71.07.07.13.14.24.25ZM7.64,66.1c-.03.07-.04.09-.04.11,0,1.52,0,3.04,0,4.56,0,.22.14.28.31.28.47.02.94.07,1.4.03,4.4-.36,7.18-5.38,4.77-9.36-1.46-2.42-4.26-3.53-6.98-2.82-2.74.72-4.53,2.92-4.58,5.82-.06,3.36-.02,6.72-.02,10.07,0,.44.01.45.46.45,1.18,0,2.37,0,3.55,0q.5,0,.5-.51c0-3.06,0-6.13,0-9.19,0-.29.02-.59.06-.88.13-.95.68-1.47,1.55-1.5.7-.03,1.36.4,1.62,1.05.26.65.08,1.38-.46,1.87-.54.48-1.19.54-1.87.16-.08-.05-.17-.08-.27-.14ZM28.61,64.89c.08-3.61-3.13-6.17-5.98-6.22-3.74-.06-6.57,2.78-6.55,6.22.02,3.43,2.81,6.21,6.28,6.21,3.48,0,6.25-2.75,6.25-6.2ZM53.69,63.86v-4.74c-.52,0-1.02,0-1.51,0-.44,0-.44,0-.44-.43,0-1.24,0-2.48.01-3.72,0-.32-.1-.41-.41-.41-1.22.01-2.44,0-3.65,0-.44,0-.46.02-.46.46,0,1.44,0,2.87,0,4.31,0,1.93,0,3.87.04,5.8.03,1.08.27,2.14.87,3.07,1.22,1.89,3,2.8,5.24,2.83.44,0,.46-.02.46-.46,0-1.26,0-2.52,0-3.78q0-.51-.49-.54c-.89-.06-1.31-.43-1.48-1.31-.05-.24-.06-.5-.1-.74-.04-.25.04-.35.31-.34.53.02,1.06,0,1.61,0ZM36.35,59.12c-.55,0-1.06-.01-1.57,0-.3,0-.39-.1-.39-.4.02-1.24,0-2.48.01-3.72q0-.44-.45-.44c-1.18,0-2.37,0-3.55,0q-.5,0-.5.5c0,3,0,6,0,9,0,.5.03,1,.07,1.5.31,3.55,3.2,5.52,6.14,5.47.3,0,.39-.11.39-.4-.01-1.29,0-2.59,0-3.88q0-.47-.45-.5c-.92-.07-1.35-.45-1.53-1.35-.03-.17-.04-.34-.06-.52q-.05-.53.5-.53c.46,0,.93,0,1.4,0v-4.73ZM59.29,62.08c-.38-.98-.74-1.87-1.08-2.77-.1-.26-.24-.37-.53-.37-1.16.01-2.33,0-3.49,0-.11,0-.23.02-.39.03,1.76,4.15,3.55,8.23,5.42,12.28.04,0,.07,0,.11-.01,1.83-4.08,3.66-8.16,5.51-12.3-1.39,0-2.69,0-3.99,0-.1,0-.22.12-.29.22-.08.11-.12.25-.17.38-.35.81-.7,1.63-1.09,2.52ZM44.72,68.37c0-1.58-1.28-2.86-2.82-2.91-1.5-.05-2.91,1.23-2.9,2.87,0,1.61,1.23,2.85,2.84,2.85,1.54,0,2.87-1.3,2.88-2.82Z"/>
      <path class="cls-7" d="M41.17,25.6c-.28-.23-.47-.39-.71-.59-.67,1.54-1.33,3.06-2,4.61-.18-.14-.33-.26-.51-.4-.65,2.57-1.78,4.9-3.13,7.16,0-.11-.01-.22,0-.33.28-2.05.99-3.98,1.89-5.83.58-1.19,1.25-2.33,1.89-3.49.06-.1.11-.21.18-.32-.14-.12-.27-.22-.39-.32.62-1.47,1.22-2.93,1.84-4.42-.2-.04-.34-.06-.52-.1.05-.1.08-.19.12-.27.49-1.15.98-2.29,1.46-3.44.05-.11-.02-.26-.02-.39,0-.15-.03-.31.01-.44.29-.89.59-1.77.89-2.65.04-.12.08-.24.14-.41-.31-.01-.57-.03-.82-.04.41-1.28.82-2.55,1.25-3.88h-1.08c.75-1.41,1.17-2.87,1.37-4.43-.45.04-.88.07-1.37.11.55-1.55.72-3.08.76-4.67h-.82c.11-.32.18-.6.31-.85.05-.1.25-.17.38-.17,1.52.03,3.04.04,4.56.12,1.71.09,3.43.19,5.13.36,2.74.28,5.48.6,8.14,1.42.84.26,1.65.59,2.37,1.12.06.04.12.09.18.13.66.51.68.65.1,1.29-.18-.37-.36-.74-.55-1.13-.92.69-1.67,1.48-2.31,2.41-.28-.31-.53-.59-.81-.91-.71,1.13-1.85,1.86-2.2,3.21-.37-.44-.68-.82-1.02-1.22-.06.08-.11.14-.16.2-.44.65-.9,1.28-1.3,1.94-.28.47-.48.99-.71,1.49-.07.15-.11.32-.2.55-.39-.42-.75-.81-1.08-1.17-.64.95-1.29,1.88-1.89,2.84-.19.31-.25.71-.39,1.1-.25-.31-.51-.63-.81-1-.08.16-.13.28-.19.4-.15.26-.26.56-.46.78-.53.58-.85,1.25-1.03,2.08-.2-.24-.36-.44-.55-.67-.31.56-.64,1.1-.92,1.65-.28.55-.52,1.12-.79,1.71-.11-.09-.23-.18-.34-.28-.01,0-.04,0-.05.02-.38.59-.79,1.16-1.13,1.78-.22.4-.34.86-.5,1.3-.04.1-.06.21-.09.33-.19-.11-.35-.21-.5-.29-.73,1.24-1.52,2.46-1.66,4Z"/>
      <path class="cls-5" d="M14.23,10.89c-.44-1.58-1.43-2.81-2.27-4.21-.39.45-.74.85-1.06,1.22-.34-.54-.66-1.08-1.02-1.59-.37-.51-.79-.98-1.22-1.52-.29.34-.53.63-.74.87-.75-.78-1.5-1.57-2.33-2.44-.25.51-.44.92-.66,1.36-.16-.22-.33-.4-.45-.62-.05-.08-.02-.27.04-.34.23-.24.48-.48.76-.66,1.09-.7,2.33-1.04,3.57-1.36,2.15-.55,4.35-.86,6.56-1.04,2.93-.24,5.87-.38,8.81-.55C24.62,0,25.02,0,25.43,0c.34,0,.77.58.67.9-.03.08-.16.16-.26.18-.14.03-.3,0-.47,0-.14,1.61.32,3.1.75,4.65-.42-.06-.81-.12-1.26-.19.06.2.12.36.15.52.08.49.14.99.2,1.48.09.74.3,1.44.69,2.08.07.12.14.24.23.39-.31-.02-.58-.03-.89-.05.13.68.2,1.35.39,1.99.18.64.47,1.25.71,1.9-.28.04-.57.07-.9.11.05.15.08.27.13.39.28.72.57,1.43.84,2.15.13.34.2.68,0,1.04-.05.09,0,.26.05.37.45,1.02.92,2.04,1.38,3.06.02.04.04.08.06.12.22.46.21.48-.29.65.05.16.09.33.16.48.48,1.11.96,2.23,1.47,3.33.19.39.21.69-.14.91,1.8,3.13,3.35,6.32,3.93,9.89l-.1.06c-.08-.1-.17-.19-.23-.3-1.01-1.71-1.73-3.55-2.4-5.41-.18-.49-.34-.98-.53-1.5-.07.06-.11.09-.15.13-.23.23-.35.23-.47-.07-.44-1.03-.86-2.06-1.29-3.09-.16-.39-.33-.78-.51-1.2-.26.22-.47.4-.73.61-.09-.47-.16-.88-.25-1.29-.11-.46-.3-.87-.59-1.25-.25-.32-.38-.72-.56-1.09-.06-.13-.11-.28-.17-.44-.19.16-.36.3-.54.45-.24-.59-.42-1.17-.69-1.7-.32-.62-.71-1.21-1.08-1.83-.08.06-.16.12-.23.18-.2.17-.34.14-.37-.12-.11-.86-.57-1.56-.97-2.29-.15-.27-.31-.54-.49-.85-.19.24-.35.44-.55.7-.05-.17-.07-.3-.12-.41-.17-.4-.31-.81-.54-1.17-.33-.54-.73-1.05-1.11-1.59-.23.31-.32.8-.82.96-.03-.12-.05-.22-.09-.32-.15-.42-.25-.86-.47-1.24-.49-.86-1.03-1.68-1.56-2.54-.37.38-.77.77-1.18,1.18Z"/>
      <path class="cls-8" d="M59.31,38.25c.83.52,1.63.17,2.44.02.42-.08.85-.16,1.3-.24-.07-.36-.14-.7-.22-1.08,1.14.08,2.22,0,3.23-.65-.18-.22-.34-.43-.55-.69h.84c-.08.49-.15.97-.24,1.44-.4,2.02-1.01,3.97-2.12,5.74-1.04,1.65-2.56,2.47-4.42,2.86-3.63.75-7.3,1.26-11,1.5-.37.02-.74.06-1.1.09-.15.01-.29,0-.28-.21.04-.92-.26-1.75-.76-2.51-.02-.03-.02-.08-.04-.14.17-.02.32-.05.47-.07.02-.03.04-.07.06-.1-.46-.4-.91-.8-1.39-1.23.17-.04.31-.08.57-.14-.46-.28-.85-.52-1.26-.77.07-.06.13-.11.27-.23-.47-.19-.91-.36-1.35-.53.04-.08.08-.16.1-.2-1.27-.43-2.52-.85-3.77-1.28-.25-.08-.49-.18-.71-.31-.12-.07-.18-.22-.27-.34.12-.08.24-.21.36-.22.42,0,.84.04,1.26.06.05,0,.11,0,.18,0,.03-.09.06-.18.11-.32.24.15.47.29.71.44.06-.1.12-.18.21-.32.53.31,1.05.61,1.59.92.06-.11.13-.23.2-.37.45.25.89.49,1.35.75.03-.16.06-.28.09-.45.83.63,1.67,1.13,2.66,1.34.1-.64.1-.63.65-.3,1.2.72,2.54,1.04,3.88,1.39.05.01.11,0,.19,0-.18-.53-.35-1.03-.54-1.61.15.06.25.08.32.14.6.43,1.28.57,2,.59.71.03,1.43.08,2.18.13-.13-.56-.24-1.07-.37-1.61,1.24.36,2.42.28,3.6-.15-.17-.45-.32-.86-.48-1.26.02-.03.04-.06.06-.09Z"/>
      <path class="cls-3" d="M1.47,35.55c.29.04.52.06.8.1-.13.26-.25.48-.39.74.52.15,1,.32,1.51.44.49.11,1,.16,1.54.24-.04.19-.09.41-.14.62-.04.19,0,.31.22.35.74.15,1.48.37,2.23.47.42.06.86-.06,1.33-.1,0,.4-.3.74-.44,1.13.55.36,2.05.51,3.52.33-.13.51-.25,1-.38,1.53,1.55.07,3.02-.02,4.46-.78-.22.55-.4,1-.61,1.51.18,0,.29,0,.38-.02,1.11-.35,2.22-.69,3.31-1.06.26-.09.48-.29.73-.42.11-.06.23-.08.35-.12.01.11.03.22.04.33,0,.07-.01.14-.02.26,1-.28,1.85-.81,2.76-1.37-.03.21-.06.34-.09.53.13-.04.24-.06.33-.11.34-.17.67-.37,1.01-.53.09-.04.21-.02.32.02.5-.23.99-.48,1.5-.7.11-.05.26,0,.39.02,0,.03,0,.06,0,.09.15-.06.3-.12.45-.18.14-.06.27-.12.39.06.03.05.19.02.29.03.38,0,.75,0,1.13.03.1,0,.27.12.26.17-.01.11-.09.26-.19.3-.52.25-1.04.5-1.58.69-.88.31-1.77.57-2.66.85-.1.03-.2.07-.31.1.02.03.04.05.06.08-.08.09-.14.2-.24.26-.21.13-.44.23-.67.34-.14.07-.34.1-.29.35,0,.04-.12.11-.19.16-.25.18-.5.35-.82.57.2.07.3.11.44.16-.45.4-.87.78-1.37,1.22.24.02.38.03.52.05,0,.04,0,.08,0,.1-.52.72-.71,1.56-.77,2.42-.02.28-.13.35-.38.33-1.28-.12-2.55-.22-3.83-.37-2.17-.25-4.33-.53-6.5-.82-1.19-.16-2.39-.35-3.49-.88-1.61-.76-2.61-2.08-3.33-3.65-.75-1.63-1.15-3.36-1.47-5.12-.05-.25-.08-.5-.12-.78Z"/>
      <path class="cls-9" d="M64.68,29.88s0,0,0,0c-.05-.21-.03-.52-.16-.62-.12-.09-.41.05-.62.07-.37.03-.74.02-1.1.08-.41.07-.82.17-1.22.29-.26.08-.51.21-.79.33-.07-.36-.13-.67-.2-.99-1.26.29-2.56.25-3.63,1.09-.14-.28-.25-.48-.33-.69-.09-.23-.21-.27-.45-.2-1.03.32-2.04.67-2.9,1.4-.16-.19-.29-.35-.43-.52-.12-.15-.26-.17-.43-.07-.68.4-1.37.79-2.05,1.2-.3.18-.4.16-.53-.17-.03-.07-.04-.15-.07-.22-.02-.07-.05-.14-.09-.23-.09.04-.17.07-.24.11-.5.32-1.02.63-1.5.98-.32.24-.58.58-.88.85-.11.1-.28.14-.42.21-.08.05-.19.09-.24.16-.27.38-.52.78-.78,1.16-.13.19-.27.36-.56.24-.08-.03-.26.08-.35.17-.44.44-.86.89-1.29,1.34-.07.07-.13.14-.2.21-.38.37-.48.37-.75-.06-.29.21-.57.43-.86.64-.26.18-.52.25-.76-.08-.19.15-.38.27-.54.42-.26.25-.56.35-.91.36-.94.02-1.89.05-2.83.07-.12,0-.23-.04-.35-.07,0-.03,0-.07,0-.1.11-.03.21-.06.32-.09.57-.17,1.14-.33,1.7-.53.12-.04.18-.23.3-.33.11-.1.24-.21.38-.24.4-.09.81-.15,1.22-.22.01-.09.03-.15.02-.22,0-.26.1-.37.37-.38.28,0,.55-.06.82-.09,0-.04.01-.06,0-.06-.28-.46-.23-.57.34-.62.42-.04.84-.09,1.26-.12.19-.01.29-.1.27-.29-.07-.63.26-.92.82-1.12,1.01-.37,1.99-.8,2.99-1.19.45-.18.46-.16.24-.58-.04-.09-.09-.17-.15-.3,1.51-.43,3.01-.86,4.53-1.29-.04-.18-.1-.41-.16-.67,1.34-.32,2.56-.9,3.78-1.45.46-.21.48-.18.26-.66-.03-.06-.04-.12-.07-.21.63,0,1.13-.32,1.61-.64.68-.46,1.41-.76,2.28-.93-.29-.32-.55-.59-.85-.92,1.45-.24,2.48-1.21,3.73-1.83-.39-.37-.76-.71-1.15-1.08.06-.05.11-.1.16-.12.66-.18,1.17-.59,1.7-1,.58-.45,1.19-.87,1.79-1.3.1-.07.21-.15.35-.25-.29-.32-.56-.61-.78-.85.85-.55,1.71-1.1,2.6-1.68.03.46.06.93.08,1.4.07,2.91.15,5.82.19,8.73.01.94-.07,1.89-.11,2.83,0,.29-.08.41-.42.46-.64.09-1.27.29-1.93.45Z"/>
      <path class="cls-10" d="M17.7,31.35c-.76-.41-1.5-.82-2.24-1.21-.45-.24-.61-.17-.81.32-.02.06-.05.12-.08.19-.96-.8-2.08-1.16-3.27-1.43-.11.3-.2.56-.29.81-.05,0-.07,0-.08,0-.66-.57-1.42-.76-2.3-.7-.46.03-.94-.19-1.45-.3-.04.31-.08.66-.13,1.09-1.15-.88-2.54-.61-3.84-1-.03.3-.06.56-.08.77-.76-.17-1.53-.33-2.38-.52-.05-4.37-.44-8.82.18-13.35.81.69,1.56,1.35,2.56,1.62-.26.31-.49.59-.74.89.23.14.42.24.6.37.41.3.81.62,1.21.93.33.26.63.57.98.8.35.23.75.37,1.17.57-.39.38-.77.76-1.2,1.17.22.08.38.13.53.21.38.2.78.38,1.13.63.61.43,1.21.84,2.04.95-.26.32-.48.59-.72.9.27.06.5.09.71.17.39.15.82.26,1.16.5.6.43,1.2.81,1.95.93-.01.06,0,.09-.02.12-.41.67-.32.59.27.82,1.12.42,2.24.81,3.36,1.22.14.05.28.1.41.15.01.04.03.07.02.08-.34.76-.12.64.46.77.8.18,1.59.43,2.37.67.47.14.92.31,1.4.48,0-.01.01.01,0,.03-.24.74-.23.65.48.86.83.25,1.61.58,2.33,1.06.11.07.25.12.39.14.59.07.87.36.83.95-.02.34.06.47.41.47.43,0,.87.04,1.3.08.13.01.25.09.37.14-.06.11-.11.22-.17.33-.02.04-.05.07-.1.14.3.06.57.13.84.16.21.02.33.1.32.32-.01.23.13.3.31.33.28.05.55.1.83.15.23.04.48.05.54.37.01.07.17.12.26.15.69.22,1.39.43,2.08.64v.09c-.13.03-.27.09-.41.09-.78,0-1.56-.06-2.34-.04-.69.02-1.29-.1-1.74-.67-.04-.06-.12-.09-.17-.14-.37.33-.38.33-.77.04-.31-.23-.62-.47-.94-.71-.04.06-.06.08-.07.11-.14.39-.26.42-.56.11-.3-.31-.59-.64-.89-.95-.16-.17-.32-.32-.49-.48-.24-.23-.47-.52-.82-.08-.08-.12-.14-.2-.18-.28-.85-1.7-2.31-2.76-3.9-3.68-.21-.12-.35-.05-.44.16-.08.18-.16.36-.22.49Z"/>
      <path class="cls-6" d="M21,47.21c.46-.87,1.07-1.48,1.76-1.98,1.3-.96,2.64-1.87,3.98-2.77,1.82-1.22,3.65-2.42,5.48-3.63.1-.06.2-.12.34-.21v9.05c-3.83-.13-7.66-.2-11.56-.46Z"/>
      <path class="cls-2" d="M46.74,47.29c-.34,0-.69,0-1.03,0-3.35.11-6.71.21-10.06.32-.56.02-.56.02-.56-.54.01-2.69.03-5.39.04-8.08,0-.1.02-.21.03-.35.1.04.17.06.23.1,3,2.01,6.07,3.9,8.91,6.12.78.61,1.48,1.3,2.22,1.96.1.09.17.22.25.33-.01.04-.02.09-.04.13Z"/>
      <path class="cls-1" d="M20.69,64.89c0-.96.72-1.73,1.61-1.74.97-.01,1.72.74,1.72,1.71,0,1.02-.74,1.81-1.69,1.78-1.02-.03-1.73-.91-1.64-1.75Z"/>
    </g>
  </g>
</svg>