<?xml version="1.0" encoding="UTF-8"?>
<svg id="Layer_2" data-name="Layer 2" xmlns="http://www.w3.org/2000/svg" viewBox="0 0 173.38 90.97">
  <defs>
    <style>
      .cls-1 {
        fill: #8a5fb1;
      }
    </style>
  </defs>
  <g id="Layer_4" data-name="Layer 4">
    <g>
      <g>
        <path class="cls-1" d="M33.97,90.97c-.15-.3-.29-.61-.45-.9-.68-1.21-1.18-2.49-1.55-3.82-.07-.27-.15-.54-.24-.81-.02-.06-.07-.12-.12-.2-.28.31-.41.69-.69,1.02-.05-.11-.1-.18-.11-.25-.22-1.52-.44-3.04-.67-4.57-.02-.13-.06-.27-.1-.46-.31.35-.42.75-.71,1.11-.05-.16-.09-.27-.11-.38-.2-1.04-.39-2.09-.61-3.12-.19-.86-.17-1.72-.04-2.58.03-.21.12-.41.17-.61.01-.06,0-.15-.04-.19-.08-.07-.16-.03-.23.04-.17.18-.33.37-.51.54-.05.05-.14.07-.27.13.02-.71.17-1.35.25-1.99.08-.65.19-1.29.29-1.94.09-.65.19-1.29.28-1.92-.12-.11-.19-.02-.25.03-.18.12-.34.25-.52.37-.05.03-.12.02-.23.04.02-.11.03-.18.05-.23.16-.31.32-.63.5-.93.73-1.25,1.46-2.5,2.19-3.76.08-.14.16-.28.21-.42.1-.3.01-.51-.26-.67-.36-.2-.69-.15-.94.18-.15.21-.27.46-.37.7-.27.71-.53,1.43-.78,2.14-.19.53-.4,1.06-.71,1.53-.04.06-.08.11-.15.2-.18-.17-.34-.32-.51-.48-.17.07-.24.22-.33.34-.75,1.03-1.5,2.06-2.25,3.09-.09.13-.19.25-.31.4-.23-.18-.27-.47-.48-.65-.19.06-.3.22-.44.35-1.12,1.08-2.24,2.16-3.36,3.24-.13.12-.26.24-.41.38-.22-.25-.14-.59-.35-.85-.34.31-.58.7-.87,1.06-.28.34-.54.7-.81,1.05-.28.36-.56.72-.85,1.08-.35,0-.58-.28-.93-.34-.07.1-.15.21-.22.33-.7,1.23-1.39,2.46-2.09,3.7-.07.12-.14.25-.22.36-.07.1-.26.09-.31-.03-.04-.1-.08-.2-.09-.3-.27-1.53-.33-3.06-.04-4.59.02-.08.01-.17.02-.31-.11.04-.19.06-.25.1-.17.1-.32.22-.49.32-.1.07-.21.15-.34.05-.11-.09-.04-.19-.01-.29.14-.42.27-.84.41-1.26.39-1.21.79-2.42,1.18-3.63.05-.14.13-.29.09-.48-.29.08-.52.25-.77.36q-.12.05-.32-.11c.04-.2.21-.31.34-.45,1.24-1.31,2.48-2.62,3.72-3.93.12-.13.23-.26.38-.42-.26-.06-.46-.11-.7-.16.06-.06.09-.12.14-.15,1.06-.64,2.13-1.26,3.26-1.77,1.02-.46,2.07-.82,3.19-.96.67-.08,1.34-.1,2.01-.15.56-.04,1.13-.06,1.69-.11.45-.04.85-.2,1.22-.45,0-.11-.07-.13-.14-.13-.18,0-.35,0-.53,0-3.1,0-6.19,0-9.29,0-.18,0-.35,0-.53-.02-.04,0-.09-.06-.1-.1-.01-.04,0-.12.04-.14.15-.12.32-.22.48-.33.18-.12.36-.23.53-.36.04-.03.06-.13.04-.19-.01-.06-.07-.14-.13-.15-.14-.02-.28-.02-.42-.02-1.36,0-2.72,0-4.09,0h-.58c.04-.12.06-.2.1-.26.07-.14.16-.26.26-.44-.53-.03-1,.05-1.47.06-.46.01-.92.06-1.38.08-.48.03-.95.05-1.43.08-.46.02-.91.05-1.38.07-.05-.1-.08-.18-.12-.28.76-.57,1.48-1.17,2.35-1.54.5-.21,1.01-.43,1.52-.62.9-.33,1.8-.64,2.71-.94.69-.22,1.39-.41,2.13-.35.4.03.81.1,1.21.16.86.13,1.71.27,2.57.4.3.04.6.07.9.06.53-.01,1.03.1,1.48.34.54.29,1.06.63,1.59.95.18.11.35.24.54.34.1.05.23.06.36.07.1,0,.11-.01.35-.24-.17-.17-.34-.34-.52-.51.06-.24.36-.21.46-.42,0-.11-.1-.14-.17-.16-.33-.12-.67-.23-1.01-.33-.67-.2-1.28-.48-1.83-.93-.55-.45-1.18-.78-1.8-1.11-.72-.38-1.44-.75-2.16-1.13-.15-.08-.32-.15-.44-.33,1.08-.43,2.14-.67,3.27-.28.22.07.44.13.66.19.63.15,1.26.16,1.87-.12.34-.16.68-.15,1.04-.07.51.12.98.33,1.35.69.42.41.81.84,1.21,1.27.13.14.26.28.42.44.14-.16.25-.29.38-.45.08.11.17.19.23.29.51.85,1.01,1.71,1.51,2.56.09.15.18.29.26.42.16,0,.17-.09.19-.17.11-.74-.14-1.36-.61-1.9-.12-.13-.26-.24-.38-.37-.1-.1-.2-.2-.29-.31-.18-.24-.26-.5-.17-.8.03-.1.06-.2.09-.33-.37-.42-.66-.87-.37-1.47.35-.13.67-.07.95.15.15.12.3.25.45.37.2.15.39.31.6.44.28.18.28.17.65.17.23.56.27,1.2.54,1.75,0,0,.03,0,.07,0,.08-.1.04-.22.03-.33-.08-.77-.15-1.55-.25-2.32-.19-1.4-.39-2.8-.59-4.2-.23-1.61-.48-3.22-.7-4.83-.14-1.04-.37-2.05-.66-3.06-.24-.86-.34-1.72-.31-2.62.04-.92-.05-1.84-.2-2.75-.21-1.33-.42-2.65-.63-3.98-.06-.37-.11-.74-.13-1.11-.04-.75-.22-1.47-.39-2.19-.08-.31-.16-.62-.23-.93-.1-.43-.17-.87-.14-1.31.04-.77-.07-1.52-.27-2.26-.13-.5-.19-1-.16-1.52.02-.39.02-.78,0-1.17-.04-.71-.33-1.31-.94-1.69-.37-.23-.59-.55-.75-.93-.15-.36-.32-.71-.57-1.02-.07-.09-.13-.21-.31-.23,0,.16.02.31.03.46.03.49.09.99.1,1.48.01,1.4-.37,2.68-1.23,3.82-.34.45-.68.9-1.11,1.28-.46.41-.97.7-1.57.85-.08.02-.17,0-.29,0,.01-1.07.14-2.12.16-3.18-.39,0-.68.2-1.01.22-.09-.08-.06-.17-.03-.25.21-.58.43-1.16.64-1.74.05-.15.11-.3.17-.47-.27-.13-.54-.02-.81-.11.03-.11.05-.23.1-.34.33-.76.67-1.52,1-2.28.07-.16.13-.32.21-.52-.16-.07-.3-.12-.43-.18,0-.05-.02-.09,0-.12.18-.38.37-.76.55-1.15.08-.17.16-.35.24-.54-.08-.06-.15-.11-.25-.18-.28.24-.48.52-.61.85-.2.49-.4.98-.62,1.46-.2.43-.41.86-.63,1.28-.37.68-.9,1.23-1.55,1.63-.29.18-.57.35-.88.5-1.05.5-2.11,1-3.17,1.48-.69.31-1.41.56-2.18.64-.11.01-.21.03-.32.03-.85-.04-1.69.1-2.54.18-.42.04-.85.06-1.3-.07.04-.1.06-.2.11-.27.74-1.14,1.48-2.29,2.22-3.43.11-.17.24-.3.42-.39.71-.32,1.36-.76,2.02-1.17.49-.31.99-.62,1.49-.91.6-.34,1.24-.61,1.92-.74.72-.14,1.38-.43,2.01-.8.3-.18.61-.35.99-.63-.21.02-.31.02-.39.04-.34.09-.66.08-.98-.06-.36-.16-.75-.23-1.14-.22-.42.01-.85.02-1.27.07-.74.08-1.48.08-2.22,0-1.04-.12-2.08-.17-3.12-.26-.33-.03-.67-.05-1-.09-.09-.01-.17-.08-.26-.13.09-.24.38-.23.48-.48-.21-.05-.39-.1-.58-.13-1.01-.19-2.02-.37-3.02-.56-.09-.02-.18-.03-.25-.06-.05-.03-.11-.1-.11-.15,0-.06.03-.14.08-.17.12-.07.25-.12.43-.19-.15-.07-.26-.13-.37-.17-1.33-.49-2.65-.97-3.98-1.46-.03-.01-.07-.01-.1-.02,0-.07,0-.14,0-.21.17-.04.34-.1.51-.13,1.77-.31,3.55-.63,5.33-.94,1.18-.21,2.37-.41,3.55-.63.75-.14,1.47-.09,2.16.27.58.3,1.16.28,1.68-.18.12-.1.25-.14.39-.12.12.01.25.03.37.05.72.16,1.45.33,2.17.5,1.06.24,2.07.6,2.99,1.18.21.13.43.25.65.36.38.19.77.34,1.21.42.05-.12.09-.21.15-.34-1.13-.57-2.28-1.07-3.41-1.64.1-.14.19-.25.29-.39-.47-.33-.92-.63-1.36-.95-.45-.33-.95-.61-1.39-1.01.17-.12.3-.22.47-.33-.09-.11-.16-.21-.25-.29-.68-.67-1.37-1.33-2.05-2-.07-.07-.11-.16-.18-.24.18-.13.33-.23.53-.37-.4-.29-.76-.54-1.11-.81-.36-.28-.76-.51-1.1-.84.14-.16.26-.3.4-.47-.39-.23-.75-.46-1.11-.67-.35-.21-.7-.42-1.04-.63-.36-.22-.73-.42-1.08-.67.05-.05.07-.08.1-.09.52-.1,1.04-.2,1.56-.28.09-.01.21.03.29.08.83.5,1.7.66,2.63.3.31-.12.59-.08.86.09.12.07.23.16.35.23.28.18.56.38.84.55.48.29.97.45,1.56.34.76-.15,1.39.15,1.85.77.17.23.33.46.5.68.18.22.37.43.56.63.07.07.17.1.23.13.18-.06.2-.25.36-.25.52.53.91,1.19,1.17,1.95.37,1.09.44,2.21.38,3.35-.02.46-.06.92-.09,1.38,0,.1,0,.2,0,.36.11-.05.2-.07.21-.11.05-.15.09-.3.11-.46.26-1.66.52-3.32.78-4.98.03-.17.07-.34.12-.55.11.06.21.08.25.14.11.16.19.34.3.5.04.06.12.09.2.14.21-.42.27-.84.39-1.25.19-.67.4-1.32.82-1.88.11-.15.16-.32.14-.5-.02-.23-.04-.46-.08-.68-.07-.42-.03-.81.22-1.16.03-.04.04-.1.06-.14.07,0,.14,0,.21,0,.52.24.84.69,1.09,1.18.3.57.44,1.19.5,1.83.01.14.02.28.04.42.06.27.22.51.5.76-.28.8-.56,1.61-.86,2.46.11.04.2.09.29.1.3.03.6.06.9.07.51.02.93-.18,1.23-.6.05-.07.1-.14.16-.22.19.2.11.46.25.68.64.03,1.31.01,1.98.01.65,0,1.31,0,1.96,0s1.34,0,2.05,0c.02.17.05.3.05.44,0,.88,0,1.77,0,2.65,0,.17.01.35.02.56.55-.12,1.03-.35,1.52-.52.48-.17.96-.36,1.44-.54.5-.19.99-.37,1.49-.56.48-.18.96-.36,1.44-.54.5-.18.99-.37,1.49-.55.2.13.32.31.45.47,1.68,2.01,3.36,4.02,5.03,6.03.72.87,1.44,1.75,2.15,2.63.13.16.26.34.36.52.2.36.29.76.25,1.18-.05.55-.1,1.09-.15,1.64-.13,1.3-.26,2.6-.4,3.91-.16,1.46-.32,2.92-.48,4.38-.12,1.09-.24,2.18-.36,3.27-.02.18-.04.35-.07.53-.08.58-.37,1.02-.91,1.28-.89.43-1.78.88-2.67,1.31-1.29.62-2.58,1.24-3.87,1.86-.11.05-.22.11-.34.16-.41.16-.8.12-1.14-.18-.11-.09-.21-.19-.31-.29-1.39-1.28-2.78-2.57-4.17-3.85-.14-.13-.29-.25-.43-.36-.16.11-.11.24-.12.36-.09,1.86-.07,3.71-.03,5.57.03,1.47.06,2.94.08,4.4.01.62.03,1.24.02,1.86-.01,1.26-.02,2.51-.06,3.77-.1,2.46-.37,4.9-.88,7.31-.02.08-.02.17-.03.26,0,.01.02.02.04.07.09-.09.17-.18.25-.27.34-.43.67-.87,1.01-1.3.06-.08.13-.17.2-.25.11-.14.22-.17.31-.11.14.09.1.22.06.33-.21.66-.43,1.31-.64,1.97-.05.15-.11.3-.14.45-.04.2.05.34.25.4.07.02.14.03.21.04.07.01.13.03.24.06-.07.1-.11.17-.17.23-.45.47-.9.95-1.36,1.41-.28.29-.58.57-.87.86-.26.27-.33.61-.37,1,.45-.04.78-.21,1.05-.5.48-.52.95-1.05,1.34-1.64.54-.84,1.28-1.46,2.16-1.91.68-.34,1.37-.66,2.06-.98.47-.22.99-.28,1.5-.27.41,0,.81.03,1.22.02.35-.01.7-.05,1.05-.11.72-.12,1.43-.2,2.15-.12.05.1-.01.14-.07.18-.11.06-.22.11-.33.16-.35.17-.66.4-.91.71-.56.68-1.26,1.19-2.04,1.58-.57.28-1.16.52-1.75.77-.24.1-.44.22-.54.47-.11.27-.33.4-.59.49-.96.32-1.91.63-2.87.95-.32.1-.64.19-.96.29-.08.02-.18.03-.19.15.06.13.17.09.26.07.64-.14,1.27-.29,1.91-.44,2.48-.58,4.96-1.15,7.44-1.73.12-.03.24-.04.39-.06.06.11.12.21.17.32.09.18.24.25.43.25.11,0,.21,0,.32-.01,1.24-.12,2.47-.07,3.71-.05.07,0,.13.02.23.04,0,.18-.02.36-.03.57.14.05.28.12.43.16.49.15.98.29,1.47.44.66.21,1.28.51,1.84.92.43.31.86.63,1.28.95.05.04.09.09.13.13-.03.12-.11.11-.18.12-1.57.26-3.14.51-4.71.77-.14.02-.28.05-.42.08-.2.04-.35.13-.5.3.16.22.46.13.6.33,0,.14-.07.24-.21.25-.12.01-.25.01-.37.01-.92,0-1.84.02-2.76.02-.18,0-.35-.03-.53-.04-.4-.03-.47.02-.64.4-.02.05-.04.1-.07.16-.26.1-.53.15-.82.11-1.21-.15-2.42-.29-3.63-.45-.17-.02-.35-.06-.52-.11-.27-.07-.49-.05-.62.23-.02.05-.07.08-.11.12-.25.05-.49.02-.73-.02-.94-.18-1.88-.35-2.82-.53-.07-.01-.14-.02-.19-.02-.15.12-.13.26-.09.4.04.14.11.27.25.32.18.07.37.13.55.17.66.12,1.32.23,1.99.35,1.93.33,3.87.66,5.8,1,.25.04.52.06.76.26-.2.26-.55.31-.77.56.05.04.08.08.12.1,1.56.58,2.85,1.55,3.98,2.75.79.84,1.51,1.73,2.13,2.7.73,1.13,1.44,2.27,2.15,3.39-.04.14-.13.13-.22.13-.17,0-.35,0-.52,0-.11.11-.04.2,0,.3.39.91.78,1.82,1.17,2.73.08.19.16.39.24.57-.11.26-.29.3-.53.26-.73-.14-1.45-.32-2.15-.58-.93-.34-1.86-.69-2.79-1.03-.25-.09-.5-.17-.76-.25-.08-.02-.17-.02-.27-.03-.05.17-.1.31-.15.46-.18.05-.29-.05-.4-.14-.3-.27-.6-.55-.9-.82-.65-.59-1.31-1.19-1.96-1.78-.24-.22-.5-.39-.81-.48-.45-.13-.83-.38-1.13-.75-.37-.45-.78-.87-1.14-1.32-1.3-1.61-2.59-3.23-3.88-4.85-.11-.13-.2-.28-.38-.4-.09.2-.05.38-.02.54.03.17.08.34.13.51.09.31.03.56-.25.74-.04.03-.08.07-.14.13.06.31.12.64.19.97.26,1.25.52,2.49.78,3.74.02.09.02.18.04.26.09.27.01.48-.22.64-.07.05-.14.1-.22.17.12.58.24,1.15.37,1.72.12.55.25,1.1.36,1.66.11.57.27,1.13.35,1.74-.49-.1-.84-.36-1.21-.58-.14.13-.09.25-.09.37,0,.85.03,1.7,0,2.55-.03.83-.21,1.65-.46,2.44-.03.08-.07.16-.11.27-.29-.27-.39-.65-.67-.96-.06.14-.12.24-.15.35-.53,1.71-1.05,3.41-1.58,5.12-.06.18-.14.36-.21.54h-.42ZM41.72,11.26c-.14.04-.24.07-.33.1-1.54.57-3.08,1.14-4.62,1.72-.08.03-.16.06-.24.1-.33.16-.53.41-.56.78-.02.21-.03.42-.03.63,0,1.38.02,2.76.03,4.14.01,2.99.02,5.98.03,8.96,0,.64.01,1.27.02,1.91,0,.48.24.84.62,1.12.11.08.24.15.37.21,1,.48,2.01.96,3.01,1.44.05.02.1.04.15.06,1,.34,2.2-.3,2.3-1.39.05-.53.12-1.06.11-1.58-.03-1.63-.1-3.25-.15-4.88-.03-.83-.06-1.66-.1-2.49-.09-2.07-.17-4.13-.27-6.2-.07-1.38-.16-2.75-.24-4.13,0-.15-.05-.3-.08-.49ZM25.87,60.62c.26.3.45.54.66.75.23.23.51.3.83.22.11-.03.19-.08.22-.2.03-.14-.07-.19-.17-.23-.42-.18-.84-.35-1.27-.52-.04-.02-.1,0-.26-.02ZM24.61,13.82c.06.38.16.71.29,1.01.18.04.31.02.42-.14-.06-.32-.09-.67-.25-1.02-.16.05-.3.1-.46.15Z"/>
        <path class="cls-1" d="M76.24,60.51c.07-.07.13-.16.21-.2.19-.09.4-.14.6-.22.34-.14.69-.28,1.02-.45.85-.43,1.33-1.14,1.45-2.09.06-.47.1-.95.1-1.43.01-1.57,0-3.15,0-4.72,0-1.45,0-2.9.01-4.35,0-.21,0-.42,0-.64-.02-.36-.19-.64-.52-.81-.2-.11-.42-.2-.63-.28-1.25-.5-2.45-1.1-3.6-1.8-.68-.41-1.09-.99-1.28-1.75-.05-.21-.09-.42-.09-.63,0-.38-.08-.74-.18-1.09,0-.02-.01-.03-.02-.05-.14-.6-.04-.83.53-1.02.82-.28,1.66-.51,2.49-.75.36-.1.72-.19,1.08-.26.21-.04.42-.04.63-.05.09,0,.18.03.2.13.02.1-.05.16-.14.19-.15.05-.3.11-.45.16-.43.15-.87.29-1.3.46-.24.1-.49.22-.69.38-.47.36-.57.83-.33,1.37.05.11.11.22.18.33.41.58.85,1.13,1.4,1.59.59.5,1.28.82,2.04.97.5.1.66-.02.67-.53.01-.9.02-1.8,0-2.71-.04-2.62-.09-5.23-.13-7.85-.02-1.64-.03-3.29-.04-4.93,0-.3.03-.6.03-.9.01-.48-.04-.95-.15-1.42-.19-.78-.58-1.44-1.19-1.96-.33-.28-.71-.52-1.08-.77-.1-.07-.21-.14-.3-.21-.02-.02-.02-.06-.03-.11.04-.02.08-.05.13-.05.55-.04,11.87,0,12.2.03.04.12-.07.15-.13.19-.79.56-1.21,1.32-1.27,2.28-.02.35-.03.71-.02,1.06.01,1.01.04,2.02.06,3.02.05,3.24.09,6.47.13,9.71.01,1.04.03,2.09.07,3.13.02.71.08,1.41.12,2.14.14-.02.24-.02.34-.04.7-.19,1.38-.45,2.03-.76,1.01-.48,2.02-.94,3.03-1.41.05-.02.1-.04.14-.07.6-.29.9-.77.91-1.44,0-.25,0-.5-.02-.74-.05-1.27-.11-2.54-.15-3.82-.07-2.32-.12-4.63-.17-6.95-.02-1.15,0-2.3,0-3.45,0-.44,0-.87.13-1.31.2-.67,0-1.26-.52-1.73-.22-.2-.47-.38-.71-.55-.32-.22-.65-.42-.98-.64-.07-.05-.13-.1-.19-.15.05-.12.13-.09.19-.09.34,0,.67,0,1.01,0,1.19.03,2.37-.09,3.55-.17,1.55-.11,3.1-.22,4.66-.31.46-.02.92.03,1.38.06.39.03.77.07,1.16.11.08,0,.16.04.24.06,0,.21-.14.31-.26.41-.12.11-.25.19-.38.29-1.08.87-1.65,2.02-1.71,3.4-.03.53,0,1.06.02,1.59.03,1.2.09,2.4.11,3.61.04,2.26.06,4.53.09,6.79,0,.11.01.21.02.35.1-.01.18,0,.26-.03,1.02-.35,2.04-.7,3.06-1.05.31-.1.49-.29.62-.6.18-.44.43-.85.66-1.27.15-.27.37-.46.62-.64,1.48-1.06,2.96-2.13,4.44-3.19.49-.35.98-.69,1.48-1.04.84-.59,1.72-.61,2.59-.1,1.22.71,2.43,1.45,3.64,2.18.17.1.32.22.47.34.28.23.48.51.6.86.35,1.04.7,2.08,1.05,3.12.11.32.22.63.33.95.26.76.21,1.49-.23,2.19-.18.28-.31.6-.46.89-.11.2-.21.41-.33.6-.18.28-.45.4-.78.33-.19-.04-.38-.09-.56-.16-.53-.22-1.08-.32-1.65-.37-1.25-.13-2.5-.26-3.75-.39-.33-.03-.67-.06-1.01-.05-.49,0-.76.27-.78.75-.02.39,0,.78.03,1.17.05.94.12,1.87.16,2.81.06,1.38.13,2.76.14,4.14,0,.94.34,1.68,1.07,2.25.26.21.51.43.79.67.14-.05.29-.09.44-.14.19-.08.32-.21.4-.4.55-1.28,1.09-2.57,1.47-3.92.15-.56.19-1.15.27-1.73.02-.12.01-.24.08-.39.08.05.15.07.18.12.7.8,1.4,1.59,2.09,2.4.29.33.3.65.07,1.02-.09.15-.2.29-.31.43-1,1.28-2.01,2.56-3,3.85-.21.27-.45.42-.8.44-.53.03-1.06.1-1.58.15-.89.08-1.66-.18-2.37-.73-1.65-1.31-3.32-2.58-4.99-3.87-.07-.05-.14-.11-.21-.17-.35-.29-.53-.66-.51-1.11.02-.5-.02-.99-.11-1.48-.18-1-.19-2.01-.19-3.01,0-.88.03-1.77.04-2.65,0-.21-.02-.42-.06-.63-.06-.29-.26-.46-.56-.48-.23-.02-.46,0-.69.01-.48.03-.94.17-1.39.32-.43.14-.67.44-.71.89-.02.19-.03.39-.03.58.02,1.08.05,2.16.08,3.24.08,3.47.16,6.93.25,10.4.05,2,.11,4,.17,5.99,0,.14,0,.28.02.42.1.88.51,1.57,1.29,2.01.23.13.48.23.72.34.14.07.31.09.39.25-.03.03-.05.06-.08.06-4.37,0-8.74,0-13.1,0-.05-.13.04-.17.11-.22.56-.4,1.13-.79,1.68-1.21.7-.53.7-.54.75-1.41.02-.25,0-.49-.02-.74-.01-.26-.05-.53-.05-.79,0-3.06-.01-6.12-.01-9.18,0-.8.02-1.59,0-2.39,0-.62.02-1.24.16-1.85.12-.53.08-1.05.06-1.62-.11.02-.22.02-.3.06-1.63.74-3.31,1.33-4.99,1.95-.18.07-.37.13-.54.21-.33.15-.52.41-.54.78,0,.11-.01.21-.01.32,0,2.76,0,5.52,0,8.28,0,.6.02,1.2,0,1.8-.02,1.4.71,2.32,1.9,2.94.11.06.23.08.34.14.11.05.21.12.3.18,0,.12-.08.12-.15.13-.14,0-.28,0-.42,0-4.37,0-8.74,0-13.11,0h-.58s-.03-.08-.04-.12ZM117.18,37.58c-.11-.17-.15-.24-.2-.31-.48-.64-.88-1.32-1.23-2.04-.33-.68-.64-1.38-.98-2.06-.3-.6-.63-1.18-.96-1.77-.13-.23-.3-.43-.46-.65-.07-.09-.16-.13-.28-.11-.13.03-.17.12-.18.23-.05.4-.1.81-.15,1.21-.16,1.33-.33,2.66-.49,4-.06.47-.11.94-.16,1.43.1.02.17.05.23.05,1.59,0,3.18,0,4.86,0Z"/>
        <path class="cls-1" d="M159,51.82c.64-.17,1.13-.53,1.51-.99.97-1.18,2.25-1.81,3.71-2.09,1.6-.3,3.21-.52,4.85-.45.51.02,1.03.02,1.54.03.08,0,.17.01.24.02.09.17-.04.25-.09.35-.05.11-.11.21-.18.34.47.15.93.16,1.38.23.45.07.91.13,1.42.21-.1.11-.14.19-.2.23-.82.53-1.58,1.13-2.3,1.79-.59.53-1.28.79-2.06.86-1.57.15-3.13.33-4.7.49-.84.09-1.69.16-2.53.25-.1,0-.2.03-.35.05.19.22.45.13.62.32-.02.15-.04.34-.06.54.11.05.2.1.3.13.87.28,1.75.57,2.63.84.27.08.51.19.61.46.13.36.42.52.74.62.64.19,1.29.36,1.94.54.08.02.17.03.25.05.03.13-.05.17-.13.22-.16.11-.32.21-.52.34.12.09.21.17.31.23.65.39,1.31.78,1.96,1.16.06.04.12.07.18.11.28.2.31.29.17.62-.02.05-.04.09-.07.16.1.24.29.43.46.63.53.57,1.06,1.14,1.59,1.71.17.19.17.19-.02.52-.09,0-.2,0-.3-.02-1.95-.31-3.91-.63-5.86-.94-.7-.11-1.38-.3-2.02-.62-1.22-.61-2.45-1.19-3.67-1.78-.71-.34-1.33-.8-1.86-1.38-.66-.72-1.23-1.51-1.62-2.41-.02-.05-.06-.09-.09-.13-.17.05-.27.15-.35.34.12.15.24.32.37.49.29.38.57.76.86,1.15.13.17.21.36.2.59-.03.55.18,1.04.41,1.52.09.19.21.37.3.56.19.4.23.82.03,1.23-.12.24-.13.47-.03.71.05.13.09.27.14.4.14.37.2.75.14,1.14-.1.67,0,1.3.3,1.91.18.35.25.7.02,1.06-.1.15-.05.31.03.45.22.38.43.77.66,1.15.17.29.34.57.52.86-.32.17-.38.2-.6.11-.97-.43-1.98-.76-2.9-1.31-.66-.4-1.25-.87-1.62-1.57-.19-.36-.48-.5-.85-.49-.21-.3-.29-.63-.36-.96-.12-.55-.22-1.11-.34-1.66-.04-.19-.09-.37-.14-.58-.2.04-.37.07-.57.11-.02-.12-.05-.22-.04-.31.06-1.4.44-2.72,1.09-3.96.26-.5.58-.97.88-1.45.08-.13.18-.26.31-.45-.05-.04-.09-.09-.17-.16-.47.54-.86,1.06-1.27,1.57-.4.5-.79,1-1.19,1.5-.41.51-.81,1.02-1.24,1.56-.21-.19-.21-.47-.4-.66-.25.17-.42.39-.59.62-.16.21-.3.44-.46.65-.29.4-.63.72-1.12.84-.2.05-.34.17-.45.34-.08.13-.17.27-.24.41-.25.48-.6.87-.98,1.27-.11-.05-.22-.09-.35-.15.04-.18.07-.33.11-.48.2-.77.4-1.54.6-2.31.04-.17.07-.35.1-.52.09-.58.35-1.07.76-1.49.19-.19.38-.37.57-.56.23-.24.48-.48.69-.74.27-.34.6-.6,1-.77.26-.11.53-.21.78-.33.28-.14.56-.3.83-.46.07-.04.12-.12.17-.17-.06-.14-.16-.1-.24-.1-.62.04-1.23.17-1.81.38-.75.26-1.49.56-2.23.85-.35.13-.69.27-1.04.4-.06.02-.13.03-.24.05.05-.11.07-.18.1-.23.43-.67.9-1.31,1.46-1.88.64-.65,1.37-1.17,2.25-1.45.75-.24,1.53-.28,2.31-.18.17.02.34.04.51.06.02-.32,0-.37-.22-.4-.56-.09-1.12-.17-1.68-.24-.76-.1-1.52-.08-2.28-.07-.15,0-.31-.01-.49-.02-.04-.31.02-.59.03-.87,0-.27.02-.53.03-.8.01-.28.03-.56.05-.88-.12.04-.21.05-.28.08-1.22.57-2.45,1.1-3.63,1.75-.89.5-1.75.44-2.59-.14-1.21-.83-2.42-1.66-3.65-2.47-.35-.23-.48-.54-.51-.93-.04-.55-.06-1.09-.12-1.64-.12-1.3-.26-2.6-.39-3.91-.04-.34-.04-.67,0-1,.03-.23.05-.46.04-.69-.07-1.09-.15-2.19-.24-3.28-.09-1.13-.18-2.26-.27-3.38-.06-.78-.13-1.55-.19-2.33-.02-.19-.03-.39-.03-.58,0-.38.17-.69.48-.9.17-.12.37-.21.55-.31,1.85-.93,3.7-1.85,5.55-2.78.36-.18.71-.39,1.07-.58.14-.07.28-.14.42-.21.19.11.29.29.4.44.94,1.22,1.88,2.44,2.82,3.65.11.14.22.26.36.43.05-.11.1-.17.1-.23.03-.3.07-.6.07-.9,0-2.81,0-5.63,0-8.44,0-.78-.03-1.56-.03-2.33,0-.37-.08-.7-.26-1.01-.2-.35-.41-.7-.62-1.05-.12-.2-.26-.38-.35-.59-.19-.44-.02-.74.45-.78.39-.04.78-.04,1.17-.04,1.66,0,3.32.03,4.99.04.25,0,.5,0,.72.19-.1.22-.21.43-.3.66-.1.23-.18.46-.26.69-.08.22-.17.43-.24.65-.15.42-.22.85-.21,1.3.03,2.62.06,5.23.08,7.85.02,1.68.02,3.36.04,5.04.02,2.09.05,4.17.08,6.26.02,1.27.03,2.55.04,3.82.02,2.12.04,4.24.06,6.37,0,.12.02.24.03.38.11-.02.19-.04.28-.05.33-.03.45.05.54.37.15.54.3,1.09.45,1.64.02.09.06.16.19.2.02-.08.06-.14.05-.2-.05-.31-.12-.62-.18-.94-.1-.54-.2-1.08-.3-1.62-.11-.63-.01-1.23.18-1.83.07-.22.15-.44.25-.64.39-.79.78-1.58,1.19-2.4.15.02.27.05.42.07.05.93-.09,1.83-.09,2.73,0,.89-.14,1.79-.1,2.68.13.01.14-.07.17-.13.23-.52.46-1.03.68-1.56.24-.57.49-1.13.82-1.66.8-1.29,1.88-2.24,3.27-2.84.68-.29,1.37-.57,2.06-.84.06-.02.13-.03.24-.05-.04.25-.17.42-.26.6-.09.17-.18.34-.27.51-.1.19-.2.37-.3.56-.09.17-.18.34-.27.52-.09.18-.19.37-.3.59.25.08.46.15.69.22,0,.18-.13.28-.22.4-1.36,1.77-2.72,3.53-4.08,5.29-.12.15-.22.31-.34.46ZM143.3,39.18c-.05,1.22-.09,2.44-.15,3.66-.05.97-.07,1.94.04,2.91.12,1.06.38,2.08.8,3.07.24.57.43.89,1.27.5.75-.35,1.52-.66,2.29-.99.19-.08.4-.15.59-.23.46-.18.71-.52.75-1,.02-.25.02-.49.02-.74,0-.44-.02-.88-.02-1.33,0-3.08,0-6.15,0-9.23,0-.21-.01-.42-.02-.64,0-.35-.13-.64-.38-.9-.78-.82-1.55-1.65-2.32-2.47-.15-.15-.29-.31-.45-.45-.26-.24-.56-.3-.87-.11-.19.12-.39.25-.55.41-.48.48-.73,1.07-.75,1.76-.07,1.93-.16,3.85-.24,5.78Z"/>
        <path class="cls-1" d="M56.72,32.57c1.43.9,2.88,1.73,4.21,2.72,1,.74,1.72,1.69,1.98,2.92.19.9.33,1.81.46,2.72.35,2.47.35,4.97.42,7.46.03.99.05,1.98.08,2.97,0,.14.01.28.01.42-.03.81-.36,1.46-1.02,1.94-.87.64-1.8,1.19-2.77,1.67-1.6.78-3.28,1.32-5.01,1.68-.73.15-1.41,0-2.03-.4-.33-.21-.64-.44-.95-.67-1.48-1.11-2.96-2.24-4.45-3.35-.75-.56-1.1-1.32-1.14-2.23-.01-.33,0-.67.02-1.01.1-2.07.2-4.13.3-6.2.06-1.43.11-2.86.18-4.29.01-.32.06-.63.13-.94.14-.64.53-1.11,1.1-1.43.11-.06.22-.11.33-.16,2.61-1.22,5.22-2.44,7.83-3.66.1-.04.19-.09.33-.15ZM57.49,47.76c-.05-1.37-.09-2.73-.17-4.09-.06-1.09-.18-2.18-.27-3.28-.09-1.04-.27-2.07-.28-3.12,0-.28-.04-.56-.1-.84-.03-.19-.1-.38-.18-.55-.14-.29-.38-.4-.7-.36-.1.01-.21.03-.31.07-.67.29-1.33.59-1.88,1.07-.47.41-.77.92-.84,1.55-.02.21-.03.42-.02.64,0,.57.03,1.13.04,1.7.06,3.41.13,6.82.19,10.24.01.65,0,1.31.03,1.96.05.93.52,1.63,1.27,2.15.24.17.51.25.81.19.94-.18,1.68-.63,2.14-1.5.23-.43.33-.89.33-1.38-.01-1.49-.03-2.97-.04-4.45Z"/>
        <path class="cls-1" d="M128.47,26.76c.53.4,1.03.77,1.52,1.14,1.63,1.24,3.26,2.49,4.9,3.73.62.47,1,1.09,1.12,1.86.04.3.08.6.07.9-.01.87-.05,1.73-.07,2.6-.03,1.5-.05,3.01-.06,4.51-.02,1.59-.04,3.18-.05,4.77,0,.18,0,.35,0,.53.01.43.21.7.62.81.27.07.56.1.83.15.12.02.24.03.41.05-.03.11-.03.21-.08.29-.28.53-.64,1.02-1.04,1.47-1.06,1.22-2.27,2.28-3.65,3.13-.39.24-.8.45-1.22.63-.25.11-.54.17-.81.24-.16.04-.16.02-.48-.08-.06-.85.11-1.71.07-2.57-.15-.11-.24,0-.34.06-1.02.56-2.04,1.13-3.06,1.7-.17.09-.34.19-.52.27-.18.08-.36.15-.55.19-.54.12-1.02,0-1.4-.42-.18-.19-.33-.42-.47-.64-1.02-1.69-1.75-3.5-2.24-5.42-.24-.96-.5-1.92-.74-2.88-.08-.33-.15-.65-.07-1,.08-.36.25-.66.53-.89.1-.08.2-.15.3-.22,1.52-1.08,3.12-2.02,4.82-2.77.66-.29,1.33-.58,1.99-.87.09-.04.19-.07.28-.11.11.1.04.19,0,.25-.1.12-.21.24-.32.35-1.09.99-1.63,2.25-1.7,3.71-.07,1.29.15,2.54.58,3.75.35.98.76,1.94,1.13,2.92.09.23.24.33.47.37.13.02.25,0,.34-.1.06-.07.12-.13.18-.19.84-.88.71-.88.72-1.78.02-3.61.04-7.21.05-10.82,0-1.49,0-2.97-.01-4.46,0-.14,0-.28,0-.44-.19-.16-.38-.32-.56-.48-.06.02-.12.02-.17.05-.75.43-1.52.84-2.25,1.29-.6.37-1.13.84-1.63,1.35-.21.21-.33.45-.38.74-.08.42-.09.84.02,1.26.07.26.13.51.2.76-.06.18-.21.19-.34.23-.77.24-1.3.08-1.77-.56-.43-.58-.88-1.15-1.41-1.66-.42-.41-.65-.92-.7-1.51-.03-.35-.02-.71-.02-1.06,0-.6.31-1.04.75-1.4.15-.12.32-.23.48-.33,1.07-.63,2.13-1.25,3.2-1.88.74-.44,1.48-.89,2.23-1.34.09-.05.18-.11.3-.18Z"/>
        <path class="cls-1" d="M61.39,31.83c.06-.04.11-.08.17-.11,3.07-1.58,5.71-3.72,8.05-6.24.86-.93,1.67-1.92,2.51-2.88.08-.09.17-.17.26-.25,0,0,.03,0,.09.01.06.15.03.33.03.49,0,2.03,0,4.07,0,6.1,0,.19,0,.38.01.6.15.02.27.05.39.05.62-.01,1.24-.03,1.86-.04.37,0,.74,0,1.13,0,.04.1.1.19.12.29.08.52.14,1.05.21,1.58,0,.07.01.14,0,.21-.03.32-.21.51-.53.56-.58.09-1.16.07-1.75.03-.19-.01-.39,0-.58.02-.29.04-.49.21-.54.51-.04.26-.07.53-.08.79-.02,1.41-.02,2.83-.06,4.24-.08,3.06-.18,6.12-.26,9.17-.1,3.41-.18,6.82-.29,10.23-.02.59.14,1.11.47,1.59.3.42.66.78,1.04,1.13.31.29.64.56.96.84.08.07.17.13.21.15,0,.2-.08.23-.17.22-.09,0-.17-.04-.25-.07-2.19-.79-4.39-1.58-6.58-2.38-.1-.04-.2-.08-.3-.12-.84-.34-1.16-.95-1.11-1.74.11-1.66.03-3.32.07-4.98.07-2.86.08-5.73.13-8.59.03-2,.07-4,.11-5.99.03-1.26.07-2.51.1-3.77,0-.26,0-.53-.02-.79-.04-.39-.21-.57-.6-.63-.3-.05-.6-.07-.9-.07-1.11-.02-2.23-.02-3.34-.04-.17,0-.35-.02-.52-.03l-.03-.09Z"/>
      </g>
      <g>
        <path class="cls-1" d="M115.92,68.87l-.54,4.58-2.66,1.43h-.07l-6.03.1c.9-.28,1.35-.77,1.35-1.48l-.12-12.28c-.07-.57-.37-.98-.91-1.23l3.57-1.5.05-.17,2.61-.98,2.76,3.67-.54,5.07-1.33.74,1.87,2.07ZM110.48,59.42l.15,5.66,1.9.89.48-.64-.3-6.72-2.24.82ZM110.63,73.89l1.9-.54.49-.64-.27-5.39-2.21-1.13.1,7.7Z"/>
        <path class="cls-1" d="M122.83,70.29c.08.41-.37.87-1.35,1.38-.82.43-1.49.67-2.02.74l-.44-.07c-1.66-1.28-2.53-2.1-2.63-2.46-.03-.77.04-2.67.22-5.71,1.13-.82,2.3-1.44,3.52-1.87l1.75,1.21.2.32c.36.34.57,1.08.64,2.21.03.57.07,1.99.12,4.26ZM120.47,70.88c0-4.28-.16-6.81-.47-7.6l-.79.47c-.28.21-.46.43-.54.66l.12,6.47c.11.33.34.57.66.71.49-.15.83-.39,1.01-.71Z"/>
        <path class="cls-1" d="M129.92,70.29c.08.41-.37.87-1.35,1.38-.82.43-1.49.67-2.02.74l-.44-.07c-1.66-1.28-2.53-2.1-2.63-2.46-.03-.77.04-2.67.22-5.71,1.13-.82,2.3-1.44,3.52-1.87l1.75,1.21.2.32c.36.34.57,1.08.64,2.21.03.57.07,1.99.12,4.26ZM127.56,70.88c0-4.28-.16-6.81-.47-7.6l-.79.47c-.28.21-.46.43-.54.66l.12,6.47c.11.33.34.57.66.71.49-.15.83-.39,1.01-.71Z"/>
        <path class="cls-1" d="M140.13,61.46c-.11.05-.26.13-.44.25l-.61.71-2.68,2.98,2.19,6.3c.2.54.6.96,1.21,1.25h-3c0-.08.04-.22.12-.42.08-.2.12-.34.12-.44-.03-.13-.11-.37-.23-.71l-1.57-4.82-2.26,2.39v3.27c0,.62.46,1.26,1.38,1.92.46.25.92.5,1.38.76-.74-.02-1.74-.31-3-.87-1.26-.57-2.01-.85-2.24-.85-.2,0-.41.02-.64.07l.54-.34c.36-.21.54-.44.54-.69l.2-15.13c0-.1-.08-.23-.23-.38-.16-.16-.24-.26-.26-.31h2.98c-.15.15-.3.38-.47.69l-.3,10.15,4.29-4.91c.09-.12.14-.21.14-.27,0-.16-.43-.45-1.3-.84-.12-.02-.25-.07-.39-.15l4.55.39Z"/>
        <path class="cls-1" d="M144.6,70.64c-.13.1-.66.5-1.57,1.21-1.03.79-1.71,1.18-2.04,1.18-.05,0-.08-.02-.1-.05l-1.65-2.02c-.21-.48-.32-.8-.32-.98,0-.2.12-.37.37-.52l.49-.3,1.08-.25c-.13.13-.2.3-.2.49,0,.07.02.21.06.43.04.22.05.37.04.46.05.2.27.45.66.75.39.3.67.43.85.38,0-.18.15-.47.46-.86l-.1.02c.07-.05.1-.12.1-.22,0-.21-.64-1.06-1.91-2.53-1.27-1.47-1.91-2.27-1.91-2.41,0-.08.03-.14.1-.17l.22-.25c.13-.1.65-.5,1.56-1.21,1.02-.79,1.7-1.18,2.03-1.18.05,0,.08.02.1.05l1.63,2.03c.21.48.32.81.32.99,0,.2-.12.37-.37.52l-1.77.4v-.1c.16-.13.25-.3.25-.52,0-.08-.02-.24-.06-.47-.04-.23-.05-.39-.04-.49-.05-.2-.2-.38-.46-.55-.25-.17-.49-.26-.7-.26-.18,0-.36.11-.54.32-.18.21-.27.42-.27.62,0,.11.03.21.1.3.51.66,1.37,1.64,2.58,2.95.85.92,1.28,1.53,1.28,1.82,0,.11-.04.21-.12.27l-.15.02v.12Z"/>
      </g>
    </g>
  </g>
</svg>