<?xml version="1.0" encoding="UTF-8"?>
<svg id="Layer_2" data-name="Layer 2" xmlns="http://www.w3.org/2000/svg" viewBox="0 0 123.42 64.03">
  <defs>
    <style>
      .cls-1 {
        fill: #8a5fb1;
      }
    </style>
  </defs>
  <g id="Layer_4" data-name="Layer 4">
    <g>
      <path class="cls-1" d="M41.96,20.65c.24.02.47.07.69.16.2.06.37.21.45.4.16.28.27.59.33.91.11.48.19.91.31,1.69.24,1.53.49,3.05.76,4.57.02.23.11.45.26.64.08.13.22.22.38.22.15,0,.28-.07.35-.2.11-.16.15-.32.15-.64.02-1.67.04-3.35.15-5.02.06-.91.06-1.22.48-1.63.42-.41,1.08-.17,1.62-.13.42.06.84.16,1.24.3.32.11.51.2.71.44.2.24.25.33.29.69.04.34.04.68,0,1.02-.3,4.37-.41,8.74-.64,13.11,0,.39-.05.77-.14,1.15-.09.4-.15.47-.37.72-.22.25-.41.32-.74.45-.41.14-.82.24-1.24.32-.37.07-.91.16-1.24.19-.26.04-.53,0-.78-.09-.23-.09-.32-.21-.45-.44-.13-.27-.22-.55-.27-.85-.11-.56-.26-1.4-.38-1.91-.1-.41-.23-.82-.38-1.21-.14-.34-.23-.45-.4-.58-.13-.11-.29-.15-.46-.12-.17,0-.33.06-.44.19-.15.16-.23.29-.34.66-.11.43-.2.87-.26,1.31-.08.54-.15,1.43-.22,2.02-.03.31-.11.62-.22.9-.08.22-.23.41-.43.53-.24.14-.51.23-.79.26-.42.04-.85.06-1.28.05-.41,0-.82-.04-1.22-.11-.33-.07-.54-.11-.79-.3-.23-.14-.39-.36-.45-.62-.13-.37-.16-.51-.24-1.15-.67-5.57-1.35-11.13-2.01-16.69-.06-.53-.07-.67-.04-.99.03-.32.07-.38.26-.54.19-.16.38-.2.68-.24.4-.05.8-.05,1.2-.02.53.06,1.16-.01,1.59.46.43.47.43.77.56,1.73.24,1.88.44,3.77.67,5.65.05.38.1.56.24.76.14.2.24.26.38.27.15.01.24-.04.35-.21.11-.17.17-.33.18-.68.08-1.58.16-3.17.27-4.75.03-.55.1-1.09.19-1.63.08-.45.13-.57.27-.81.14-.24.24-.23.45-.27.24-.02.49,0,.73.04h0Z"/>
      <path class="cls-1" d="M55.38,38.32c-.57.11-1.15.05-1.69-.16-.57-.21-1.05-.6-1.38-1.11-.42-.6-.72-1.28-.97-2.24-.27-1.13-.43-2.29-.46-3.45-.03-.9.04-2,.26-2.81.22-.8.5-1.44.92-1.97.37-.49.87-.85,1.45-1.05.57-.2,1.19-.25,1.79-.16.63.09,1.24.32,1.78.66.56.34,1.05.78,1.44,1.31.41.53.73,1.12.96,1.76.23.67.35,1.37.35,2.08,0,.91-.12,1.81-.36,2.68-.21.78-.54,1.54-.96,2.23-.35.61-.83,1.13-1.41,1.54-.5.37-1.09.61-1.71.7h0ZM55.36,30.82c.31,0,.62-.14.83-.37.23-.23.35-.55.34-.87,0-.36-.12-.71-.36-.99-.21-.26-.52-.43-.85-.46-.32-.03-.64.09-.86.33-.24.28-.37.65-.34,1.02,0,.36.14.7.38.95.22.24.53.38.86.38h0Z"/>
      <path class="cls-1" d="M64.73,38.13c-.63-.09-1.24-.35-1.75-.73-.57-.39-1.04-.91-1.4-1.49-.41-.66-.71-1.37-.91-2.11-.22-.85-.33-1.73-.33-2.61,0-.68.12-1.36.37-2,.22-.56.56-1.08.98-1.52.41-.42.9-.75,1.45-.96.56-.22,1.15-.32,1.75-.3.6,0,1.19.15,1.72.43.54.29,1.02.69,1.4,1.17.41.52.72,1.1.94,1.72.23.68.34,1.39.34,2.1,0,.9-.13,1.8-.37,2.67-.21.75-.54,1.46-.98,2.1-.35.55-.86.99-1.44,1.28-.54.27-1.15.36-1.76.26ZM64.84,31.07c.3.03.6-.05.83-.23.22-.17.36-.43.35-.71.01-.32-.11-.62-.33-.85-.22-.23-.51-.36-.83-.37-.31-.01-.61.09-.85.29-.24.19-.38.47-.37.78,0,.29.13.56.35.74.23.21.53.33.85.35h0Z"/>
      <path class="cls-1" d="M74.43,40.08c-.6-.15-1.35-.4-1.93-.87-.59-.46-1.07-1.05-1.38-1.73-.39-.79-.66-1.64-.81-2.51-.18-1-.27-2.02-.26-3.03,0-.68.12-1.36.33-2,.21-.59.5-1.13.88-1.63.35-.46.8-.85,1.31-1.13.49-.27,1.04-.41,1.6-.41.24.01.49.07.71.17.23.1.45.23.64.4,0-.29,0-.83,0-1.1,0-.36.01-.72.05-1.08.04-.32.07-.45.22-.64.13-.16.32-.26.53-.27.23-.03.67-.11.91-.05.42.1.98-.23,1.29.37.31.6.26.78.26,1.82,0,3.07,0,6.14-.01,9.21.02.8-.05,1.6-.19,2.39-.15.81-.28,1.11-.68,1.59-.4.48-.75.59-1.35.68-.6.09-1.43,0-2.13-.18h0ZM74.12,32.01c.31.04.62-.06.85-.27.24-.22.38-.53.37-.86,0-.37-.12-.73-.36-1.02-.21-.26-.51-.43-.84-.45-.31-.02-.62.1-.83.33-.23.25-.36.59-.35.93,0,.33.12.65.34.89.21.25.5.41.83.44Z"/>
      <path class="cls-1" d="M84.45,31.2c-.04-.2-.08-.41-.21-.55-.12-.14-.29-.21-.47-.22-.17-.02-.34.06-.44.21-.13.16-.18.37-.16.57,0,.26.12.52.31.7.24.24.72.5,1.07.63.82.3,1.99,1.03,2.57,1.71s.74,1.46.78,2.17c.05,1,.01,2.01-.11,3-.1.88-.2,1.22-.57,1.74-.38.51-.7.55-1.27.61-.57.06-1.49-.06-2.11-.15-.7-.1-1.7-.29-2.3-.51s-.9-.35-1.28-.91c-.38-.56-.41-.92-.51-1.69-.1-.76-.08-1.85-.08-2.6,0-.18,0-.37.05-.55.05-.16.08-.23.23-.28.17-.06.35-.08.54-.06.22,0,.69.06.93.09.44.06,1.05.12,1.4.32.35.2.29.42.35.79.03.24.04.44.19.62.12.16.31.26.51.28.17.03.35-.05.43-.2.1-.18.18-.3.16-.56-.07-.61-.29-.86-.76-1.14-.47-.28-1.08-.59-1.62-.89-.59-.33-1.13-.73-1.62-1.19-.49-.48-.73-1.21-.73-1.9-.02-.66.04-1.32.16-1.96.13-.61.26-.95.62-1.37.37-.42.72-.59,1.25-.76.54-.17,1.39-.22,1.98-.21.6,0,1.39.07,1.9.22s.82.31,1.15.72c.33.42.44.76.56,1.37.12.68.17,1.37.15,2.06,0,.31.03.58-.27.74-.3.16-.93.12-1.33.09-.32-.02-.84-.03-1.12-.21-.28-.18-.26-.43-.33-.76h0Z"/>
      <path class="cls-1" d="M90.15,37.15c0-.6-.02-1.51-.04-1.99,0-.37-.04-.74-.1-1.1-.06-.31-.08-.35-.23-.48-.14-.13-.26-.08-.43-.12-.17-.03-.42,0-.6-.12-.19-.09-.33-.26-.38-.47-.11-.33-.17-.67-.19-1.02-.04-.43-.06-1.28-.06-1.75-.01-.78,0-1.89.28-2.5.28-.61.59-.54.96-.64.21-.05.37.01.53-.16s.14-.39.15-.67c0-.33,0-.66.04-.98.04-.28.06-.44.22-.62.13-.16.32-.26.52-.29.31-.05.62-.08.93-.07.31,0,.62.02.93.07.21.02.39.12.53.28.16.18.18.32.23.61.05.28.03.67.06.97s.01.5.23.66c.21.15.51.09.78.12.43.04.92-.05,1.26.55.34.61.35,1.64.38,2.43.02.51,0,1.38-.03,1.84-.02.37-.09.74-.22,1.08-.07.22-.23.41-.44.49-.21.11-.52.1-.71.13-.32.05-.69-.05-.93.23-.24.27-.18.84-.17,1.24,0,.4-.02,1.05.23,1.37.25.32.66.26.99.27.18,0,.51-.01.7.05.19.06.31.09.44.31s.18.41.23.78c.05.47.07.93.08,1.4,0,.46.02,1.13-.05,1.58-.08.45-.11.66-.37.94-.26.28-.49.37-.91.45-.54.1-1.08.16-1.63.19-.5.02-1.23.03-1.69-.07-.45-.11-.69-.17-.99-.66-.3-.49-.35-.87-.43-1.6-.08-.74-.1-1.94-.11-2.73h0Z"/>
      <path class="cls-1" d="M101.15,41.96c-.6.04-1.2-.1-1.72-.4-.57-.33-1-.73-1.44-1.49-.47-.83-.8-1.72-1-2.65-.27-1.22-.41-2.46-.41-3.71-.02-1.01.08-2.01.3-2.99.18-.81.49-1.59.91-2.31.34-.6.82-1.1,1.39-1.48.51-.34,1.11-.53,1.72-.55.6-.03,1.2.12,1.72.41.58.32,1.07.78,1.42,1.35.45.7.78,1.47.97,2.28.24.91.36,2.14.38,3.14.04,1.29-.06,2.58-.3,3.85-.21,1.08-.49,1.85-.9,2.56-.32.6-.79,1.1-1.36,1.45-.51.33-1.09.51-1.69.53h0ZM101.02,33.09c.32,0,.59-.17.81-.5.23-.35.34-.76.32-1.18.01-.45-.11-.89-.36-1.26-.24-.32-.51-.47-.83-.46-.32.01-.6.19-.83.53-.24.38-.36.83-.33,1.28,0,.41.13.82.38,1.15.23.31.52.46.83.46h0Z"/>
      <path class="cls-1" d="M110.69,26.29c.54-.02,1.07,0,1.6.08.35.03.67.18.93.41.27.24.33.45.42.84.08.45.11.91.1,1.36-.02.72.01,1.5-.34,2.02-.35.52-.86.45-1.34.47-.48.02-1.11.11-1.5.61-.39.5-.52,1.17-.51,1.9.01.84.06,1.5.49,2.06.43.55,1.07.59,1.62.68.48.08,1.06.15,1.44.73.38.58.41,1.3.42,2,.02.44-.02.89-.12,1.32-.1.37-.18.56-.48.76-.29.2-.56.27-1,.29-.55.03-1.11.02-1.66-.03-1.44-.15-2.94-.62-3.74-1.95-.97-1.62-1.16-3.67-1.18-5.52-.02-1.96.16-4.13,1.08-5.89.74-1.43,2.24-2.06,3.77-2.16h0Z"/>
      <path class="cls-1" d="M114.88,40.26c-.02-4.7,0-9.41,0-14.11-.01-.41,0-.83.06-1.24.05-.38.09-.44.24-.63.16-.19.28-.2.51-.26.27-.04.55-.06.83-.05.28,0,.55,0,.82.05.23.04.35.07.51.24.16.18.19.29.24.61.05.41.07.82.06,1.22v2.31c-.02.41.01.82.09,1.22.07.32.08.41.24.43.16.03.21-.07.38-.29.16-.22.34-.75.46-1.18.05-.16.2-.69.26-.87.08-.3.18-.59.31-.88.11-.24.16-.33.34-.45.16-.11.35-.17.55-.16.31-.02.62-.03.93-.01.43.04,1.05-.07,1.37.34.32.41.24.6.07,1.33-.42,1.76-.86,3.52-1.25,5.28-.13.57-.18.78-.18,1.33,0,.46.05.92.14,1.37.42,2.35.88,4.69,1.45,7.01.16.66.23.76-.13.93-.35.16-1.04-.13-1.51-.23-.29-.06-.84-.23-1.1-.31-.23-.06-.45-.16-.65-.3-.15-.09-.26-.24-.32-.41-.08-.21-.13-.44-.16-.66-.07-.41-.18-1.26-.23-1.68-.03-.33-.11-.65-.23-.95-.12-.27-.18-.35-.34-.39-.16-.04-.23.07-.33.27-.1.2-.15.55-.15.86v.93c-.01.58.02,1.28-.29,1.51-.31.23-.8.14-1.16.04-.47-.13-1.08,0-1.45-.51-.38-.51-.34-.59-.35-1.7Z"/>
      <path class="cls-1" d="M39.8,43.51c.65-.32,1.33-.55,2.03-.69.51-.09.91-.04,1.18.13.27.16.45.46.54.86.1.5.16,1.01.16,1.52.03,1.09-.1,1.84-.38,2.24-.27.41-.85.7-1.7.91-.85.22-1.49.63-1.92,1.18-.43.55-.63,1.25-.61,2.1.02.97.23,1.59.64,1.88.41.29,1.1.36,2.09.23.88-.13,1.5,0,1.87.38.36.38.56,1.13.59,2.24.03.64,0,1.28-.1,1.91-.06.45-.26.88-.56,1.22-.28.3-.7.51-1.24.63s-1.28.16-2.16.18c-1.73.03-3.75-.52-4.9-1.85-1.15-1.33-1.37-3.05-1.41-4.72-.04-1.91.47-3.99,1.31-5.75.93-1.93,2.6-3.69,4.58-4.6h0Z"/>
      <path class="cls-1" d="M47.57,45.47c.28-1.4.64-2.4,1.06-2.96.42-.56,1.09-.92,1.99-1.01.38-.05.77-.03,1.14.06.31.09.6.26.81.51.27.32.48.7.6,1.1.2.59.37,1.18.5,1.79.96,4.19,1.85,8.4,2.76,12.61.11.48.2.97.26,1.47.04.35-.01.61-.15.78-.14.17-.37.27-.71.3-.34.03-.81.04-1.41.05-.37,0-.66,0-.89-.03-.19,0-.38-.07-.53-.18-.15-.13-.27-.3-.34-.49-.09-.22-.19-.53-.3-.91-.23-.84-.49-1.46-.78-1.87-.29-.41-.59-.6-.89-.6-.3,0-.59.22-.88.64-.29.41-.54,1.04-.75,1.87-.08.3-.17.6-.27.88-.07.18-.18.35-.32.48-.14.11-.31.18-.5.19-.2.02-.47.03-.8.03-.67,0-1.18-.01-1.54-.03-.36-.02-.61-.11-.74-.27-.14-.15-.19-.39-.16-.7s.1-.77.21-1.35c.85-4.12,1.76-8.22,2.62-12.34h0ZM50.72,51.77c.41-.02.77-.22,1.07-.62.31-.4.47-.9.46-1.4,0-.61-.15-1.11-.45-1.49-.3-.38-.67-.55-1.08-.52-.42.03-.76.26-1.05.67-.3.45-.46.99-.43,1.53-.01.48.14.95.45,1.33.29.35.64.52,1.04.5h0Z"/>
      <path class="cls-1" d="M57.23,57.32c.01-4.47.15-8.94.18-13.4,0-1.03.17-1.76.51-2.18.34-.42,1.01-.64,1.99-.64.66,0,1.16.13,1.48.38.32.26.54.66.65,1.21.26,1.29.51,2.59.75,3.89.04.26.17.5.37.68.14.13.33.18.51.16.2-.04.36-.17.46-.34.15-.24.22-.53.22-.81.03-.92.04-1.39.05-2.34,0-.57.03-1.05.06-1.42.01-.3.1-.6.26-.87.15-.21.37-.35.63-.4.38-.07.77-.09,1.15-.05.88.06,1.43.3,1.67.68.24.38.35,1.18.33,2.33-.11,4.36-.34,8.72-.44,13.08-.02,1.03-.16,1.79-.43,2.21-.28.43-.79.65-1.54.65s-1.36-.13-1.74-.39c-.38-.27-.64-.67-.74-1.22-.26-1.32-.51-2.64-.75-3.96-.04-.26-.17-.51-.36-.69-.13-.13-.32-.19-.5-.16-.19.05-.36.18-.45.36-.14.25-.22.53-.21.82-.02.95-.03,1.43-.04,2.41,0,1.17-.11,1.95-.34,2.31-.23.36-.72.53-1.48.54-.39,0-.78-.03-1.16-.11-.27-.06-.51-.2-.68-.41-.18-.26-.29-.55-.31-.87-.06-.47-.09-.95-.08-1.42h0Z"/>
      <path class="cls-1" d="M69.14,57.28c.1-4.32.32-8.64.43-12.96.02-1.02.19-1.73.52-2.11.33-.37.97-.5,1.9-.33.62.11,1.09.33,1.39.64.33.37.54.82.6,1.3.23,1.26.45,2.52.69,3.79.05.26.17.49.35.67.13.13.31.21.49.22.18,0,.34-.09.44-.24.14-.2.21-.45.21-.7.02-.83.03-1.25.05-2.14.01-.53.03-.98.07-1.33,0-.28.09-.55.24-.79.15-.18.37-.28.6-.28.37,0,.74.04,1.1.13.84.18,1.37.47,1.6.85.23.38.34,1.15.33,2.18-.06,3.76-.18,7.52-.24,11.29-.01.94-.15,1.65-.43,2.05-.28.41-.79.62-1.54.62s-1.35-.13-1.73-.39c-.38-.26-.62-.66-.73-1.19-.24-1.24-.48-2.49-.73-3.73-.05-.25-.17-.48-.35-.66-.13-.13-.31-.19-.5-.17-.19.03-.35.15-.45.31-.14.22-.22.49-.21.75-.03.89-.04,1.34-.05,2.28-.02,1.12-.14,1.9-.37,2.26-.23.36-.73.54-1.49.54-.39,0-.78-.03-1.16-.12-.27-.06-.5-.21-.67-.43-.18-.26-.28-.57-.3-.88-.05-.47-.07-.95-.05-1.43h0Z"/>
      <path class="cls-1" d="M83.62,47.59c.3-1.15.66-1.99,1.08-2.41.42-.42,1.05-.58,1.89-.47.37.04.73.14,1.07.28.29.14.55.35.75.61.24.32.42.69.54,1.07.15.44.3.97.45,1.56.86,3.19,1.92,6.31,2.74,9.5.11.43.18.87.23,1.32.03.33-.03.58-.17.75s-.38.27-.72.3c-.34.03-.81.05-1.41.05-.37,0-.67,0-.89-.03-.19,0-.38-.07-.53-.18-.15-.13-.26-.29-.32-.47-.08-.22-.18-.51-.28-.86-.21-.78-.46-1.31-.74-1.66-.28-.35-.57-.52-.86-.53-.29,0-.59.16-.88.51-.29.35-.56.89-.79,1.67-.08.29-.18.57-.3.85-.07.18-.19.35-.33.48-.14.11-.32.18-.5.2-.2.02-.47.03-.81.03-.67,0-1.18-.01-1.54-.05-.36-.03-.6-.13-.73-.3-.13-.17-.17-.42-.13-.76.05-.33.14-.8.27-1.37.87-3.4,1.96-6.72,2.91-10.1h0ZM86.53,53.07c.38.03.76-.1,1.05-.36.28-.24.45-.6.44-.97.01-.42-.14-.83-.43-1.13-.26-.3-.63-.49-1.03-.53-.38-.04-.75.09-1.01.36-.58.6-.59,1.55-.03,2.17.26.28.62.45,1.01.47h0Z"/>
      <path class="cls-1" d="M97.99,44.43c1.02-.06,1.86,0,2.51.19.58.14,1.1.44,1.51.87.37.41.61.92.72,1.46.13.64.18,1.29.16,1.94-.03.99-.21,1.68-.53,2.15-.29.45-.75.75-1.27.85.51.08.98.38,1.4.89.41.51.6,1.19.58,2.04-.02.83-.13,1.66-.35,2.45-.17.66-.49,1.26-.94,1.77-.46.49-1.04.86-1.69,1.05-.83.24-1.69.35-2.56.34-.99,0-1.81-.1-2.45-.3-.57-.16-1.09-.47-1.51-.89-.37-.4-.63-.88-.77-1.4-.15-.57-.22-1.16-.21-1.75.01-2.44.02-4.88.03-7.32,0-.62.08-1.23.24-1.82.14-.51.43-.96.82-1.31.48-.4,1.05-.68,1.66-.82.87-.21,1.76-.33,2.65-.37h0ZM97.77,50.82c.34,0,.67-.16.9-.41.25-.25.39-.59.39-.95.03-.38-.1-.76-.34-1.05-.21-.26-.54-.4-.88-.38-.36.03-.69.2-.92.48-.27.3-.41.68-.41,1.08-.02.34.12.66.37.89.24.23.56.35.89.34h0ZM97.66,55.78c.34,0,.66-.15.88-.4.24-.26.38-.6.38-.95.03-.37-.09-.73-.34-1-.22-.24-.54-.38-.87-.37-.34,0-.67.15-.9.39-.27.26-.41.62-.4.99-.01.35.12.69.37.94.22.26.54.4.88.4h0Z"/>
      <path class="cls-1" d="M103.89,57.5c.02-.51.02-.76.04-1.24.02-.55.04-.97.08-1.26.01-.23.08-.46.19-.66.09-.14.24-.24.41-.26.24-.04.49-.05.74-.04.46,0,.76-.12.88-.38.12-.26.2-.85.22-1.77.02-.7-.01-1.17-.11-1.41-.1-.24-.37-.37-.81-.37-.55,0-.92-.16-1.1-.47-.18-.32-.26-.89-.23-1.77.01-.49.02-.74.04-1.26,0-.38.04-.76.09-1.14.02-.25.13-.48.29-.67.19-.17.43-.26.68-.27.41-.04.83-.05,1.24-.04,1.33.02,2.67.09,4,.21.41.03.82.09,1.22.17.24.04.47.16.65.33.15.18.23.41.24.64.03.36.04.72.02,1.07-.01.49-.02.74-.03,1.22-.03.96-.11,1.55-.26,1.81-.15.26-.51.37-1.09.33-.43-.03-.71.08-.82.32-.11.24-.18.71-.2,1.41-.03.91,0,1.5.11,1.78.1.28.37.43.8.45.24,0,.47.04.7.09.16.04.3.15.38.3.1.21.15.44.15.67.02.3.02.71,0,1.25-.01.47-.02.71-.03,1.19,0,.45-.04.89-.09,1.33-.02.27-.12.53-.29.75-.18.18-.42.3-.68.31-.42.05-.83.06-1.24.06h-4.05c-.42,0-.83-.03-1.24-.08-.26-.02-.5-.15-.66-.35-.16-.25-.24-.53-.24-.82-.01-.36-.01-.84,0-1.42h0Z"/>
      <path class="cls-1" d="M119.2,50.26c-.02-.22-.11-.43-.24-.6-.14-.16-.33-.28-.54-.31-.19-.05-.4,0-.54.14-.14.15-.21.35-.2.55,0,.3.13.58.34.79.22.24.64.51,1.28.81,1.09.59,2.26,1.17,3.08,2.12.58.68.88,1.37.88,2.06.02.83-.04,1.65-.17,2.46-.11.6-.34,1.03-.69,1.32-.35.28-.85.46-1.51.53-.86.07-1.73.1-2.6.09-.95,0-1.89-.03-2.84-.13-.69-.08-1.19-.3-1.51-.66-.32-.35-.51-.89-.56-1.58-.05-.68-.06-1.62-.03-2.75,0-.2.03-.41.08-.6.04-.15.15-.27.28-.33.2-.08.42-.12.64-.1.28,0,.67.02,1.15.07.89.08,1.45.2,1.7.33.25.14.38.39.37.78-.01.22.06.44.2.61.16.16.38.26.62.27.2.03.4-.04.53-.18.13-.14.21-.33.2-.53,0-.46-.29-.84-.88-1.14-.59-.3-1.24-.63-1.94-.98-.7-.34-1.35-.78-1.93-1.29-.58-.52-.86-1.24-.84-2.21,0-.76.09-1.51.26-2.26.15-.62.41-1.11.77-1.45.36-.34.86-.54,1.49-.58.62-.04,1.42.06,2.38.33.79.21,1.55.51,2.27.89.51.27.96.64,1.33,1.1.31.41.52.89.62,1.39.12.63.17,1.26.16,1.9,0,.14-.01.28-.05.41-.04.1-.14.17-.24.18-.19.03-.39.02-.57-.02-.26-.04-.6-.11-1.02-.21-.7-.15-1.14-.29-1.34-.43-.2-.14-.32-.41-.37-.8h0Z"/>
      <path class="cls-1" d="M7.76,34.76s1.07-2.98-.75-5.86c-1.82-2.88-5.29-8.02-4.24-8.24-1.56-2.04-3.09-10.46-1.76-9.02.5-2.63,1.66-4.29,2.11-7.93.09-.74-.29-3.29.6-3.47.89-.18,3.9,8.79,4.62,10.73.55-1.35,1.66-.84,2.57,5.51.64-1.59,1.46,3.08,1.38,4.4-.07,1.32,1.12,8.68,1.53,8.53.41-.15.79-13.29,2.19-11.33-.32-3.49,3.18-8.9,3.05-6.78.17-3.69,4.34-5.59,5.31-8.85.96-3.27,2.98-3.9,2.6,2.1-.38,6-.31,6.49-.6,6.96.64-1.35,1.26,1.28-.36,7.09,1.03-1.3,1.46,1.24-1.89,7.01,0,0,1.58-.05-.8,2.24-2.38,2.29-4.62,4.14-4.74,5.05-.18,1.42-3.81-1.22-10.82,1.87h0Z"/>
      <path class="cls-1" d="M18.54,34.33s-2.44,0-3.75-.09c-1.31-.09-11.32-.06-14.79,9.41,1.02,3.96,7.67,7.83,7.67,7.83,0,0-3.58,4.81-4.64,5.47,2.12.2,8.23-3.26,8.47-4.21-1.32-.98-1.47-.82-1.45-1.4.86-.79,3.27-2.27,3.27-2.27,0,0-1.41-6.04-5.43-6.02,3.16.05,7.54-2.76,7.99-3.76-1.41.33-1.6.16-1.6.16,0,0,2.34-3.13,4.26-4.93"/>
      <path class="cls-1" d="M24.17,31.92s-2.28-.97-4.18,2.81c-1.91,3.78-6.19,11.85-6.19,11.85h.59s-.64,2.37-.64,2.37c0,0,4.41-.51,6.98-3.72.03,1.03.03,1.23.03,1.23,0,0,2.01-3.28,2.77-3.4.1.48-1.65,3.62-2.25,4.03.59.1,1.1-.31,1.1-.31,0,0-3.01,4.32-4.24,4.99,1.53.32,4.5-.87,5.94-2.38-.16.97,3.07-1.94,4.51-6.1.28-1.11.8.52.8.52,1.6-1.28.39-6.03-1.49-8.28s-.31,3.73-4.21,6.34c1.3-3.03,3.64-8.07.48-9.95h0Z"/>
      <path class="cls-1" d="M28.83,44.33s-.45,3.07-4.2,6.04c-3.75,2.97-8.24,2.35-8.42,2.12-.17-.23,3.96-4.69,4.43-5.04-2.29.99-7.55,3.19-8.83,4.4-.39.3.24.57.83.73-.58.67-1.67,1.56-1.67,1.56.94,1.45.31,8.43.13,8.94-.19.51,1.64,1.77,4.97.11l.1-1.04-.66-.09.51-.98s-1.36-5.2-.64-5.67c2.52,1.58,9.48,3.96,10.83,3.81-.44-2.1-1.39-3.9-1.93-4.63-.54-.72,8.21-7.6,4.55-10.28h0Z"/>
    </g>
  </g>
</svg>